<svg width="26" height="26" viewBox="0 0 26 26" fill="none" xmlns="http://www.w3.org/2000/svg">
<path d="M6.4999 9.10002C7.93584 9.10002 9.0999 7.93596 9.0999 6.50002C9.0999 5.06408 7.93584 3.90002 6.4999 3.90002C5.06396 3.90002 3.8999 5.06408 3.8999 6.50002C3.8999 7.93596 5.06396 9.10002 6.4999 9.10002Z" fill="#E64848"/>
<path d="M23.4 14.3V3.679C23.4 1.651 21.749 0 19.721 0C18.746 0 17.81 0.39 17.121 1.079L15.496 2.704C15.288 2.639 15.067 2.6 14.833 2.6C14.313 2.6 13.832 2.756 13.429 3.016L17.017 6.604C17.277 6.201 17.433 5.72 17.433 5.2C17.433 4.966 17.394 4.758 17.342 4.537L18.967 2.912C19.162 2.717 19.435 2.6 19.721 2.6C20.319 2.6 20.8 3.081 20.8 3.679V14.3H11.895C11.505 14.027 11.154 13.715 10.829 13.364L9.009 11.349C8.762 11.076 8.45 10.855 8.112 10.699C7.709 10.504 7.267 10.4 6.812 10.4C5.2 10.413 3.9 11.713 3.9 13.325V14.3H0V22.1C0 23.53 1.17 24.7 2.6 24.7C2.6 25.415 3.185 26 3.9 26H22.1C22.815 26 23.4 25.415 23.4 24.7C24.83 24.7 26 23.53 26 22.1V14.3H23.4Z" fill="#E64848"/>
</svg>
