<svg width="12" height="22" viewBox="0 0 12 22" fill="none" xmlns="http://www.w3.org/2000/svg">
<path d="M6.45972 9.65555C3.78389 8.93444 2.92338 8.18889 2.92338 7.02778C2.92338 5.69556 4.11395 4.76667 6.10609 4.76667C8.20432 4.76667 8.98232 5.80556 9.05304 7.33333H11.6582C11.5756 5.23111 10.3379 3.3 7.87426 2.67667V0H4.33792V2.64C2.05108 3.15333 0.212181 4.69333 0.212181 7.05222C0.212181 9.87556 2.46365 11.2811 5.75246 12.1C8.69941 12.8333 9.2888 13.9089 9.2888 15.0456C9.2888 15.8889 8.7112 17.2333 6.10609 17.2333C3.6778 17.2333 2.72299 16.1089 2.59332 14.6667H0C0.141454 17.3433 2.07466 18.8467 4.33792 19.3478V22H7.87426V19.3722C10.1729 18.92 12 17.5389 12 15.0333C12 11.5622 9.13556 10.3767 6.45972 9.65555Z" fill="#E64848"/>
</svg>
