<svg width="20" height="19" viewBox="0 0 20 19" fill="none" xmlns="http://www.w3.org/2000/svg">
<path d="M0 4C0 1.79086 1.79086 0 4 0H15.5926C17.8017 0 19.5926 1.79086 19.5926 4V10.5761C19.5926 12.7853 17.8017 14.5761 15.5926 14.5761H8.51068C8.39201 14.5761 8.27721 14.6183 8.1868 14.6952L4.25258 18.0402C3.92785 18.3163 3.4287 18.0856 3.4287 17.6593V14.9571C3.4287 14.7467 3.25814 14.5761 3.04774 14.5761C1.36452 14.5761 0 13.2116 0 11.5284V4Z" fill="#E64848"/>
<ellipse cx="5.87782" cy="7.28798" rx="0.97963" ry="1.04115" fill="white"/>
<ellipse cx="9.79628" cy="7.28798" rx="0.97963" ry="1.04115" fill="white"/>
<ellipse cx="13.7147" cy="7.28798" rx="0.97963" ry="1.04115" fill="white"/>
</svg>
