<svg width="20" height="20" viewBox="0 0 20 20" fill="none" xmlns="http://www.w3.org/2000/svg">
<path d="M17.7778 0H2.22222C1 0 0 1 0 2.22222V17.7778C0 19 1 20 2.22222 20H17.7778C19 20 20 19 20 17.7778V2.22222C20 1 19 0 17.7778 0ZM10.0111 16.6667C9.23333 16.6667 8.61111 16.0444 8.61111 15.2667C8.61111 14.4778 9.23333 13.8778 10.0111 13.8778C10.8 13.8778 11.4 14.4778 11.4 15.2667C11.3889 16.0333 10.8 16.6667 10.0111 16.6667ZM13.3556 8.44445C12.5111 9.67778 11.7111 10.0667 11.2778 10.8556C11.1 11.1778 11.0333 11.3889 11.0333 12.4222H9.01111C9.01111 11.8778 8.92222 10.9889 9.35556 10.2222C9.9 9.25556 10.9333 8.67778 11.5333 7.82222C12.1667 6.92222 11.8111 5.23333 10.0111 5.23333C8.83333 5.23333 8.25556 6.12222 8.01111 6.87778L6.17778 6.1C6.67778 4.61111 8.02222 3.33333 9.98889 3.33333C11.6333 3.33333 12.7556 4.07778 13.3333 5.02222C13.8222 5.82222 14.1111 7.32222 13.3556 8.44445Z" fill="#E64848"/>
</svg>
