<svg width="21" height="26" viewBox="0 0 21 26" fill="none" xmlns="http://www.w3.org/2000/svg">
<path d="M6.78562 19.279C8.83313 21.307 12.1669 21.307 14.2144 19.279C16.2619 17.251 16.2619 13.949 14.2144 11.921L6.78562 19.279ZM18.375 0.013L2.625 0C1.16813 0 0 1.157 0 2.6V23.4C0 24.843 1.16813 26 2.625 26H18.375C19.8319 26 21 24.843 21 23.4V2.6C21 1.157 19.8319 0.013 18.375 0.013ZM7.875 2.6C8.59688 2.6 9.1875 3.185 9.1875 3.9C9.1875 4.615 8.59688 5.2 7.875 5.2C7.15312 5.2 6.5625 4.615 6.5625 3.9C6.5625 3.185 7.15312 2.6 7.875 2.6ZM3.9375 2.6C4.65938 2.6 5.25 3.185 5.25 3.9C5.25 4.615 4.65938 5.2 3.9375 5.2C3.21563 5.2 2.625 4.615 2.625 3.9C2.625 3.185 3.21563 2.6 3.9375 2.6ZM10.5 23.4C6.15562 23.4 2.625 19.903 2.625 15.6C2.625 11.297 6.15562 7.8 10.5 7.8C14.8444 7.8 18.375 11.297 18.375 15.6C18.375 19.903 14.8444 23.4 10.5 23.4Z" fill="#E64848"/>
</svg>
