<svg width="8" height="16" viewBox="0 0 8 16" fill="none" xmlns="http://www.w3.org/2000/svg">
<path d="M3.89837 3.2C4.79228 3.2 5.51695 2.48365 5.51695 1.6C5.51695 0.716344 4.79228 0 3.89837 0C3.00445 0 2.27979 0.716344 2.27979 1.6C2.27979 2.48365 3.00445 3.2 3.89837 3.2Z" fill="#E64848"/>
<path d="M7.66667 4.925C7.66667 4.05 6.1887 4 5.13662 4C4.96667 4 1.67284 4 1.47052 4C-0.426348 4 0.054402 4.925 0.0543773 9.9H1.47054C1.47054 9.9 1.47054 8.225 1.47054 6.44V16H3.08912V11.2H4.7077V16H6.32628V6.44V9.9H7.66667V4.925Z" fill="#E64848"/>
</svg>
