<svg width="23" height="48" viewBox="0 0 23 48" fill="none" xmlns="http://www.w3.org/2000/svg">
<path d="M11.6952 9.6C14.377 9.6 16.551 7.45096 16.551 4.8C16.551 2.14903 14.377 0 11.6952 0C9.01347 0 6.83948 2.14903 6.83948 4.8C6.83948 7.45096 9.01347 9.6 11.6952 9.6Z" fill="#9698A9"/>
<path d="M23 14.775C23 12.15 18.5661 12 15.4099 12C14.9 12 5.01853 12 4.41156 12C-1.27904 12 0.163206 14.775 0.163132 29.7H4.41162C4.41162 29.7 4.41162 24.675 4.41162 19.32V48H9.26736V33.6H14.1231V48H18.9788V19.32V29.7H23V14.775Z" fill="#9698A9"/>
</svg>
