<svg width="26" height="26" viewBox="0 0 26 26" fill="none" xmlns="http://www.w3.org/2000/svg">
<path d="M20.1618 26H22.1236C23.1164 26 23.9318 25.2433 24.05 24.2738L26 4.78854H20.0909V0H17.7627V4.78854H11.8891L12.2436 7.55525C14.2645 8.11096 16.1555 9.11596 17.29 10.2274C18.9918 11.9063 20.1618 13.6444 20.1618 16.482V26ZM0 24.8176V23.6471H17.7627V24.8176C17.7627 25.4679 17.2309 26 16.5691 26H1.19364C0.531818 26 0 25.4679 0 24.8176ZM17.7627 16.5412C17.7627 7.08231 0 7.08231 0 16.5412H17.7627ZM0.0236363 18.9177H17.7509V21.2824H0.0236363V18.9177Z" fill="#E64848"/>
</svg>
