<svg width="18" height="20" viewBox="0 0 18 20" fill="none" xmlns="http://www.w3.org/2000/svg">
<path fill-rule="evenodd" clip-rule="evenodd" d="M8.61109 0C4.63585 0 1.69987 3.70698 2.61035 7.57655C2.63197 7.6684 2.62186 7.76486 2.58168 7.85023L1.14676 10.8995C0.936603 11.346 0.827637 11.8335 0.827637 12.3271C0.827637 13.6636 1.62769 14.8655 2.92559 15.1847C4.34331 15.5334 6.42473 15.8908 9.00005 15.8908C11.5754 15.8908 13.6568 15.5334 15.0745 15.1847C16.3724 14.8655 17.1725 13.6636 17.1725 12.3271C17.1725 11.8335 17.0635 11.346 16.8533 10.8995L15.4184 7.85023C15.3782 7.76486 15.3681 7.6684 15.3897 7.57655C16.3002 3.70698 13.3642 0 9.389 0H8.61109ZM7.36144 17.7563C7.13799 17.4076 6.67411 17.306 6.32534 17.5294C5.97657 17.7529 5.87498 18.2167 6.09843 18.5655C6.25673 18.8126 6.48815 19.0363 6.77929 19.2246C7.07045 19.4128 7.41634 19.5623 7.79741 19.6643C8.1785 19.7664 8.58717 19.819 9.00005 19.819C9.41293 19.819 9.82161 19.7664 10.2027 19.6643C10.5838 19.5623 10.9296 19.4128 11.2208 19.2246C11.512 19.0363 11.7434 18.8126 11.9017 18.5655C12.1251 18.2167 12.0235 17.7529 11.6748 17.5294C11.326 17.306 10.8621 17.4076 10.6387 17.7563C10.6155 17.7925 10.5505 17.8717 10.4064 17.9649C10.2631 18.0576 10.0648 18.1484 9.81467 18.2154C9.56578 18.282 9.28788 18.319 9.00005 18.319C8.71222 18.319 8.43432 18.282 8.18543 18.2154C7.93532 18.1484 7.73702 18.0576 7.59368 17.9649C7.44957 17.8717 7.38465 17.7925 7.36144 17.7563Z" fill="#1F1515"/>
</svg>
