<svg width="12" height="12" viewBox="0 0 12 12" fill="none" xmlns="http://www.w3.org/2000/svg">
<path d="M5.6 11.296C5.27733 11.296 5.028 11.208 4.852 11.032C4.676 10.8413 4.588 10.5847 4.588 10.262V6.654H1.046C0.738 6.654 0.496 6.57333 0.32 6.412C0.144 6.236 0.056 5.994 0.056 5.686C0.056 5.378 0.144 5.14333 0.32 4.982C0.496 4.806 0.738 4.718 1.046 4.718H4.588V1.22C4.588 0.897333 4.676 0.647999 4.852 0.471999C5.028 0.295999 5.28467 0.208 5.622 0.208C5.94467 0.208 6.18667 0.295999 6.348 0.471999C6.524 0.647999 6.612 0.897333 6.612 1.22V4.718H10.154C10.4767 4.718 10.7187 4.806 10.88 4.982C11.056 5.14333 11.144 5.378 11.144 5.686C11.144 5.994 11.056 6.236 10.88 6.412C10.7187 6.57333 10.4767 6.654 10.154 6.654H6.612V10.262C6.612 10.5847 6.524 10.8413 6.348 11.032C6.18667 11.208 5.93733 11.296 5.6 11.296Z" fill="white"/>
</svg>
