<svg width="29" height="26" viewBox="0 0 29 26" fill="none" xmlns="http://www.w3.org/2000/svg">
<path d="M28.8886 26C27.2853 26 26.3898 25.4656 25.7398 25.0756C25.2053 24.7578 24.8731 24.5556 24.0787 24.5556C23.2698 24.5556 22.952 24.7433 22.4176 25.0756C21.7531 25.4656 20.872 26 19.2687 26C17.6654 26 16.7699 25.4656 16.1199 25.0756C15.5854 24.7578 15.2532 24.5556 14.4588 24.5556C13.6499 24.5556 13.3321 24.7433 12.7977 25.0756C12.1332 25.4656 11.2377 26 9.63436 26C8.03104 26 7.13549 25.4656 6.4855 25.0756C5.95106 24.7433 5.61884 24.5556 4.8244 24.5556C4.02996 24.5556 3.69775 24.7433 3.16331 25.0756C2.49887 25.4656 1.60332 26 0 26V23.1111C0.808882 23.1111 1.12666 22.9234 1.6611 22.5911C2.32554 22.2011 3.22108 21.6667 4.8244 21.6667C6.42772 21.6667 7.32327 22.2011 7.97326 22.5911C8.5077 22.9234 8.82548 23.1111 9.63436 23.1111C10.4432 23.1111 10.761 22.9234 11.2955 22.5911C11.9599 22.2011 12.8554 21.6667 14.4588 21.6667C16.0621 21.6667 16.9576 22.2011 17.6076 22.5911C18.1421 22.9089 18.4743 23.1111 19.2687 23.1111C20.0632 23.1111 20.3954 22.9234 20.9298 22.5911C21.5798 22.2011 22.4754 21.6667 24.0787 21.6667C25.682 21.6667 26.5775 22.2011 27.2275 22.5911C27.762 22.9234 28.0798 23.1111 28.8886 23.1111V26ZM28.8886 19.5001C27.2853 19.5001 26.3898 18.9656 25.7398 18.5756C25.2053 18.2578 24.8731 18.0556 24.0787 18.0556C23.2698 18.0556 22.952 18.2434 22.4176 18.5756C21.7676 18.9656 20.872 19.5001 19.2687 19.5001C17.6654 19.5001 16.7699 18.9656 16.1199 18.5756C15.5854 18.2578 15.2532 18.0556 14.4588 18.0556C13.6499 18.0556 13.3321 18.2434 12.7977 18.5756C12.1477 18.9656 11.2521 19.5001 9.6488 19.5001C8.04549 19.5001 7.14994 18.9656 6.49994 18.5756C5.9655 18.2578 5.63328 18.0556 4.83885 18.0556C4.04441 18.0556 3.71219 18.2434 3.17775 18.5756C2.49887 18.9656 1.60332 19.5001 0 19.5001V16.6112C0.808882 16.6112 1.12666 16.4234 1.6611 16.0912C2.31109 15.7012 3.20664 15.1668 4.80996 15.1668C6.41328 15.1668 7.30883 15.7012 7.95882 16.0912C8.49326 16.409 8.82548 16.6112 9.61992 16.6112C10.4288 16.6112 10.7466 16.4234 11.281 16.0912C11.931 15.7012 12.8266 15.1668 14.4299 15.1668C16.0332 15.1668 16.9287 15.7012 17.5787 16.0912C18.1132 16.409 18.4454 16.6112 19.2398 16.6112C20.0343 16.6112 20.3665 16.4234 20.9009 16.0912C21.5509 15.7012 22.4465 15.1668 24.0498 15.1668C25.6531 15.1668 26.5487 15.7012 27.1987 16.0912C27.7331 16.409 28.0653 16.6112 28.8597 16.6112V19.5001H28.8886ZM9.63436 13.0001C10.4432 13.0001 10.761 12.8123 11.2955 12.4801C11.9599 12.0901 12.8554 11.5557 14.4588 11.5557C16.0621 11.5557 16.9576 12.0901 17.6076 12.4801C18.1421 12.7979 18.4743 13.0001 19.2687 13.0001C20.0632 13.0001 20.3954 12.8123 20.9298 12.4801C21.1031 12.379 21.3054 12.2635 21.522 12.1479L12.2488 2.88909C10.0099 0.650224 7.94438 -0.0142149 4.3333 0.000229427V3.61131C6.96216 3.59686 8.5077 4.17464 10.111 5.77796L11.5555 7.22239L6.86105 11.9168C7.30883 12.0901 7.66993 12.3068 7.97326 12.4801C8.5077 12.8123 8.82548 13.0001 9.63436 13.0001Z" fill="#E64848"/>
<path d="M20.9443 7.2224C22.9387 7.2224 24.5554 5.60567 24.5554 3.61132C24.5554 1.61698 22.9387 0.000244141 20.9443 0.000244141C18.95 0.000244141 17.3333 1.61698 17.3333 3.61132C17.3333 5.60567 18.95 7.2224 20.9443 7.2224Z" fill="#E64848"/>
</svg>
