<svg width="12" height="15" viewBox="0 0 12 15" fill="none" xmlns="http://www.w3.org/2000/svg">
<path fill-rule="evenodd" clip-rule="evenodd" d="M4 0.422852C1.79086 0.422852 0 2.21371 0 4.42285V13.8048C0 14.5482 0.782312 15.0317 1.44721 14.6992L5.55279 12.6465C5.83431 12.5057 6.16569 12.5057 6.44721 12.6465L10.5528 14.6992C11.2177 15.0317 12 14.5482 12 13.8048V4.42285C12 2.21371 10.2091 0.422852 8 0.422852H4ZM3 4.17285C2.58579 4.17285 2.25 4.50864 2.25 4.92285C2.25 5.33707 2.58579 5.67285 3 5.67285H9C9.41421 5.67285 9.75 5.33707 9.75 4.92285C9.75 4.50864 9.41421 4.17285 9 4.17285H3Z" fill="#E64848"/>
</svg>
