<svg width="20" height="21" viewBox="0 0 20 21" fill="none" xmlns="http://www.w3.org/2000/svg">
<path d="M17.6462 11.2872C17.689 10.9659 17.7104 10.634 17.7104 10.2806C17.7104 9.93789 17.689 9.5952 17.6355 9.27393L19.8094 7.58192C20.0021 7.432 20.0557 7.14286 19.9379 6.92868L17.8818 3.37331C17.7533 3.13772 17.4855 3.06275 17.2499 3.13772L14.6905 4.16577C14.1551 3.75883 13.5875 3.41615 12.9557 3.15913L12.5701 0.439066C12.5273 0.182052 12.3131 0 12.0561 0H7.94388C7.68687 0 7.4834 0.182052 7.44056 0.439066L7.05504 3.15913C6.42322 3.41615 5.84493 3.76954 5.3202 4.16577L2.76076 3.13772C2.52517 3.05205 2.25744 3.13772 2.12894 3.37331L0.08353 6.92868C-0.0449771 7.15357 -0.00214154 7.432 0.212037 7.58192L2.38595 9.27393C2.33241 9.5952 2.28957 9.9486 2.28957 10.2806C2.28957 10.6126 2.31099 10.9659 2.36453 11.2872L0.190619 12.9792C-0.00214152 13.1291 -0.055686 13.4183 0.0621122 13.6325L2.11823 17.1878C2.24673 17.4234 2.51446 17.4984 2.75005 17.4234L5.30949 16.3954C5.84493 16.8023 6.41251 17.145 7.04433 17.402L7.42986 20.1221C7.4834 20.3791 7.68687 20.5611 7.94388 20.5611H12.0561C12.3131 20.5611 12.5273 20.3791 12.5594 20.1221L12.945 17.402C13.5768 17.145 14.1551 16.8023 14.6798 16.3954L17.2392 17.4234C17.4748 17.5091 17.7426 17.4234 17.8711 17.1878L19.9272 13.6325C20.0557 13.3969 20.0021 13.1291 19.7987 12.9792L17.6462 11.2872ZM10 14.1358C7.87963 14.1358 6.14478 12.4009 6.14478 10.2806C6.14478 8.16021 7.87963 6.42536 10 6.42536C12.1204 6.42536 13.8552 8.16021 13.8552 10.2806C13.8552 12.4009 12.1204 14.1358 10 14.1358Z" fill="#E64848"/>
</svg>
