<svg width="15" height="26" viewBox="0 0 15 26" fill="none" xmlns="http://www.w3.org/2000/svg">
<path d="M10.129 5.67164C9.49307 6.74932 9.87464 8.14463 10.9731 8.76855C12.0716 9.39247 13.4938 9.01812 14.1298 7.94044C14.7657 6.86276 14.3841 5.46745 13.2857 4.84353C12.1872 4.21961 10.765 4.59397 10.129 5.67164Z" fill="#E64848"/>
<path d="M11.9444 10.6743C11.9444 10.6743 10.0596 9.60794 8.93805 8.97267C6.1861 7.40721 5.23795 3.93595 6.83362 1.23608L4.83325 0.101685C2.99477 3.20993 3.57291 7.0442 5.95485 9.52853L0 19.6474L2.00037 20.7818L3.73479 17.8323L5.73515 18.9667L2.26631 24.8656L4.26668 26L11.5397 13.6464C12.8578 15.4047 13.0775 17.8323 11.8981 19.8402L13.8985 20.9746C15.7485 17.855 15.3785 13.5103 11.9444 10.6743Z" fill="#E64848"/>
<path d="M8.37145 3.17592C9.20397 3.64102 10.2562 3.36877 10.7418 2.552C11.2159 1.73524 10.9384 0.702935 10.1059 0.226488C9.27335 -0.238615 8.22113 0.03364 7.7355 0.850406C7.26142 1.66717 7.53893 2.71082 8.37145 3.17592Z" fill="#E64848"/>
</svg>
