<svg width="56" height="43" viewBox="0 0 56 43" fill="none" xmlns="http://www.w3.org/2000/svg">
<g filter="url(#filter0_d_207_53)">
<path fill-rule="evenodd" clip-rule="evenodd" d="M38.189 19.9719C41.1781 22.0063 43.2726 24.7625 43.2726 28.4375V35H51.9999V28.4375C51.9999 23.6688 44.2108 20.8469 38.189 19.9719Z" fill="#E64848"/>
<path d="M21.4546 17.5C26.2745 17.5 30.1818 13.5825 30.1818 8.75C30.1818 3.91751 26.2745 0 21.4546 0C16.6346 0 12.7273 3.91751 12.7273 8.75C12.7273 13.5825 16.6346 17.5 21.4546 17.5Z" fill="#E64848"/>
<path fill-rule="evenodd" clip-rule="evenodd" d="M34.5455 17.5C39.3673 17.5 43.2728 13.5844 43.2728 8.75C43.2728 3.91562 39.3673 0 34.5455 0C33.52 0 32.56 0.218749 31.6437 0.524999C33.4546 2.77812 34.5455 5.64375 34.5455 8.75C34.5455 11.8562 33.4546 14.7219 31.6437 16.975C32.56 17.2813 33.52 17.5 34.5455 17.5Z" fill="#E64848"/>
<path fill-rule="evenodd" clip-rule="evenodd" d="M21.4545 19.6875C15.6291 19.6875 4 22.6187 4 28.4375V35H38.9091V28.4375C38.9091 22.6187 27.28 19.6875 21.4545 19.6875Z" fill="#E64848"/>
</g>
<defs>
<filter id="filter0_d_207_53" x="0" y="0" width="55.9999" height="43.0001" filterUnits="userSpaceOnUse" color-interpolation-filters="sRGB">
<feFlood flood-opacity="0" result="BackgroundImageFix"/>
<feColorMatrix in="SourceAlpha" type="matrix" values="0 0 0 0 0 0 0 0 0 0 0 0 0 0 0 0 0 0 127 0" result="hardAlpha"/>
<feOffset dy="4"/>
<feGaussianBlur stdDeviation="2"/>
<feComposite in2="hardAlpha" operator="out"/>
<feColorMatrix type="matrix" values="0 0 0 0 0 0 0 0 0 0 0 0 0 0 0 0 0 0 0.15 0"/>
<feBlend mode="normal" in2="BackgroundImageFix" result="effect1_dropShadow_207_53"/>
<feBlend mode="normal" in="SourceGraphic" in2="effect1_dropShadow_207_53" result="shape"/>
</filter>
</defs>
</svg>
