<svg width="250" height="250" viewBox="0 0 250 250" fill="none" xmlns="http://www.w3.org/2000/svg">
<path d="M125 240.415C188.632 240.415 240.215 210.637 240.215 173.905C240.215 137.173 188.632 107.395 125 107.395C61.3687 107.395 9.78516 137.173 9.78516 173.905C9.78516 210.637 61.3687 240.415 125 240.415Z" fill="#F5F5F5"/>
<path d="M211.89 169.06C222.458 169.06 231.025 164.115 231.025 158.015C231.025 151.915 222.458 146.97 211.89 146.97C201.322 146.97 192.755 151.915 192.755 158.015C192.755 164.115 201.322 169.06 211.89 169.06Z" fill="#E0E0E0"/>
<path d="M87.925 212.415C84.925 213.95 92.53 219.32 96.3 217.25L162.36 178.57L170.29 170.2C170.371 170.116 170.421 170.008 170.434 169.892C170.446 169.776 170.419 169.659 170.358 169.56C170.297 169.461 170.204 169.385 170.095 169.344C169.986 169.303 169.866 169.3 169.755 169.335L154.455 174L87.925 212.415Z" fill="#E0E0E0"/>
<path d="M43.9551 210.785L24.2201 199.39C24.093 199.346 23.9828 199.264 23.9047 199.155C23.8266 199.045 23.7847 198.914 23.7847 198.78C23.7847 198.646 23.8266 198.515 23.9047 198.405C23.9828 198.296 24.093 198.214 24.2201 198.17L167.12 115.67C167.448 115.502 167.812 115.415 168.18 115.415C168.549 115.415 168.912 115.502 169.24 115.67L189 127.06C189.127 127.104 189.237 127.186 189.315 127.295C189.394 127.405 189.436 127.536 189.436 127.67C189.436 127.804 189.394 127.935 189.315 128.045C189.237 128.154 189.127 128.236 189 128.28L46.0951 210.78C45.765 210.953 45.3982 211.043 45.0257 211.044C44.6532 211.045 44.286 210.956 43.9551 210.785Z" fill="#E0E0E0"/>
<path d="M52.5503 206.105L56.3953 208.325C56.7233 208.49 57.0855 208.576 57.4528 208.576C57.8201 208.576 58.1823 208.49 58.5103 208.325L179.5 138.5C179.628 138.455 179.738 138.371 179.817 138.261C179.895 138.15 179.937 138.018 179.937 137.883C179.937 137.747 179.895 137.615 179.817 137.504C179.738 137.394 179.628 137.31 179.5 137.265L175.71 135C175.384 134.831 175.022 134.743 174.655 134.743C174.288 134.743 173.926 134.831 173.6 135L52.5503 204.88C52.4214 204.923 52.3092 205.005 52.2297 205.115C52.1502 205.225 52.1074 205.357 52.1074 205.492C52.1074 205.628 52.1502 205.76 52.2297 205.87C52.3092 205.98 52.4214 206.062 52.5503 206.105Z" fill="#E0E0E0"/>
<path d="M39.9997 189.135C39.9997 189.135 40.1397 181.885 37.3197 175.87C34.4997 169.855 30.0847 165.745 25.5747 164.78C21.0647 163.815 16.8347 167.515 21.3247 171.04C25.8147 174.565 34.0847 178.655 36.6397 189.945L39.9997 189.135Z" fill="#E64848"/>
<g opacity="0.15">
<path d="M39.9997 189.135C39.9997 189.135 40.1397 181.885 37.3197 175.87C34.4997 169.855 30.0847 165.745 25.5747 164.78C21.0647 163.815 16.8347 167.515 21.3247 171.04C25.8147 174.565 34.0847 178.655 36.6397 189.945L39.9997 189.135Z" fill="black"/>
</g>
<path d="M38.9098 187.1H38.9598C39.023 187.083 39.0773 187.043 39.111 186.987C39.1446 186.931 39.155 186.864 39.1398 186.8C35.9048 174.325 27.4098 168.165 23.3698 166.65C23.3088 166.627 23.2413 166.63 23.1822 166.657C23.1232 166.684 23.0773 166.734 23.0548 166.795C23.0322 166.856 23.0348 166.923 23.062 166.983C23.0892 167.042 23.1388 167.087 23.1998 167.11C27.1548 168.61 35.4798 174.64 38.6648 186.925C38.6777 186.979 38.7096 187.026 38.7546 187.058C38.7996 187.09 38.8547 187.105 38.9098 187.1Z" fill="white"/>
<path d="M16.7049 181.91C16.9699 182.84 17.8599 183.435 18.7049 183.91C19.5499 184.385 20.4499 184.91 20.8149 185.815C21.5399 187.625 19.6149 189.75 20.4199 191.53C20.6145 191.894 20.881 192.215 21.2033 192.473C21.5256 192.731 21.897 192.92 22.2949 193.03C22.9527 193.221 23.6204 193.376 24.2949 193.495C24.6149 193.536 24.9372 193.558 25.2599 193.56C26.2192 193.487 27.176 193.729 27.9849 194.25C29.2099 195.19 29.3749 196.93 29.9849 198.34C30.3749 199.175 30.9411 199.916 31.6445 200.511C32.3479 201.107 33.1719 201.543 34.0599 201.79C35.5599 202.205 37.8499 202.195 38.3349 201.58C38.7049 201.115 38.0399 199.46 38.1049 198.87C38.2749 197.358 38.3 195.832 38.1799 194.315C38.0952 193.626 38.0952 192.929 38.1799 192.24C38.2932 191.47 38.4032 190.7 38.5099 189.93C38.6249 189.095 38.9149 188.47 38.7349 187.585C38.5218 186.748 38.1848 185.947 37.7349 185.21C37.3349 184.463 36.9232 183.727 36.4999 183C36.037 182.115 35.4659 181.29 34.7999 180.545C34.1927 179.925 33.4653 179.435 32.6623 179.106C31.8594 178.777 30.9976 178.615 30.1299 178.63C28.6949 178.66 27.2099 179.25 25.7749 178.98C24.3399 178.71 23.0549 178.135 21.6049 178.03C20.8423 177.942 20.0698 178.029 19.3456 178.284C18.6215 178.538 17.9647 178.954 17.4249 179.5C17.1176 179.813 16.8914 180.196 16.7659 180.616C16.6404 181.036 16.6195 181.48 16.7049 181.91Z" fill="#E64848"/>
<path d="M37.6197 197.655C37.6773 197.648 37.7296 197.618 37.7652 197.572C37.8008 197.526 37.8168 197.468 37.8097 197.41C36.1997 183.81 22.6697 179.91 19.4047 179.7C19.3466 179.697 19.2897 179.717 19.2459 179.755C19.2021 179.793 19.1748 179.847 19.1697 179.905C19.1669 179.963 19.1869 180.019 19.2252 180.062C19.2635 180.105 19.3172 180.131 19.3747 180.135C22.5647 180.36 35.7997 184.135 37.3747 197.465C37.3777 197.494 37.3866 197.522 37.4007 197.547C37.4148 197.572 37.4338 197.594 37.4567 197.612C37.4796 197.63 37.5058 197.643 37.5338 197.65C37.5618 197.658 37.591 197.659 37.6197 197.655Z" fill="white"/>
<path d="M23.24 188.815C23.283 188.81 23.3242 188.794 23.36 188.77C24.7958 187.853 26.4162 187.264 28.1057 187.044C29.7953 186.825 31.5124 186.98 33.135 187.5C33.1906 187.514 33.2496 187.507 33.2998 187.479C33.35 187.451 33.3876 187.405 33.405 187.35C33.4134 187.323 33.4164 187.294 33.4136 187.266C33.4109 187.237 33.4025 187.21 33.389 187.185C33.3755 187.159 33.3572 187.137 33.335 187.119C33.3129 187.101 33.2873 187.088 33.26 187.08C31.5705 186.545 29.7837 186.39 28.0273 186.626C26.2709 186.862 24.5884 187.483 23.1 188.445C23.0767 188.462 23.057 188.483 23.042 188.508C23.0271 188.532 23.0172 188.56 23.013 188.588C23.0088 188.616 23.0104 188.645 23.0176 188.673C23.0248 188.701 23.0375 188.727 23.055 188.75C23.0791 188.774 23.1082 188.792 23.1402 188.803C23.1722 188.814 23.2063 188.818 23.24 188.815Z" fill="white"/>
<path d="M85.2653 45.24L81.5003 47.555C81.5128 47.4036 81.5128 47.2514 81.5003 47.1L81.4153 46.1C81.2653 44.34 79.7753 43.745 78.0903 44.78C77.3827 45.229 76.7793 45.824 76.3203 46.525C75.8453 44.335 73.7653 43.68 71.4303 45.105C68.9303 46.65 67.0403 50.04 67.2653 52.68L67.3953 54.18C67.427 54.7788 67.6168 55.3584 67.9453 55.86L64.8053 57.78C64.3333 58.0819 63.9446 58.4972 63.6747 58.9881C63.4048 59.479 63.2623 60.0298 63.2603 60.59C63.3453 61.565 64.1703 61.895 65.1053 61.325L85.6053 48.8C86.0687 48.4944 86.4491 48.0786 86.7126 47.59C86.9761 47.1014 87.1145 46.5551 87.1153 46C87.0303 45 86.2053 44.67 85.2653 45.24Z" fill="#EBEBEB"/>
<path d="M66.89 33.41L61 37C61.0151 36.7636 61.0151 36.5264 61 36.29L60.87 34.75C60.635 32.01 58.32 31.09 55.695 32.695C54.5975 33.3947 53.6617 34.3202 52.95 35.41C52.21 32 49 31 45.35 33.21C41.425 35.61 38.525 40.88 38.85 44.98L39.045 47.285C39.1003 48.2164 39.3966 49.1176 39.905 49.9L35.02 52.9C33.565 53.79 32.49 55.745 32.62 57.265C32.75 58.785 34.035 59.295 35.49 58.405L67.335 38.93C68.79 38.04 69.865 36.09 69.735 34.57C69.605 33.05 68.345 32.5 66.89 33.41Z" fill="#EBEBEB"/>
<path d="M181.63 16.32C180.785 15.875 179.7 15.935 178.515 16.62L47.1899 92.415C45.7684 93.3305 44.6157 94.6075 43.8499 96.115L39.0649 93.355C40.1149 91.355 41.5949 90.685 42.8899 89.935L174.205 14.14C175.445 13.425 176.575 13.39 177.43 13.91L181.63 16.32Z" fill="#E64848"/>
<path opacity="0.15" d="M181.63 16.32C180.785 15.875 179.7 15.935 178.515 16.62L47.1899 92.415C45.7684 93.3305 44.6157 94.6075 43.8499 96.115L39.0649 93.355C40.1149 91.355 41.5949 90.685 42.8899 89.935L174.205 14.14C175.445 13.425 176.575 13.39 177.43 13.91L181.63 16.32Z" fill="black"/>
<path d="M39.7199 203.555C38.6699 202.965 38.0049 201.555 38.0049 199.605V99.255C38.0049 97.01 38.1649 95.005 39.0649 93.355L43.8499 96.115C43.7265 96.345 43.6066 96.58 43.4899 96.82C43.3999 97.015 43.3149 97.21 43.2399 97.4L43.2049 97.49C43.1099 97.71 43.0249 97.94 42.9499 98.17C42.8749 98.4 42.7949 98.645 42.7299 98.88C42.6649 99.115 42.6349 99.24 42.5999 99.415C42.4153 100.175 42.3196 100.953 42.3149 101.735V202.08C42.3149 204.08 42.9949 205.475 44.0549 206.055L39.7199 203.555Z" fill="#E64848"/>
<path opacity="0.5" d="M39.7199 203.555C38.6699 202.965 38.0049 201.555 38.0049 199.605V99.255C38.0049 97.01 38.1649 95.005 39.0649 93.355L43.8499 96.115C43.7265 96.345 43.6066 96.58 43.4899 96.82C43.3999 97.015 43.3149 97.21 43.2399 97.4L43.2049 97.49C43.1099 97.71 43.0249 97.94 42.9499 98.17C42.8749 98.4 42.7949 98.645 42.7299 98.88C42.6649 99.115 42.6349 99.24 42.5999 99.415C42.4153 100.175 42.3196 100.953 42.3149 101.735V202.08C42.3149 204.08 42.9949 205.475 44.0549 206.055L39.7199 203.555Z" fill="black"/>
<path d="M178.5 16.625L46.1199 92.935C43.4249 94.495 42.3149 97.165 42.3149 100.76V202.085C42.3149 205.675 44.4999 207.33 47.1949 205.775L178.5 130C181.195 128.445 183.38 124.27 183.38 120.68V20.315C183.39 16.72 181.205 15.07 178.5 16.625Z" fill="#E64848"/>
<path opacity="0.3" d="M178.5 16.625L46.1199 92.935C43.4249 94.495 42.3149 97.165 42.3149 100.76V202.085C42.3149 205.675 44.4999 207.33 47.1949 205.775L178.5 130C181.195 128.445 183.38 124.27 183.38 120.68V20.315C183.39 16.72 181.205 15.07 178.5 16.625Z" fill="black"/>
<path d="M171.97 129.08L53.7351 197.32C52.3351 198.13 51.2051 197.27 51.2051 195.41V98.14C51.2051 96.28 52.3351 94.115 53.7351 93.31L171.97 25.07C173.37 24.265 174.5 25.12 174.5 26.98V124.25C174.5 126.11 173.37 128.275 171.97 129.08Z" fill="#37474F"/>
<path d="M51.2051 98.14V195.41C51.2051 195.485 51.2051 195.555 51.2051 195.625L168.705 127.815C170.105 127.01 171.235 124.845 171.235 122.985V25.715C171.235 25.64 171.235 25.57 171.235 25.5L53.7351 93.31C52.3351 94.115 51.2051 96.28 51.2051 98.14Z" fill="#455A64"/>
<path d="M48.0299 152.39C48.0229 152.866 47.9044 153.334 47.6838 153.756C47.4633 154.178 47.1468 154.542 46.7599 154.82C46.0549 155.225 45.4849 154.795 45.4849 153.86C45.4924 153.383 45.6117 152.915 45.8331 152.493C46.0546 152.071 46.372 151.707 46.7599 151.43C47.4599 151.025 48.0299 151.455 48.0299 152.39Z" fill="#263238"/>
<path d="M46.7598 136.1C46.4566 136.315 46.2082 136.598 46.0345 136.926C45.8608 137.254 45.7667 137.619 45.7598 137.99V146.65C45.7598 147.38 46.2048 147.71 46.7598 147.395C47.0622 147.181 47.3102 146.899 47.4839 146.571C47.6576 146.244 47.7521 145.88 47.7598 145.51V136.85C47.7498 136.12 47.3048 135.785 46.7598 136.1Z" fill="#263238"/>
<path d="M56.8899 112.93C56.5341 112.689 56.24 112.367 56.0315 111.991C55.8231 111.615 55.706 111.195 55.6899 110.765V100.815C55.7142 100.372 55.8422 99.9418 56.0637 99.5579C56.2852 99.1739 56.594 98.8475 56.9649 98.605L174.91 30.47C175.278 30.2372 175.703 30.1096 176.139 30.1008C176.574 30.092 177.004 30.2025 177.381 30.4203C177.759 30.638 178.069 30.9548 178.28 31.3363C178.49 31.7179 178.592 32.1497 178.575 32.585V42.54C178.553 42.9818 178.426 43.4121 178.205 43.7954C177.985 44.1787 177.676 44.5042 177.305 44.745L59.3599 112.885C58.9805 113.085 58.5593 113.194 58.1303 113.202C57.7013 113.209 57.2764 113.116 56.8899 112.93Z" fill="#E64848"/>
<path opacity="0.4" d="M178.565 32.375C178.475 31.72 177.94 31.475 177.305 31.845L59.3599 100C58.9851 100.24 58.6744 100.568 58.4549 100.955L56.0649 99.57C56.2812 99.1833 56.5905 98.8568 56.9649 98.62L174.91 30.47C175.262 30.2458 175.668 30.1184 176.085 30.1004C176.502 30.0825 176.917 30.1747 177.287 30.3677C177.658 30.5607 177.971 30.8479 178.195 31.2002C178.419 31.5525 178.547 31.9577 178.565 32.375Z" fill="white"/>
<path d="M59.3597 206.06C59.0571 206.244 58.7133 206.348 58.3597 206.365C57.8568 206.431 57.3459 206.342 56.8947 206.11C56.5392 205.869 56.2457 205.547 56.038 205.171C55.8304 204.794 55.7145 204.374 55.6997 203.945V115.915L58.0947 117.295V205.325C58.0947 205.905 58.3847 206.235 58.8047 206.235C59.0012 206.223 59.1917 206.163 59.3597 206.06Z" fill="#F0F0F0"/>
<path opacity="0.1" d="M58.4549 100.94C58.2258 101.32 58.0984 101.752 58.0849 102.195V117.295L55.6899 115.915V100.815C55.6899 100.76 55.6899 100.715 55.6899 100.66C55.7006 100.554 55.7173 100.449 55.7399 100.345C55.8073 100.067 55.9151 99.8012 56.0599 99.555L58.4549 100.94Z" fill="black"/>
<path d="M178.575 32.585V39.395L97.6297 86.175C96.9297 86.58 96.3547 86.25 96.3547 85.44V82.86C96.3547 82.045 95.7847 81.715 95.0797 82.125L64.1447 100C63.7732 100.242 63.464 100.568 63.2425 100.952C63.0209 101.336 62.8932 101.767 62.8697 102.21V104.785C62.8455 105.228 62.7174 105.658 62.4959 106.042C62.2744 106.426 61.9657 106.752 61.5947 106.995L58.0947 108.995V102.195C58.1182 101.752 58.2459 101.321 58.4675 100.937C58.689 100.553 58.9982 100.227 59.3697 99.985L177.305 31.845C178 31.44 178.575 31.77 178.575 32.585Z" fill="#E64848"/>
<path d="M58.7898 205.935C58.4248 205.935 58.3848 205.51 58.3848 205.325V109.18L61.7448 107.24C62.1598 107 62.4898 105.94 63.1548 103.575C63.5048 102.335 64.0298 100.455 64.2998 100.24L94.6748 82.705C94.9148 82.825 95.4898 83.84 95.8398 84.455C96.5848 85.76 97.0298 86.5 97.5348 86.5C97.6207 86.4997 97.705 86.4773 97.7798 86.435L178.28 39.935V135.715C178.256 136.104 178.143 136.483 177.949 136.822C177.755 137.16 177.484 137.449 177.16 137.665L59.2098 205.8C59.084 205.881 58.9392 205.928 58.7898 205.935Z" fill="#FAFAFA"/>
<path d="M178 40.44V135.715C177.977 136.052 177.877 136.38 177.708 136.673C177.539 136.966 177.305 137.216 177.025 137.405L59.0547 205.54C58.9761 205.594 58.8848 205.627 58.7897 205.635C58.6897 205.635 58.6897 205.33 58.6897 205.325V109.355L61.8997 107.5C62.3997 107.205 62.7297 106.21 63.4447 103.655C63.7597 102.525 64.2397 100.825 64.4947 100.48L94.6247 83.08C94.9756 83.5575 95.293 84.0587 95.5747 84.58C96.3997 86.03 96.8597 86.785 97.5347 86.785C97.6738 86.784 97.8101 86.746 97.9297 86.675L178 40.44ZM178.575 39.395L97.6297 86.175C97.6015 86.1931 97.5682 86.2018 97.5347 86.2C96.8197 86.2 95.3747 82.395 94.6547 82.395C94.6208 82.3956 94.5878 82.406 94.5597 82.425L64.1447 100C63.4397 100.405 62.2947 106.59 61.5947 107L58.0947 109V205.325C58.0947 205.9 58.3847 206.235 58.7997 206.235C59.0018 206.228 59.1985 206.168 59.3697 206.06L177.305 137.925C177.676 137.683 177.984 137.356 178.205 136.972C178.425 136.588 178.552 136.157 178.575 135.715V39.395Z" fill="#E0E0E0"/>
<path d="M172.6 36.855C173.485 36.355 174.2 36.76 174.2 37.78C174.171 38.3366 174.011 38.8785 173.733 39.3616C173.455 39.8447 173.067 40.2553 172.6 40.56C171.71 41.06 170.995 40.66 170.995 39.635C171.025 39.0779 171.185 38.5357 171.464 38.0526C171.743 37.5695 172.132 37.1591 172.6 36.855Z" fill="white"/>
<path d="M166.82 40.185C167.71 39.685 168.425 40.09 168.425 41.115C168.395 41.6714 168.234 42.2129 167.956 42.6952C167.677 43.1775 167.287 43.5869 166.82 43.89C165.935 44.39 165.215 43.99 165.215 42.965C165.246 42.4082 165.407 41.8665 165.686 41.3835C165.965 40.9006 166.353 40.49 166.82 40.185Z" fill="white"/>
<path d="M161.045 43.5C161.93 43 162.65 43.405 162.65 44.43C162.619 44.9861 162.458 45.5272 162.179 46.0093C161.9 46.4914 161.512 46.9011 161.045 47.205C160.16 47.705 159.44 47.305 159.44 46.28C159.471 45.7232 159.632 45.1815 159.911 44.6985C160.19 44.2156 160.578 43.805 161.045 43.5Z" fill="white"/>
<path d="M178.575 39.395V47.69L58.0747 117.295V109L60.6947 107.5C61.3997 107.09 61.6347 106.5 61.9697 105.29L62.8597 102.205C63.1397 101.13 63.4297 100.4 64.1347 99.995L94.5497 82.435C95.2597 82.025 95.8097 81.98 96.3447 82.87L97.4397 84.87C97.8397 85.56 98.0397 85.965 98.7397 85.56L178.575 39.395Z" fill="#E6E6E6"/>
<path d="M58.0849 109.005V117.295L55.6899 115.915V107.63L58.0849 109.005Z" fill="#E0E0E0"/>
<path opacity="0.5" d="M63.9348 109.605L61.9348 110.76L62.6948 109.29C62.7265 109.236 62.7431 109.175 62.7431 109.112C62.7431 109.05 62.7265 108.989 62.6948 108.935C62.6398 108.865 62.5348 108.935 62.4698 109.04L61.3848 111.13L61.3548 111.21C61.3521 111.247 61.3521 111.283 61.3548 111.32C61.3518 111.35 61.3518 111.38 61.3548 111.41C61.3636 111.426 61.3736 111.441 61.3848 111.455L62.4698 112.285C62.4848 112.297 62.5033 112.303 62.5223 112.303C62.5413 112.303 62.5598 112.297 62.5748 112.285C62.6294 112.249 62.6714 112.196 62.6948 112.135C62.7548 111.995 62.7498 111.845 62.6948 111.79L61.9348 111.205L63.9348 110.05C63.986 110.01 64.0272 109.958 64.0549 109.899C64.0827 109.84 64.0964 109.775 64.0948 109.71C64.0948 109.62 64.0248 109.55 63.9348 109.605Z" fill="#455A64"/>
<path opacity="0.5" d="M65.6048 108.64L67.6048 107.485L66.8398 106.895C66.7748 106.845 66.7648 106.69 66.8398 106.555C66.9148 106.42 66.9998 106.35 67.0648 106.4L68.1498 107.235C68.1621 107.248 68.1722 107.264 68.1798 107.28C68.1828 107.31 68.1828 107.34 68.1798 107.37C68.1823 107.407 68.1823 107.443 68.1798 107.48C68.1772 107.488 68.1772 107.497 68.1798 107.505L68.1498 107.58L67.0648 109.665C67.0436 109.717 67.0069 109.76 66.9598 109.79C66.9439 109.806 66.9223 109.815 66.8998 109.815C66.8773 109.815 66.8558 109.806 66.8398 109.79C66.8092 109.735 66.7931 109.673 66.7931 109.61C66.7931 109.547 66.8092 109.485 66.8398 109.43L67.6048 107.965L65.6048 109.12C65.5148 109.17 65.4448 109.12 65.4448 108.965C65.4452 108.902 65.4598 108.84 65.4875 108.784C65.5152 108.728 65.5553 108.679 65.6048 108.64Z" fill="#455A64"/>
<path opacity="0.5" d="M72.1701 102.875C72.1701 102.755 72.0551 102.77 72.0001 102.9L71.7251 103.57C71.2601 103.52 70.6951 103.975 70.3101 104.785C69.8101 105.835 69.8101 107.075 70.3101 107.555C70.4305 107.667 70.5861 107.734 70.7502 107.744C70.9143 107.754 71.0769 107.706 71.2101 107.61C71.6094 107.339 71.922 106.959 72.1101 106.515C72.1403 106.462 72.1562 106.401 72.1562 106.34C72.1562 106.279 72.1403 106.218 72.1101 106.165C72.0451 106.105 71.9451 106.165 71.8801 106.3C71.5101 107.08 70.9101 107.43 70.5401 107.075C70.1701 106.72 70.1701 105.79 70.5401 105.005C70.8001 104.45 71.1801 104.12 71.5101 104.1L71.3051 104.6C71.2501 104.73 71.3051 104.85 71.3851 104.795L72.2001 104.265C72.2322 104.238 72.2572 104.203 72.2729 104.164C72.2886 104.124 72.2945 104.082 72.2901 104.04L72.1701 102.875Z" fill="#455A64"/>
<path opacity="0.5" d="M93.6852 86.205L94.4152 84.66C94.4591 84.584 94.4822 84.4977 94.4822 84.41C94.4822 84.3222 94.4591 84.236 94.4152 84.16C94.3252 84.08 94.1902 84.16 94.1002 84.34L93.3702 85.885L92.6402 85.185C92.5552 85.1 92.4152 85.185 92.3302 85.365C92.2863 85.441 92.2632 85.5272 92.2632 85.615C92.2632 85.7027 92.2863 85.789 92.3302 85.865L93.0602 86.57L92.3302 88.11C92.2863 88.186 92.2632 88.2722 92.2632 88.36C92.2632 88.4477 92.2863 88.534 92.3302 88.61C92.3518 88.6283 92.3793 88.6384 92.4077 88.6384C92.436 88.6384 92.4635 88.6283 92.4852 88.61C92.5563 88.5677 92.611 88.5024 92.6402 88.425L93.3702 86.88L94.1002 87.58C94.1234 87.597 94.1514 87.6062 94.1802 87.6062C94.209 87.6062 94.237 87.597 94.2602 87.58C94.3591 87.5031 94.4285 87.3945 94.4567 87.2725C94.4849 87.1505 94.4703 87.0225 94.4152 86.91L93.6852 86.205Z" fill="#455A64"/>
<path d="M74.8301 104.775V102.195C74.8535 101.752 74.9813 101.321 75.2028 100.937C75.4244 100.553 75.7335 100.227 76.1051 99.985L170.105 45.69C170.81 45.28 171.38 45.61 171.38 46.425V49C171.355 49.4425 171.227 49.873 171.006 50.2568C170.784 50.6407 170.476 50.9672 170.105 51.21L76.1051 105.5C75.4001 105.915 74.8301 105.585 74.8301 104.775Z" fill="#FAFAFA"/>
<path d="M169.385 47.05L169.72 47.765C169.724 47.7749 169.729 47.784 169.737 47.7915C169.744 47.799 169.753 47.8048 169.763 47.8086C169.773 47.8124 169.784 47.814 169.794 47.8134C169.805 47.8128 169.815 47.8099 169.825 47.805L170.575 47.52C170.695 47.475 170.74 47.64 170.655 47.8L170.115 48.8C170.081 48.8589 170.067 48.9274 170.075 48.995L170.2 49.915C170.2 50.06 170.095 50.255 169.99 50.24L169.32 50.155C169.293 50.1565 169.266 50.1645 169.243 50.1785C169.219 50.1924 169.199 50.2118 169.185 50.235L168.5 51.11C168.395 51.245 168.27 51.2 168.29 51.03L168.42 49.96C168.425 49.934 168.423 49.9071 168.416 49.8818C168.408 49.8565 168.394 49.8335 168.375 49.815L167.835 49.42C167.75 49.36 167.795 49.14 167.915 49.045L168.665 48.47C168.715 48.4231 168.753 48.3648 168.775 48.3L169.11 47.2C169.175 47.025 169.33 46.94 169.385 47.05Z" stroke="#E0E0E0" stroke-width="0.903078" stroke-miterlimit="10"/>
<g opacity="0.5">
<path d="M172.905 45.375C172.807 45.3766 172.711 45.3453 172.633 45.2861C172.554 45.2269 172.498 45.1433 172.473 45.0484C172.448 44.9536 172.455 44.853 172.493 44.7627C172.532 44.6724 172.599 44.5975 172.685 44.55L176.27 42.5C176.32 42.4704 176.376 42.4511 176.433 42.4432C176.491 42.4352 176.55 42.4388 176.606 42.4537C176.662 42.4686 176.715 42.4945 176.761 42.5299C176.807 42.5653 176.846 42.6095 176.875 42.66C176.933 42.7616 176.949 42.8821 176.919 42.9954C176.889 43.1086 176.816 43.2055 176.715 43.265L173.125 45.335C173.056 45.367 172.981 45.3808 172.905 45.375Z" fill="#455A64"/>
<path d="M172.905 47.445C172.807 47.4466 172.711 47.4153 172.633 47.3561C172.554 47.2969 172.498 47.2133 172.473 47.1184C172.448 47.0236 172.455 46.923 172.493 46.8327C172.532 46.7424 172.599 46.6675 172.685 46.62L176.27 44.55C176.32 44.5131 176.378 44.4872 176.439 44.4739C176.5 44.4607 176.563 44.4605 176.624 44.4732C176.685 44.4859 176.743 44.5114 176.794 44.5479C176.844 44.5844 176.887 44.6311 176.918 44.6851C176.949 44.739 176.969 44.799 176.976 44.861C176.982 44.9231 176.976 44.9858 176.957 45.0452C176.938 45.1046 176.906 45.1593 176.865 45.2058C176.823 45.2523 176.772 45.2895 176.715 45.315L173.125 47.385C173.058 47.424 172.982 47.4447 172.905 47.445Z" fill="#455A64"/>
<path d="M172.905 49.5C172.807 49.5016 172.711 49.4703 172.633 49.4111C172.554 49.3519 172.498 49.2683 172.473 49.1734C172.448 49.0786 172.455 48.978 172.493 48.8877C172.532 48.7974 172.599 48.7225 172.685 48.675L176.27 46.6C176.372 46.5421 176.493 46.5269 176.607 46.5578C176.72 46.5887 176.816 46.6632 176.875 46.765C176.933 46.8658 176.949 46.9856 176.919 47.098C176.889 47.2105 176.816 47.3065 176.715 47.365L173.125 49.44C173.058 49.479 172.982 49.4997 172.905 49.5Z" fill="#455A64"/>
</g>
<path d="M58.0851 117.295L58.0801 125.58L178.56 55.985L178.575 47.69L58.0851 117.295Z" fill="#455A64"/>
<path d="M55.6899 124.195L58.0849 125.58V117.295L55.6899 115.915V124.195Z" fill="#37474F"/>
<path d="M73.0249 112V113.605C73.0249 113.93 73.2549 114.065 73.5249 113.9L93.5599 102.325V99.55L73.5249 111.125C73.3801 111.223 73.2597 111.353 73.173 111.504C73.0863 111.656 73.0356 111.826 73.0249 112Z" fill="#FAFAFA"/>
<path d="M96.2797 98C96.5647 97.835 96.7797 97.97 96.7797 98.3V99.9C96.772 100.078 96.7228 100.251 96.636 100.407C96.5492 100.562 96.4271 100.695 96.2797 100.795L93.5747 102.355V99.55L96.2797 98Z" fill="#E64848"/>
<path d="M96.0799 100.18L95.7799 100.085C95.8113 99.959 95.8281 99.8298 95.8299 99.7C95.8433 99.5774 95.8245 99.4535 95.7754 99.3404C95.7263 99.2273 95.6486 99.1289 95.5499 99.055C95.4836 99.0148 95.4075 98.9936 95.3299 98.9936C95.2524 98.9936 95.1763 99.0148 95.1099 99.055C94.9188 99.2027 94.7649 99.3932 94.6607 99.6111C94.5565 99.8291 94.5049 100.068 94.5099 100.31C94.496 100.432 94.5141 100.556 94.5623 100.669C94.6105 100.782 94.6872 100.88 94.7849 100.955C94.8427 100.988 94.9083 101.006 94.9749 101.005C95.063 101.004 95.1492 100.98 95.2249 100.935C95.4608 100.779 95.6371 100.549 95.7249 100.28L96.0299 100.375H96.0649C96.0887 100.375 96.1118 100.367 96.1308 100.352C96.1497 100.338 96.1634 100.318 96.1699 100.295C96.1706 100.268 96.1619 100.242 96.1455 100.221C96.1291 100.2 96.1059 100.186 96.0799 100.18ZM95.1099 100.76C95.0778 100.78 95.0405 100.791 95.0024 100.791C94.9643 100.791 94.927 100.78 94.8949 100.76C94.8328 100.704 94.7857 100.634 94.7577 100.555C94.7298 100.477 94.7219 100.392 94.7349 100.31C94.7325 100.107 94.7763 99.9061 94.8629 99.7224C94.9495 99.5388 95.0767 99.3773 95.2349 99.25C95.2751 99.2232 95.3217 99.2077 95.3699 99.205C95.3964 99.1999 95.4235 99.1999 95.4499 99.205C95.5109 99.2628 95.5576 99.334 95.5863 99.413C95.6149 99.492 95.6247 99.5765 95.6149 99.66C95.623 99.8701 95.5814 100.079 95.4937 100.27C95.406 100.461 95.2745 100.629 95.1099 100.76Z" fill="#FAFAFA"/>
<path d="M69.5302 113.45L68.1602 114.24C68.013 114.337 67.891 114.467 67.804 114.62C67.7171 114.773 67.6678 114.944 67.6602 115.12V116.705C67.6602 117.03 67.8852 117.165 68.1602 117L69.5302 116.21C69.6767 116.113 69.7984 115.983 69.8852 115.83C69.9721 115.677 70.0217 115.506 70.0302 115.33V113.745C70.0402 113.42 69.8102 113.285 69.5302 113.45Z" fill="#FAFAFA"/>
<path d="M104.145 92.75C103.613 93.0976 103.17 93.5658 102.853 94.1166C102.536 94.6674 102.353 95.2853 102.32 95.92C102.32 97.085 103.135 97.555 104.145 96.975C104.678 96.6277 105.121 96.1596 105.439 95.6088C105.757 95.058 105.94 94.44 105.975 93.805C105.97 92.64 105.155 92.17 104.145 92.75Z" fill="#E64848"/>
<path d="M103.93 94.61C103.874 94.6092 103.82 94.5955 103.77 94.57C103.71 94.531 103.662 94.4763 103.632 94.412C103.601 94.3476 103.588 94.276 103.595 94.205C103.604 94.0357 103.655 93.8712 103.742 93.7257C103.829 93.5803 103.95 93.4582 104.095 93.37C104.154 93.3293 104.222 93.305 104.294 93.2998C104.365 93.2945 104.436 93.3084 104.5 93.34C104.56 93.379 104.608 93.4336 104.639 93.498C104.67 93.5624 104.682 93.634 104.675 93.705C104.665 93.874 104.614 94.038 104.527 94.1833C104.44 94.3285 104.319 94.4509 104.175 94.54C104.101 94.5841 104.016 94.6082 103.93 94.61Z" fill="white"/>
<path d="M104.865 94.73C104.763 94.6807 104.65 94.6594 104.538 94.6682C104.425 94.6769 104.317 94.7155 104.225 94.78L103.96 94.935C103.719 95.0895 103.518 95.2994 103.374 95.5473C103.231 95.7952 103.149 96.0739 103.135 96.36V96.545C103.296 96.6174 103.473 96.6458 103.649 96.6273C103.825 96.6089 103.992 96.5442 104.135 96.44C104.553 96.1793 104.897 95.8161 105.135 95.385V95.34C105.146 95.2236 105.128 95.1062 105.08 94.9993C105.033 94.8924 104.959 94.7996 104.865 94.73Z" fill="white"/>
<path d="M108.325 91.335L120.825 84.11C121.325 83.815 121.74 84.035 121.74 84.61C121.72 84.9227 121.627 85.2264 121.468 85.4965C121.309 85.7666 121.089 85.9956 120.825 86.165L108.325 93.39C107.825 93.685 107.41 93.46 107.41 92.89C107.43 92.5772 107.523 92.2736 107.682 92.0034C107.841 91.7333 108.061 91.5044 108.325 91.335Z" fill="#E0E0E0"/>
<path d="M127.43 80.32L135.195 75.82C135.695 75.525 136.115 75.75 136.115 76.32C136.095 76.6332 136.001 76.9371 135.841 77.2073C135.681 77.4774 135.46 77.7062 135.195 77.875L127.43 82.405C126.93 82.695 126.515 82.475 126.515 81.905C126.531 81.587 126.622 81.2774 126.781 81.0017C126.94 80.726 127.162 80.4923 127.43 80.32Z" fill="#E0E0E0"/>
<path d="M141.8 72.065L147.155 68.955C147.655 68.66 148.075 68.885 148.075 69.455C148.054 69.7682 147.96 70.0722 147.8 70.3423C147.641 70.6124 147.419 70.8412 147.155 71.01L141.8 74.12C141.3 74.415 140.88 74.195 140.88 73.62C140.9 73.3068 140.994 73.0028 141.154 72.7327C141.314 72.4625 141.535 72.2338 141.8 72.065Z" fill="#E0E0E0"/>
<path d="M124.155 84.86C124.096 84.86 124.04 84.837 123.998 84.7959C123.956 84.7547 123.931 84.6988 123.93 84.64V81.875C123.938 81.8217 123.965 81.7731 124.006 81.7379C124.047 81.7028 124.099 81.6834 124.153 81.6834C124.207 81.6834 124.259 81.7028 124.299 81.7379C124.34 81.7731 124.367 81.8217 124.375 81.875V84.64C124.375 84.6983 124.352 84.7543 124.311 84.7956C124.269 84.8368 124.214 84.86 124.155 84.86Z" fill="#263238"/>
<path d="M138.5 76.575C138.441 76.5737 138.385 76.5494 138.344 76.5073C138.303 76.4653 138.28 76.4088 138.28 76.35V73.59C138.28 73.5316 138.303 73.4757 138.344 73.4344C138.385 73.3932 138.441 73.37 138.5 73.37C138.558 73.37 138.614 73.3932 138.655 73.4344C138.697 73.4757 138.72 73.5316 138.72 73.59V76.35C138.72 76.4088 138.697 76.4653 138.656 76.5073C138.615 76.5494 138.559 76.5737 138.5 76.575Z" fill="#263238"/>
<path d="M150.465 69.67C150.406 69.6687 150.35 69.6444 150.309 69.6024C150.268 69.5603 150.245 69.5038 150.245 69.445V66.685C150.245 66.6266 150.268 66.5707 150.31 66.5294C150.351 66.4882 150.407 66.465 150.465 66.465C150.523 66.465 150.579 66.4882 150.621 66.5294C150.662 66.5707 150.685 66.6266 150.685 66.685V69.445C150.685 69.5038 150.662 69.5603 150.621 69.6024C150.58 69.6444 150.524 69.6687 150.465 69.67Z" fill="#263238"/>
<path d="M155.065 65.41V64.91C155.065 64.33 154.715 64.065 154.28 64.315C154.041 64.4862 153.845 64.7111 153.709 64.9716C153.573 65.2321 153.499 65.521 153.495 65.815V66.27C153.485 66.5831 153.394 66.8882 153.23 67.155C153.189 67.2268 153.167 67.3075 153.165 67.39C153.165 67.535 153.255 67.6 153.365 67.54L155.205 66.475C155.265 66.4326 155.314 66.3765 155.348 66.3112C155.382 66.246 155.4 66.1735 155.4 66.1C155.403 66.0717 155.4 66.0429 155.391 66.016C155.381 65.9891 155.366 65.9648 155.345 65.945C155.251 65.8933 155.174 65.815 155.124 65.7198C155.074 65.6246 155.054 65.5168 155.065 65.41Z" fill="#E64848"/>
<path d="M154.66 66.94C154.658 67.0822 154.623 67.222 154.557 67.3479C154.491 67.4739 154.396 67.5825 154.28 67.665C154.07 67.785 153.9 67.665 153.9 67.38L154.66 66.94Z" fill="#E64848"/>
<path d="M158.43 63.18C158.366 63.1805 158.302 63.165 158.245 63.135C158.177 63.0906 158.122 63.0285 158.087 62.9554C158.052 62.8822 158.037 62.8008 158.045 62.72C158.054 62.5312 158.109 62.3474 158.203 62.1838C158.298 62.0203 158.431 61.8818 158.59 61.78C158.656 61.7346 158.733 61.7075 158.813 61.7013C158.893 61.6952 158.973 61.7102 159.045 61.745C159.112 61.7901 159.166 61.8524 159.201 61.9253C159.237 61.9983 159.252 62.0793 159.245 62.16C159.236 62.3488 159.181 62.5326 159.087 62.6961C158.992 62.8597 158.859 62.9981 158.7 63.1C158.619 63.152 158.526 63.1797 158.43 63.18Z" fill="#E64848"/>
<path d="M159.5 63.32C159.386 63.2619 159.258 63.2363 159.13 63.246C159.002 63.2557 158.879 63.3003 158.775 63.375L158.475 63.545C158.203 63.7205 157.978 63.9579 157.816 64.2379C157.654 64.5178 157.561 64.8321 157.545 65.155V65.37C157.729 65.4502 157.932 65.4809 158.132 65.459C158.331 65.437 158.522 65.3633 158.685 65.245C159.158 64.9494 159.55 64.5404 159.825 64.055V64C159.835 63.8681 159.81 63.7359 159.753 63.6165C159.696 63.4972 159.609 63.3949 159.5 63.32Z" fill="#E64848"/>
<path d="M159.885 61.82C159.821 61.8213 159.759 61.8039 159.705 61.77C159.638 61.726 159.584 61.6647 159.548 61.5926C159.513 61.5204 159.498 61.44 159.505 61.36C159.514 61.1711 159.568 60.9871 159.663 60.8235C159.758 60.6599 159.89 60.5215 160.05 60.42C160.116 60.3744 160.193 60.3476 160.273 60.3423C160.353 60.337 160.434 60.3535 160.505 60.39C160.573 60.4335 160.627 60.4948 160.662 60.567C160.698 60.6393 160.712 60.7199 160.705 60.8C160.696 60.9889 160.642 61.1729 160.547 61.3364C160.452 61.5 160.32 61.6384 160.16 61.74C160.077 61.7905 159.982 61.8181 159.885 61.82Z" fill="#E64848"/>
<path d="M160.945 61.955C160.83 61.8981 160.701 61.8731 160.573 61.8828C160.444 61.8925 160.321 61.9364 160.215 62.01L159.92 62.185C159.579 62.3964 159.314 62.7095 159.16 63.08C159.259 63.0271 159.368 62.9993 159.48 62.9993C159.592 62.9993 159.702 63.0271 159.8 63.08C159.911 63.1539 160.001 63.2567 160.058 63.3774C160.115 63.4981 160.138 63.6321 160.125 63.765V63.89C160.603 63.6008 160.998 63.1925 161.27 62.705V62.65C161.283 62.5157 161.26 62.3804 161.203 62.2581C161.145 62.1359 161.056 62.0312 160.945 61.955Z" fill="#E64848"/>
<path d="M164.58 58.19C164.143 58.4748 163.779 58.8587 163.519 59.3105C163.258 59.7623 163.108 60.2692 163.08 60.79C163.067 60.9538 163.091 61.1184 163.149 61.2721C163.207 61.4259 163.297 61.5651 163.415 61.68L163.225 62.57C163.225 62.68 163.275 62.73 163.35 62.645L164.025 61.855C164.219 61.8282 164.406 61.7636 164.575 61.665C165.011 61.3785 165.375 60.9935 165.635 60.5411C165.896 60.0886 166.046 59.5813 166.075 59.06C166.08 58.1 165.405 57.71 164.58 58.19Z" fill="#E64848"/>
<path d="M171.78 54C171.894 53.9303 172.022 53.886 172.155 53.87C172.258 53.8566 172.363 53.8758 172.455 53.925C172.547 53.9807 172.619 54.0649 172.66 54.165C172.71 54.2921 172.734 54.4283 172.73 54.565C172.732 54.6895 172.718 54.8138 172.69 54.935C172.66 55.045 172.625 55.155 172.585 55.26C172.541 55.3607 172.493 55.4592 172.44 55.555L172.29 55.83C172.24 55.92 172.2 56.005 172.16 56.095C172.122 56.1797 172.096 56.2687 172.08 56.36C172.075 56.4028 172.065 56.4448 172.05 56.485C172.036 56.5161 172.014 56.5422 171.985 56.56L171.56 56.81C171.53 56.81 171.51 56.81 171.49 56.81C171.479 56.7987 171.471 56.7853 171.466 56.7707C171.461 56.756 171.459 56.7405 171.46 56.725C171.461 56.6066 171.478 56.489 171.51 56.375C171.541 56.2641 171.579 56.1555 171.625 56.05C171.675 55.945 171.725 55.845 171.78 55.75L171.935 55.475C171.978 55.3941 172.017 55.3106 172.05 55.225C172.082 55.1527 172.099 55.0743 172.1 54.995C172.1 54.89 172.075 54.825 172.02 54.795C171.965 54.765 171.89 54.795 171.78 54.845C171.689 54.893 171.611 54.9636 171.555 55.05C171.512 55.117 171.479 55.1893 171.455 55.265L171.4 55.455C171.395 55.4811 171.384 55.5057 171.368 55.5273C171.353 55.5489 171.333 55.5668 171.31 55.58L170.88 55.83C170.871 55.8348 170.862 55.8373 170.852 55.8373C170.843 55.8373 170.833 55.8348 170.825 55.83C170.816 55.8058 170.816 55.7791 170.825 55.755C170.829 55.6059 170.852 55.4579 170.895 55.315C170.942 55.1428 171.006 54.9754 171.085 54.815C171.169 54.6494 171.272 54.4935 171.39 54.35C171.498 54.2113 171.63 54.0929 171.78 54ZM172.09 57.5C172.089 57.5418 172.079 57.5829 172.06 57.62C172.046 57.6537 172.024 57.6831 171.995 57.705L171.55 57.96C171.541 57.9677 171.529 57.972 171.517 57.972C171.505 57.972 171.494 57.9677 171.485 57.96C171.464 57.9366 171.453 57.9061 171.455 57.875V57.325C171.455 57.2832 171.465 57.2421 171.485 57.205C171.497 57.1717 171.52 57.1434 171.55 57.125L171.995 56.87C171.999 56.8656 172.004 56.8621 172.01 56.8597C172.015 56.8573 172.021 56.8561 172.027 56.8561C172.033 56.8561 172.039 56.8573 172.045 56.8597C172.051 56.8621 172.056 56.8656 172.06 56.87C172.071 56.881 172.079 56.8944 172.084 56.9091C172.09 56.9238 172.091 56.9395 172.09 56.955V57.5Z" fill="#E64848"/>
<path d="M67.7951 131.39L73.9351 127.89C74.2301 127.72 74.4651 127.84 74.4651 128.155C74.4522 128.333 74.3975 128.505 74.3054 128.658C74.2133 128.811 74.0865 128.94 73.9351 129.035L67.7951 132.565C67.5001 132.735 67.2651 132.615 67.2651 132.295C67.2742 132.113 67.3271 131.935 67.4193 131.778C67.5116 131.62 67.6405 131.487 67.7951 131.39Z" fill="#E0E0E0"/>
<path d="M65.2752 132C65.9652 131.605 66.5201 131.925 66.5201 132.72C66.4971 133.151 66.3723 133.571 66.1559 133.944C65.9395 134.318 65.6377 134.635 65.2752 134.87C64.5902 135.265 64.0352 134.945 64.0352 134.155C64.0585 133.724 64.1828 133.304 64.3982 132.93C64.6136 132.555 64.914 132.237 65.2752 132Z" fill="#E64848"/>
<path opacity="0.1" d="M65.2752 132C65.9652 131.605 66.5201 131.925 66.5201 132.72C66.4971 133.151 66.3723 133.571 66.1559 133.944C65.9395 134.318 65.6377 134.635 65.2752 134.87C64.5902 135.265 64.0352 134.945 64.0352 134.155C64.0585 133.724 64.1828 133.304 64.3982 132.93C64.6136 132.555 64.914 132.237 65.2752 132Z" fill="black"/>
<path d="M67.7951 136L73.9351 132.475C74.2301 132.305 74.4651 132.425 74.4651 132.74C74.4522 132.918 74.3975 133.09 74.3054 133.243C74.2133 133.396 74.0865 133.525 73.9351 133.62L67.7951 137.15C67.5001 137.315 67.2651 137.2 67.2651 136.88C67.2781 136.702 67.3328 136.529 67.4249 136.377C67.517 136.224 67.6438 136.095 67.7951 136Z" fill="#E0E0E0"/>
<path d="M65.2752 136.57C65.9652 136.175 66.5201 136.495 66.5201 137.29C66.4971 137.721 66.3723 138.141 66.1559 138.515C65.9395 138.888 65.6377 139.205 65.2752 139.44C64.5902 139.835 64.0352 139.515 64.0352 138.725C64.0585 138.294 64.1828 137.874 64.3982 137.5C64.6136 137.125 64.914 136.807 65.2752 136.57Z" fill="#E64848"/>
<path opacity="0.15" d="M65.2752 136.57C65.9652 136.175 66.5201 136.495 66.5201 137.29C66.4971 137.721 66.3723 138.141 66.1559 138.515C65.9395 138.888 65.6377 139.205 65.2752 139.44C64.5902 139.835 64.0352 139.515 64.0352 138.725C64.0585 138.294 64.1828 137.874 64.3982 137.5C64.6136 137.125 64.914 136.807 65.2752 136.57Z" fill="black"/>
<path d="M67.7951 140.56L73.9351 137.035C74.2301 136.865 74.4651 136.985 74.4651 137.3C74.4522 137.478 74.3975 137.65 74.3054 137.803C74.2133 137.956 74.0865 138.085 73.9351 138.18L67.7951 141.705C67.5001 141.875 67.2651 141.76 67.2651 141.44C67.2781 141.262 67.3328 141.089 67.4249 140.937C67.517 140.784 67.6438 140.655 67.7951 140.56Z" fill="#E0E0E0"/>
<path d="M65.2752 141.155C65.9652 140.76 66.5201 141.08 66.5201 141.875C66.4971 142.306 66.3723 142.726 66.1559 143.099C65.9395 143.473 65.6377 143.79 65.2752 144.025C64.5902 144.42 64.0352 144.1 64.0352 143.305C64.0584 142.874 64.1829 142.455 64.3983 142.082C64.6137 141.708 64.9141 141.391 65.2752 141.155Z" fill="#E64848"/>
<path opacity="0.2" d="M65.2752 141.155C65.9652 140.76 66.5201 141.08 66.5201 141.875C66.4971 142.306 66.3723 142.726 66.1559 143.099C65.9395 143.473 65.6377 143.79 65.2752 144.025C64.5902 144.42 64.0352 144.1 64.0352 143.305C64.0584 142.874 64.1829 142.455 64.3983 142.082C64.6137 141.708 64.9141 141.391 65.2752 141.155Z" fill="black"/>
<path d="M67.7951 145.145L73.9351 141.615C74.2301 141.45 74.4651 141.565 74.4651 141.885C74.4522 142.063 74.3975 142.235 74.3054 142.388C74.2133 142.541 74.0865 142.67 73.9351 142.765L67.7951 146.29C67.5001 146.46 67.2651 146.34 67.2651 146.025C67.2781 145.847 67.3328 145.675 67.4249 145.522C67.517 145.369 67.6438 145.24 67.7951 145.145Z" fill="#E0E0E0"/>
<path d="M65.2752 145.74C65.9652 145.345 66.5201 145.665 66.5201 146.46C66.4963 146.891 66.3711 147.31 66.1548 147.684C65.9385 148.057 65.6371 148.375 65.2752 148.61C64.5902 149.005 64.0352 148.685 64.0352 147.89C64.0584 147.459 64.1829 147.04 64.3983 146.667C64.6137 146.293 64.9141 145.976 65.2752 145.74Z" fill="#E64848"/>
<path opacity="0.25" d="M65.2752 145.74C65.9652 145.345 66.5201 145.665 66.5201 146.46C66.4963 146.891 66.3711 147.31 66.1548 147.684C65.9385 148.057 65.6371 148.375 65.2752 148.61C64.5902 149.005 64.0352 148.685 64.0352 147.89C64.0584 147.459 64.1829 147.04 64.3983 146.667C64.6137 146.293 64.9141 145.976 65.2752 145.74Z" fill="black"/>
<path d="M67.7951 149.73L73.9351 146.2C74.2301 146.03 74.4651 146.15 74.4651 146.47C74.4522 146.648 74.3975 146.82 74.3054 146.973C74.2133 147.126 74.0865 147.255 73.9351 147.35L67.7951 150.875C67.5001 151.045 67.2651 150.925 67.2651 150.61C67.2781 150.432 67.3328 150.259 67.4249 150.107C67.517 149.954 67.6438 149.825 67.7951 149.73Z" fill="#E0E0E0"/>
<path d="M65.2752 150.325C65.9652 149.93 66.5201 150.25 66.5201 151.04C66.4971 151.472 66.3723 151.892 66.1559 152.267C65.9396 152.641 65.6378 152.959 65.2752 153.195C64.5902 153.59 64.0352 153.27 64.0352 152.475C64.0584 152.044 64.1829 151.625 64.3983 151.252C64.6137 150.878 64.9141 150.561 65.2752 150.325Z" fill="#E64848"/>
<path opacity="0.3" d="M65.2752 150.325C65.9652 149.93 66.5201 150.25 66.5201 151.04C66.4971 151.472 66.3723 151.892 66.1559 152.267C65.9396 152.641 65.6378 152.959 65.2752 153.195C64.5902 153.59 64.0352 153.27 64.0352 152.475C64.0584 152.044 64.1829 151.625 64.3983 151.252C64.6137 150.878 64.9141 150.561 65.2752 150.325Z" fill="black"/>
<path d="M67.7951 124.5L76.6651 119.375C76.9601 119.21 77.1951 119.325 77.1951 119.645C77.1822 119.823 77.1275 119.995 77.0354 120.148C76.9433 120.301 76.8165 120.43 76.6651 120.525L67.7951 125.645C67.5001 125.815 67.2651 125.695 67.2651 125.38C67.2769 125.202 67.3311 125.029 67.4233 124.876C67.5155 124.723 67.643 124.594 67.7951 124.5Z" fill="#E0E0E0"/>
<path d="M65.2752 125.11C65.9652 124.715 66.5201 125.035 66.5201 125.825C66.4975 126.256 66.3728 126.676 66.1564 127.05C65.94 127.424 65.638 127.741 65.2752 127.975C64.5902 128.37 64.0352 128.05 64.0352 127.26C64.0584 126.829 64.1829 126.41 64.3983 126.037C64.6137 125.663 64.9141 125.346 65.2752 125.11Z" fill="#E64848"/>
<path d="M65.6248 125.755C65.6191 125.881 65.5835 126.004 65.5209 126.113C65.4583 126.223 65.3705 126.316 65.2648 126.385C65.0648 126.5 64.9048 126.385 64.9048 126.17C64.9105 126.043 64.9461 125.92 65.0087 125.809C65.0712 125.699 65.159 125.605 65.2648 125.535C65.4648 125.42 65.6248 125.5 65.6248 125.755Z" fill="white"/>
<path d="M65.9347 126.95C65.7733 127.236 65.543 127.476 65.2647 127.65C65.169 127.719 65.057 127.762 64.9396 127.776C64.8222 127.789 64.7034 127.771 64.5947 127.725C64.6066 127.49 64.6734 127.262 64.7898 127.058C64.9061 126.854 65.0688 126.68 65.2647 126.55C65.6347 126.34 65.9347 126.5 65.9347 126.95Z" fill="white"/>
<path d="M79.185 189.865C79.1531 189.866 79.1213 189.86 79.0916 189.848C79.0619 189.836 79.0349 189.819 79.012 189.796C78.9892 189.774 78.9711 189.747 78.9587 189.718C78.9464 189.689 78.94 189.657 78.94 189.625V116.22C78.9393 116.188 78.9452 116.155 78.9573 116.125C78.9693 116.095 78.9873 116.068 79.0102 116.045C79.0331 116.022 79.0604 116.004 79.0904 115.992C79.1205 115.98 79.1526 115.974 79.185 115.975C79.2169 115.975 79.2486 115.981 79.278 115.994C79.3075 116.006 79.3341 116.024 79.3565 116.047C79.3788 116.07 79.3964 116.097 79.4082 116.127C79.4199 116.156 79.4257 116.188 79.425 116.22V189.625C79.4257 189.657 79.4199 189.688 79.4081 189.718C79.3963 189.747 79.3786 189.774 79.3562 189.796C79.3338 189.819 79.3071 189.836 79.2776 189.848C79.2482 189.86 79.2167 189.866 79.185 189.865Z" fill="#E0E0E0"/>
<path d="M84.2148 115.605L171.5 65.215C172.085 64.88 172.555 65.15 172.555 65.83V84.03C172.536 84.3967 172.43 84.7537 172.247 85.0717C172.064 85.3898 171.808 85.6599 171.5 85.86L84.2148 136.25C83.6298 136.59 83.1548 136.315 83.1548 135.64V117.44C83.175 117.072 83.2815 116.715 83.4657 116.396C83.6498 116.077 83.9065 115.806 84.2148 115.605Z" fill="#F0F0F0"/>
<path d="M88.9047 130.585C88.8897 130.693 88.8343 130.791 88.7497 130.86C88.7681 130.901 88.7767 130.945 88.7747 130.99C88.7677 131.055 88.7455 131.117 88.7099 131.172C88.6742 131.227 88.6262 131.272 88.5697 131.305L87.6597 131.835V130.645C87.6597 130.62 87.9097 130.07 87.9297 129.99C87.9422 129.847 87.9422 129.703 87.9297 129.56C87.954 129.519 87.9909 129.486 88.0349 129.467C88.079 129.448 88.128 129.444 88.1747 129.455C88.2 129.467 88.2197 129.489 88.2297 129.515C88.2578 129.575 88.2764 129.639 88.2847 129.705C88.3041 129.818 88.3041 129.932 88.2847 130.045L88.8347 129.725C88.8847 129.7 88.9197 129.695 88.9447 129.725C88.9633 129.739 88.9782 129.757 88.9878 129.778C88.9975 129.799 89.0015 129.822 88.9997 129.845C88.9972 129.93 88.9674 130.013 88.9147 130.08C88.9147 130.08 89.0247 130.05 89.0247 130.195C89.0221 130.247 89.0088 130.298 88.9855 130.344C88.9623 130.391 88.9296 130.432 88.8897 130.465C88.8897 130.465 88.9047 130.5 88.9047 130.585Z" fill="#37474F"/>
<path d="M87.5299 131.76V132.01C87.529 132.028 87.5235 132.046 87.5139 132.062C87.5043 132.078 87.4909 132.091 87.4749 132.1L87.1799 132.27C87.1636 132.275 87.1462 132.275 87.1299 132.27V130.9L87.3699 130.76L87.5099 130.68C87.5144 130.696 87.5144 130.714 87.5099 130.73L87.5299 131.76Z" fill="#37474F"/>
<path d="M90.5998 128.6L96.7398 125.1C97.0348 124.93 97.2698 125.05 97.2698 125.365C97.2569 125.543 97.2022 125.715 97.1101 125.868C97.018 126.021 96.8911 126.15 96.7398 126.245L90.5998 129.75C90.3048 129.92 90.0698 129.8 90.0698 129.48C90.0839 129.302 90.1391 129.13 90.2311 128.978C90.3231 128.825 90.4493 128.696 90.5998 128.6Z" fill="#37474F"/>
<path d="M121.94 110.37L128.08 106.845C128.37 106.675 128.61 106.795 128.61 107.11C128.596 107.288 128.542 107.46 128.45 107.613C128.357 107.766 128.231 107.895 128.08 107.99L121.94 111.5C121.645 111.67 121.405 111.55 121.405 111.235C121.421 111.059 121.478 110.89 121.57 110.74C121.663 110.589 121.79 110.463 121.94 110.37Z" fill="#37474F"/>
<path d="M119.73 111.5C119.73 111.295 119.59 111.215 119.415 111.315L117.5 112.44C117.407 112.5 117.33 112.581 117.276 112.677C117.221 112.773 117.19 112.88 117.185 112.99V114.315C117.185 114.515 117.325 114.6 117.505 114.5L118.04 114.195V114.65C118.04 114.68 118.08 114.695 118.095 114.65L118.885 113.7L119.455 113.375C119.547 113.316 119.624 113.236 119.679 113.141C119.734 113.046 119.765 112.94 119.77 112.83L119.73 111.5Z" fill="#37474F"/>
<path d="M159.955 88.5L166.095 84.97C166.385 84.8 166.625 84.92 166.625 85.235C166.612 85.413 166.557 85.5855 166.465 85.7384C166.373 85.8913 166.246 86.0203 166.095 86.115L159.955 89.645C159.66 89.815 159.425 89.695 159.425 89.38C159.437 89.2017 159.491 89.0288 159.583 88.8757C159.675 88.7226 159.803 88.5938 159.955 88.5Z" fill="#37474F"/>
<path d="M158 90.2L156.5 89.74V90.53C155.909 90.7821 155.399 91.1921 155.025 91.715C154.205 92.945 154.8 93.64 155.075 93.715C155.075 93.715 154.64 93.415 155.12 92.535C155.452 92.0465 155.938 91.6825 156.5 91.5V92.4L158 90.2Z" fill="#37474F"/>
<path d="M95.9999 117C95.9053 119.226 95.1691 121.378 93.8799 123.195C93.7499 123.385 93.6199 123.57 93.4799 123.75C93.0228 124.358 92.5051 124.917 91.9349 125.42C91.5131 125.799 91.0541 126.134 90.5649 126.42C90.0747 126.712 89.5439 126.929 88.9899 127.065C88.6491 127.143 88.299 127.174 87.9499 127.155C87.5686 127.14 87.1951 127.043 86.8549 126.87C85.7949 126.34 85.1299 125.09 85.1299 123.285C85.1299 119.82 87.5649 115.6 90.5649 113.87C93.5649 112.14 95.9999 113.535 95.9999 117Z" fill="#E64848"/>
<path opacity="0.4" d="M95.9999 117C95.9053 119.226 95.1691 121.378 93.8799 123.195C93.7499 123.385 93.6199 123.57 93.4799 123.75C93.0228 124.358 92.5051 124.917 91.9349 125.42C91.5131 125.799 91.0541 126.134 90.5649 126.42C90.0747 126.712 89.5439 126.929 88.9899 127.065C88.6491 127.143 88.299 127.174 87.9499 127.155C87.5686 127.14 87.1951 127.043 86.8549 126.87C85.7949 126.34 85.1299 125.09 85.1299 123.285C85.1299 119.82 87.5649 115.6 90.5649 113.87C93.5649 112.14 95.9999 113.535 95.9999 117Z" fill="black"/>
<path d="M92.2398 123.605C92.0946 124.117 91.8423 124.593 91.4998 125C91.1727 125.361 90.7766 125.654 90.3348 125.86C89.871 126.061 89.361 126.132 88.8598 126.065C88.4197 126.041 87.9936 125.902 87.6248 125.66C87.441 125.537 87.2864 125.376 87.1723 125.186C87.0582 124.997 86.9874 124.785 86.9648 124.565C86.9585 124.34 86.9998 124.117 87.086 123.909C87.1722 123.701 87.3013 123.514 87.4648 123.36C87.2112 123.215 87.0173 122.984 86.9175 122.71C86.8177 122.435 86.8185 122.134 86.9198 121.86C87.0915 121.539 87.3163 121.25 87.5848 121.005C88.0023 120.526 88.2439 119.92 88.2698 119.285C88.303 118.806 88.3766 118.331 88.4898 117.865C88.5574 117.626 88.6602 117.399 88.7948 117.19C88.9743 116.925 89.1897 116.686 89.4348 116.48C89.7221 116.241 90.0338 116.033 90.3648 115.86C90.9697 115.505 91.664 115.331 92.3648 115.36C92.6078 115.373 92.8451 115.439 93.0601 115.553C93.2751 115.667 93.4627 115.826 93.6098 116.02C93.7514 116.217 93.8276 116.453 93.8276 116.695C93.8276 116.937 93.7514 117.173 93.6098 117.37C93.7346 117.392 93.8509 117.448 93.9461 117.532C94.0412 117.616 94.1117 117.724 94.1498 117.845C94.2176 118.09 94.2176 118.35 94.1498 118.595C94.0433 119.158 93.7778 119.678 93.3848 120.095C93.155 120.299 92.9472 120.527 92.7648 120.775C92.5854 121.144 92.4963 121.55 92.5048 121.96C92.4857 122.517 92.3967 123.07 92.2398 123.605Z" fill="#263238"/>
<path d="M88.5596 117.78L87.7046 117.365C87.7809 117.272 87.8882 117.21 88.0066 117.19C88.125 117.17 88.2468 117.193 88.3496 117.255C88.4012 117.271 88.4486 117.299 88.4883 117.336C88.528 117.372 88.559 117.417 88.5791 117.468C88.5992 117.518 88.6079 117.572 88.6045 117.626C88.6011 117.68 88.5858 117.733 88.5596 117.78Z" fill="#263238"/>
<path d="M88.59 117.63L88.145 116.79C88.2611 116.76 88.384 116.773 88.4914 116.826C88.5988 116.88 88.6835 116.97 88.73 117.08C88.7617 117.124 88.7833 117.174 88.7934 117.227C88.8035 117.281 88.8018 117.335 88.7885 117.388C88.7751 117.44 88.7505 117.489 88.7162 117.531C88.6819 117.573 88.6388 117.607 88.59 117.63Z" fill="#263238"/>
<path d="M93.8599 123.2C93.7299 123.39 93.5999 123.575 93.4599 123.755C93.0028 124.363 92.4851 124.922 91.9149 125.425C91.8249 125.175 91.7499 124.955 91.6849 124.75C91.6199 124.545 91.6049 124.465 91.5749 124.335C91.4917 124.11 91.47 123.866 91.5122 123.63C91.5544 123.393 91.6589 123.173 91.8149 122.99C91.8798 122.915 91.95 122.845 92.0249 122.78C92.1688 122.723 92.3178 122.679 92.4699 122.65C92.7298 122.576 93.0068 122.59 93.2581 122.69C93.5093 122.789 93.7208 122.968 93.8599 123.2Z" fill="#B16668"/>
<path d="M93.4596 123.755C93.0024 124.363 92.4848 124.922 91.9146 125.425C91.4928 125.804 91.0338 126.139 90.5446 126.425C90.0544 126.717 89.5236 126.934 88.9696 127.07C88.6288 127.148 88.2787 127.179 87.9296 127.16C87.8673 126.724 87.8945 126.28 88.0096 125.855C88.0343 125.762 88.0643 125.67 88.0996 125.58C88.3121 124.899 88.6514 124.265 89.0996 123.71L89.7646 123.47L89.8496 123.435L91.6596 122.89L91.9296 122.805H92.0096C92.1511 122.791 92.2938 122.818 92.4196 122.885C92.8313 123.087 93.1881 123.385 93.4596 123.755Z" fill="#E64848"/>
<path d="M92.7849 116.665C93.0999 116.795 93.4949 117.6 93.4649 119.53C93.4349 121.165 92.9649 121.69 92.7549 121.87C92.4132 122.045 92.0339 122.134 91.6499 122.13V122.885C91.6499 122.885 92.3749 123.385 92.3399 123.835C92.3049 124.285 91.7649 124.455 90.8399 124.24C90.4917 124.161 90.1718 123.988 89.9149 123.74C89.8518 123.672 89.7949 123.598 89.7449 123.52V121.44C89.7051 121.491 89.6551 121.532 89.598 121.562C89.5409 121.592 89.4782 121.609 89.4139 121.613C89.3497 121.617 89.2853 121.607 89.2252 121.584C89.165 121.561 89.1104 121.526 89.0649 121.48C88.8835 121.337 88.7619 121.132 88.724 120.905C88.6861 120.677 88.7346 120.444 88.8599 120.25C89.1349 119.85 89.6449 119.8 89.8599 120.205C90.4636 120.003 91.0104 119.66 91.4549 119.205C92.1881 118.545 92.66 117.644 92.7849 116.665Z" fill="#B16668"/>
<path d="M91.8346 119.465C91.8387 119.521 91.8249 119.577 91.7953 119.624C91.7656 119.672 91.7216 119.709 91.6696 119.73C91.5696 119.765 91.4896 119.695 91.4846 119.58C91.4805 119.524 91.4943 119.468 91.5239 119.421C91.5536 119.373 91.5976 119.336 91.6496 119.315C91.7496 119.28 91.8296 119.35 91.8346 119.465Z" fill="#263238"/>
<path d="M91.7047 120.755L92.3547 120.815C92.3398 120.917 92.2896 121.011 92.213 121.08C92.1364 121.15 92.038 121.19 91.9347 121.195C91.7547 121.18 91.6547 121 91.7047 120.755Z" fill="#9A4A4D"/>
<path d="M93.1796 118.535L92.7896 118.425C92.8246 118.28 92.9446 118.185 93.0496 118.215C93.1082 118.241 93.1545 118.289 93.1787 118.349C93.2029 118.409 93.2032 118.475 93.1796 118.535Z" fill="#263238"/>
<path d="M93.175 119.03C93.1799 119.086 93.1665 119.142 93.1367 119.19C93.107 119.238 93.0625 119.275 93.01 119.295C92.915 119.33 92.83 119.26 92.825 119.145C92.8224 119.089 92.8368 119.034 92.8663 118.987C92.8957 118.94 92.9389 118.902 92.99 118.88C93.09 118.845 93.17 118.915 93.175 119.03Z" fill="#263238"/>
<path d="M92.36 119.03L92.355 120.365L92.915 120.01L92.36 119.03Z" fill="#9A4A4D"/>
<path d="M91.6496 122.13C91.1996 122.185 90.2646 122.13 90.1196 121.745C90.1709 121.93 90.286 122.091 90.4446 122.2C90.8318 122.355 91.2427 122.443 91.6596 122.46L91.6496 122.13Z" fill="#9A4A4D"/>
<path d="M89.31 126.06C89.229 126.403 89.1151 126.738 88.97 127.06C88.6292 127.138 88.2791 127.169 87.93 127.15C87.5487 127.135 87.1752 127.038 86.835 126.865C86.9649 126.354 87.1321 125.852 87.335 125.365C87.5213 124.865 87.8308 124.419 88.235 124.07C88.4955 123.884 88.7917 123.755 89.105 123.69C89.26 123.75 89.4 124.105 89.435 124.33C89.4981 124.909 89.4558 125.496 89.31 126.06Z" fill="#B16668"/>
<path d="M165.555 70.935L102.1 107.575C101.789 107.777 101.53 108.049 101.344 108.369C101.158 108.69 101.05 109.05 101.03 109.42V113.775C100.882 114.596 100.526 115.365 99.9952 116.009C99.4646 116.652 98.7774 117.149 97.9997 117.45C97.9737 117.458 97.9509 117.473 97.9347 117.495C97.9184 117.517 97.9097 117.543 97.9097 117.57C97.9097 117.597 97.9184 117.623 97.9347 117.645C97.9509 117.667 97.9737 117.682 97.9997 117.69C99.017 117.888 100.071 117.745 101 117.285V118.425C101 119.105 101.5 119.385 102.07 119.04L165.49 82.425C165.801 82.2229 166.061 81.9499 166.247 81.6284C166.433 81.3069 166.54 80.9459 166.56 80.575L166.585 71.575C166.625 70.87 166.145 70.595 165.555 70.935Z" fill="#E64848"/>
<path d="M103.555 109.03L112.425 103.91C112.715 103.74 112.955 103.86 112.955 104.175C112.941 104.353 112.886 104.525 112.794 104.677C112.702 104.83 112.576 104.959 112.425 105.055L103.555 110.175C103.26 110.345 103.02 110.225 103.02 109.91C103.034 109.732 103.09 109.559 103.182 109.406C103.275 109.253 103.403 109.124 103.555 109.03Z" fill="#455A64"/>
<path d="M105.54 110.655L162.62 77.7C162.915 77.535 163.15 77.65 163.15 77.97C163.137 78.148 163.082 78.3205 162.99 78.4734C162.898 78.6263 162.771 78.7553 162.62 78.85L105.54 111.805C105.245 111.975 105.01 111.855 105.01 111.535C105.023 111.357 105.077 111.185 105.17 111.032C105.262 110.879 105.388 110.75 105.54 110.655Z" fill="#455A64"/>
<path d="M105.54 113.45L144.88 90.73C145.175 90.56 145.415 90.68 145.415 90.995C145.402 91.1742 145.346 91.3479 145.253 91.5017C145.16 91.6555 145.032 91.7851 144.88 91.88L105.54 114.595C105.245 114.765 105.01 114.645 105.01 114.33C105.023 114.152 105.077 113.98 105.17 113.827C105.262 113.674 105.388 113.545 105.54 113.45Z" fill="#455A64"/>
<path d="M84.2148 166.06L171.5 115.67C172.085 115.33 172.555 115.605 172.555 116.28V134.5C172.536 134.867 172.43 135.225 172.247 135.544C172.064 135.863 171.808 136.134 171.5 136.335L84.2148 186.705C83.6298 187.045 83.1548 186.77 83.1548 186.095V167.895C83.175 167.527 83.2815 167.17 83.4657 166.851C83.6498 166.532 83.9065 166.261 84.2148 166.06Z" fill="#E0E0E0"/>
<path d="M84.2148 166.06L171.5 115.67C172.085 115.33 172.555 115.605 172.555 116.28V134.5C172.536 134.867 172.43 135.225 172.247 135.544C172.064 135.863 171.808 136.134 171.5 136.335L84.2148 186.705C83.6298 187.045 83.1548 186.77 83.1548 186.095V167.895C83.175 167.527 83.2815 167.17 83.4657 166.851C83.6498 166.532 83.9065 166.261 84.2148 166.06Z" fill="#F0F0F0"/>
<path d="M88.9047 181.035C88.8907 181.143 88.8351 181.242 88.7497 181.31C88.7675 181.353 88.776 181.399 88.7747 181.445C88.7673 181.51 88.7449 181.572 88.7094 181.627C88.6738 181.681 88.626 181.727 88.5697 181.76L87.6597 182.29V181.095C87.6597 181.095 87.9097 180.525 87.9297 180.445C87.9422 180.302 87.9422 180.158 87.9297 180.015C87.9527 179.972 87.9895 179.939 88.0339 179.92C88.0784 179.901 88.128 179.897 88.1747 179.91C88.2 179.922 88.2197 179.944 88.2297 179.97C88.2585 180.03 88.2771 180.094 88.2847 180.16C88.3035 180.271 88.3035 180.384 88.2847 180.495L88.8347 180.18C88.8847 180.15 88.9197 180.15 88.9447 180.18C88.9637 180.193 88.9789 180.211 88.9885 180.232C88.9982 180.254 89.002 180.277 88.9997 180.3C88.9972 180.385 88.9674 180.468 88.9147 180.535C88.9147 180.535 89.0247 180.505 89.0247 180.65C89.0218 180.702 89.0083 180.753 88.9851 180.799C88.9619 180.845 88.9294 180.887 88.8897 180.92C88.8897 180.92 88.9047 180.935 88.9047 181.035Z" fill="#37474F"/>
<path d="M87.5299 182.21V182.465C87.5286 182.483 87.5229 182.501 87.5133 182.517C87.5037 182.532 87.4906 182.545 87.4749 182.555L87.1799 182.725H87.1299V181.36L87.3699 181.22L87.5099 181.135C87.5143 181.153 87.5143 181.172 87.5099 181.19L87.5299 182.21Z" fill="#37474F"/>
<path d="M90.5998 179.055L96.7398 175.525C97.0348 175.36 97.2698 175.475 97.2698 175.795C97.2569 175.973 97.2022 176.145 97.1101 176.298C97.018 176.451 96.8911 176.58 96.7398 176.675L90.5998 180.175C90.3048 180.345 90.0698 180.225 90.0698 179.91C90.0876 179.737 90.1446 179.57 90.2364 179.421C90.3282 179.273 90.4525 179.148 90.5998 179.055Z" fill="#37474F"/>
<path d="M121.94 160.825L128.08 157.325C128.37 157.155 128.61 157.275 128.61 157.59C128.596 157.768 128.54 157.94 128.449 158.092C128.357 158.245 128.23 158.374 128.08 158.47L121.94 162C121.645 162.17 121.405 162.05 121.405 161.73C121.415 161.547 121.469 161.37 121.562 161.212C121.655 161.055 121.785 160.922 121.94 160.825Z" fill="#37474F"/>
<path d="M119.73 161.96C119.73 161.76 119.59 161.675 119.415 161.78L117.5 162.895C117.407 162.955 117.33 163.036 117.276 163.132C117.221 163.228 117.19 163.335 117.185 163.445V164.765C117.185 164.97 117.325 165.05 117.505 164.95L118.04 164.645V165.105C118.04 165.135 118.08 165.15 118.095 165.105L118.885 164.155L119.455 163.83C119.548 163.771 119.625 163.69 119.68 163.594C119.735 163.498 119.766 163.39 119.77 163.28L119.73 161.96Z" fill="#37474F"/>
<path d="M159.955 138.94L166.095 135.415C166.385 135.245 166.625 135.365 166.625 135.68C166.611 135.858 166.555 136.03 166.464 136.182C166.372 136.335 166.245 136.464 166.095 136.56L159.955 140.09C159.66 140.26 159.425 140.14 159.425 139.82C159.438 139.642 159.492 139.469 159.585 139.317C159.677 139.164 159.803 139.035 159.955 138.94Z" fill="#37474F"/>
<path d="M158 140.655L156.5 140.19V141C155.909 141.252 155.399 141.662 155.025 142.185C154.205 143.41 154.8 144.11 155.075 144.185C155.075 144.185 154.64 143.89 155.12 143.01C155.453 142.523 155.939 142.161 156.5 141.98V142.88L158 140.655Z" fill="#37474F"/>
<path d="M96 167.455C96 169.64 95.035 172.125 93.565 174.095C93.5548 174.11 93.5431 174.123 93.53 174.135C93.355 174.375 93.17 174.605 92.97 174.83C92.659 175.185 92.3249 175.519 91.97 175.83C91.785 175.995 91.595 176.15 91.405 176.29C91.1381 176.493 90.8593 176.68 90.57 176.85C89.8764 177.275 89.0913 177.529 88.28 177.59H88.17C88.0178 177.593 87.8655 177.583 87.715 177.56C87.0913 177.485 86.5158 177.187 86.095 176.72L86.05 176.675C85.3975 175.829 85.0726 174.776 85.135 173.71C85.135 170.245 87.57 166.03 90.57 164.295C93.57 162.56 96 164 96 167.455Z" fill="#E64848"/>
<path opacity="0.4" d="M96 167.455C96 169.64 95.035 172.125 93.565 174.095C93.5548 174.11 93.5431 174.123 93.53 174.135C93.355 174.375 93.17 174.605 92.97 174.83C92.659 175.185 92.3249 175.519 91.97 175.83C91.785 175.995 91.595 176.15 91.405 176.29C91.1381 176.493 90.8593 176.68 90.57 176.85C89.8764 177.275 89.0913 177.529 88.28 177.59H88.17C88.0178 177.593 87.8655 177.583 87.715 177.56C87.0913 177.485 86.5158 177.187 86.095 176.72L86.05 176.675C85.3975 175.829 85.0726 174.776 85.135 173.71C85.135 170.245 87.57 166.03 90.57 164.295C93.57 162.56 96 164 96 167.455Z" fill="black"/>
<path d="M91.4548 173.68H91.4148L91.3548 173.735C90.8548 174.235 90.8198 174.695 91.0548 175.43C91.1482 175.724 91.2567 176.012 91.3798 176.295C91.5698 176.155 91.7598 176 91.9448 175.835C92.2997 175.524 92.6337 175.19 92.9448 174.835C93.1448 174.61 93.3298 174.38 93.5048 174.14C93.0998 173.605 92.4648 173.5 91.4548 173.68Z" fill="#FFA8A7"/>
<path d="M93.5448 174.095C93.5346 174.11 93.5229 174.123 93.5098 174.135C93.3348 174.375 93.1498 174.605 92.9498 174.83C92.6387 175.185 92.3047 175.519 91.9498 175.83L91.7648 175.085L91.4698 173.865L91.4248 173.675H91.4598C91.9 173.556 92.3608 173.536 92.8098 173.615C93.1042 173.682 93.365 173.852 93.5448 174.095Z" fill="#455A64"/>
<path d="M89 173.265C88.595 173.265 87.21 172.105 87.21 170.31C87.211 169.973 87.2512 169.638 87.33 169.31C87.4152 168.959 87.5499 168.623 87.73 168.31C87.9178 167.96 88.1628 167.644 88.455 167.375C89.0233 166.888 89.6518 166.477 90.325 166.15C90.6812 165.955 91.0659 165.816 91.465 165.74C91.8687 165.67 92.2839 165.758 92.625 165.985C92.8254 166.136 92.9682 166.352 93.03 166.595C93.0877 166.799 93.0877 167.016 93.03 167.22C93.125 167.195 93.33 167.35 93.395 167.425C93.4873 167.543 93.5476 167.682 93.57 167.83C93.5734 167.992 93.5442 168.153 93.484 168.303C93.4239 168.453 93.3341 168.59 93.22 168.705C93.3266 168.932 93.3649 169.185 93.3303 169.434C93.2957 169.682 93.1896 169.916 93.025 170.105C92.65 170.52 92.025 170.65 91.65 171.045C91.3613 171.404 91.1441 171.814 91.01 172.255C90.86 172.605 90.6 173.085 90.175 173.16C89.95 173.195 89.675 173.19 89.47 173.22L89 173.265Z" fill="#263238"/>
<path d="M92.9498 174.83C92.6388 175.185 92.3047 175.519 91.9498 175.83C91.7648 175.995 91.5748 176.15 91.3848 176.29C91.118 176.493 90.8391 176.68 90.5499 176.85C89.8562 177.275 89.0712 177.529 88.2598 177.59H88.1498C87.9976 177.593 87.8454 177.583 87.6948 177.56C87.9498 176.775 88.0898 175.68 87.3398 174.87C87.5648 174.695 89.4799 173.99 89.4799 173.99L91.3198 173.68C91.353 173.675 91.3867 173.675 91.4198 173.68C91.7298 173.715 92.3148 174.09 92.9498 174.83Z" fill="#E64848"/>
<path d="M92.1198 167.26C92.4498 167.395 92.8498 168.26 92.8098 170.26C92.7798 171.955 92.3098 172.495 92.0648 172.68C91.7134 172.864 91.3214 172.957 90.9248 172.95V173.735C90.9248 173.735 91.5398 174.395 91.5048 174.87C91.4698 175.345 90.6148 175.68 90.0348 175.37C89.6101 175.1 89.2485 174.742 88.9748 174.32V172.215C88.9332 172.267 88.881 172.31 88.8216 172.341C88.7621 172.371 88.6969 172.389 88.6302 172.392C88.5635 172.395 88.4968 172.384 88.4347 172.36C88.3725 172.335 88.3163 172.298 88.2698 172.25C88.0812 172.102 87.9553 171.889 87.9173 171.653C87.8793 171.416 87.932 171.174 88.0648 170.975C88.3498 170.565 88.8798 170.51 89.0648 170.935C89.311 170.307 89.7597 169.779 90.3398 169.435C90.7648 169.207 91.1408 168.898 91.4462 168.525C91.7516 168.151 91.9805 167.722 92.1198 167.26Z" fill="#FFA8A7"/>
<path d="M91.18 170.25C91.1831 170.308 91.1686 170.366 91.1383 170.416C91.1079 170.466 91.0632 170.506 91.01 170.53C90.9861 170.538 90.9606 170.539 90.936 170.535C90.9113 170.53 90.8882 170.519 90.8688 170.503C90.8494 170.487 90.8343 170.467 90.8249 170.443C90.8155 170.42 90.8121 170.395 90.815 170.37C90.811 170.311 90.8258 170.253 90.8573 170.204C90.8888 170.154 90.9353 170.116 90.99 170.095C91.09 170.06 91.175 170.13 91.18 170.25Z" fill="#263238"/>
<path d="M91.1048 171.575L91.7948 171.645C91.7744 171.752 91.7193 171.85 91.6381 171.923C91.5568 171.996 91.4538 172.041 91.3448 172.05C91.1548 172.03 91.0448 171.82 91.1048 171.575Z" fill="#B16668"/>
<path d="M92.6849 169.195L92.3149 169C92.3849 168.86 92.5199 168.79 92.6249 168.845C92.6765 168.886 92.7112 168.944 92.7222 169.008C92.7333 169.073 92.72 169.14 92.6849 169.195Z" fill="#263238"/>
<path d="M90.6446 169.9L90.9996 169.5C90.9296 169.395 90.7946 169.4 90.6896 169.5C90.6412 169.554 90.6108 169.621 90.6027 169.693C90.5947 169.765 90.6093 169.837 90.6446 169.9Z" fill="#263238"/>
<path d="M92.5999 169.72C92.6027 169.778 92.588 169.835 92.5576 169.884C92.5273 169.933 92.4827 169.972 92.4299 169.995C92.406 170.003 92.3805 170.004 92.3559 170C92.3312 169.995 92.3081 169.984 92.2887 169.968C92.2693 169.952 92.2542 169.932 92.2448 169.908C92.2354 169.885 92.232 169.86 92.2349 169.835C92.2324 169.777 92.2479 169.719 92.2792 169.67C92.3105 169.621 92.3561 169.582 92.4099 169.56C92.4999 169.525 92.5949 169.595 92.5999 169.72Z" fill="#263238"/>
<path d="M91.7349 169.83L91.7649 171.095L92.3449 170.735L91.7349 169.83Z" fill="#F28F8F"/>
<path d="M90.9249 172.93C90.4549 172.985 89.4898 172.93 89.3398 172.52C89.3925 172.713 89.5134 172.88 89.6798 172.99C90.0756 173.154 90.497 173.247 90.9249 173.265V172.93Z" fill="#F28F8F"/>
<path d="M88.1448 177.61C87.9926 177.613 87.8404 177.603 87.6898 177.58C87.0661 177.505 86.4906 177.207 86.0698 176.74C86.3099 176.024 86.7423 175.387 87.3198 174.9C87.9298 174.965 88.1148 175.775 88.1798 176.245C88.2377 176.699 88.2259 177.159 88.1448 177.61Z" fill="#FFA8A7"/>
<path d="M88.2549 177.61H88.1449C87.9927 177.613 87.8404 177.603 87.6899 177.58C87.0662 177.505 86.4907 177.207 86.0699 176.74L86.0249 176.695C86.0435 176.644 86.0652 176.594 86.0899 176.545C86.3066 175.876 86.7392 175.297 87.3199 174.9C87.3841 174.866 87.451 174.838 87.5199 174.815C88.4699 175.28 88.4299 176.67 88.2549 177.61Z" fill="#455A64"/>
<path d="M91.3447 172.05C91.3997 172.046 91.4529 172.029 91.4997 172C91.491 171.917 91.4519 171.841 91.39 171.785C91.3281 171.73 91.2478 171.7 91.1647 171.7H91.0747C91.0691 171.741 91.0716 171.782 91.0822 171.822C91.0928 171.862 91.1112 171.899 91.1363 171.932C91.1615 171.964 91.1928 171.991 91.2286 172.012C91.2644 172.032 91.3038 172.045 91.3447 172.05Z" fill="#F28F8F"/>
<path d="M165.555 121.5L102.105 158.06C101.794 158.263 101.535 158.536 101.349 158.857C101.163 159.179 101.055 159.539 101.035 159.91V164.34C100.884 165.159 100.526 165.925 99.9947 166.566C99.4634 167.207 98.7764 167.701 97.9997 168C97.9737 168.008 97.9509 168.023 97.9347 168.045C97.9184 168.067 97.9097 168.093 97.9097 168.12C97.9097 168.147 97.9184 168.173 97.9347 168.195C97.9509 168.217 97.9737 168.232 97.9997 168.24C99.0169 168.44 100.072 168.298 101 167.835V168.895C101 169.58 101.5 169.855 102.07 169.515L165.49 132.975C165.801 132.773 166.06 132.501 166.245 132.181C166.431 131.86 166.539 131.5 166.56 131.13L166.585 122.105C166.625 121.42 166.145 121.145 165.555 121.5Z" fill="#E64848"/>
<path d="M103.555 159.555L112.425 154.435C112.715 154.265 112.955 154.385 112.955 154.7C112.942 154.878 112.887 155.05 112.795 155.203C112.703 155.356 112.576 155.485 112.425 155.58L103.555 160.7C103.26 160.87 103.02 160.75 103.02 160.435C103.034 160.257 103.09 160.084 103.182 159.931C103.275 159.778 103.403 159.649 103.555 159.555Z" fill="#455A64"/>
<path d="M105.54 161.185L162.62 128.23C162.915 128.06 163.15 128.18 163.15 128.495C163.137 128.673 163.082 128.845 162.99 128.998C162.898 129.151 162.771 129.28 162.62 129.375L105.54 162.33C105.245 162.5 105.01 162.38 105.01 162.065C105.021 161.887 105.076 161.714 105.168 161.561C105.26 161.408 105.388 161.279 105.54 161.185Z" fill="#455A64"/>
<path d="M105.54 164L155 135.415C155.295 135.245 155.53 135.365 155.53 135.68C155.517 135.858 155.462 136.03 155.37 136.183C155.278 136.336 155.151 136.465 155 136.56L105.545 165.12C105.25 165.29 105.015 165.175 105.015 164.855C105.031 164.682 105.087 164.515 105.178 164.366C105.269 164.218 105.392 164.093 105.54 164Z" fill="#455A64"/>
<path d="M155.06 168.115L169.135 165.36C169.224 165.342 169.317 165.353 169.4 165.391C169.482 165.429 169.551 165.491 169.597 165.57C169.642 165.649 169.661 165.74 169.652 165.831C169.643 165.921 169.605 166.007 169.545 166.075L160 176.89L155.06 168.115Z" fill="#FFA8A7"/>
<path d="M169.545 166.075C169.605 166.007 169.642 165.921 169.652 165.831C169.661 165.74 169.641 165.649 169.596 165.57C169.551 165.491 169.482 165.429 169.399 165.391C169.316 165.353 169.224 165.342 169.135 165.36L166.39 165.9C166.767 166.133 167.073 166.467 167.273 166.863C167.474 167.259 167.561 167.703 167.525 168.145V168.39L169.545 166.075Z" fill="#263238"/>
<path d="M107.5 207L108.65 206.34L110.04 205.55L160 176.89C160.462 175.341 160.321 173.674 159.605 172.225C158.605 169.99 156.67 168.225 155.065 168.125L105.16 196.75L102.5 198.275C104.275 197.38 109.285 206.07 107.5 207Z" fill="#E64848"/>
<path d="M111.91 204.5L114.48 203C115.235 202.6 114.8 200.735 113.915 198.805C112.74 196.245 110.415 193.765 109.415 194.305L107.52 195.395L106.85 195.795C107.85 195.26 110.165 197.74 111.35 200.295C112.2 202.14 112.63 203.94 111.985 204.43C111.967 204.461 111.941 204.485 111.91 204.5Z" fill="#EBEBEB"/>
<path d="M112.55 204.11C114.31 203.175 109.26 194.48 107.495 195.415L104.92 196.885C106.685 195.95 111.735 204.65 109.97 205.585L112.55 204.11Z" fill="#E64848"/>
<path d="M107.5 207L110.04 205.55C111.78 204.645 106.975 196.21 105.14 196.765C105.103 196.772 105.067 196.785 105.035 196.805L102.485 198.305C104.275 197.38 109.285 206.07 107.5 207Z" fill="#EBEBEB"/>
<path opacity="0.15" d="M169.61 165.605L169.11 165.36L158.9 170.945L106.095 201.245C105.995 201.085 105.915 201.075 105.845 201.185C107.345 203.525 108.48 206.47 107.495 206.985L108.645 206.325L110.035 205.535L160 176.89L169.545 166.075C169.602 166.013 169.639 165.934 169.651 165.85C169.663 165.766 169.648 165.681 169.61 165.605Z" fill="black"/>
<path d="M96.7298 213.16L107.5 207C108.255 206.61 107.835 204.765 106.965 202.845C105.8 200.28 103.495 197.775 102.465 198.29L91.6698 204.5C89.5198 205.74 91.4948 210.41 93.8898 212.5C94.7848 213.255 95.7798 213.605 96.7298 213.16Z" fill="#F28F8F"/>
<path opacity="0.1" d="M97.3748 209.815C96.7548 207.38 94.7848 204.995 92.9748 204.485C92.7077 204.39 92.4215 204.36 92.1405 204.398C91.8594 204.436 91.5917 204.542 91.3598 204.705C89.7348 206.205 91.6248 210.495 93.8948 212.47C94.7648 213.24 95.7448 213.585 96.6748 213.18C97.4998 212.705 97.7948 211.46 97.3748 209.815Z" fill="black"/>
<path d="M209.16 84.84L199.825 85.11C199.48 84.815 197.655 82.99 197.655 82.99C197.655 82.99 192.28 82.305 192.25 82.49C192.22 82.675 196.995 88.49 197.525 89.065C198.019 89.5498 198.655 89.865 199.34 89.965C200.73 90.05 208.365 90.12 208.365 90.12L209.16 84.84Z" fill="#B16668"/>
<path d="M209.625 84.84C208.875 84.635 199.995 84.985 199.995 84.985L197.715 82.835C197.715 82.835 196.425 82.6 194.475 82.415C192.525 82.23 191.89 82.415 191.89 82.415C191.89 82.415 196.215 87.815 196.89 88.705C197.565 89.595 197.98 90.13 199.47 90.205C201.355 90.285 208.735 90.325 208.735 90.325L209.625 84.84Z" fill="#E64848"/>
<path d="M222.125 157.445C221.614 157.718 221.048 157.868 220.469 157.886C219.891 157.903 219.316 157.786 218.79 157.545L218 151L222.215 150.03L222.125 157.445Z" fill="#FFA8A7"/>
<path d="M209.735 153.885C208.935 155.76 207.765 155.15 205.99 154.015L205.87 147.55L210.465 147.235L209.735 153.885Z" fill="#FFA8A7"/>
<path d="M215 163.5C214.906 163.869 214.929 164.259 215.065 164.615C215.359 164.905 215.708 165.133 216.093 165.284C216.477 165.436 216.888 165.507 217.3 165.495C218.418 165.608 219.544 165.376 220.525 164.83C220.854 164.648 221.131 164.387 221.334 164.071C221.536 163.755 221.657 163.394 221.685 163.02C221.735 162.275 221.63 161.56 221.965 160.975C222.3 160.39 222.7 159.905 222.805 159.615C222.937 159.091 222.954 158.546 222.855 158.015L215 163.5Z" fill="#263238"/>
<path d="M218.31 157.27C218.302 157.551 218.256 157.83 218.175 158.1C217.887 158.98 217.458 159.807 216.905 160.55C216.52 161.05 216.04 161.435 215.635 161.895C215.203 162.335 214.934 162.911 214.875 163.525C214.85 164.555 215.975 164.87 216.835 164.995C217.767 165.13 218.717 165.055 219.615 164.775C220.088 164.636 220.511 164.364 220.834 163.992C221.156 163.62 221.365 163.163 221.435 162.675C221.47 162.385 221.435 162.095 221.47 161.81C221.567 161.152 221.823 160.527 222.215 159.99C222.445 159.678 222.641 159.343 222.8 158.99C223.045 158.35 222.8 157.64 222.62 157.015C222.455 156.47 222.33 155.82 222.12 155.875C222.12 155.985 222.12 156.225 222.12 156.225C222.065 156.35 221.925 156.43 221.89 156.57C221.855 156.717 221.806 156.861 221.745 157C221.654 157.208 221.5 157.383 221.305 157.5L221.23 156.34C221.24 156.279 221.237 156.217 221.219 156.159C221.202 156.1 221.171 156.046 221.13 156C221.088 155.955 221.037 155.92 220.98 155.897C220.923 155.875 220.862 155.865 220.8 155.87C220.077 155.718 219.336 155.678 218.6 155.75C218.489 155.757 218.385 155.807 218.31 155.89C218.27 155.972 218.256 156.065 218.27 156.155C218.304 156.526 218.318 156.898 218.31 157.27Z" fill="#455A64"/>
<path d="M217.295 160C217.665 159.7 218.52 159.67 218.99 159.705C219.467 159.735 219.93 159.883 220.335 160.135C220.395 160.176 220.467 160.193 220.539 160.185C220.61 160.177 220.677 160.143 220.725 160.09C220.755 160.06 220.777 160.025 220.791 159.986C220.805 159.946 220.811 159.905 220.807 159.863C220.803 159.822 220.79 159.782 220.769 159.746C220.748 159.71 220.72 159.679 220.685 159.655C220.241 159.354 219.722 159.181 219.185 159.155C218.03 159.11 217.685 159.32 217.685 159.32C217.685 159.32 217.17 159.645 217.295 160Z" fill="#F5F5F5"/>
<path d="M216.445 161.06C217.041 160.814 217.691 160.727 218.33 160.81C218.799 160.843 219.251 161 219.64 161.265C219.7 161.306 219.772 161.323 219.844 161.315C219.915 161.307 219.982 161.273 220.03 161.22C220.059 161.19 220.082 161.154 220.095 161.115C220.109 161.075 220.114 161.033 220.109 160.992C220.105 160.951 220.092 160.91 220.07 160.875C220.049 160.839 220.02 160.808 219.985 160.785C219.531 160.462 218.996 160.271 218.44 160.235C217.285 160.185 216.995 160.43 216.995 160.43C216.862 160.487 216.744 160.574 216.649 160.683C216.554 160.792 216.484 160.921 216.445 161.06Z" fill="#F5F5F5"/>
<path d="M219.595 158C219.109 157.931 218.613 157.988 218.155 158.165C217.955 158.285 217.83 158.61 217.96 158.665C218.363 158.491 218.803 158.419 219.24 158.455C219.673 158.484 220.098 158.587 220.495 158.76C220.595 158.8 220.715 158.855 220.82 158.91C220.853 158.927 220.89 158.937 220.926 158.939C220.963 158.942 221.001 158.937 221.036 158.925C221.071 158.913 221.103 158.894 221.13 158.869C221.158 158.844 221.18 158.814 221.195 158.78C221.22 158.722 221.222 158.657 221.202 158.597C221.181 158.537 221.14 158.487 221.085 158.455C220.626 158.201 220.118 158.046 219.595 158Z" fill="#F5F5F5"/>
<path d="M198.965 158.185C198.873 158.487 198.902 158.813 199.045 159.095C199.18 159.36 200.595 160.095 202.475 159.92C203.868 159.783 205.197 159.273 206.325 158.445C207.04 158 207.863 157.761 208.705 157.755C209.635 157.675 210.845 157.175 211.035 156.73C211.132 156.337 211.109 155.925 210.97 155.545L198.965 158.185Z" fill="#263238"/>
<path d="M206.4 152.415L205.9 152.25C205.812 152.216 205.714 152.216 205.625 152.25C205.505 152.295 205.46 152.44 205.435 152.565C205.4 152.845 205.338 153.121 205.25 153.39C205.12 153.609 204.951 153.803 204.75 153.96C204.295 154.344 203.801 154.679 203.275 154.96C202.67 155.31 202.075 155.585 201.445 155.89C200.815 156.195 199.945 156.39 199.445 156.76C199.266 156.89 199.122 157.062 199.025 157.26C198.928 157.458 198.88 157.678 198.887 157.898C198.894 158.119 198.955 158.335 199.065 158.527C199.174 158.719 199.329 158.881 199.515 159C200.993 159.619 202.643 159.684 204.165 159.185C205.245 158.84 206.425 157.64 207.855 157.485C208.76 157.385 210.475 157.08 211.04 156.37C211.25 156.055 210.93 155.095 210.67 154.26C210.41 153.425 210.235 151.885 209.935 151.975C209.885 152.475 209.67 152.5 209.515 152.76C209.395 152.999 209.293 153.246 209.21 153.5C209.125 153.754 208.967 153.976 208.755 154.14C208.649 154.222 208.519 154.266 208.385 154.266C208.251 154.266 208.121 154.222 208.015 154.14C207.74 153.87 207.885 153.38 207.68 153.055C207.514 152.85 207.283 152.707 207.025 152.65L206.4 152.415Z" fill="#455A64"/>
<path d="M204.105 154.435C204.167 154.307 204.26 154.197 204.375 154.115C204.49 154.033 204.625 153.981 204.765 153.965C205.354 153.95 205.929 154.147 206.385 154.52C206.43 154.554 206.466 154.598 206.489 154.649C206.512 154.7 206.523 154.756 206.519 154.812C206.516 154.868 206.499 154.922 206.469 154.97C206.44 155.017 206.399 155.057 206.35 155.085C206.29 155.12 206.22 155.136 206.15 155.129C206.08 155.123 206.014 155.095 205.96 155.05C205.445 154.612 204.78 154.391 204.105 154.435Z" fill="#F5F5F5"/>
<path d="M202.84 155.19C202.927 155.06 203.043 154.953 203.18 154.878C203.317 154.804 203.469 154.763 203.625 154.76C204.264 154.766 204.884 154.977 205.395 155.36C205.438 155.392 205.473 155.435 205.496 155.483C205.519 155.532 205.529 155.585 205.527 155.639C205.525 155.693 205.509 155.745 205.482 155.791C205.454 155.838 205.416 155.877 205.37 155.905C205.312 155.939 205.245 155.955 205.178 155.95C205.111 155.944 205.047 155.918 204.995 155.875C204.71 155.607 204.368 155.407 203.995 155.289C203.623 155.17 203.228 155.136 202.84 155.19Z" fill="#F5F5F5"/>
<path d="M201.44 155.885C201.541 155.764 201.666 155.665 201.807 155.596C201.949 155.527 202.103 155.489 202.26 155.485C202.876 155.505 203.47 155.721 203.955 156.1C203.998 156.133 204.032 156.175 204.055 156.224C204.077 156.273 204.088 156.327 204.085 156.38C204.082 156.434 204.066 156.486 204.038 156.532C204.01 156.579 203.972 156.617 203.925 156.645C203.867 156.679 203.8 156.694 203.732 156.687C203.665 156.681 203.602 156.654 203.55 156.61C203.279 156.334 202.947 156.125 202.581 155.999C202.215 155.873 201.824 155.834 201.44 155.885Z" fill="#F5F5F5"/>
<path d="M220.585 106.93C221.035 114.105 221.76 132.065 221.76 132.065C221.865 132.955 222.195 135.59 222.355 138.805C222.595 143.47 222.225 153.77 222.225 153.77C221.615 154.093 220.946 154.288 220.258 154.342C219.57 154.396 218.878 154.309 218.225 154.085C218.225 154.085 215.57 138.91 214.725 134.325C213.975 130.325 212.525 120.595 212.525 120.595L211.845 132.53C211.972 134.669 211.918 136.815 211.685 138.945C211.42 141.07 210.185 150.31 210.185 150.31C208.76 150.687 207.259 150.673 205.84 150.27C205.84 150.27 205.205 134.77 205.11 132.82C205 130.585 204.535 105.485 204.535 105.485L220.585 106.93Z" fill="#37474F"/>
<path d="M212.54 120.595L211.3 114.74C211.3 114.74 208.35 114.57 206.67 112.975C206.67 112.975 207.01 114.575 210.74 115.43L212 121.355L212.125 126.855L212.54 120.595Z" fill="#263238"/>
<path d="M219.23 85.57C220.64 85.825 220.73 86.52 221.04 87.92C221.334 89.0418 221.455 90.2017 221.4 91.36L220.35 99.63L220.71 109.155C218.44 111.625 209.365 112.415 204.405 108.795C204.405 108.795 204.46 93.15 204.69 90.635C205.09 86.25 207.08 84.69 209.995 84.7L214.995 85.125L219.23 85.57Z" fill="#455A64"/>
<path d="M213.95 74.5C213.948 75.3776 213.686 76.2349 213.196 76.9633C212.707 77.6917 212.012 78.2586 211.201 78.5921C210.389 78.9257 209.497 79.0109 208.636 78.837C207.776 78.6632 206.987 78.238 206.368 77.6153C205.75 76.9927 205.33 76.2006 205.162 75.3392C204.994 74.4779 205.085 73.5861 205.424 72.7766C205.763 71.9672 206.335 71.2765 207.067 70.792C207.798 70.3075 208.658 70.0511 209.535 70.055C210.117 70.057 210.693 70.1735 211.229 70.398C211.766 70.6224 212.253 70.9504 212.663 71.3631C213.073 71.7759 213.398 72.2653 213.619 72.8036C213.839 73.3418 213.952 73.9183 213.95 74.5Z" fill="#263238"/>
<path d="M215.34 75.345L216.285 72.805C216.538 72.7778 216.793 72.8087 217.031 72.8954C217.269 72.982 217.485 73.1222 217.66 73.305C218.25 73.91 217.915 75.805 217.16 77.655C217.16 77.655 216.43 81.025 216.16 81.58C215.97 81.9234 215.652 82.1783 215.275 82.29L215.34 75.345Z" fill="#263238"/>
<path d="M215.41 77.795C215.68 77.96 216.07 77.44 216.41 77.09C216.542 76.9396 216.71 76.8253 216.898 76.7578C217.086 76.6904 217.288 76.6721 217.485 76.7046C217.683 76.7371 217.868 76.8194 218.025 76.9438C218.181 77.0681 218.304 77.2303 218.38 77.415C218.935 78.585 217.88 80.13 217.03 80.415C215.53 80.875 215.33 79.915 215.33 79.915L215.195 85.26C214.866 85.9759 214.364 86.599 213.735 87.0737C213.106 87.5483 212.369 87.8597 211.59 87.98C208.96 88.325 209.51 86.16 210.375 85.105V83.475C209.714 83.5788 209.043 83.6106 208.375 83.57C207.285 83.4 206.605 82.535 206.28 81.355C205.755 79.46 205.555 77.93 206.02 74.205C206.52 70.12 211.28 70.095 213.84 71.705C216.4 73.315 215.41 77.795 215.41 77.795Z" fill="#FFA8A7"/>
<path d="M215.385 78.155C215.81 78.03 216.125 77.345 216.385 77.09C216.855 76.665 216.265 72.805 216.265 72.805C216.39 72.472 216.414 72.1099 216.335 71.7634C216.256 71.4169 216.077 71.1011 215.82 70.855C215.18 70.145 214.11 70.065 212.285 69.77C211.38 69.625 210.315 69.555 209.42 69.39C208.497 69.2448 207.602 68.9581 206.765 68.54C206.617 68.4428 206.442 68.3955 206.265 68.405C206.196 68.4242 206.131 68.4583 206.076 68.5049C206.021 68.5515 205.976 68.6095 205.945 68.675C205.888 68.8072 205.862 68.9511 205.87 69.095C205.874 69.2465 205.901 69.3966 205.95 69.54C205.975 69.625 206.15 69.885 206.115 69.96C206.02 70.15 205.32 69.835 205.18 69.795C205.147 69.7828 205.109 69.7828 205.075 69.795C205.062 69.8014 205.051 69.8105 205.041 69.8217C205.032 69.8329 205.025 69.8459 205.02 69.86C204.918 70.0994 204.871 70.3592 204.885 70.6193C204.899 70.8795 204.973 71.1329 205.1 71.36C205.668 72.335 206.55 73.0892 207.6 73.5C208.684 73.9567 209.867 74.1288 211.035 74C211.533 73.942 212.023 73.8279 212.495 73.66C212.59 73.8353 212.699 74.0025 212.82 74.16C212.956 74.3202 213.115 74.4599 213.29 74.575C213.465 74.6942 213.657 74.7837 213.86 74.84C214.07 74.895 214.27 74.87 214.385 75.095C214.449 75.2433 214.478 75.4039 214.47 75.565C214.47 76.065 214.5 76.51 214.51 76.985C214.506 77.2255 214.54 77.4652 214.61 77.695C214.647 77.8124 214.712 77.9192 214.799 78.0062C214.886 78.0933 214.993 78.158 215.11 78.195C215.204 78.2097 215.3 78.1957 215.385 78.155Z" fill="#263238"/>
<path d="M210.38 83.465C211.502 83.2569 212.601 82.9456 213.665 82.535C214.167 82.2768 214.579 81.8723 214.845 81.375C214.716 81.872 214.488 82.3379 214.175 82.745C213.55 83.54 210.38 84.115 210.38 84.115V83.465Z" fill="#F28F8F"/>
<path d="M210.74 77.06C210.74 77.1589 210.77 77.2556 210.824 77.3378C210.879 77.42 210.958 77.4841 211.049 77.5219C211.14 77.5598 211.241 77.5697 211.338 77.5504C211.435 77.5311 211.524 77.4835 211.594 77.4136C211.664 77.3436 211.711 77.2545 211.731 77.1575C211.75 77.0606 211.74 76.96 211.702 76.8687C211.664 76.7773 211.6 76.6992 211.518 76.6443C211.436 76.5893 211.339 76.56 211.24 76.56C211.108 76.56 210.98 76.6127 210.887 76.7064C210.793 76.8002 210.74 76.9274 210.74 77.06Z" fill="#263238"/>
<path d="M211.32 75.555L212.4 76.255C212.492 76.1076 212.523 75.9304 212.487 75.7606C212.45 75.5909 212.349 75.4419 212.205 75.345C212.134 75.2989 212.054 75.2677 211.97 75.2533C211.886 75.2389 211.801 75.2416 211.718 75.2612C211.635 75.2808 211.557 75.317 211.489 75.3675C211.421 75.418 211.363 75.4818 211.32 75.555Z" fill="#263238"/>
<path d="M211.555 80.025L209.835 80.755C209.884 80.8717 209.955 80.9776 210.045 81.0663C210.135 81.155 210.242 81.2247 210.36 81.2713C210.477 81.3179 210.603 81.3405 210.729 81.3377C210.856 81.3349 210.98 81.3068 211.095 81.255C211.209 81.207 211.311 81.1365 211.396 81.0478C211.481 80.959 211.547 80.8539 211.59 80.7388C211.633 80.6238 211.652 80.5011 211.646 80.3784C211.64 80.2557 211.609 80.1354 211.555 80.025Z" fill="#B16668"/>
<path d="M211.095 81.255C211.236 81.1986 211.36 81.1061 211.454 80.9867C211.548 80.8673 211.608 80.7253 211.63 80.575C211.532 80.5329 211.427 80.5108 211.32 80.51C211.105 80.5112 210.9 80.596 210.747 80.7463C210.594 80.8966 210.505 81.1006 210.5 81.315C210.7 81.3562 210.907 81.3352 211.095 81.255Z" fill="#F28F8F"/>
<path d="M206.4 75.855L207.43 75.23C207.392 75.1614 207.341 75.1012 207.279 75.053C207.218 75.0048 207.147 74.9696 207.071 74.9495C206.995 74.9294 206.916 74.9249 206.839 74.9361C206.761 74.9474 206.687 74.9742 206.62 75.015C206.483 75.1001 206.383 75.2347 206.342 75.3911C206.301 75.5474 206.322 75.7135 206.4 75.855Z" fill="#263238"/>
<path d="M206.795 76.855C206.795 76.9539 206.825 77.0506 206.88 77.1328C206.935 77.215 207.013 77.2791 207.104 77.3169C207.195 77.3548 207.296 77.3647 207.393 77.3454C207.49 77.3261 207.579 77.2785 207.649 77.2086C207.719 77.1386 207.767 77.0495 207.786 76.9526C207.805 76.8556 207.795 76.755 207.757 76.6637C207.72 76.5723 207.655 76.4942 207.573 76.4393C207.491 76.3843 207.394 76.355 207.295 76.355C207.163 76.355 207.036 76.4077 206.942 76.5015C206.848 76.5952 206.795 76.7224 206.795 76.855Z" fill="#263238"/>
<path d="M209.235 76.575L209.16 79.715L207.505 79.205L209.235 76.575Z" fill="#F28F8F"/>
<path d="M197.695 77.73C197.708 77.6005 197.687 77.4699 197.634 77.3508C197.581 77.2318 197.499 77.1282 197.395 77.05L195.34 75.86C195.219 75.8048 195.085 75.7826 194.953 75.7958C194.82 75.809 194.693 75.857 194.585 75.935L107.31 126.325C107.002 126.525 106.745 126.795 106.561 127.113C106.376 127.431 106.27 127.788 106.25 128.155V146.355C106.239 146.482 106.259 146.61 106.308 146.728C106.358 146.846 106.436 146.949 106.535 147.03C106.73 147.155 108.415 148.115 108.61 148.23C108.731 148.285 108.864 148.308 108.995 148.294C109.127 148.281 109.253 148.233 109.36 148.155L196.635 97.765C196.944 97.5638 197.2 97.2929 197.384 96.9741C197.568 96.6553 197.675 96.2976 197.695 95.93V77.73Z" fill="#E0E0E0"/>
<path d="M109.36 127.5L196.635 77.12C197.22 76.78 197.695 77.055 197.695 77.73V95.93C197.675 96.2976 197.569 96.6553 197.384 96.9741C197.2 97.2929 196.944 97.5638 196.635 97.765L109.36 148.155C108.775 148.49 108.3 148.22 108.3 147.545V129.345C108.318 128.975 108.423 128.615 108.607 128.294C108.792 127.974 109.05 127.701 109.36 127.5Z" fill="#F0F0F0"/>
<path d="M114.045 142.5C114.031 142.607 113.978 142.705 113.895 142.775C113.903 142.818 113.903 142.862 113.895 142.905C113.889 142.97 113.867 143.033 113.833 143.088C113.798 143.144 113.751 143.191 113.695 143.225L112.78 143.75V142.56C112.78 142.56 113.03 141.99 113.055 141.905C113.068 141.764 113.068 141.621 113.055 141.48C113.077 141.438 113.113 141.404 113.156 141.384C113.2 141.364 113.249 141.359 113.295 141.37C113.318 141.384 113.336 141.405 113.345 141.43C113.375 141.489 113.394 141.554 113.4 141.62C113.42 141.732 113.42 141.847 113.4 141.96L113.95 141.64C113.966 141.631 113.984 141.626 114.003 141.626C114.021 141.626 114.039 141.631 114.055 141.64C114.074 141.652 114.09 141.669 114.101 141.689C114.111 141.71 114.116 141.732 114.115 141.755C114.111 141.842 114.08 141.926 114.025 141.995C114.025 141.995 114.135 141.96 114.135 142.11C114.132 142.162 114.119 142.213 114.096 142.259C114.073 142.305 114.04 142.347 114 142.38C114 142.38 114.045 142.38 114.045 142.5Z" fill="#37474F"/>
<path d="M112.67 143.66V143.915C112.666 143.95 112.648 143.983 112.62 144.005L112.325 144.175H112.27V142.805L112.515 142.67L112.655 142.585C112.659 142.603 112.659 142.622 112.655 142.64L112.67 143.66Z" fill="#37474F"/>
<path d="M115.745 140.5L121.885 137C122.175 136.83 122.415 136.95 122.415 137.265C122.402 137.444 122.347 137.617 122.255 137.77C122.163 137.924 122.036 138.054 121.885 138.15L115.745 141.675C115.45 141.845 115.21 141.725 115.21 141.41C115.219 141.226 115.272 141.048 115.365 140.889C115.458 140.73 115.589 140.597 115.745 140.5Z" fill="#37474F"/>
<path d="M147.08 122.275L153.22 118.745C153.515 118.58 153.75 118.695 153.75 119.015C153.737 119.193 153.683 119.365 153.591 119.518C153.498 119.671 153.372 119.8 153.22 119.895L147.08 123.42C146.79 123.59 146.55 123.47 146.55 123.155C146.564 122.977 146.62 122.805 146.712 122.653C146.804 122.5 146.93 122.371 147.08 122.275Z" fill="#37474F"/>
<path d="M144.875 123.41C144.875 123.205 144.73 123.125 144.555 123.225L142.625 124.34C142.533 124.401 142.456 124.482 142.401 124.577C142.345 124.673 142.312 124.78 142.305 124.89V126.215C142.305 126.42 142.45 126.5 142.625 126.4L143.16 126.095V126.555C143.163 126.56 143.166 126.565 143.171 126.568C143.176 126.571 143.182 126.573 143.188 126.573C143.194 126.573 143.199 126.571 143.204 126.568C143.209 126.565 143.213 126.56 143.215 126.555L144.005 125.605L144.57 125.28C144.664 125.221 144.742 125.14 144.798 125.044C144.854 124.949 144.885 124.841 144.89 124.73L144.875 123.41Z" fill="#37474F"/>
<path d="M185.095 100.39L191.235 96.865C191.53 96.695 191.77 96.81 191.77 97.13C191.757 97.3084 191.701 97.481 191.608 97.6339C191.515 97.7867 191.387 97.9156 191.235 98.01L185.095 101.51C184.805 101.68 184.565 101.565 184.565 101.245C184.583 101.072 184.64 100.905 184.732 100.756C184.824 100.608 184.948 100.483 185.095 100.39Z" fill="#37474F"/>
<path d="M183.13 102.105L181.63 101.64V102.435C181.039 102.685 180.53 103.095 180.16 103.62C179.34 104.845 179.935 105.545 180.21 105.595C180.21 105.595 179.775 105.295 180.255 104.42C180.585 103.931 181.069 103.566 181.63 103.385V104.29L183.13 102.105Z" fill="#37474F"/>
<path d="M121.125 128.905C121.033 131.108 120.309 133.237 119.04 135.04L118.94 135.195C118.83 135.345 118.725 135.495 118.61 135.64C118.277 136.085 117.911 136.505 117.515 136.895C117.39 137.02 117.26 137.145 117.13 137.255C116.687 137.659 116.203 138.016 115.685 138.32C115.073 138.689 114.393 138.932 113.685 139.035H113.505C113.13 139.067 112.752 139.028 112.39 138.92C112.082 138.827 111.793 138.676 111.54 138.475L111.49 138.435C110.72 137.795 110.255 136.675 110.255 135.165C110.255 131.7 112.69 127.485 115.69 125.75C118.69 124.015 121.125 125.44 121.125 128.905Z" fill="#E64848"/>
<path opacity="0.4" d="M121.125 128.905C121.033 131.108 120.309 133.237 119.04 135.04L118.94 135.195C118.83 135.345 118.725 135.495 118.61 135.64C118.277 136.085 117.911 136.505 117.515 136.895C117.39 137.02 117.26 137.145 117.13 137.255C116.687 137.659 116.203 138.016 115.685 138.32C115.073 138.689 114.393 138.932 113.685 139.035H113.505C113.13 139.067 112.752 139.028 112.39 138.92C112.082 138.827 111.793 138.676 111.54 138.475L111.49 138.435C110.72 137.795 110.255 136.675 110.255 135.165C110.255 131.7 112.69 127.485 115.69 125.75C118.69 124.015 121.125 125.44 121.125 128.905Z" fill="black"/>
<path d="M118.94 135.195C118.83 135.345 118.725 135.495 118.61 135.64C118.277 136.085 117.911 136.505 117.515 136.895C117.383 136.203 117.48 135.487 117.79 134.855C117.995 134.813 118.207 134.823 118.407 134.882C118.608 134.941 118.791 135.049 118.94 135.195Z" fill="#FFA8A7"/>
<path d="M117.845 134.53C117.506 134.529 117.168 134.581 116.845 134.685L116.48 134.8L116.29 134.87L116.6 135.725L117.145 137.25C117.275 137.14 117.405 137.015 117.53 136.89C117.926 136.5 118.292 136.08 118.625 135.635C118.74 135.49 118.845 135.34 118.955 135.19L119.055 135.035C118.899 134.872 118.711 134.742 118.503 134.655C118.295 134.569 118.071 134.526 117.845 134.53Z" fill="#E64848"/>
<path d="M118.61 135.64C118.277 136.085 117.911 136.505 117.515 136.895C117.39 137.02 117.26 137.145 117.13 137.255C116.687 137.659 116.202 138.016 115.685 138.32C115.073 138.689 114.393 138.932 113.685 139.035H113.505C113.13 139.067 112.751 139.028 112.39 138.92C112.389 138.449 112.456 137.981 112.59 137.53C112.693 137.204 112.875 136.908 113.12 136.67L113.265 136.54L113.52 136.375L114.34 135.845L114.52 135.725L115.785 135.015C115.994 134.892 116.22 134.801 116.455 134.745C116.574 134.711 116.697 134.691 116.82 134.685C117.146 134.658 117.474 134.717 117.77 134.855C118.127 135.019 118.422 135.295 118.61 135.64Z" fill="#455A64"/>
<path d="M114.5 130.19C114.5 131.535 115.445 132.375 116.61 132.06C117.229 131.84 117.765 131.433 118.144 130.896C118.523 130.359 118.726 129.717 118.725 129.06C118.725 127.715 117.725 127.715 116.55 128.025C115.375 128.335 114.5 128.84 114.5 130.19Z" fill="#263238"/>
<path d="M113.53 132.19C113.643 132.814 113.788 133.431 113.965 134.04C114.005 134.109 114.06 134.168 114.127 134.212C114.194 134.255 114.271 134.282 114.35 134.29V133.11L113.53 132.19Z" fill="#263238"/>
<path d="M113.92 129.665C113.798 129.686 113.682 129.732 113.58 129.801C113.477 129.87 113.39 129.96 113.325 130.065C113.065 130.44 113.21 131.345 113.53 132.19L114.115 132.11L113.92 129.665Z" fill="#263238"/>
<path d="M114.29 132.065C114.175 132.175 114.005 131.96 113.86 131.825C113.715 131.69 113.24 131.575 113.005 132.21C112.951 132.336 112.922 132.471 112.922 132.608C112.922 132.745 112.95 132.88 113.005 133.006C113.059 133.131 113.139 133.245 113.238 133.338C113.338 133.432 113.456 133.504 113.585 133.55C113.742 133.588 113.907 133.563 114.045 133.481C114.183 133.399 114.284 133.266 114.325 133.11V135.85C115.4 136.995 117.29 135.645 116.44 135.14V134.33C116.735 134.304 117.026 134.242 117.305 134.145C117.551 134.006 117.761 133.811 117.919 133.577C118.077 133.343 118.178 133.075 118.215 132.795C118.489 131.611 118.531 130.385 118.34 129.185C118.125 127.185 116.065 127.73 114.955 128.835C113.845 129.94 114.29 132.065 114.29 132.065Z" fill="#FFA8A7"/>
<path d="M114.27 132.225C114.25 132.233 114.229 132.236 114.208 132.236C114.186 132.235 114.165 132.229 114.146 132.22C114.127 132.211 114.109 132.197 114.096 132.181C114.082 132.165 114.071 132.146 114.065 132.125C114.027 132.008 113.956 131.903 113.86 131.825C113.66 131.665 113.92 129.665 113.92 129.665C113.857 129.439 113.853 129.2 113.91 128.972C113.967 128.744 114.083 128.535 114.245 128.365C114.314 128.289 114.389 128.218 114.47 128.155C114.565 128.075 114.63 127.97 114.725 127.885C114.929 127.717 115.159 127.584 115.405 127.49C115.775 127.345 116.175 127.245 116.535 127.07C116.959 126.787 117.414 126.554 117.89 126.375C117.983 126.345 118.082 126.336 118.178 126.351C118.274 126.366 118.366 126.403 118.445 126.46C118.518 126.535 118.568 126.63 118.588 126.733C118.607 126.837 118.596 126.943 118.555 127.04C118.467 127.23 118.341 127.4 118.185 127.54C118.316 127.59 118.431 127.674 118.519 127.783C118.606 127.892 118.664 128.022 118.685 128.16C118.679 128.301 118.644 128.438 118.581 128.564C118.518 128.69 118.429 128.801 118.32 128.89C117.881 129.174 117.384 129.358 116.866 129.428C116.347 129.498 115.819 129.453 115.32 129.295C115.335 129.483 115.309 129.672 115.243 129.849C115.178 130.026 115.074 130.187 114.94 130.32C114.84 130.404 114.755 130.506 114.69 130.62C114.655 130.723 114.64 130.831 114.645 130.94C114.634 131.28 114.575 131.617 114.47 131.94C114.448 132.04 114.392 132.128 114.31 132.19L114.27 132.225Z" fill="#263238"/>
<path d="M113.92 129.815L113.21 129.565C113.239 129.449 113.31 129.348 113.411 129.283C113.511 129.218 113.632 129.194 113.75 129.215C113.851 129.273 113.926 129.368 113.958 129.48C113.989 129.592 113.976 129.713 113.92 129.815Z" fill="#263238"/>
<path d="M116.465 134.33C115.988 134.353 115.51 134.321 115.04 134.235C114.822 134.156 114.643 133.997 114.54 133.79C114.591 134.012 114.69 134.22 114.83 134.4C115.1 134.725 116.475 134.65 116.475 134.65L116.465 134.33Z" fill="#F28F8F"/>
<path d="M116.21 131.245C116.211 131.312 116.192 131.378 116.154 131.433C116.117 131.489 116.063 131.531 116 131.555C115.88 131.585 115.785 131.495 115.785 131.355C115.785 131.288 115.806 131.222 115.844 131.166C115.882 131.111 115.937 131.069 116 131.045C116.115 131 116.21 131.105 116.21 131.245Z" fill="#263238"/>
<path d="M115.87 130.325L115.42 130.735C115.389 130.659 115.383 130.576 115.402 130.496C115.42 130.416 115.464 130.344 115.525 130.29C115.547 130.264 115.575 130.244 115.607 130.231C115.639 130.218 115.673 130.213 115.707 130.216C115.741 130.22 115.773 130.232 115.802 130.251C115.83 130.269 115.854 130.295 115.87 130.325Z" fill="#263238"/>
<path d="M116.22 132.765L117.015 132.895C116.992 133.021 116.925 133.135 116.827 133.218C116.728 133.3 116.604 133.345 116.475 133.345C116.255 133.31 116.145 133.05 116.22 132.765Z" fill="#B16668"/>
<path d="M116.32 132.925C116.281 132.917 116.24 132.917 116.2 132.925C116.19 133.014 116.212 133.103 116.263 133.176C116.313 133.25 116.389 133.303 116.475 133.325C116.568 133.337 116.662 133.316 116.74 133.265C116.72 133.169 116.667 133.083 116.59 133.021C116.514 132.959 116.418 132.925 116.32 132.925Z" fill="#F28F8F"/>
<path d="M118.145 129.93L117.735 129.675C117.82 129.515 117.98 129.445 118.095 129.515C118.152 129.567 118.188 129.637 118.197 129.713C118.207 129.789 118.188 129.866 118.145 129.93Z" fill="#263238"/>
<path d="M117.965 130.705C117.966 130.772 117.947 130.838 117.909 130.893C117.871 130.949 117.818 130.991 117.755 131.015C117.64 131.045 117.545 130.955 117.545 130.815C117.544 130.748 117.564 130.683 117.602 130.627C117.639 130.572 117.693 130.529 117.755 130.505C117.87 130.5 117.965 130.565 117.965 130.705Z" fill="#263238"/>
<path d="M116.92 130.79L116.945 132.26L117.705 131.865L116.92 130.79Z" fill="#F28F8F"/>
<path d="M113.5 139.05C113.125 139.082 112.746 139.043 112.385 138.935C112.076 138.842 111.788 138.691 111.535 138.49C111.799 137.703 112.363 137.052 113.105 136.68C113.5 137 113.645 138 113.5 139.05Z" fill="#FFA8A7"/>
<path d="M111.535 138.5C111.788 138.701 112.076 138.852 112.385 138.945C112.746 139.053 113.124 139.092 113.5 139.06H113.68C113.73 138.715 113.77 138.405 113.785 138.165C113.86 136.775 113.53 136.405 113.53 136.405C112.877 136.647 112.314 137.086 111.92 137.66C111.76 137.917 111.619 138.186 111.5 138.465L111.535 138.5Z" fill="#E64848"/>
<path d="M190.7 82.91L127.245 119.465C126.935 119.668 126.677 119.941 126.492 120.263C126.307 120.584 126.2 120.945 126.18 121.315V125.75C126.029 126.572 125.669 127.341 125.135 127.984C124.601 128.626 123.911 129.121 123.13 129.42C123.105 129.429 123.083 129.446 123.068 129.468C123.052 129.489 123.044 129.516 123.044 129.543C123.044 129.569 123.052 129.596 123.068 129.617C123.083 129.639 123.105 129.656 123.13 129.665C124.158 129.869 125.224 129.724 126.16 129.255V130.33C126.16 131.01 126.635 131.29 127.225 130.945L190.665 94.4C190.977 94.197 191.236 93.9239 191.423 93.6026C191.609 93.2814 191.718 92.9209 191.74 92.55V83.55C191.765 82.845 191.29 82.57 190.7 82.91Z" fill="#E64848"/>
<path d="M128.695 120.97L137.565 115.845C137.86 115.675 138.095 115.795 138.095 116.115C138.082 116.293 138.027 116.465 137.935 116.618C137.843 116.771 137.716 116.9 137.565 116.995L128.695 122.115C128.405 122.285 128.165 122.165 128.165 121.85C128.178 121.672 128.233 121.5 128.325 121.347C128.417 121.194 128.544 121.065 128.695 120.97Z" fill="#455A64"/>
<path d="M130.685 122.595L187.76 89.64C188.055 89.47 188.295 89.59 188.295 89.905C188.282 90.0843 188.227 90.2579 188.134 90.4117C188.041 90.5655 187.913 90.6951 187.76 90.79L130.685 123.74C130.39 123.91 130.15 123.795 130.15 123.475C130.164 123.297 130.22 123.124 130.313 122.971C130.406 122.818 130.533 122.689 130.685 122.595Z" fill="#455A64"/>
<path d="M130.685 125.39L158.685 109.24C158.98 109.07 159.215 109.19 159.215 109.505C159.204 109.683 159.149 109.856 159.057 110.009C158.965 110.162 158.838 110.291 158.685 110.385L130.685 126.535C130.39 126.705 130.15 126.585 130.15 126.27C130.163 126.091 130.218 125.918 130.311 125.765C130.404 125.612 130.533 125.483 130.685 125.39Z" fill="#455A64"/>
<path d="M192.58 76.835C193.168 76.9523 193.747 77.1077 194.315 77.3C194.679 77.412 195.006 77.6218 195.259 77.9066C195.512 78.1914 195.682 78.5402 195.75 78.915C195.857 79.3297 195.879 79.7616 195.815 80.185C195.794 80.3273 195.734 80.4608 195.64 80.57C195.501 80.7371 195.331 80.8763 195.14 80.98C194.345 81.41 193.73 81.685 193.005 81.125C192.56 80.78 192.145 80.38 191.67 80.065C191.298 79.8421 190.895 79.6737 190.475 79.565C189.985 79.4372 189.481 79.37 188.975 79.365C188.584 79.4143 188.21 79.5566 187.885 79.78C187.782 79.5826 187.747 79.3564 187.787 79.1372C187.827 78.918 187.939 78.7184 188.105 78.57C188.775 77.96 189.825 77.07 190.605 76.82C191.255 76.6666 191.933 76.6717 192.58 76.835Z" fill="#FFA8A7"/>
<path d="M219.035 85.635L212.375 98.135C212.375 98.135 202.26 98.285 199.585 97.6C198.675 97.37 198.87 96.87 198.585 95.855C198.3 94.84 197.735 94.995 197.735 94.995L197.65 96.34C197.605 97.04 196.815 97.34 196.29 97.6C195.565 97.9593 194.784 98.191 193.98 98.285C193.029 98.3804 192.085 98.539 191.155 98.76C190.965 98.81 190.725 98.87 190.655 99.065C190.624 99.1292 190.611 99.2004 190.616 99.2715C190.621 99.3427 190.645 99.4111 190.685 99.47C190.78 99.605 190.955 99.675 191.06 99.8C191.187 99.9923 191.259 100.215 191.27 100.445C191.344 100.767 191.503 101.063 191.731 101.303C191.959 101.542 192.247 101.715 192.565 101.805C193.985 102.24 195.475 101.925 196.91 101.77C198.136 101.562 199.384 101.52 200.62 101.645C202.06 101.835 203.79 102.095 205.39 102.37C207.632 102.815 209.9 103.118 212.18 103.275C214.135 103.35 214.33 103.19 215.5 101.56C216.31 100.42 218.18 97.435 219.775 94.79C221.37 92.145 222.02 90.33 222.065 88.54C222.05 87.61 221.395 86 219.035 85.635Z" fill="#FFA8A7"/>
<path d="M218.67 85.5C220.42 85.62 220.875 85.93 221.55 86.585C222.225 87.24 222.79 88.3 221.52 91.8C220.25 95.3 215.77 102.075 215.135 102.875C214.595 103.545 212.975 103.505 210.135 103.17C208.4 102.965 206.675 102.585 206.675 102.585C207.215 101.145 207.298 99.5741 206.915 98.085L212.245 97.96L215.935 89.96C215.935 89.96 217.265 86.88 218.67 85.5Z" fill="#E64848"/>
</svg>
