<svg width="250" height="250" viewBox="0 0 250 250" fill="none" xmlns="http://www.w3.org/2000/svg">
<path d="M250 191.2H0V191.325H250V191.2Z" fill="#EBEBEB"/>
<path d="M224.95 199.245H208.39V199.37H224.95V199.245Z" fill="#EBEBEB"/>
<path d="M150.72 199.31H146.375V199.435H150.72V199.31Z" fill="#EBEBEB"/>
<path d="M207.885 194.605H177.165V194.73H207.885V194.605Z" fill="#EBEBEB"/>
<path d="M112.57 197.555H106.225V197.68H112.57V197.555Z" fill="#EBEBEB"/>
<path d="M101.775 197.555H83.3599V197.68H101.775V197.555Z" fill="#EBEBEB"/>
<path d="M38.945 195.445H26.23V195.57H38.945V195.445Z" fill="#EBEBEB"/>
<path d="M79.3898 195.445H41.9448V195.57H79.3898V195.445Z" fill="#EBEBEB"/>
<path d="M118.5 168.9H21.955C21.1987 168.899 20.4738 168.597 19.9394 168.062C19.4051 167.527 19.105 166.801 19.105 166.045V30.33C19.1116 29.578 19.4146 28.859 19.9482 28.3291C20.4818 27.7992 21.203 27.5013 21.955 27.5H118.5C119.257 27.5 119.983 27.8008 120.519 28.3362C121.054 28.8716 121.355 29.5978 121.355 30.355V166.045C121.355 166.802 121.054 167.528 120.519 168.064C119.983 168.599 119.257 168.9 118.5 168.9ZM21.955 27.6C21.2318 27.6013 20.5387 27.8895 20.0278 28.4014C19.5169 28.9132 19.23 29.6068 19.23 30.33V166.045C19.23 166.768 19.5169 167.462 20.0278 167.974C20.5387 168.485 21.2318 168.774 21.955 168.775H118.5C119.224 168.774 119.917 168.486 120.429 167.974C120.941 167.462 121.229 166.769 121.23 166.045V30.33C121.229 29.6064 120.941 28.9127 120.429 28.4011C119.917 27.8894 119.224 27.6013 118.5 27.6H21.955Z" fill="#EBEBEB"/>
<path d="M226.655 168.9H130.105C129.348 168.899 128.623 168.597 128.088 168.062C127.553 167.527 127.251 166.802 127.25 166.045V30.33C127.258 29.5776 127.562 28.8585 128.096 28.3288C128.631 27.7991 129.353 27.5013 130.105 27.5H226.655C227.406 27.5026 228.126 27.8011 228.659 28.3309C229.191 28.8606 229.493 29.5789 229.5 30.33V166.045C229.5 166.8 229.201 167.525 228.667 168.06C228.134 168.595 227.41 168.897 226.655 168.9ZM130.105 27.6C129.381 27.6013 128.688 27.8894 128.176 28.4011C127.664 28.9127 127.376 29.6064 127.375 30.33V166.045C127.376 166.769 127.664 167.462 128.176 167.974C128.688 168.486 129.381 168.774 130.105 168.775H226.655C227.379 168.774 228.072 168.486 228.584 167.974C229.096 167.462 229.384 166.769 229.385 166.045V30.33C229.384 29.6064 229.096 28.9127 228.584 28.4011C228.072 27.8894 227.379 27.6013 226.655 27.6H130.105Z" fill="#EBEBEB"/>
<path d="M95.3902 124.755L216.91 124.755V35.99L95.3902 35.99L95.3902 124.755Z" fill="#E6E6E6"/>
<path d="M90.02 124.755L215.665 124.755V35.99L90.02 35.99L90.02 124.755Z" fill="#F0F0F0"/>
<path d="M208.14 117.235V43.51L97.5351 43.51V117.235H208.14Z" fill="#FAFAFA"/>
<path d="M181.255 117.23L156.075 43.51H132.03L157.21 117.23H181.255Z" fill="white"/>
<path d="M152.045 117.23L126.865 43.51H117.495L142.675 117.23H152.045Z" fill="white"/>
<path d="M98.4951 117.235V43.51H97.5401V117.235H98.4951Z" fill="#E6E6E6"/>
<path d="M32.2848 100.61H75.1948L75.1948 39.775L32.2848 39.775L32.2848 100.61Z" fill="#E0E0E0"/>
<path d="M29.25 100.61H73.48L73.48 39.775L29.25 39.775L29.25 100.61Z" fill="#F5F5F5"/>
<path d="M69.1152 95.81V44.565H33.6152V95.81H69.1152Z" fill="white"/>
<path d="M48.9651 143.2C52.1501 135.34 59.7251 132.415 62.3451 127.45C65.7701 120.95 65.7501 111.195 62.8451 107.68C60.3051 104.62 51.9051 125.3 50.9601 127.61C48.3675 133.844 46.7453 140.439 46.1501 147.165C46.2201 142.31 46.2851 137.85 46.3401 134.41C46.5201 123.19 46.7401 119.58 46.8401 118.47C47.1901 117.925 47.6051 117.295 47.8401 116.97C49.8751 114.105 54.3851 110.69 56.6401 106.525C59.9301 100.44 59.4001 93.16 57.0901 90.45C54.6751 87.615 50.4101 94.315 48.1451 100.95C45.8801 107.585 46.8451 113.95 46.2101 119.45C46.0801 120.53 45.9401 124.635 45.8151 130.335C45.1251 124.205 43.7551 120.1 41.2201 116.27C38.1001 111.565 35.4051 105.835 32.8351 106.575C30.2651 107.315 31.6451 114.9 33.6801 120.22C35.5001 124.96 44.4251 129.69 45.7401 133.5C45.5851 141.22 45.4451 151 45.3501 160.115C44.6451 155.41 45.1301 155.015 42.2401 147.81C40.5251 143.53 33.5001 138.25 32.6501 141.19C31.8001 144.13 33.0851 149.69 35.7401 153.59C37.8851 156.73 42.6401 156.725 43.7401 158.675C43.9951 159.13 44.8451 160.875 45.3301 161.875C45.2151 172.995 45.1651 182.815 45.2201 186.16L45.6801 186.195C45.6801 185.33 45.7151 179.695 45.8051 172.195C46.9601 168.195 54.7351 165.89 57.1351 161.745C59.6351 157.41 61.4551 152.35 60.3751 148.965C59.4751 146.14 52.3751 149.965 49.5201 154.66C47.6051 157.78 46.4351 161.105 45.8901 165.575C45.9551 160.475 46.0301 154.995 46.1001 149.825C46.6851 148.525 48.0001 145.555 48.9651 143.2Z" fill="#E6E6E6"/>
<path d="M53.5298 191.2H37.1898C36.758 191.2 36.3396 191.05 36.0053 190.777C35.6709 190.503 35.4412 190.123 35.3548 189.7L34.1948 184H56.5298L55.3698 189.715C55.2786 190.135 55.0463 190.512 54.7116 190.782C54.3769 191.052 53.9599 191.2 53.5298 191.2Z" fill="#F0F0F0"/>
<path d="M57 186.195H33.725C33.4554 186.194 33.1954 186.095 32.9945 185.915C32.7936 185.735 32.6656 185.488 32.635 185.22L32.135 180.995C32.1182 180.842 32.1338 180.686 32.1808 180.54C32.2279 180.393 32.3053 180.257 32.4081 180.142C32.5109 180.027 32.6368 179.935 32.7775 179.872C32.9182 179.808 33.0707 179.776 33.225 179.775H57.445C57.5995 179.775 57.7524 179.807 57.8935 179.87C58.0346 179.933 58.1608 180.025 58.2637 180.14C58.3667 180.256 58.4441 180.391 58.4908 180.539C58.5376 180.686 58.5526 180.842 58.535 180.995L58.035 185.22C58.0058 185.479 57.8857 185.719 57.6962 185.897C57.5067 186.076 57.26 186.181 57 186.195Z" fill="#F0F0F0"/>
<path d="M202.815 187.555H207.81V133.81H202.815V187.555Z" fill="#F0F0F0"/>
<path d="M101.03 191.135H205.895V187.555H101.03V191.135Z" fill="#F0F0F0"/>
<path d="M202.82 133.81H99.1152V187.555H202.82V133.81Z" fill="#F5F5F5"/>
<path d="M203.995 133.81H209.155V130.42H203.995V133.81Z" fill="#E0E0E0"/>
<path d="M203.995 130.42H97.77V133.81H203.995V130.42Z" fill="#EBEBEB"/>
<path d="M195.375 157H106.555C105.494 157 104.477 156.579 103.727 155.828C102.977 155.078 102.555 154.061 102.555 153V141.5C102.555 140.439 102.977 139.422 103.727 138.672C104.477 137.921 105.494 137.5 106.555 137.5H195.375C196.436 137.5 197.453 137.921 198.204 138.672C198.954 139.422 199.375 140.439 199.375 141.5V153C199.375 154.061 198.954 155.078 198.204 155.828C197.453 156.579 196.436 157 195.375 157ZM106.555 138.5C105.76 138.5 104.996 138.816 104.434 139.379C103.871 139.941 103.555 140.704 103.555 141.5V153C103.555 153.796 103.871 154.559 104.434 155.121C104.996 155.684 105.76 156 106.555 156H195.375C196.171 156 196.934 155.684 197.496 155.121C198.059 154.559 198.375 153.796 198.375 153V141.5C198.375 140.704 198.059 139.941 197.496 139.379C196.934 138.816 196.171 138.5 195.375 138.5H106.555Z" fill="white"/>
<path d="M195.375 181.095H106.555C105.494 181.095 104.477 180.674 103.727 179.923C102.977 179.173 102.555 178.156 102.555 177.095V165.595C102.555 164.534 102.977 163.517 103.727 162.767C104.477 162.016 105.494 161.595 106.555 161.595H195.375C196.436 161.595 197.453 162.016 198.204 162.767C198.954 163.517 199.375 164.534 199.375 165.595V177.095C199.375 178.156 198.954 179.173 198.204 179.923C197.453 180.674 196.436 181.095 195.375 181.095ZM106.555 162.555C105.76 162.555 104.996 162.871 104.434 163.434C103.871 163.996 103.555 164.759 103.555 165.555V177.055C103.555 177.851 103.871 178.614 104.434 179.176C104.996 179.739 105.76 180.055 106.555 180.055H195.375C196.171 180.055 196.934 179.739 197.496 179.176C198.059 178.614 198.375 177.851 198.375 177.055V165.555C198.375 164.759 198.059 163.996 197.496 163.434C196.934 162.871 196.171 162.555 195.375 162.555H106.555Z" fill="white"/>
<path d="M175.19 149H126.74C126.396 149 126.066 148.864 125.822 148.621C125.579 148.378 125.441 148.049 125.44 147.705V146.755C125.441 146.411 125.579 146.082 125.822 145.839C126.066 145.596 126.396 145.46 126.74 145.46H175.19C175.534 145.46 175.864 145.596 176.107 145.839C176.351 146.082 176.489 146.411 176.49 146.755V147.705C176.489 148.049 176.351 148.378 176.107 148.621C175.864 148.864 175.534 149 175.19 149ZM126.74 146.5C126.662 146.501 126.587 146.533 126.531 146.588C126.475 146.642 126.442 146.717 126.44 146.795V147.745C126.442 147.823 126.475 147.898 126.531 147.953C126.587 148.007 126.662 148.039 126.74 148.04H175.19C175.269 148.04 175.344 148.009 175.4 147.954C175.456 147.899 175.489 147.824 175.49 147.745V146.795C175.489 146.716 175.456 146.641 175.4 146.586C175.344 146.531 175.269 146.5 175.19 146.5H126.74Z" fill="white"/>
<path d="M175.19 173.095H126.74C126.396 173.095 126.066 172.959 125.822 172.716C125.579 172.473 125.441 172.144 125.44 171.8V170.85C125.441 170.506 125.579 170.177 125.822 169.934C126.066 169.691 126.396 169.555 126.74 169.555H175.19C175.534 169.555 175.864 169.691 176.107 169.934C176.351 170.177 176.489 170.506 176.49 170.85V171.8C176.489 172.144 176.351 172.473 176.107 172.716C175.864 172.959 175.534 173.095 175.19 173.095ZM126.74 170.555C126.662 170.556 126.587 170.588 126.531 170.642C126.475 170.697 126.442 170.772 126.44 170.85V171.8C126.442 171.878 126.475 171.953 126.531 172.008C126.587 172.062 126.662 172.094 126.74 172.095H175.19C175.269 172.095 175.344 172.064 175.4 172.009C175.456 171.954 175.489 171.879 175.49 171.8V170.85C175.489 170.771 175.456 170.696 175.4 170.641C175.344 170.586 175.269 170.555 175.19 170.555H126.74Z" fill="white"/>
<path d="M122.5 213.78C176.041 213.78 219.445 211.246 219.445 208.12C219.445 204.994 176.041 202.46 122.5 202.46C68.9589 202.46 25.5552 204.994 25.5552 208.12C25.5552 211.246 68.9589 213.78 122.5 213.78Z" fill="#F5F5F5"/>
<path d="M187.395 83.8763L187.205 86.8202L187.704 86.8524L187.894 83.9086L187.395 83.8763Z" fill="#E64848"/>
<path d="M188.154 71.92L187.53 81.5949L188.029 81.6271L188.653 71.9522L188.154 71.92Z" fill="#E64848"/>
<path d="M182.22 57.87H123.445C121.936 57.8965 120.491 58.4843 119.391 59.5188C118.292 60.5533 117.618 61.9602 117.5 63.465L109.905 180.715C109.85 181.434 109.944 182.156 110.183 182.836C110.421 183.517 110.799 184.14 111.291 184.666C111.783 185.193 112.38 185.611 113.042 185.895C113.705 186.179 114.419 186.322 115.14 186.315H173.905C175.417 186.29 176.865 185.702 177.967 184.667C179.069 183.631 179.746 182.222 179.865 180.715L187.455 63.465C187.511 62.7465 187.416 62.0243 187.177 61.3444C186.939 60.6644 186.561 60.0415 186.069 59.5153C185.577 58.9891 184.98 58.5711 184.318 58.2879C183.655 58.0046 182.941 57.8623 182.22 57.87Z" fill="#E64848"/>
<path opacity="0.7" d="M180.355 57.87H123.445C121.936 57.8965 120.491 58.4843 119.391 59.5188C118.292 60.5533 117.618 61.9602 117.5 63.465L109.905 180.715C109.85 181.434 109.944 182.156 110.183 182.836C110.421 183.517 110.799 184.14 111.291 184.666C111.783 185.193 112.38 185.611 113.042 185.895C113.705 186.179 114.419 186.322 115.14 186.315H172.04C173.552 186.29 175 185.702 176.102 184.667C177.204 183.631 177.881 182.222 178 180.715L185.59 63.465C185.646 62.7465 185.551 62.0243 185.312 61.3444C185.074 60.6644 184.696 60.0415 184.204 59.5153C183.712 58.9891 183.115 58.5711 182.453 58.2879C181.79 58.0046 181.076 57.8623 180.355 57.87Z" fill="white"/>
<path d="M175.555 177.65H112.955C112.721 177.65 112.489 177.603 112.274 177.51C112.059 177.417 111.866 177.282 111.705 177.111C111.545 176.94 111.422 176.739 111.342 176.518C111.263 176.298 111.23 176.064 111.245 175.83L118.115 69.73C118.143 69.2967 118.335 68.8902 118.652 68.593C118.968 68.2959 119.386 68.1303 119.82 68.13H182.425C182.66 68.1302 182.891 68.1784 183.106 68.2717C183.321 68.365 183.515 68.5013 183.675 68.6724C183.835 68.8434 183.959 69.0454 184.038 69.266C184.117 69.4866 184.15 69.7211 184.135 69.955L177.265 176.05C177.237 176.484 177.045 176.891 176.727 177.189C176.409 177.486 175.99 177.651 175.555 177.65Z" fill="white"/>
<path d="M161.645 64.66H138.89C138.773 64.661 138.657 64.6377 138.549 64.5916C138.442 64.5454 138.345 64.4774 138.265 64.3918C138.185 64.3063 138.124 64.205 138.085 64.0946C138.046 63.9841 138.031 63.8667 138.04 63.75C138.063 63.5075 138.174 63.2817 138.352 63.1151C138.529 62.9485 138.762 62.8524 139.005 62.845H161.76C161.877 62.8433 161.993 62.8659 162.1 62.9115C162.208 62.9571 162.305 63.0247 162.385 63.1098C162.465 63.195 162.526 63.2959 162.565 63.4062C162.604 63.5164 162.619 63.6335 162.61 63.75C162.588 63.9934 162.478 64.2204 162.3 64.388C162.122 64.5557 161.889 64.6524 161.645 64.66Z" fill="white"/>
<path d="M143.885 182.105C143.848 182.704 143.586 183.267 143.151 183.681C142.716 184.095 142.14 184.329 141.54 184.335C141.252 184.338 140.966 184.281 140.7 184.168C140.435 184.056 140.196 183.889 139.997 183.68C139.799 183.471 139.646 183.223 139.547 182.952C139.449 182.681 139.407 182.393 139.425 182.105C139.463 181.507 139.726 180.945 140.16 180.532C140.595 180.119 141.17 179.886 141.77 179.88C142.058 179.877 142.344 179.933 142.609 180.045C142.874 180.157 143.114 180.323 143.312 180.531C143.511 180.74 143.664 180.988 143.763 181.259C143.861 181.529 143.903 181.817 143.885 182.105Z" fill="white"/>
<path opacity="0.2" d="M168.735 97.5H115.28L111.88 149.95H168.735C170.218 149.947 171.641 149.357 172.69 148.309C173.739 147.26 174.331 145.839 174.335 144.355V103.115C174.336 101.628 173.747 100.201 172.697 99.1484C171.647 98.0956 170.222 97.5027 168.735 97.5Z" fill="#E64848"/>
<path d="M163.755 92.855H98.245C95.1522 92.855 92.645 95.3622 92.645 98.455V139.71C92.645 142.803 95.1522 145.31 98.245 145.31H163.755C166.848 145.31 169.355 142.803 169.355 139.71V98.455C169.355 95.3622 166.848 92.855 163.755 92.855Z" fill="#E64848"/>
<path d="M90.8551 92.25C90.7239 92.2495 90.5982 92.1974 90.5051 92.105L89.6051 91.21C89.5109 91.1159 89.458 90.9882 89.458 90.855C89.458 90.7219 89.5109 90.5942 89.6051 90.5C89.6992 90.4059 89.8269 90.353 89.9601 90.353C90.0932 90.353 90.2209 90.4059 90.3151 90.5L91.2101 91.4C91.3032 91.4937 91.3555 91.6204 91.3555 91.7525C91.3555 91.8846 91.3032 92.0113 91.2101 92.105C91.1633 92.1514 91.1079 92.188 91.047 92.2129C90.9861 92.2378 90.9209 92.2504 90.8551 92.25Z" fill="#E64848"/>
<path d="M89.4999 95.39H88.2349C88.1023 95.39 87.9751 95.3373 87.8813 95.2436C87.7875 95.1498 87.7349 95.0226 87.7349 94.89C87.7349 94.7574 87.7875 94.6302 87.8813 94.5365C87.9751 94.4427 88.1023 94.39 88.2349 94.39H89.4999C89.6325 94.39 89.7596 94.4427 89.8534 94.5365C89.9472 94.6302 89.9999 94.7574 89.9999 94.89C89.9999 95.0226 89.9472 95.1498 89.8534 95.2436C89.7596 95.3373 89.6325 95.39 89.4999 95.39Z" fill="#E64848"/>
<path d="M94.04 90.9C93.9133 90.9003 93.7911 90.8525 93.6983 90.7661C93.6055 90.6798 93.5489 90.5615 93.54 90.435L93.45 89.17C93.4453 89.1043 93.4535 89.0383 93.4744 88.9758C93.4952 88.9133 93.5281 88.8556 93.5714 88.8059C93.6146 88.7562 93.6672 88.7155 93.7262 88.6861C93.7851 88.6568 93.8493 88.6394 93.915 88.635C94.0469 88.6268 94.1767 88.6711 94.276 88.7582C94.3753 88.8453 94.436 88.9682 94.445 89.1L94.54 90.365C94.5448 90.4307 94.5365 90.4967 94.5157 90.5592C94.4949 90.6217 94.4619 90.6794 94.4187 90.7291C94.3755 90.7789 94.3229 90.8195 94.2639 90.8489C94.205 90.8782 94.1408 90.8956 94.075 90.9H94.04Z" fill="#E64848"/>
<path d="M136.595 139.915L156.71 160.025V139.915H136.595Z" fill="#E64848"/>
<path d="M142.11 131.105L141.11 126.86C140.857 125.744 140.857 124.586 141.11 123.47L142.5 117.425C143.068 114.847 142.76 112.153 141.625 109.77C140.489 107.387 138.59 105.452 136.23 104.27C136.274 104.159 136.312 104.045 136.345 103.93C136.427 103.563 136.436 103.184 136.371 102.814C136.307 102.444 136.17 102.09 135.969 101.772C135.767 101.455 135.506 101.18 135.198 100.964C134.891 100.748 134.544 100.595 134.177 100.513C133.81 100.43 133.431 100.421 133.061 100.486C132.691 100.55 132.337 100.687 132.02 100.888C131.702 101.09 131.428 101.352 131.211 101.659C130.995 101.966 130.842 102.313 130.76 102.68C130.735 102.797 130.72 102.916 130.715 103.035C128.076 103.097 125.533 104.037 123.489 105.707C121.445 107.377 120.017 109.682 119.43 112.255L118.075 118.305C117.826 119.419 117.33 120.463 116.625 121.36L113.93 124.785C113.666 125.121 113.492 125.518 113.423 125.94C113.354 126.361 113.393 126.793 113.537 127.195C113.68 127.598 113.923 127.957 114.242 128.24C114.562 128.524 114.948 128.721 115.365 128.815L139.115 134.135C139.53 134.225 139.961 134.208 140.368 134.087C140.775 133.966 141.145 133.744 141.444 133.442C141.742 133.14 141.96 132.767 142.076 132.359C142.193 131.95 142.204 131.519 142.11 131.105Z" fill="white"/>
<path d="M124.175 132.415C123.994 132.375 123.807 132.38 123.628 132.431C123.45 132.481 123.287 132.574 123.154 132.702C123.02 132.83 122.92 132.989 122.863 133.165C122.806 133.341 122.793 133.528 122.825 133.71C122.961 134.513 123.334 135.258 123.895 135.849C124.456 136.44 125.18 136.851 125.975 137.029C126.77 137.207 127.601 137.144 128.36 136.849C129.12 136.553 129.774 136.039 130.24 135.37C130.346 135.219 130.414 135.045 130.437 134.862C130.46 134.679 130.438 134.493 130.372 134.32C130.307 134.148 130.199 133.994 130.06 133.873C129.921 133.752 129.755 133.667 129.575 133.625L124.175 132.415Z" fill="white"/>
<path d="M105.935 124C105.811 124.001 105.689 123.971 105.579 123.912C105.47 123.854 105.378 123.769 105.31 123.665C102.948 120.127 102.089 115.796 102.92 111.624C103.752 107.452 106.207 103.782 109.745 101.42C109.911 101.31 110.113 101.27 110.308 101.31C110.503 101.349 110.675 101.464 110.785 101.63C110.895 101.796 110.935 101.998 110.895 102.193C110.856 102.389 110.74 102.56 110.575 102.67C107.372 104.815 105.152 108.144 104.402 111.925C103.652 115.706 104.433 119.63 106.575 122.835C106.685 123 106.726 123.202 106.687 123.397C106.649 123.592 106.535 123.764 106.37 123.875C106.241 123.96 106.089 124.003 105.935 124Z" fill="white"/>
<path d="M109.11 121.87C108.987 121.869 108.866 121.838 108.758 121.78C108.65 121.721 108.558 121.637 108.49 121.535C106.692 118.84 106.038 115.541 106.671 112.364C107.304 109.187 109.172 106.391 111.865 104.59C111.947 104.535 112.039 104.497 112.136 104.478C112.233 104.459 112.332 104.459 112.429 104.478C112.526 104.497 112.618 104.535 112.7 104.59C112.782 104.645 112.853 104.715 112.907 104.797C112.962 104.88 113 104.972 113.02 105.068C113.039 105.165 113.039 105.265 113.02 105.362C113 105.459 112.962 105.551 112.907 105.633C112.852 105.715 112.782 105.785 112.7 105.84C110.336 107.417 108.696 109.869 108.14 112.656C107.584 115.443 108.158 118.336 109.735 120.7C109.845 120.865 109.886 121.067 109.848 121.262C109.809 121.457 109.695 121.629 109.53 121.74C109.405 121.823 109.26 121.868 109.11 121.87Z" fill="white"/>
<path d="M112.29 119.745C112.167 119.746 112.046 119.716 111.938 119.658C111.83 119.601 111.738 119.517 111.67 119.415C111.057 118.498 110.631 117.469 110.417 116.387C110.202 115.305 110.203 114.191 110.42 113.109C110.636 112.028 111.064 110.999 111.678 110.083C112.292 109.167 113.081 108.381 114 107.77C114.165 107.667 114.363 107.633 114.553 107.674C114.743 107.715 114.91 107.828 115.018 107.989C115.127 108.151 115.168 108.348 115.134 108.539C115.099 108.731 114.992 108.901 114.835 109.015C114.081 109.518 113.435 110.164 112.931 110.917C112.428 111.67 112.078 112.515 111.901 113.403C111.724 114.291 111.724 115.205 111.9 116.094C112.077 116.982 112.427 117.827 112.93 118.58C113.039 118.746 113.079 118.947 113.04 119.142C113.002 119.337 112.889 119.508 112.725 119.62C112.596 119.705 112.444 119.748 112.29 119.745Z" fill="white"/>
<path d="M149.175 134.545C149.007 134.545 148.845 134.488 148.713 134.384C148.581 134.28 148.488 134.136 148.448 133.973C148.408 133.81 148.424 133.638 148.494 133.485C148.563 133.333 148.681 133.208 148.83 133.13C152.256 131.36 154.838 128.302 156.01 124.629C157.182 120.955 156.848 116.967 155.08 113.54C155.026 113.452 154.991 113.354 154.977 113.252C154.963 113.15 154.97 113.046 154.998 112.947C155.026 112.847 155.074 112.755 155.139 112.675C155.204 112.595 155.285 112.529 155.377 112.482C155.468 112.435 155.569 112.407 155.671 112.401C155.774 112.394 155.878 112.409 155.974 112.444C156.071 112.479 156.16 112.533 156.235 112.604C156.31 112.675 156.37 112.76 156.41 112.855C157.376 114.728 157.963 116.772 158.138 118.872C158.313 120.971 158.073 123.085 157.432 125.091C156.79 127.098 155.759 128.959 154.398 130.567C153.037 132.176 151.373 133.5 149.5 134.465C149.399 134.515 149.288 134.542 149.175 134.545Z" fill="white"/>
<path d="M147.42 131.15C147.252 131.15 147.09 131.093 146.958 130.989C146.826 130.886 146.733 130.741 146.693 130.578C146.653 130.415 146.67 130.243 146.739 130.09C146.808 129.938 146.926 129.813 147.075 129.735C148.326 129.09 149.438 128.205 150.347 127.13C151.255 126.054 151.943 124.811 152.371 123.47C152.799 122.129 152.958 120.716 152.839 119.314C152.721 117.911 152.327 116.545 151.68 115.295C151.589 115.118 151.571 114.912 151.632 114.722C151.692 114.532 151.826 114.374 152.003 114.282C152.18 114.191 152.386 114.174 152.576 114.234C152.766 114.295 152.924 114.428 153.015 114.605C153.752 116.03 154.201 117.587 154.336 119.186C154.471 120.785 154.289 122.394 153.802 123.923C153.314 125.452 152.53 126.869 151.494 128.095C150.458 129.32 149.191 130.33 147.765 131.065C147.659 131.122 147.54 131.151 147.42 131.15Z" fill="white"/>
<path d="M145.665 127.755C145.498 127.752 145.336 127.694 145.206 127.59C145.075 127.485 144.983 127.341 144.944 127.178C144.904 127.016 144.92 126.845 144.988 126.692C145.056 126.54 145.173 126.414 145.32 126.335C146.125 125.921 146.84 125.352 147.425 124.661C148.01 123.97 148.453 123.17 148.728 122.307C149.004 121.445 149.106 120.537 149.03 119.635C148.954 118.732 148.701 117.854 148.285 117.05C148.194 116.873 148.176 116.667 148.237 116.477C148.297 116.287 148.431 116.129 148.608 116.038C148.785 115.946 148.991 115.929 149.181 115.989C149.37 116.05 149.529 116.183 149.62 116.36C150.638 118.34 150.828 120.643 150.149 122.764C149.471 124.884 147.978 126.649 146 127.67C145.896 127.724 145.782 127.753 145.665 127.755Z" fill="white"/>
<path d="M101.68 62.925H97.8598C97.7607 62.9275 97.6656 62.965 97.5915 63.0309C97.5174 63.0968 97.469 63.1868 97.4548 63.285L96.6548 70.905C96.6491 70.9509 96.6533 70.9975 96.6671 71.0417C96.6808 71.0858 96.7039 71.1266 96.7346 71.1611C96.7654 71.1957 96.8032 71.2233 96.8455 71.242C96.8877 71.2608 96.9336 71.2703 96.9798 71.27H100.8C100.9 71.2673 100.995 71.229 101.07 71.1621C101.144 71.0952 101.192 71.0041 101.205 70.905L102.005 63.285C102.011 63.2393 102.006 63.1929 101.993 63.149C101.979 63.1051 101.956 63.0646 101.925 63.0305C101.894 62.9963 101.856 62.9692 101.814 62.951C101.772 62.9328 101.726 62.9239 101.68 62.925Z" fill="#E64848"/>
<path opacity="0.4" d="M101.335 62.925H97.8598C97.7607 62.9275 97.6656 62.9651 97.5915 63.031C97.5174 63.0968 97.469 63.1868 97.4548 63.285L96.6548 70.905C96.6491 70.9509 96.6533 70.9975 96.6671 71.0417C96.6808 71.0859 96.7039 71.1266 96.7346 71.1611C96.7654 71.1957 96.8032 71.2233 96.8455 71.2421C96.8877 71.2608 96.9336 71.2704 96.9798 71.27H100.48C100.579 71.2671 100.674 71.2287 100.748 71.1617C100.821 71.0948 100.868 71.0037 100.88 70.905L101.68 63.285C101.687 63.2374 101.683 63.1888 101.669 63.1429C101.654 63.097 101.629 63.055 101.596 63.0203C101.562 62.9855 101.522 62.9588 101.476 62.9423C101.431 62.9258 101.383 62.9199 101.335 62.925Z" fill="white"/>
<path d="M82.5349 203.825C83.0349 203.825 83.5349 203.75 83.7099 203.52C83.7525 203.458 83.7753 203.385 83.7753 203.31C83.7753 203.235 83.7525 203.162 83.7099 203.1C83.637 202.988 83.5245 202.908 83.3949 202.875C82.7149 202.69 81.3349 203.5 81.2749 203.535C81.2593 203.545 81.2471 203.559 81.24 203.576C81.2328 203.593 81.231 203.612 81.2349 203.63C81.2386 203.65 81.2482 203.668 81.2625 203.682C81.2768 203.697 81.2951 203.706 81.3149 203.71C81.7176 203.783 82.1257 203.821 82.5349 203.825ZM83.1449 203.04C83.2063 203.032 83.2685 203.032 83.3299 203.04C83.4094 203.059 83.4789 203.107 83.5249 203.175C83.5949 203.295 83.5749 203.355 83.5249 203.385C83.3499 203.65 82.3249 203.655 81.5699 203.55C82.0548 203.275 82.5907 203.101 83.1449 203.04Z" fill="#E64848"/>
<path d="M81.3051 203.71H81.3451C81.8451 203.49 82.7551 202.615 82.6601 202.155C82.6601 202.05 82.5551 201.915 82.2901 201.89C82.1964 201.88 82.1014 201.888 82.0112 201.916C81.9209 201.943 81.8372 201.989 81.7651 202.05C81.2651 202.475 81.2101 203.55 81.2051 203.61C81.2045 203.628 81.2083 203.645 81.2162 203.661C81.224 203.676 81.2357 203.69 81.2501 203.7C81.2672 203.708 81.2862 203.712 81.3051 203.71ZM82.2251 202.07H82.2801C82.4551 202.07 82.4701 202.155 82.4701 202.175C82.5301 202.45 81.9001 203.14 81.4151 203.44C81.4458 202.981 81.6208 202.543 81.9151 202.19C82.0018 202.116 82.1111 202.073 82.2251 202.07Z" fill="#E64848"/>
<path d="M80.8952 194.24H76.8452V203.615H80.8952V194.24Z" fill="#FF8B7B"/>
<path d="M47.4751 199.145L51.5201 199.585L54.1551 190.485L50.1101 190.045L47.4751 199.145Z" fill="#FF8B7B"/>
<path d="M53.4 200.5C53.9 200.63 54.4 200.685 54.625 200.5C54.68 200.449 54.7173 200.382 54.7317 200.308C54.7461 200.234 54.7367 200.158 54.705 200.09C54.6844 200.028 54.6518 199.97 54.6089 199.92C54.566 199.87 54.5137 199.83 54.455 199.8C53.83 199.455 52.28 199.89 52.215 199.905C52.196 199.91 52.179 199.921 52.1664 199.936C52.1539 199.952 52.1464 199.97 52.145 199.99C52.145 200.01 52.1506 200.029 52.1612 200.046C52.1719 200.063 52.187 200.076 52.205 200.085C52.5908 200.257 52.9906 200.396 53.4 200.5ZM54.19 199.9C54.2507 199.915 54.3094 199.937 54.365 199.965C54.4391 200 54.4965 200.063 54.525 200.14C54.565 200.275 54.525 200.325 54.525 200.355C54.285 200.56 53.28 200.315 52.565 200.025C53.0937 199.88 53.6457 199.839 54.19 199.905V199.9Z" fill="#E64848"/>
<path d="M52.2249 200.095H52.2649C52.7649 200 53.9149 199.39 53.9349 198.93C53.9349 198.82 53.8949 198.67 53.6399 198.58C53.5501 198.548 53.4547 198.534 53.3594 198.539C53.2641 198.544 53.1708 198.568 53.0849 198.61C52.4949 198.895 52.1649 199.925 52.1499 199.965C52.1416 199.979 52.1372 199.996 52.1372 200.013C52.1372 200.029 52.1416 200.046 52.1499 200.06C52.1584 200.072 52.1698 200.081 52.1829 200.087C52.196 200.093 52.2105 200.096 52.2249 200.095ZM53.5249 198.75H53.5849C53.7499 198.81 53.7449 198.88 53.7449 198.9C53.7449 199.18 52.9449 199.685 52.3949 199.85C52.5334 199.418 52.8068 199.041 53.1749 198.775C53.2848 198.725 53.4091 198.716 53.5249 198.75Z" fill="#E64848"/>
<path d="M51.735 199.21L47.31 197.94C47.2339 197.917 47.1523 197.922 47.0793 197.953C47.0062 197.984 46.9463 198.039 46.91 198.11L45.28 201.345C45.2419 201.427 45.2223 201.516 45.2227 201.606C45.223 201.697 45.2432 201.786 45.2819 201.868C45.3205 201.949 45.3767 202.021 45.4464 202.079C45.516 202.136 45.5975 202.178 45.685 202.2C47.235 202.615 48.01 202.745 49.955 203.3C51.15 203.645 53.585 204.475 55.24 204.95C56.895 205.425 57.505 203.87 56.865 203.53C53.995 202.005 53.075 200.775 52.315 199.635C52.1786 199.429 51.9729 199.278 51.735 199.21Z" fill="#263238"/>
<path d="M80.8498 203.145H76.4298C76.3503 203.144 76.2732 203.172 76.2125 203.223C76.1519 203.275 76.1119 203.346 76.0998 203.425L75.4548 207C75.4404 207.089 75.4454 207.181 75.4697 207.268C75.4939 207.355 75.5367 207.435 75.5952 207.504C75.6536 207.573 75.7263 207.629 75.8083 207.667C75.8902 207.705 75.9795 207.725 76.0698 207.725C77.6648 207.695 79.9648 207.6 81.9698 207.6C84.3148 207.6 85.5948 207.73 88.3448 207.73C90.0048 207.73 90.3948 206.05 89.6898 205.895C86.4948 205.205 84.6498 205.13 81.8398 203.44C81.5414 203.257 81.2 203.155 80.8498 203.145Z" fill="#263238"/>
<path opacity="0.2" d="M80.8952 194.24H76.8452V199.075H80.8952V194.24Z" fill="black"/>
<path opacity="0.2" d="M50.11 190.05L54.155 190.485L52.69 195.535L48.75 194.74L50.11 190.05Z" fill="black"/>
<path d="M74.2347 101C74.2347 101 71.9997 131.57 69.9997 143.16C67.7947 155.855 54.9647 194.725 54.9647 194.725L47.6147 193.38C47.6147 193.38 56.8797 156.88 57.9047 144.31C59.0197 130.67 60.3597 102.555 60.3597 102.555L74.2347 101Z" fill="#E64848"/>
<path opacity="0.3" d="M70.4699 113.7C70.8699 112.02 71.7899 114.135 72.8599 117.8C72.0499 126.87 70.9949 137.375 69.9849 143.165C69.7599 144.46 69.4199 146.03 68.9849 147.81C69.3699 134.87 69.3849 118.245 70.4699 113.7Z" fill="black"/>
<path d="M81.8699 100.17C81.8699 100.17 84.8048 130.9 84.9048 143.245C85.0098 156.09 82.3648 198.14 82.3648 198.14H75.4998C75.4998 198.14 73.4398 156.84 72.5848 144.225C71.6498 130.475 67.7148 101.725 67.7148 101.725L81.8699 100.17Z" fill="#E64848"/>
<path d="M56.5002 192.25C56.5302 192.25 55.3452 194.915 55.3452 194.915L47.0752 193.415L47.5752 190.94L56.5002 192.25Z" fill="#263238"/>
<path d="M83.5651 195.405C83.5951 195.405 83.3001 198.255 83.3001 198.255H74.9601L74.6201 195.715L83.5651 195.405Z" fill="#263238"/>
<path d="M60.5601 72.78C60.0101 73.845 59.4051 74.965 58.8551 76.07L57.1751 79.4C56.6301 80.51 56.0951 81.625 55.5801 82.74C55.0651 83.855 54.5801 84.965 54.1651 86.075L54.1251 84.325C54.4174 85.2236 54.7681 86.1022 55.1751 86.955C55.3701 87.395 55.6201 87.815 55.8351 88.25C56.0501 88.685 56.3351 89.1 56.5901 89.51C57.1206 90.3575 57.6947 91.177 58.3101 91.965C58.6201 92.36 58.9301 92.765 59.2601 93.145C59.5901 93.525 59.9501 93.92 60.2601 94.245L60.3601 94.355C60.5904 94.608 60.7232 94.9347 60.7346 95.2766C60.746 95.6185 60.6353 95.9533 60.4223 96.221C60.2094 96.4888 59.908 96.6719 59.5723 96.7377C59.2365 96.8035 58.8884 96.7476 58.5901 96.58C58.0733 96.2889 57.5725 95.9701 57.0901 95.625C56.5901 95.295 56.1501 94.95 55.7001 94.585C54.7993 93.8461 53.9537 93.0423 53.1701 92.18C52.3702 91.3038 51.6428 90.364 50.9951 89.37C50.3296 88.3573 49.7508 87.2902 49.2651 86.18C49.0511 85.7088 49.0139 85.1764 49.1601 84.68L49.2301 84.445C49.6101 83.14 50.0351 81.875 50.5051 80.635C50.9751 79.395 51.4751 78.18 52.0051 76.985C52.5351 75.79 53.0901 74.61 53.6751 73.445C54.2601 72.28 54.8501 71.14 55.5251 69.975C55.8981 69.3083 56.5192 68.8157 57.2534 68.6042C57.9875 68.3928 58.7755 68.4796 59.446 68.8458C60.1165 69.212 60.6154 69.8281 60.8343 70.56C61.0532 71.292 60.9745 72.0808 60.6151 72.755L60.5601 72.78Z" fill="#FF8B7B"/>
<path d="M63.4298 71C63.6298 74.815 59.2998 81.82 59.2998 81.82L50.3848 77.365C51.4682 74.2051 53.1449 71.2811 55.3248 68.75C60.0398 63.54 63.2448 67.5 63.4298 71Z" fill="#263238"/>
<path d="M57.3901 95.865L59.1851 98.865L62.9201 96.475C62.2678 95.3059 61.2461 94.3862 60.0151 93.86C59.7305 93.7691 59.4227 93.7831 59.1475 93.8996C58.8723 94.0161 58.648 94.2273 58.5151 94.495L57.3901 95.865Z" fill="#FF8B7B"/>
<path d="M60.6801 100.145L62.4151 99.82C62.5611 99.793 62.7004 99.7373 62.8248 99.6562C62.9492 99.5752 63.0564 99.4702 63.1401 99.3475C63.2237 99.2248 63.2823 99.0867 63.3123 98.9412C63.3423 98.7958 63.3433 98.6458 63.3151 98.5L62.9201 96.5L59.1851 98.89L59.4351 99.495C59.5373 99.7291 59.7166 99.9212 59.943 100.039C60.1695 100.158 60.4295 100.195 60.6801 100.145Z" fill="#FF8B7B"/>
<path d="M71.2148 51.83C71.2498 52.155 71.4548 52.41 71.6648 52.39C71.8748 52.37 72.0148 52.095 71.9748 51.77C71.9348 51.445 71.7348 51.19 71.5248 51.205C71.3148 51.22 71.1748 51.5 71.2148 51.83Z" fill="#263238"/>
<path d="M71.4248 52.41C71.9305 53.3811 72.5608 54.2821 73.2998 55.09C72.7998 55.675 71.7998 55.505 71.7998 55.505L71.4248 52.41Z" fill="#FF5652"/>
<path d="M69.815 50.105C69.841 50.1089 69.8675 50.1068 69.8926 50.099C69.9177 50.0913 69.9407 50.0779 69.96 50.06C70.1333 49.8977 70.3439 49.7804 70.5732 49.7185C70.8025 49.6566 71.0435 49.652 71.275 49.705C71.2986 49.7126 71.3236 49.7152 71.3482 49.7126C71.3729 49.7101 71.3968 49.7025 71.4184 49.6903C71.44 49.6781 71.4588 49.6615 71.4737 49.6417C71.4886 49.6218 71.4993 49.5991 71.505 49.575C71.5175 49.5253 71.5105 49.4727 71.4854 49.4281C71.4602 49.3834 71.4189 49.3501 71.37 49.335C71.0777 49.2652 70.7727 49.2679 70.4817 49.3429C70.1906 49.4178 69.9223 49.5627 69.7 49.765C69.6814 49.7827 69.6666 49.8041 69.6564 49.8277C69.6463 49.8513 69.6411 49.8768 69.6411 49.9025C69.6411 49.9282 69.6463 49.9537 69.6564 49.9773C69.6666 50.0009 69.6814 50.0223 69.7 50.04C69.7138 50.058 69.7312 50.073 69.7509 50.0841C69.7707 50.0953 69.7925 50.1024 69.815 50.105Z" fill="#263238"/>
<path d="M61.1348 55.45C62.0898 58.345 63.3598 63.68 61.5498 65.82C61.5498 65.82 62.7398 68.735 68.2198 68.27C74.2548 67.77 70.7198 65.045 70.7198 65.045C67.3298 64.545 67.0998 62.1 67.3798 59.765L61.1348 55.45Z" fill="#FF8B7B"/>
<path d="M60.2548 66.875C59.6898 65.97 59.0598 64.935 60.1298 64.55C61.3048 64.125 67.9048 63.435 70.2548 64.015C72.6048 64.595 72.1248 66.515 72.1248 66.515L60.2548 66.875Z" fill="#E64848"/>
<path d="M79.5798 68.095C80.4398 68.885 81.3698 69.76 82.2948 70.56C83.2198 71.36 84.1548 72.18 85.0948 72.97C86.0348 73.76 86.9948 74.505 87.9598 75.23C88.9248 75.955 89.9048 76.615 90.8848 77.23L88.8848 77.04C89.716 76.8183 90.5025 76.4546 91.2098 75.965C92.0363 75.3874 92.8034 74.7291 93.4998 74C94.2504 73.2319 94.9533 72.4187 95.6048 71.565C95.9398 71.13 96.2748 70.69 96.6048 70.235C96.9348 69.78 97.2348 69.3 97.5098 68.88L97.5648 68.8C97.7547 68.51 98.0426 68.2978 98.3758 68.2024C98.7091 68.1069 99.0656 68.1344 99.3803 68.28C99.6949 68.4255 99.9468 68.6793 100.09 68.995C100.233 69.3108 100.258 69.6675 100.16 70C99.9698 70.65 99.7698 71.205 99.5398 71.785C99.3098 72.365 99.0698 72.935 98.7998 73.495C98.2523 74.6373 97.6119 75.7327 96.8848 76.77C96.1216 77.87 95.2322 78.8769 94.2348 79.77C93.1309 80.7555 91.8499 81.5224 90.4598 82.03C90.1614 82.1352 89.8451 82.18 89.5293 82.162C89.2134 82.144 88.9043 82.0634 88.6198 81.925L88.4548 81.84C87.2133 81.2299 86.008 80.5487 84.8448 79.8C83.7098 79.065 82.6098 78.3 81.5498 77.48C80.4898 76.66 79.4648 75.83 78.4648 74.98C77.4648 74.13 76.5048 73.24 75.5298 72.245C75.011 71.7039 74.7219 70.9828 74.7231 70.2331C74.7244 69.4835 75.0159 68.7634 75.5366 68.224C76.0572 67.6846 76.7665 67.3678 77.5157 67.34C78.2648 67.3122 78.9957 67.5756 79.5548 68.075L79.5798 68.095Z" fill="#FF8B7B"/>
<path d="M76.5251 65.5C76.5251 65.5 81.5651 70.39 82.1501 100.635C74.0901 102.59 66.3351 103.31 60.3451 102.55C60.0601 98.755 59.6351 85.585 55.7851 71.7C55.6197 71.1152 55.5777 70.5024 55.6618 69.9005C55.7458 69.2985 55.954 68.7207 56.2733 68.2035C56.5925 67.6863 57.0157 67.2412 57.5161 66.8963C58.0165 66.5514 58.5832 66.3143 59.1801 66.2C59.9451 66.05 60.7501 65.915 61.5501 65.81C64.5893 65.3753 67.6511 65.1165 70.7201 65.035C72.6637 65.0509 74.6037 65.2063 76.5251 65.5Z" fill="#263238"/>
<path d="M72.615 70.77C73.115 74.555 79.615 81.83 79.615 81.83L87.33 73.83C85.0383 71.4239 82.5606 69.2021 79.92 67.185C74.265 62.96 72.165 67.26 72.615 70.77Z" fill="#263238"/>
<path d="M99.6598 71.33L102.24 68.965L99.1498 65.79C98.1277 66.6603 97.4241 67.8459 97.1498 69.16C97.1196 69.4604 97.1992 69.7616 97.3738 70.0079C97.5485 70.2542 97.8063 70.429 98.0998 70.5L99.6598 71.33Z" fill="#FF8B7B"/>
<path d="M103.19 67.245L102.525 65.61C102.469 65.4697 102.385 65.3421 102.278 65.2349C102.172 65.1276 102.045 65.0428 101.905 64.9854C101.765 64.9281 101.615 64.8994 101.464 64.901C101.313 64.9027 101.163 64.9346 101.025 64.995L99.1299 65.79L102.22 68.965L102.76 68.6C102.977 68.4581 103.138 68.2459 103.216 67.999C103.294 67.7522 103.285 67.4858 103.19 67.245Z" fill="#FF8B7B"/>
<path d="M60.3651 52C61.0901 56 61.3101 58.37 63.5601 60.275C66.9451 63.14 71.6151 60.91 72.0601 56.825C72.4801 53.145 71.2251 47.22 67.1551 45.93C63.0851 44.64 59.6401 48 60.3651 52Z" fill="#FF8B7B"/>
<path d="M68.2502 53.44C69.6552 53.76 70.7502 52.135 70.9002 51.675C70.2152 51.74 69.0002 51.39 68.7602 51.08C69.5102 51.145 70.2352 50.22 70.3252 49.865C69.5295 49.7113 68.8247 49.2541 68.3602 48.59C69.5752 48.565 71.0352 46.425 69.7002 44.51C68.3652 42.595 62.7852 44.2 62.0002 42.835C60.8302 43.515 61.8702 44.42 61.8702 44.42C61.8702 44.42 53.9752 45.92 57.6152 48.965C54.9452 49.205 54.5702 52.36 56.7952 53.965C59.0202 55.57 59.1352 56.63 58.2502 56.5C58.6052 57.18 60.1902 57.27 60.2802 56.61C60.6552 57.995 61.7352 59.87 64.2252 59.565C66.7152 59.26 69.1552 55.775 68.2502 53.44Z" fill="#263238"/>
<path d="M58.3049 48.5C56.4249 48.76 55.5699 47.7 56.0399 46.765C53.7099 47.955 56.2549 50.585 58.3049 48.5Z" fill="#263238"/>
<path d="M66.3048 52.83C66.6284 53.668 67.2007 54.3868 67.9448 54.89C68.9448 55.55 69.8498 54.89 69.6798 53.89C69.5248 52.97 68.8198 51.515 67.7798 51.255C67.5644 51.1843 67.3333 51.1766 67.1137 51.2328C66.8941 51.289 66.6951 51.4068 66.5402 51.5722C66.3852 51.7377 66.2807 51.944 66.2391 52.1668C66.1974 52.3896 66.2202 52.6197 66.3048 52.83Z" fill="#FF8B7B"/>
<path d="M193.39 193.76C189.69 185.03 188.195 174.76 192.43 175.185C196.775 175.605 196.265 191.085 196.97 192.785C195.615 193.95 193.39 193.76 193.39 193.76Z" fill="#E64848"/>
<path d="M194.59 177.195C193.68 180.525 192.715 185.67 191.98 190.03C192.4 191.28 192.875 192.53 193.39 193.76C193.39 193.76 195.61 193.95 196.975 192.785C196.415 191.445 196.615 181.525 194.59 177.195Z" fill="#263238"/>
<path d="M194.61 192.16C193.45 173.61 196.61 156.415 204.93 157.19C212.07 157.86 201.66 189.09 201.86 192.69C198.59 193.96 194.61 192.16 194.61 192.16Z" fill="#E64848"/>
<path d="M200 192.04C201.305 178.705 208.34 163.145 211.36 168.345C215.195 174.945 205.36 190.665 205.095 193.25C202.635 193.78 200 192.04 200 192.04Z" fill="#E64848"/>
<path d="M198.685 162.145C197.84 162.005 197.37 161.48 197.425 160.735C197.485 159.895 198.175 159.06 198.815 159.05C199.125 159.05 199.645 159.21 199.775 160.365L199.275 160.425C199.215 159.875 199.05 159.55 198.83 159.55C198.49 159.55 197.97 160.17 197.93 160.77C197.895 161.27 198.175 161.55 198.77 161.65L198.685 162.145Z" fill="#E64848"/>
<path d="M207.665 165.5C207.301 165.471 206.954 165.337 206.665 165.115L206.935 164.7C207.4 165 207.76 165.08 207.9 164.91C208.11 164.64 207.965 163.85 207.53 163.435C207.18 163.1 206.77 163.125 206.315 163.525L205.99 163.145C206.107 163.013 206.249 162.906 206.409 162.831C206.568 162.756 206.741 162.714 206.917 162.707C207.093 162.701 207.269 162.73 207.434 162.793C207.598 162.856 207.748 162.952 207.875 163.075C208.485 163.655 208.69 164.715 208.29 165.22C208.216 165.314 208.12 165.388 208.012 165.437C207.903 165.485 207.784 165.507 207.665 165.5Z" fill="#E64848"/>
<path d="M195.41 173.05C195.107 173.072 194.807 172.982 194.566 172.798C194.324 172.614 194.159 172.348 194.1 172.05C193.9 171.235 194.3 170.23 194.91 170.02C195.195 169.925 195.745 169.915 196.225 170.98L195.765 171.19C195.54 170.69 195.265 170.42 195.07 170.495C194.75 170.605 194.445 171.35 194.57 171.93C194.685 172.43 195.07 172.6 195.64 172.51L195.715 173.01C195.614 173.032 195.512 173.045 195.41 173.05Z" fill="#E64848"/>
<path d="M190.085 183.405C189.841 183.411 189.601 183.343 189.397 183.21C189.193 183.077 189.033 182.885 188.94 182.66C188.59 181.895 188.795 180.83 189.35 180.51C189.615 180.36 190.155 180.25 190.825 181.21L190.415 181.495C190.095 181.04 189.79 180.835 189.6 180.945C189.305 181.115 189.145 181.905 189.395 182.445C189.6 182.89 189.99 183.01 190.555 182.81L190.72 183.285C190.517 183.362 190.302 183.402 190.085 183.405Z" fill="#E64848"/>
<path d="M198.945 168.31C198.893 168.31 198.843 168.294 198.8 168.265C198.489 168.093 198.251 167.815 198.13 167.481C198.009 167.148 198.012 166.781 198.14 166.45C198.285 166.118 198.532 165.841 198.847 165.661C199.161 165.481 199.525 165.407 199.885 165.45C200.195 165.505 200.92 165.78 200.97 167.11C200.97 167.176 200.944 167.24 200.897 167.287C200.85 167.334 200.786 167.36 200.72 167.36C200.654 167.36 200.59 167.334 200.543 167.287C200.496 167.24 200.47 167.176 200.47 167.11C200.44 166.415 200.205 165.995 199.795 165.92C199.546 165.9 199.297 165.958 199.083 166.086C198.869 166.215 198.7 166.406 198.6 166.635C198.42 167.06 198.6 167.49 199.1 167.845C199.144 167.876 199.176 167.919 199.194 167.97C199.211 168.02 199.211 168.075 199.195 168.126C199.179 168.177 199.147 168.221 199.104 168.252C199.06 168.284 199.008 168.3 198.955 168.3L198.945 168.31Z" fill="white"/>
<path d="M204.87 181.805C204.812 181.806 204.757 181.786 204.713 181.749C204.669 181.713 204.639 181.662 204.63 181.605C204.622 181.573 204.621 181.54 204.627 181.508C204.633 181.476 204.645 181.445 204.662 181.417C204.68 181.39 204.703 181.366 204.73 181.348C204.757 181.329 204.788 181.317 204.82 181.31C205.5 181.17 205.875 180.865 205.885 180.45C205.862 180.201 205.763 179.966 205.601 179.776C205.439 179.586 205.222 179.451 204.98 179.39C204.53 179.28 204.13 179.525 203.865 180.075C203.85 180.105 203.83 180.131 203.805 180.153C203.781 180.175 203.752 180.191 203.721 180.202C203.69 180.213 203.657 180.217 203.624 180.215C203.591 180.213 203.559 180.205 203.53 180.19C203.5 180.176 203.474 180.155 203.452 180.131C203.43 180.106 203.413 180.077 203.403 180.046C203.392 180.015 203.388 179.982 203.39 179.95C203.392 179.917 203.4 179.885 203.415 179.855C203.537 179.523 203.773 179.246 204.08 179.071C204.388 178.896 204.747 178.836 205.095 178.9C205.448 178.987 205.763 179.185 205.996 179.465C206.228 179.745 206.364 180.092 206.385 180.455C206.385 180.77 206.225 181.53 204.925 181.8L204.87 181.805Z" fill="white"/>
<path d="M211.9 177.59C211.61 177.59 211.225 177.42 210.795 176.775L211.21 176.495C211.52 176.955 211.815 177.165 212.01 177.06C212.31 176.9 212.51 176.11 212.245 175.56C212.055 175.115 211.665 174.985 211.095 175.17L210.94 174.695C211.75 174.43 212.41 174.695 212.705 175.365C213.04 176.135 212.815 177.195 212.25 177.5C212.143 177.56 212.022 177.591 211.9 177.59Z" fill="#E64848"/>
<path d="M210.41 196.935C210.413 194.267 209.457 191.686 207.715 189.665C207.886 189.64 208.042 189.555 208.156 189.425C208.27 189.294 208.333 189.128 208.335 188.955C208.334 188.76 208.255 188.573 208.116 188.435C207.978 188.297 207.79 188.22 207.595 188.22H190.855C190.673 188.223 190.498 188.293 190.365 188.418C190.232 188.543 190.151 188.713 190.137 188.895C190.123 189.077 190.178 189.257 190.29 189.4C190.403 189.544 190.565 189.64 190.745 189.67C189.65 190.942 188.856 192.444 188.422 194.065C187.988 195.686 187.925 197.383 188.238 199.032C188.55 200.681 189.231 202.237 190.229 203.587C191.226 204.936 192.515 206.043 194 206.825C193.838 206.908 193.709 207.044 193.634 207.209C193.558 207.375 193.541 207.561 193.584 207.738C193.628 207.915 193.729 208.072 193.872 208.184C194.016 208.296 194.193 208.356 194.375 208.355H204.07C204.284 208.354 204.49 208.268 204.641 208.116C204.793 207.965 204.879 207.759 204.88 207.545C204.879 207.397 204.838 207.252 204.762 207.125C204.685 206.998 204.576 206.895 204.445 206.825C206.245 205.876 207.752 204.453 208.803 202.71C209.855 200.967 210.41 198.97 210.41 196.935Z" fill="#263238"/>
</svg>
