<svg width="250" height="250" viewBox="0 0 250 250" fill="none" xmlns="http://www.w3.org/2000/svg">
<path d="M214.92 126.755C213.225 113.255 208.985 100.22 203.92 90.875C191.685 68.42 157.6 53.4 131.92 57.285C110.015 60.595 99.4898 80.58 79.7398 87.515C61.5698 93.895 45.2098 98.82 36.6448 115.655C18.4998 151.215 62.8548 190.09 100.87 187.06C112.87 186.1 123.59 181.485 135.905 183.65C160.905 188.045 169.205 192.77 191.285 183.98C213.04 175.315 217.885 150.37 214.92 126.755Z" fill="#E64848"/>
<path opacity="0.8" d="M214.92 126.755C213.225 113.255 208.985 100.22 203.92 90.875C191.685 68.42 157.6 53.4 131.92 57.285C110.015 60.595 99.4898 80.58 79.7398 87.515C61.5698 93.895 45.2098 98.82 36.6448 115.655C18.4998 151.215 62.8548 190.09 100.87 187.06C112.87 186.1 123.59 181.485 135.905 183.65C160.905 188.045 169.205 192.77 191.285 183.98C213.04 175.315 217.885 150.37 214.92 126.755Z" fill="white"/>
<path d="M127.455 194.715L106.13 146.965H157.805L221.53 189" fill="white"/>
<path d="M127.455 194.715L106.13 146.965H157.805L221.53 189" stroke="#263238" stroke-width="0.75" stroke-linecap="round" stroke-linejoin="round"/>
<path d="M122.165 192.835L106.13 150.15V146.965L128.815 196.94L122.165 192.835Z" fill="#263238" stroke="#263238" stroke-width="0.75" stroke-linecap="round" stroke-linejoin="round"/>
<path d="M135.675 148.94L157.655 174.705L130.975 180.92L115.815 152.12L135.675 148.94Z" fill="white" stroke="#263238" stroke-width="0.75" stroke-linecap="round" stroke-linejoin="round"/>
<path d="M130.975 180.92V181.68L157.2 176.375L157.655 174.705L130.975 180.92Z" fill="#263238" stroke="#263238" stroke-width="0.75" stroke-linecap="round" stroke-linejoin="round"/>
<path d="M134.845 158.21L135.97 159.87L138.83 159.095L137.64 157.475L134.845 158.21Z" fill="#263238"/>
<path d="M145.67 168.365L144.31 166.525L141.06 167.4L142.33 169.28L145.67 168.365Z" fill="#263238"/>
<path d="M132.51 154.75L133.345 155.99L136.035 155.305L135.19 154.155L132.51 154.75Z" fill="#263238"/>
<path d="M137.69 162.415L139.23 164.695L142.375 163.9L140.675 161.595L137.69 162.415Z" fill="#263238"/>
<path d="M145.835 163.485L143.14 164.17L144.49 166L147.235 165.26L145.835 163.485Z" fill="#263238"/>
<path d="M139.505 165.095L140.79 167.005L144.02 166.13L142.665 164.29L139.505 165.095Z" fill="#263238"/>
<path d="M129.465 155.425L130.295 156.765L132.875 156.105L132.03 154.855L129.465 155.425Z" fill="#263238"/>
<path d="M136.235 160.265L137.425 162.02L140.385 161.2L139.12 159.485L136.235 160.265Z" fill="#263238"/>
<path d="M133.615 156.385L134.575 157.81L137.345 157.08L136.325 155.695L133.615 156.385Z" fill="#263238"/>
<path d="M127.795 159.6L126.955 158.085L123.89 158.865L124.745 160.405L127.795 159.6Z" fill="#263238"/>
<path d="M123.39 163.265L125.495 162.7L124.52 160.94L122.45 161.485L123.39 163.265Z" fill="#263238"/>
<path d="M128.555 153.955L129.21 155.015L131.755 154.45L131.07 153.44L128.555 153.955Z" fill="#263238"/>
<path d="M126.725 157.67L125.915 156.21L122.8 156.895L123.66 158.45L126.725 157.67Z" fill="#263238"/>
<path d="M125.53 154.57L126.15 155.69L128.74 155.12L128.075 154.05L125.53 154.57Z" fill="#263238"/>
<path d="M121.175 159.085L123.205 158.565L122.335 157L120.31 157.445L121.175 159.085Z" fill="#263238"/>
<path d="M121.92 155.31L122.57 156.48L125.685 155.795L125.06 154.665L121.92 155.31Z" fill="#263238"/>
<path d="M131.705 159.04L132.755 160.735L135.505 159.995L134.38 158.335L131.705 159.04Z" fill="#263238"/>
<path d="M138.765 164.815L137.23 162.545L134.365 163.335L135.755 165.58L138.765 164.815Z" fill="#263238"/>
<path d="M126.38 156.105L127.18 157.555L129.83 156.88L128.995 155.53L126.38 156.105Z" fill="#263238"/>
<path d="M126.98 165.37L124.82 165.965L125.94 168.08L128.165 167.515L126.98 165.37Z" fill="#263238"/>
<path d="M133.005 161.14L134.115 162.93L136.96 162.15L135.775 160.39L133.005 161.14Z" fill="#263238"/>
<path d="M130.995 158.76L130.08 157.285L127.41 157.965L128.25 159.485L130.995 158.76Z" fill="#263238"/>
<path d="M136.01 174.435L132.955 175.215L134.045 177.18L137.11 176.425L136.01 174.435Z" fill="#263238"/>
<path d="M131.28 152.935L133.895 152.4L132.49 150.49L129.915 150.915L131.28 152.935Z" fill="#263238"/>
<path d="M124.83 154.25L123.565 151.965L120.36 152.495L121.69 154.895L124.83 154.25Z" fill="#263238"/>
<path d="M128.99 161.755L128.025 160.01L124.975 160.815L125.95 162.575L128.99 161.755Z" fill="#263238"/>
<path d="M136.775 168.09L135.545 166.105L132.365 166.915L133.505 168.975L136.775 168.09Z" fill="#263238"/>
<path d="M135.295 165.7L133.905 163.46L130.91 164.285L132.135 166.5L135.295 165.7Z" fill="#263238"/>
<path d="M140.325 167.13L139.035 165.215L136.005 165.985L137.235 167.965L140.325 167.13Z" fill="#263238"/>
<path d="M132.295 160.86L131.245 159.16L128.475 159.895L129.44 161.63L132.295 160.86Z" fill="#263238"/>
<path d="M130.545 157.17L131.455 158.635L134.11 157.935L133.145 156.505L130.545 157.17Z" fill="#263238"/>
<path d="M133.655 163.06L132.545 161.265L129.665 162.04L130.685 163.88L133.655 163.06Z" fill="#263238"/>
<path d="M141.87 169.41L140.595 167.53L137.485 168.37L138.67 170.285L141.87 169.41Z" fill="#263238"/>
<path d="M139.815 172.995L138.46 170.81L135.04 171.75L136.24 173.905L139.815 172.995Z" fill="#263238"/>
<path d="M129.565 170.04L128.395 167.925L126.16 168.495L127.3 170.655L129.565 170.04Z" fill="#263238"/>
<path d="M125.725 163.11L123.61 163.68L124.605 165.555L126.75 164.965L125.725 163.11Z" fill="#263238"/>
<path d="M135.78 174.025L134.59 171.87L131.56 172.7L132.725 174.8L135.78 174.025Z" fill="#263238"/>
<path d="M130.23 164L129.215 162.165L126.175 162.985L127.205 164.84L130.23 164Z" fill="#263238"/>
<path d="M131.555 153.34L132.235 154.345L134.895 153.755L134.19 152.8L131.555 153.34Z" fill="#263238"/>
<path d="M120.09 157.03L122.105 156.585L121.455 155.405L119.445 155.815L120.09 157.03Z" fill="#263238"/>
<path d="M128.295 153.54L130.795 153.03L129.42 150.995L126.97 151.4L128.295 153.54Z" fill="#263238"/>
<path d="M125.3 154.155L127.825 153.64L126.485 151.48L124.04 151.885L125.3 154.155Z" fill="#263238"/>
<path d="M124.295 160.53L123.435 158.98L121.395 159.5L122.23 161.07L124.295 160.53Z" fill="#263238"/>
<path d="M134.385 152.3L136.645 151.835L135.225 150.04L132.99 150.405L134.385 152.3Z" fill="#263238"/>
<path d="M121.22 154.99L119.88 152.57L117.9 152.9L119.225 155.395L121.22 154.99Z" fill="#263238"/>
<path d="M132.5 175.33L130.1 175.94L131.14 177.9L133.59 177.295L132.5 175.33Z" fill="#263238"/>
<path d="M143.905 172.42L140.525 173.28L141.76 175.275L145.25 174.41L143.905 172.42Z" fill="#263238"/>
<path d="M140.065 173.4L136.465 174.315L137.57 176.31L141.295 175.39L140.065 173.4Z" fill="#263238"/>
<path d="M147.905 171.4L144.375 172.3L145.72 174.295L149.375 173.39L147.905 171.4Z" fill="#263238"/>
<path d="M151.38 170.515L148.38 171.28L149.855 173.275L152.955 172.505L151.38 170.515Z" fill="#263238"/>
<path d="M131.11 172.825L128.785 173.46L129.88 175.53L132.27 174.92L131.11 172.825Z" fill="#263238"/>
<path d="M138.21 170.41L137.025 168.495L133.735 169.385L134.815 171.34L138.21 170.41Z" fill="#263238"/>
<path d="M143.635 172.02L142.135 169.805L138.92 170.685L140.275 172.875L143.635 172.02Z" fill="#263238"/>
<path d="M134.365 171.46L133.28 169.505L130.245 170.33L131.335 172.29L134.365 171.46Z" fill="#263238"/>
<path d="M128.57 173.05L130.885 172.415L129.795 170.45L127.52 171.065L128.57 173.05Z" fill="#263238"/>
<path d="M131.68 166.62L130.46 164.41L127.43 165.245L128.62 167.395L131.68 166.62Z" fill="#263238"/>
<path d="M147.615 171.005L145.96 168.76L142.6 169.68L144.105 171.9L147.615 171.005Z" fill="#263238"/>
<path d="M133.055 169.095L131.91 167.03L128.85 167.81L130.02 169.92L133.055 169.095Z" fill="#263238"/>
<path d="M141.145 161.465L142.85 163.775L145.525 163.095L143.685 160.765L141.145 161.465Z" fill="#263238"/>
<path d="M137.82 156.955L140.19 156.33L139.125 154.985L136.805 155.575L137.82 156.955Z" fill="#263238"/>
<path d="M135.68 154.05L136.51 155.18L138.82 154.595L137.985 153.54L135.68 154.05Z" fill="#263238"/>
<path d="M151.07 170.125L149.28 167.85L146.43 168.63L148.09 170.885L151.07 170.125Z" fill="#263238"/>
<path d="M138.11 157.35L139.305 158.965L141.745 158.305L140.495 156.72L138.11 157.35Z" fill="#263238"/>
<path d="M144.78 166.395L146.14 168.24L148.975 167.465L147.54 165.65L144.78 166.395Z" fill="#263238"/>
<path d="M135.38 153.65L137.675 153.145L136.96 152.235L134.685 152.7L135.38 153.65Z" fill="#263238"/>
<path d="M140.855 161.075L143.38 160.375L142.055 158.695L139.595 159.36L140.855 161.075Z" fill="#263238"/>
<path d="M161.14 151.82V155.91C160.724 156.312 160.267 156.667 159.775 156.97C159.02 157.425 152.805 158.47 152.805 158.47L160.685 167.115C160.685 167.115 167.91 166.325 169.935 165.75C172.055 165.14 171.6 157.41 171.6 157.41L161.14 151.82Z" fill="white" stroke="#263238" stroke-width="0.75" stroke-linecap="round" stroke-linejoin="round"/>
<path d="M161.14 151.82V155.91C161.14 155.91 161.03 156.02 160.85 156.18L170.065 165.71C172.035 164.825 171.6 157.425 171.6 157.425L161.14 151.82Z" fill="#263238" stroke="#263238" stroke-width="0.75" stroke-linecap="round" stroke-linejoin="round"/>
<path d="M147.195 99.52V142.875L180.24 168.945V101.945L147.195 99.52Z" fill="white" stroke="#263238" stroke-width="0.75" stroke-linecap="round" stroke-linejoin="round"/>
<path d="M149.47 101.795V138.325L177.21 155.455V104.22L149.47 101.795Z" fill="#E64848" stroke="#263238" stroke-width="0.75" stroke-linecap="round" stroke-linejoin="round"/>
<path d="M183.575 101.945H180.24V168.96H183.575V101.945Z" fill="#263238" stroke="#263238" stroke-width="0.75" stroke-linecap="round" stroke-linejoin="round"/>
<path d="M151.29 104.07L151.44 136.66L174.63 149.845V109.49L158.715 107.08L157.655 104.825L151.29 104.07Z" fill="white" stroke="#263238" stroke-width="0.75" stroke-linecap="round" stroke-linejoin="round"/>
<path d="M152.805 108.01V135.75L173.27 146.665V111.65L152.805 108.01Z" fill="#E64848" stroke="#263238" stroke-width="0.75" stroke-linecap="round" stroke-linejoin="round"/>
<path d="M164.774 135.086C167.661 134.116 168.919 130.105 167.583 126.126C166.247 122.147 162.823 119.707 159.936 120.676C157.048 121.646 155.791 125.657 157.127 129.636C158.463 133.616 161.886 136.055 164.774 135.086Z" fill="#263238"/>
<path d="M162.96 128.335L164.905 126.18C165.036 125.988 165.103 125.759 165.097 125.527C165.091 125.294 165.011 125.07 164.87 124.885C164.58 124.47 164.125 124.385 163.87 124.68L162 126.755L160.125 123.755C159.855 123.32 159.4 123.185 159.125 123.455C158.98 123.634 158.898 123.856 158.89 124.086C158.883 124.316 158.951 124.542 159.085 124.73L161.03 127.855L159.05 130C158.919 130.192 158.852 130.421 158.859 130.654C158.866 130.887 158.947 131.111 159.09 131.295C159.204 131.476 159.383 131.606 159.59 131.66C159.68 131.682 159.774 131.679 159.862 131.651C159.951 131.623 160.029 131.57 160.09 131.5L161.965 129.425L163.835 132.425C163.95 132.629 164.14 132.78 164.365 132.845C164.451 132.872 164.543 132.875 164.631 132.854C164.719 132.833 164.8 132.788 164.865 132.725C165.008 132.545 165.089 132.323 165.096 132.093C165.102 131.863 165.033 131.638 164.9 131.45L162.96 128.335Z" fill="white"/>
<path d="M156.44 117.41L167.9 120.775" stroke="#263238" stroke-width="0.75" stroke-linecap="round" stroke-linejoin="round"/>
<path d="M155.985 114.225L170.84 118.37" stroke="#263238" stroke-width="0.75" stroke-linecap="round" stroke-linejoin="round"/>
<path d="M166.225 185.655C166.225 185.655 158.98 186.325 156.3 188.47C153.62 190.615 155.63 191.69 158.175 192.36C160.72 193.03 172.125 191.955 173.6 190.48C175.075 189.005 173.6 185.385 166.225 185.655Z" fill="white" stroke="#263238" stroke-width="0.75" stroke-linecap="round" stroke-linejoin="round"/>
<path d="M173.6 190.5C173.885 190.216 174.061 189.841 174.1 189.44C170.855 189.28 166.6 190.22 162.735 191.44C161.43 191.855 160.105 192.204 158.765 192.485C162.135 192.89 172.22 191.86 173.6 190.5Z" fill="#263238" stroke="#263238" stroke-width="0.75" stroke-linecap="round" stroke-linejoin="round"/>
<path d="M140.54 106.08L145.835 108.835" stroke="#263238" stroke-linecap="round" stroke-linejoin="round"/>
<path d="M137.5 104.5L139.075 105.32" stroke="#263238" stroke-linecap="round" stroke-linejoin="round"/>
<path d="M141.705 119.96L143.5 120.165" stroke="#263238" stroke-linecap="round" stroke-linejoin="round"/>
<path d="M134.835 119.165L139.675 119.725" stroke="#263238" stroke-linecap="round" stroke-linejoin="round"/>
<path d="M142.835 132.835L136.835 134.5" stroke="#263238" stroke-linecap="round" stroke-linejoin="round"/>
<path d="M135.09 59.5C132.252 59.5 129.478 60.3416 127.118 61.9184C124.758 63.4952 122.919 65.7364 121.833 68.3585C120.746 70.9806 120.462 73.8659 121.016 76.6495C121.57 79.4332 122.936 81.9901 124.943 83.997C126.95 86.0039 129.507 87.3706 132.291 87.9243C135.074 88.478 137.96 88.1938 140.582 87.1077C143.204 86.0216 145.445 84.1823 147.022 81.8224C148.599 79.4626 149.44 76.6882 149.44 73.85C149.44 70.0441 147.928 66.3942 145.237 63.703C142.546 61.0119 138.896 59.5 135.09 59.5ZM135.09 85.38C132.81 85.379 130.581 84.702 128.686 83.4344C126.79 82.1669 125.313 80.3658 124.441 78.2589C123.57 76.152 123.342 73.8338 123.787 71.5975C124.233 69.3613 125.331 67.3073 126.944 65.6953C128.557 64.0833 130.611 62.9857 132.848 62.5412C135.084 62.0967 137.402 62.3253 139.509 63.1981C141.615 64.071 143.416 65.5488 144.682 67.4448C145.949 69.3408 146.625 71.5698 146.625 73.85C146.628 75.366 146.331 76.8676 145.753 78.2689C145.174 79.6701 144.325 80.9434 143.253 82.0159C142.182 83.0883 140.909 83.9388 139.508 84.5187C138.108 85.0985 136.606 85.3963 135.09 85.395V85.38Z" fill="#263238"/>
<path d="M136.115 73.865C136.12 74.0687 136.064 74.2693 135.955 74.4411C135.845 74.6129 135.687 74.7482 135.5 74.8296C135.313 74.911 135.106 74.9349 134.906 74.8982C134.705 74.8616 134.521 74.766 134.375 74.6237C134.229 74.4814 134.129 74.2988 134.087 74.0993C134.045 73.8999 134.064 73.6925 134.141 73.5037C134.218 73.315 134.349 73.1534 134.518 73.0396C134.687 72.9259 134.886 72.8651 135.09 72.865C135.358 72.8649 135.615 72.9695 135.806 73.1563C135.998 73.3432 136.109 73.5975 136.115 73.865Z" fill="#263238"/>
<path d="M131.655 79.07L135.09 73.865L140.895 78.67" stroke="#263238" stroke-linecap="round" stroke-linejoin="round"/>
<path d="M58.9398 84.865L57.2148 80.15L58.1348 81.185V79.575L60.0898 82.565L58.3648 71.87L60.6648 77.735L60.8948 72.56L61.2398 74.285L61.6998 68.42L62.5048 77.39L63.6548 74.285L63.4248 78.31L66.5298 69.11L65.0348 80.61L67.2198 79L65.9548 81.07L67.5648 79.92L65.7298 85.21L59.0548 85.325" fill="#E64848"/>
<path d="M66.3199 96.48H59.1299L57.1899 84.02H68.2549L66.3199 96.48Z" fill="#263238" stroke="#263238" stroke-linecap="round" stroke-linejoin="round"/>
<path d="M86.005 96.395H49.71V192.95H86.005V96.395Z" fill="white" stroke="#263238" stroke-linecap="round" stroke-linejoin="round"/>
<path d="M83.5348 99.565H51.8198V122.82H83.5348V99.565Z" stroke="#263238" stroke-linecap="round" stroke-linejoin="round"/>
<path d="M74.02 109.08H61.335V113.31H74.02V109.08Z" fill="#263238"/>
<path d="M83.5348 126.7H51.8198V149.955H83.5348V126.7Z" stroke="#263238" stroke-linecap="round" stroke-linejoin="round"/>
<path d="M74.02 136.215H61.335V140.445H74.02V136.215Z" fill="#263238"/>
<path d="M83.5348 153.83H51.8198V177.085H83.5348V153.83Z" stroke="#263238" stroke-linecap="round" stroke-linejoin="round"/>
<path d="M74.02 163.345H61.335V167.575H74.02V163.345Z" fill="#263238"/>
<path d="M89.8949 187.44C89.8949 187.44 108.085 179.405 117.865 178.8L125 194.565H71.1099L89.8949 187.44Z" fill="#263238" stroke="#263238" stroke-width="0.75" stroke-linecap="round" stroke-linejoin="round"/>
<path d="M112.035 92.45C112.035 92.45 124.84 107.66 127.535 110.45C130.23 113.24 130.33 115.265 129.46 116.515C128.59 117.765 122.05 120.08 115.31 124.41C108.57 128.74 89.4098 139.91 89.2198 140.3C89.0298 140.69 87.1948 126.8 87.1948 126.8L119.255 113.61L119.16 112.645L108.76 93.39L112.035 92.45Z" fill="white"/>
<path d="M124.36 114.9L109.5 93.2L108.785 93.41L119.185 112.665L119.28 113.63L87.2202 126.82C87.2202 126.82 87.2552 127.06 87.3052 127.465L89.3952 132.26L124.36 114.9Z" fill="#E64848"/>
<path opacity="0.5" d="M124.36 114.9L109.5 93.2L108.785 93.41L119.185 112.665L119.28 113.63L87.2202 126.82C87.2202 126.82 87.2552 127.06 87.3052 127.465L89.3952 132.26L124.36 114.9Z" fill="white"/>
<path d="M112.035 92.45C112.035 92.45 124.84 107.66 127.535 110.45C130.23 113.24 130.33 115.265 129.46 116.515C128.59 117.765 122.05 120.08 115.31 124.41C108.57 128.74 89.4098 139.91 89.2198 140.3C89.0298 140.69 87.1948 126.8 87.1948 126.8L119.255 113.61L119.16 112.645L108.76 93.39L112.035 92.45Z" stroke="#263238" stroke-width="0.75" stroke-linecap="round" stroke-linejoin="round"/>
<path d="M101.83 85.805C101.83 85.805 100.29 84.455 99.5199 85.805C98.7499 87.155 98.6549 89.365 99.1349 89.56C99.6149 89.755 101.54 89.465 101.83 88.885C102.12 88.305 101.83 85.805 101.83 85.805Z" fill="white" stroke="#263238" stroke-width="0.75" stroke-linecap="round" stroke-linejoin="round"/>
<path d="M104.525 85.13C104.525 85.13 102.89 83.4 101.83 84.07C100.77 84.74 101.06 88.405 101.445 88.695C101.83 88.985 104.14 88.195 104.445 87.73C104.75 87.265 104.525 85.13 104.525 85.13Z" fill="white" stroke="#263238" stroke-width="0.75" stroke-linecap="round" stroke-linejoin="round"/>
<path d="M108.185 85.225C108.185 85.225 106.74 83.225 105.395 83.225C104.05 83.225 103.08 88.04 103.565 88.425C104.05 88.81 107.22 88.33 107.415 88.04C107.724 87.1167 107.981 86.1769 108.185 85.225Z" fill="white" stroke="#263238" stroke-width="0.75" stroke-linecap="round" stroke-linejoin="round"/>
<path d="M111 88.5C111 87.925 110.715 82.915 109 83.205C107.285 83.495 105.44 87.54 105.535 88.205C105.63 88.87 111 88.5 111 88.5Z" fill="white" stroke="#263238" stroke-width="0.75" stroke-linecap="round" stroke-linejoin="round"/>
<path d="M119.255 113.63C119.255 113.63 124.165 115.46 125.995 115.36L119.255 113.63Z" fill="white"/>
<path d="M119.255 113.63C119.255 113.63 124.165 115.46 125.995 115.36" stroke="#263238" stroke-width="0.75" stroke-linecap="round" stroke-linejoin="round"/>
<path d="M78.8802 194.695C84.1102 193.815 90.8102 190.22 92.8052 185.695C91.3052 177.85 89.4102 166.8 89.4102 160.04C89.4102 148.68 92.4102 142.23 91.0452 134.54C89.6802 126.85 86.8102 121.835 83.7302 119.81C83.7302 119.81 79.0152 121.06 74.2002 125.585C69.3852 130.11 65.1502 137.89 63.5002 145.305C61.8502 152.72 59.6502 175.535 59.6502 181.505C59.6502 187.475 59.2202 194.885 59.2202 194.885C64.9852 194.885 70.7502 194.885 76.5152 194.885C77.3076 194.893 78.0992 194.829 78.8802 194.695Z" fill="white"/>
<path d="M92.8052 185.69C89.8752 188.19 76.6802 193.045 74.7552 193.475C72.8302 193.905 73.9002 189.835 76.8952 185.77C79.8902 181.705 73.2552 187.27 72.1852 187.695C71.1152 188.12 72.6152 179.775 72.6152 175.695C72.6152 171.615 76.4702 136.955 76.4702 136.955L83.7452 123.68L86.2452 122.18C85.5469 121.252 84.7026 120.443 83.7452 119.785C83.7452 119.785 79.0302 121.035 74.2152 125.56C69.4002 130.085 65.1502 137.89 63.5002 145.305C61.8502 152.72 59.6502 175.535 59.6502 181.505C59.6502 187.475 59.2202 194.885 59.2202 194.885C64.9852 194.885 70.7502 194.885 76.5152 194.885C77.3049 194.885 78.0931 194.815 78.8702 194.675C84.1102 193.815 90.8102 190.22 92.8052 185.69Z" fill="#E64848"/>
<path opacity="0.5" d="M92.8052 185.69C89.8752 188.19 76.6802 193.045 74.7552 193.475C72.8302 193.905 73.9002 189.835 76.8952 185.77C79.8902 181.705 73.2552 187.27 72.1852 187.695C71.1152 188.12 72.6152 179.775 72.6152 175.695C72.6152 171.615 76.4702 136.955 76.4702 136.955L83.7452 123.68L86.2452 122.18C85.5469 121.252 84.7026 120.443 83.7452 119.785C83.7452 119.785 79.0302 121.035 74.2152 125.56C69.4002 130.085 65.1502 137.89 63.5002 145.305C61.8502 152.72 59.6502 175.535 59.6502 181.505C59.6502 187.475 59.2202 194.885 59.2202 194.885C64.9852 194.885 70.7502 194.885 76.5152 194.885C77.3049 194.885 78.0931 194.815 78.8702 194.675C84.1102 193.815 90.8102 190.22 92.8052 185.69Z" fill="white"/>
<path d="M78.8802 194.695C84.1102 193.815 90.8102 190.22 92.8052 185.695C91.3052 177.85 89.4102 166.8 89.4102 160.04C89.4102 148.68 92.4102 142.23 91.0452 134.54C89.6802 126.85 86.8102 121.835 83.7302 119.81C83.7302 119.81 79.0152 121.06 74.2002 125.585C69.3852 130.11 65.1502 137.89 63.5002 145.305C61.8502 152.72 59.6502 175.535 59.6502 181.505C59.6502 187.475 59.2202 194.885 59.2202 194.885C64.9852 194.885 70.7502 194.885 76.5152 194.885C77.3076 194.893 78.0992 194.829 78.8802 194.695V194.695Z" stroke="#263238" stroke-width="0.75" stroke-linecap="round" stroke-linejoin="round"/>
<path d="M83.4502 121.58L91.7202 136.64L92.1652 144.9C92.1652 144.9 94.4702 139.01 93.4452 135.165C92.4202 131.32 83.4502 121.58 83.4502 121.58Z" fill="#263238" stroke="#263238" stroke-width="0.75" stroke-linecap="round" stroke-linejoin="round"/>
<path d="M92.16 144.905L89.855 179.76L92.42 186.935L94.215 172.58L92.675 143.875L92.16 144.905Z" fill="#263238" stroke="#263238" stroke-width="0.75" stroke-linecap="round" stroke-linejoin="round"/>
<path d="M89.8899 107.465C89.8899 107.465 90.1799 111.22 90.4699 113.05C90.7599 114.88 86.2349 120 86.2349 120L92.7799 129.915L100.195 124.14C100.195 124.14 110.695 123.37 111.65 122.5C112.605 121.63 112.615 112.105 112.615 112.105L115.115 110.66C115.115 110.66 112.805 100.66 112.23 98.43L111.65 96.22C111.65 96.22 115.02 95.06 114.25 91.72C113.48 88.38 108.57 86.72 103.66 87.48C98.7499 88.24 97.4999 90.08 97.4999 90.08C97.4999 90.08 90.5649 89.985 86.6199 93.26C82.6749 96.535 85.0799 101.73 86.3299 103.56C87.3936 104.969 88.5854 106.276 89.8899 107.465Z" fill="white"/>
<path d="M101.5 120.915C99.5753 118.56 101.5 109.57 103 105.075C104.5 100.58 100.86 98.655 100.86 98.655L111.79 96.77L111.64 96.205C112.379 95.9161 113.037 95.451 113.555 94.85L114.145 91.375C113.145 88.215 108.41 86.695 103.645 87.44C98.7353 88.21 97.4853 90.04 97.4853 90.04C97.4853 90.04 90.5503 89.945 86.6053 93.22C82.6603 96.495 85.0653 101.69 86.3153 103.52C87.377 104.943 88.5688 106.263 89.8753 107.465C89.8753 107.465 90.1653 111.22 90.4553 113.05C90.7453 114.88 86.2353 120 86.2353 120L92.7803 129.915L100.195 124.14C100.195 124.14 108.195 123.55 110.875 122.825L111.65 122.5C111.65 122.5 103.435 123.27 101.5 120.915Z" fill="#E64848"/>
<path opacity="0.5" d="M101.5 120.915C99.5753 118.56 101.5 109.57 103 105.075C104.5 100.58 100.86 98.655 100.86 98.655L111.79 96.77L111.64 96.205C112.379 95.9161 113.037 95.451 113.555 94.85L114.145 91.375C113.145 88.215 108.41 86.695 103.645 87.44C98.7353 88.21 97.4853 90.04 97.4853 90.04C97.4853 90.04 90.5503 89.945 86.6053 93.22C82.6603 96.495 85.0653 101.69 86.3153 103.52C87.377 104.943 88.5688 106.263 89.8753 107.465C89.8753 107.465 90.1653 111.22 90.4553 113.05C90.7453 114.88 86.2353 120 86.2353 120L92.7803 129.915L100.195 124.14C100.195 124.14 108.195 123.55 110.875 122.825L111.65 122.5C111.65 122.5 103.435 123.27 101.5 120.915Z" fill="white"/>
<path d="M107.125 103.04C107.125 103.04 107.125 102.89 107.125 102.655C107.125 101.91 107.25 100.3 108.495 99.86C110.13 99.285 111.495 100.825 111.495 100.825L111.59 102.365C111.355 102.071 111.046 101.845 110.695 101.709C110.343 101.574 109.962 101.535 109.59 101.595C108.634 101.796 107.768 102.303 107.125 103.04Z" fill="#263238"/>
<path d="M109.92 106.12C109.92 106.915 109.7 107.565 109.42 107.565C109.14 107.565 108.92 106.915 108.92 106.12C108.92 105.325 109.135 104.675 109.42 104.675C109.705 104.675 109.92 105.32 109.92 106.12Z" fill="#263238"/>
<path d="M106.885 116.205C106.35 116.76 105.635 116.94 105.29 116.61C104.945 116.28 105.1 115.555 105.635 115C106.17 114.445 106.88 114.265 107.225 114.595C107.57 114.925 107.42 115.65 106.885 116.205Z" fill="#263238"/>
<path d="M89.8899 107.465C89.8899 107.465 90.1799 111.22 90.4699 113.05C90.7599 114.88 86.2349 120 86.2349 120L92.7799 129.915L100.195 124.14C100.195 124.14 110.695 123.37 111.65 122.5C112.605 121.63 112.615 112.105 112.615 112.105L115.115 110.66C115.115 110.66 112.805 100.66 112.23 98.43L111.65 96.22C111.65 96.22 115.02 95.06 114.25 91.72C113.48 88.38 108.57 86.72 103.66 87.48C98.7499 88.24 97.4999 90.08 97.4999 90.08C97.4999 90.08 90.5649 89.985 86.6199 93.26C82.6749 96.535 85.0799 101.73 86.3299 103.56C87.3936 104.969 88.5854 106.276 89.8899 107.465V107.465Z" stroke="#263238" stroke-width="0.75" stroke-linecap="round" stroke-linejoin="round"/>
<path d="M99.1353 98.03C100.87 96.875 111.635 96.205 111.635 96.205C111.635 96.205 115.005 95.045 114.235 91.705C113.465 88.365 108.555 86.705 103.645 87.465C98.7353 88.225 97.4853 90.065 97.4853 90.065C97.4853 90.065 90.5503 89.97 86.6053 93.245C82.6603 96.52 85.0653 101.715 86.3153 103.545C87.377 104.968 88.5688 106.288 89.8753 107.49C89.8753 107.49 90.0353 109.55 90.2353 111.365L93.2353 112.21L96.5103 110.475L99.7853 109.705C99.7853 109.705 97.3753 107.875 98.7253 106.145C100.075 104.415 102.575 103.835 102.67 102.485C102.765 101.135 97.4003 99.185 99.1353 98.03Z" fill="#263238" stroke="#263238" stroke-width="0.75" stroke-linecap="round" stroke-linejoin="round"/>
<path d="M109.645 92.435C109.645 92.435 108.515 90.365 110.585 90.74C112.655 91.115 112.655 94.695 110.96 95.445C109.265 96.195 100.045 94.505 94.9602 96.01C89.8752 97.515 86.3052 101.655 86.3052 101.655" stroke="white" stroke-miterlimit="10" stroke-linecap="round"/>
<path d="M89.1299 104.855C89.1299 104.855 93.0849 101.47 96.2799 100.905C99.4749 100.34 101.175 100.34 97.5999 102.405C94.0249 104.47 96.4699 104.095 98.7299 103.345" stroke="white" stroke-miterlimit="10" stroke-linecap="round"/>
<path d="M97.4001 112.28C97.4001 112.28 96.8251 106.215 93.8401 106.025C90.8551 105.835 90.9501 110.165 91.8401 113.15C92.7301 116.135 94.8401 117.095 96.5551 115.555" fill="#E64848"/>
<g opacity="0.5">
<path d="M97.4001 112.28C97.4001 112.28 96.8251 106.215 93.8401 106.025C90.8551 105.835 90.9501 110.165 91.8401 113.15C92.7301 116.135 94.8401 117.095 96.5551 115.555" fill="white"/>
<path d="M97.4001 112.28C97.4001 112.28 96.8251 106.215 93.8401 106.025C90.8551 105.835 90.9501 110.165 91.8401 113.15C92.7301 116.135 94.8401 117.095 96.5551 115.555" stroke="#263238" stroke-width="0.75" stroke-linecap="round" stroke-linejoin="round"/>
</g>
<path d="M97.4001 112.28C97.4001 112.28 96.8251 106.215 93.8401 106.025C90.8551 105.835 90.9501 110.165 91.8401 113.15C92.7301 116.135 94.8401 117.095 96.5551 115.555" stroke="#263238" stroke-width="0.75" stroke-linecap="round" stroke-linejoin="round"/>
<path d="M86.4999 116.325L96.1299 130.96L91.6999 136.64C89.7048 132.791 87.4878 129.062 85.0599 125.47C81.7849 120.85 81.3999 120.08 81.3999 120.08L86.4999 116.325Z" fill="white"/>
<path d="M86.4999 116.325L81.3999 120.08C81.3999 120.08 81.6849 120.645 83.7849 123.66L89.1749 120.39L86.4999 116.325Z" fill="#E64848"/>
<path opacity="0.5" d="M86.4999 116.325L81.3999 120.08C81.3999 120.08 81.6849 120.645 83.7849 123.66L89.1749 120.39L86.4999 116.325Z" fill="white"/>
<path d="M86.4999 116.325L96.1299 130.96L91.6999 136.64C89.7048 132.791 87.4878 129.062 85.0599 125.47C81.7849 120.85 81.3999 120.08 81.3999 120.08L86.4999 116.325Z" stroke="#263238" stroke-width="0.75" stroke-linecap="round" stroke-linejoin="round"/>
<path d="M111.265 152.72C111.265 152.72 112.805 149.54 113.095 147.52C113.385 145.5 113.48 144.34 114.635 143.38C115.79 142.42 119.545 138.565 120.135 137.12C120.725 135.675 121.095 137.025 121.385 138.18C121.675 139.335 121.575 140.395 120.615 141.07C119.939 141.572 119.324 142.153 118.785 142.8L119.65 143.475C119.65 143.475 131.685 138.95 132.94 138.475C134.195 138 135.345 138.375 135.44 139.34C135.535 140.305 135.155 140.4 134.575 140.69C133.995 140.98 127.645 143.19 126.775 143.575L125.91 143.96L126.585 144.635C126.585 144.635 130.05 144.54 131.785 144.445C133.52 144.35 136.115 144.06 136.5 144.635C136.672 144.892 136.738 145.206 136.684 145.511C136.63 145.815 136.46 146.087 136.21 146.27C136.008 146.464 135.764 146.61 135.497 146.696C135.231 146.783 134.948 146.808 134.67 146.77C133.805 146.77 126.39 147.345 126.39 147.345L126.585 148.405C126.585 148.405 134.48 149.655 134.765 150.04C135.05 150.425 135.055 150.62 134.765 151.195C134.475 151.77 134.265 151.775 133.515 151.775C132.765 151.775 126.515 150.81 126.515 150.81C126.515 150.81 129.595 152.545 129.98 152.835C130.365 153.125 131.71 153.335 131.325 153.99C130.94 154.645 130.75 154.855 130.17 154.76C129.59 154.665 125.455 152.835 125.455 152.835C125.455 152.835 121.315 153.41 119.955 153.51C118.954 153.556 117.951 153.523 116.955 153.41L113.105 155.91L111.265 152.72Z" fill="white" stroke="#263238" stroke-width="0.75" stroke-linecap="round" stroke-linejoin="round"/>
<path d="M83.925 148.385C83.925 148.385 81.13 136.735 79.975 134.135C78.82 131.535 72.275 129.135 69.095 134.81C65.915 140.485 68.805 146.94 69.965 151.56C71.125 156.18 78.435 177.06 79.495 179.675C80.555 182.29 82.495 181.675 83.54 181.41C84.585 181.145 113.865 157.53 113.865 157.53L111.555 152.335L88.835 164L83.925 148.385Z" fill="white"/>
<path d="M83.1052 174C83.847 171.746 84.7031 169.532 85.6702 167.365C86.7402 165.225 80.5352 172.29 79.2502 168.435C77.9652 164.58 69.8352 145.32 71.3302 138.9C71.9787 135.917 73.7239 133.287 76.2202 131.53C73.8352 130.965 70.9152 131.565 69.0952 134.815C65.9202 140.495 68.8052 146.945 69.9652 151.565C71.1252 156.185 78.4352 177.065 79.4952 179.68C80.5552 182.295 82.4952 181.68 83.5402 181.415C84.3102 181.205 100.04 168.64 108.54 161.825L83.1052 174Z" fill="#E64848"/>
<path opacity="0.5" d="M83.1052 174C83.847 171.746 84.7031 169.532 85.6702 167.365C86.7402 165.225 80.5352 172.29 79.2502 168.435C77.9652 164.58 69.8352 145.32 71.3302 138.9C71.9787 135.917 73.7239 133.287 76.2202 131.53C73.8352 130.965 70.9152 131.565 69.0952 134.815C65.9202 140.495 68.8052 146.945 69.9652 151.565C71.1252 156.185 78.4352 177.065 79.4952 179.68C80.5552 182.295 82.4952 181.68 83.5402 181.415C84.3102 181.205 100.04 168.64 108.54 161.825L83.1052 174Z" fill="white"/>
<path d="M83.925 148.385C83.925 148.385 81.13 136.735 79.975 134.135C78.82 131.535 72.275 129.135 69.095 134.81C65.915 140.485 68.805 146.94 69.965 151.56C71.125 156.18 78.435 177.06 79.495 179.675C80.555 182.29 82.495 181.675 83.54 181.41C84.585 181.145 113.865 157.53 113.865 157.53L111.555 152.335L88.835 164L83.925 148.385Z" stroke="#263238" stroke-width="0.75" stroke-linecap="round" stroke-linejoin="round"/>
<path d="M108.185 154.26L110.785 159.555" stroke="#263238" stroke-width="0.75" stroke-linecap="round" stroke-linejoin="round"/>
<path d="M47.1101 127.695L33.8101 136.92C33.8101 136.92 40.3651 143.85 39.6901 162.03C39.1901 175.915 41.0251 191.68 43.6901 194.885H57.8501C57.8501 194.885 52.9551 167.885 53.3051 152.415C53.5801 140.66 50.0501 132.5 47.1101 127.695Z" fill="white" stroke="#263238" stroke-width="0.75" stroke-linecap="round" stroke-linejoin="round"/>
<path d="M48.7102 127.695L35.4102 136.92C35.4102 136.92 41.9652 143.85 41.2852 162.03C40.7852 175.915 42.6202 191.68 45.2852 194.885H59.4502C59.4502 194.885 54.5602 167.885 54.9102 152.415C55.1752 140.66 51.6452 132.5 48.7102 127.695Z" fill="#263238" stroke="#263238" stroke-width="0.75" stroke-linecap="round" stroke-linejoin="round"/>
<path d="M47.1099 127.695H48.7099L35.4099 136.92H33.8149L47.1099 127.695Z" fill="white" stroke="#263238" stroke-width="0.75" stroke-linecap="round" stroke-linejoin="round"/>
</svg>
