<svg width="250" height="250" viewBox="0 0 250 250" fill="none" xmlns="http://www.w3.org/2000/svg">
<path d="M9.095 236.115C9.095 236.04 60.99 235.985 124.995 235.985C189 235.985 240.905 236.04 240.905 236.115C240.905 236.19 189.02 236.245 124.995 236.245C60.97 236.245 9.095 236.185 9.095 236.115Z" fill="#1F1515"/>
<path d="M159.805 40.21H86.215C79.2175 40.21 73.545 45.8826 73.545 52.88V223.45C73.545 230.447 79.2175 236.12 86.215 236.12H159.805C166.802 236.12 172.475 230.447 172.475 223.45V52.88C172.475 45.8826 166.802 40.21 159.805 40.21Z" fill="#455A64"/>
<path d="M170.92 223.445V52.88C170.92 46.7414 165.944 41.765 159.805 41.765L86.22 41.765C80.0813 41.765 75.105 46.7414 75.105 52.88L75.105 223.445C75.105 229.584 80.0813 234.56 86.22 234.56H159.805C165.944 234.56 170.92 229.584 170.92 223.445Z" fill="#1F1515"/>
<path d="M115.91 47.94C115.618 47.94 115.338 47.8242 115.132 47.6179C114.926 47.4116 114.81 47.1318 114.81 46.8401C114.81 46.5483 114.926 46.2685 115.132 46.0622C115.338 45.8559 115.618 45.7401 115.91 45.7401H130.055C130.347 45.7401 130.627 45.8559 130.833 46.0622C131.039 46.2685 131.155 46.5483 131.155 46.8401C131.155 47.1318 131.039 47.4116 130.833 47.6179C130.627 47.8242 130.347 47.94 130.055 47.94H115.91Z" fill="#455A64"/>
<path d="M108.32 47.94C108.102 47.94 107.89 47.8755 107.709 47.7547C107.528 47.6338 107.387 47.462 107.304 47.261C107.22 47.06 107.199 46.8388 107.241 46.6255C107.284 46.4121 107.388 46.2161 107.542 46.0622C107.696 45.9084 107.892 45.8036 108.105 45.7612C108.319 45.7187 108.54 45.7405 108.741 45.8238C108.942 45.907 109.114 46.048 109.235 46.2289C109.355 46.4098 109.42 46.6225 109.42 46.84C109.419 47.1314 109.302 47.4104 109.096 47.6164C108.89 47.8224 108.611 47.9387 108.32 47.94Z" fill="#455A64"/>
<path d="M112.37 47.94C112.152 47.94 111.94 47.8755 111.759 47.7547C111.578 47.6338 111.437 47.462 111.354 47.261C111.27 47.06 111.249 46.8388 111.291 46.6255C111.334 46.4121 111.438 46.2161 111.592 46.0622C111.746 45.9084 111.942 45.8036 112.155 45.7612C112.369 45.7187 112.59 45.7405 112.791 45.8238C112.992 45.907 113.164 46.048 113.285 46.2289C113.406 46.4098 113.47 46.6225 113.47 46.84C113.469 47.1314 113.352 47.4104 113.146 47.6164C112.94 47.8224 112.661 47.9387 112.37 47.94Z" fill="#455A64"/>
<path d="M137.705 47.94C137.487 47.94 137.275 47.8755 137.094 47.7547C136.913 47.6338 136.772 47.462 136.689 47.261C136.605 47.06 136.584 46.8388 136.626 46.6255C136.669 46.4121 136.773 46.2161 136.927 46.0622C137.081 45.9084 137.277 45.8036 137.49 45.7612C137.704 45.7187 137.925 45.7405 138.126 45.8238C138.327 45.907 138.499 46.048 138.62 46.2289C138.74 46.4098 138.805 46.6225 138.805 46.84C138.804 47.1314 138.687 47.4104 138.481 47.6164C138.275 47.8224 137.996 47.9387 137.705 47.94Z" fill="#455A64"/>
<path d="M133.655 47.94C133.437 47.94 133.225 47.8755 133.044 47.7547C132.863 47.6338 132.722 47.462 132.639 47.261C132.555 47.06 132.534 46.8388 132.576 46.6255C132.619 46.4121 132.723 46.2161 132.877 46.0622C133.031 45.9084 133.227 45.8036 133.44 45.7612C133.654 45.7187 133.875 45.7405 134.076 45.8238C134.277 45.907 134.449 46.048 134.57 46.2289C134.69 46.4098 134.755 46.6225 134.755 46.84C134.754 47.1314 134.637 47.4104 134.431 47.6164C134.225 47.8224 133.946 47.9387 133.655 47.94Z" fill="#455A64"/>
<path d="M160.19 43.09H146.3C145.229 43.0897 144.187 43.4371 143.33 44.08C142.474 44.7229 141.849 45.6266 141.55 46.655L141.315 47.465C140.996 48.5653 140.328 49.532 139.411 50.22C138.495 50.908 137.381 51.28 136.235 51.28H109.79C108.644 51.28 107.53 50.908 106.614 50.22C105.697 49.532 105.029 48.5653 104.71 47.465L104.5 46.655C104.201 45.6266 103.576 44.7229 102.72 44.08C101.863 43.4371 100.821 43.0897 99.75 43.09H87.12C84.5249 43.09 82.036 44.1209 80.201 45.956C78.3659 47.791 77.335 50.2799 77.335 52.875V222.755C77.335 223.964 77.5731 225.161 78.0357 226.278C78.4983 227.394 79.1763 228.409 80.0311 229.264C80.8859 230.119 81.9006 230.797 83.0174 231.259C84.1342 231.722 85.3312 231.96 86.54 231.96H160.355C161.45 231.96 162.533 231.744 163.545 231.326C164.556 230.907 165.475 230.293 166.249 229.519C167.023 228.745 167.637 227.826 168.056 226.815C168.474 225.803 168.69 224.72 168.69 223.625V51.59C168.69 49.3357 167.794 47.1737 166.2 45.5796C164.606 43.9856 162.444 43.09 160.19 43.09Z" fill="#FAFAFA"/>
<path d="M172.605 105.305H172.49V82.805H172.605C172.747 82.805 172.883 82.8614 172.983 82.9617C173.084 83.0621 173.14 83.1981 173.14 83.34V104.79C173.135 104.928 173.076 105.059 172.976 105.155C172.877 105.252 172.743 105.305 172.605 105.305Z" fill="#455A64"/>
<path d="M73.405 96.665H73.545V110.92H73.405C73.2631 110.92 73.127 110.864 73.0267 110.763C72.9264 110.663 72.87 110.527 72.87 110.385V97.2C72.87 97.0581 72.9264 96.9221 73.0267 96.8217C73.127 96.7214 73.2631 96.665 73.405 96.665Z" fill="#455A64"/>
<path d="M73.405 78.04H73.545V92.295H73.405C73.2631 92.295 73.127 92.2387 73.0267 92.1383C72.9264 92.038 72.87 91.9019 72.87 91.76V78.575C72.87 78.4331 72.9264 78.2971 73.0267 78.1967C73.127 78.0964 73.2631 78.04 73.405 78.04Z" fill="#455A64"/>
<path d="M73.44 64.06H73.545V70.69H73.44C73.314 70.69 73.1932 70.64 73.1041 70.5509C73.015 70.4618 72.965 70.341 72.965 70.215V64.535C72.965 64.409 73.015 64.2882 73.1041 64.1991C73.1932 64.11 73.314 64.06 73.44 64.06Z" fill="#455A64"/>
<path d="M147.195 49.465H146.515V50.42H147.195V49.465Z" fill="#1F1515"/>
<path d="M148.3 49.04H147.62V50.415H148.3V49.04Z" fill="#1F1515"/>
<path d="M149.405 48.72H148.725V50.415H149.405V48.72Z" fill="#1F1515"/>
<path d="M150.51 48.105H149.83V50.415H150.51V48.105Z" fill="#1F1515"/>
<path d="M160.545 50.465H157.13C157.098 50.465 157.066 50.4587 157.036 50.4464C157.007 50.434 156.98 50.416 156.957 50.3933C156.934 50.3705 156.916 50.3435 156.904 50.3138C156.891 50.284 156.885 50.2522 156.885 50.22V48.525C156.885 48.4928 156.891 48.461 156.904 48.4313C156.916 48.4015 156.934 48.3745 156.957 48.3518C156.98 48.329 157.007 48.311 157.036 48.2987C157.066 48.2863 157.098 48.28 157.13 48.28H160.545C160.558 48.275 160.572 48.275 160.585 48.28C160.591 48.2944 160.591 48.3106 160.585 48.325V48.9H160.95C160.966 48.9 160.982 48.9061 160.994 48.9172C161.006 48.9284 161.014 48.9437 161.015 48.96V49.78C161.015 49.7883 161.013 49.7966 161.01 49.8042C161.007 49.8118 161.002 49.8187 160.996 49.8243C160.99 49.8299 160.982 49.8343 160.975 49.837C160.967 49.8397 160.958 49.8407 160.95 49.84H160.585V50.4C160.586 50.4137 160.583 50.4273 160.576 50.439C160.568 50.4507 160.558 50.4598 160.545 50.465ZM160.5 48.405H157.15C157.118 48.405 157.088 48.4177 157.065 48.4402C157.043 48.4627 157.03 48.4932 157.03 48.525V50.22C157.03 50.2518 157.043 50.2824 157.065 50.3049C157.088 50.3274 157.118 50.34 157.15 50.34H160.5V49.78C160.5 49.7628 160.507 49.7462 160.519 49.734C160.531 49.7219 160.548 49.715 160.565 49.715H160.93V49.025H160.565C160.548 49.025 160.531 49.0182 160.519 49.006C160.507 48.9938 160.5 48.9772 160.5 48.96V48.405Z" fill="#1F1515"/>
<path d="M157.29 50.0601V48.6801H160.2V49.3051V49.4401V50.0601H157.29Z" fill="#1F1515"/>
<path d="M153.765 50.335C153.765 50.2687 153.739 50.2051 153.692 50.1582C153.645 50.1114 153.581 50.085 153.515 50.085C153.466 50.085 153.417 50.0997 153.376 50.1272C153.335 50.1546 153.303 50.1937 153.284 50.2394C153.265 50.285 153.26 50.3353 153.27 50.3838C153.279 50.4323 153.303 50.4768 153.338 50.5118C153.373 50.5468 153.418 50.5706 153.466 50.5802C153.515 50.5899 153.565 50.5849 153.611 50.566C153.656 50.5471 153.695 50.515 153.723 50.4739C153.75 50.4328 153.765 50.3845 153.765 50.335Z" fill="#1F1515"/>
<path d="M152.665 49.73L152.98 50.05C153.123 49.9095 153.315 49.8305 153.515 49.83C153.714 49.8307 153.904 49.9098 154.045 50.05L154.365 49.73C154.138 49.5065 153.833 49.3809 153.515 49.38C153.357 49.3794 153.201 49.4099 153.055 49.47C152.909 49.5301 152.777 49.6184 152.665 49.73Z" fill="#1F1515"/>
<path d="M153.5 48.67C152.992 48.6701 152.505 48.8715 152.145 49.23L152.465 49.55C152.6 49.4138 152.761 49.3057 152.938 49.232C153.116 49.1582 153.306 49.1202 153.498 49.1202C153.689 49.1202 153.88 49.1582 154.057 49.232C154.234 49.3057 154.395 49.4138 154.53 49.55L154.85 49.23C154.492 48.8718 154.006 48.6703 153.5 48.67Z" fill="#1F1515"/>
<path d="M151.645 48.715L151.965 49.03C152.376 48.6197 152.934 48.3892 153.515 48.3892C154.096 48.3892 154.654 48.6197 155.065 49.03L155.385 48.715C154.889 48.2192 154.216 47.9406 153.515 47.9406C152.814 47.9406 152.141 48.2192 151.645 48.715Z" fill="#1F1515"/>
<path d="M116.345 194.245C116.345 194.641 116.228 195.027 116.008 195.356C115.788 195.685 115.476 195.941 115.11 196.093C114.745 196.244 114.343 196.284 113.955 196.207C113.567 196.129 113.21 195.939 112.931 195.659C112.651 195.38 112.461 195.023 112.383 194.635C112.306 194.247 112.346 193.845 112.497 193.48C112.649 193.114 112.905 192.802 113.234 192.582C113.563 192.362 113.949 192.245 114.345 192.245C114.875 192.245 115.384 192.456 115.759 192.831C116.134 193.206 116.345 193.715 116.345 194.245Z" fill="#EBEBEB"/>
<path d="M123 194.245C123 194.641 122.883 195.027 122.663 195.356C122.443 195.685 122.131 195.941 121.765 196.093C121.4 196.244 120.998 196.284 120.61 196.207C120.222 196.129 119.865 195.939 119.586 195.659C119.306 195.38 119.116 195.023 119.038 194.635C118.961 194.247 119.001 193.845 119.152 193.48C119.304 193.114 119.56 192.802 119.889 192.582C120.218 192.362 120.604 192.245 121 192.245C121.53 192.245 122.039 192.456 122.414 192.831C122.789 193.206 123 193.715 123 194.245Z" fill="#E0E0E0"/>
<path d="M127.665 196.235C128.764 196.235 129.655 195.344 129.655 194.245C129.655 193.146 128.764 192.255 127.665 192.255C126.566 192.255 125.675 193.146 125.675 194.245C125.675 195.344 126.566 196.235 127.665 196.235Z" fill="#E0E0E0"/>
<path d="M136.31 194.245C136.31 194.641 136.193 195.027 135.973 195.356C135.753 195.685 135.441 195.941 135.075 196.093C134.71 196.244 134.308 196.284 133.92 196.207C133.532 196.129 133.175 195.939 132.896 195.659C132.616 195.38 132.426 195.023 132.348 194.635C132.271 194.247 132.311 193.845 132.462 193.48C132.614 193.114 132.87 192.802 133.199 192.582C133.528 192.362 133.914 192.245 134.31 192.245C134.84 192.245 135.349 192.456 135.724 192.831C136.099 193.206 136.31 193.715 136.31 194.245Z" fill="#E0E0E0"/>
<path d="M130.255 215.76L130.84 213.58C130.511 212.985 130.339 212.315 130.34 211.635C130.337 210.749 130.625 209.887 131.159 209.182C131.694 208.476 132.446 207.965 133.299 207.728C134.152 207.491 135.06 207.541 135.882 207.87C136.704 208.2 137.395 208.79 137.849 209.55C138.303 210.311 138.494 211.199 138.394 212.079C138.294 212.959 137.907 213.781 137.293 214.42C136.68 215.058 135.874 215.478 134.998 215.613C134.123 215.749 133.228 215.593 132.45 215.17L130.255 215.76ZM132.555 214.355L132.69 214.44C133.309 214.809 134.033 214.962 134.749 214.876C135.464 214.79 136.131 214.47 136.646 213.966C137.16 213.462 137.494 212.801 137.593 212.087C137.693 211.374 137.554 210.647 137.198 210.021C136.842 209.394 136.289 208.903 135.624 208.624C134.96 208.345 134.222 208.294 133.525 208.478C132.828 208.662 132.212 209.072 131.773 209.643C131.333 210.214 131.095 210.914 131.095 211.635C131.096 212.231 131.26 212.816 131.57 213.325L131.655 213.465L131.33 214.685L132.555 214.355Z" fill="white"/>
<path fill-rule="evenodd" clip-rule="evenodd" d="M135.81 212.22C135.73 212.156 135.637 212.111 135.538 212.088C135.438 212.066 135.334 212.066 135.235 212.09C135.085 212.15 134.99 212.385 134.89 212.505C134.869 212.533 134.839 212.552 134.805 212.559C134.771 212.567 134.736 212.562 134.705 212.545C134.156 212.329 133.697 211.935 133.4 211.425C133.373 211.396 133.359 211.357 133.359 211.318C133.359 211.278 133.373 211.24 133.4 211.21C133.513 211.105 133.596 210.972 133.64 210.825C133.648 210.667 133.612 210.509 133.535 210.37C133.472 210.174 133.354 210.001 133.195 209.87C133.114 209.832 133.023 209.818 132.934 209.832C132.845 209.845 132.762 209.885 132.695 209.945C132.58 210.043 132.489 210.166 132.428 210.305C132.367 210.443 132.339 210.594 132.345 210.745C132.345 210.831 132.355 210.917 132.375 211C132.431 211.199 132.513 211.389 132.62 211.565C132.7 211.698 132.785 211.828 132.875 211.955C133.181 212.371 133.563 212.725 134 213C134.218 213.133 134.449 213.242 134.69 213.325C134.942 213.44 135.22 213.485 135.495 213.455C135.651 213.428 135.799 213.365 135.926 213.27C136.053 213.176 136.155 213.052 136.225 212.91C136.262 212.823 136.275 212.728 136.26 212.635C136.22 212.425 135.965 212.31 135.81 212.22Z" fill="white"/>
<path fill-rule="evenodd" clip-rule="evenodd" d="M96.835 213.13C96.6834 213.008 96.5059 212.923 96.316 212.88C96.1262 212.838 95.9291 212.839 95.74 212.885C95.455 213 95.275 213.445 95.09 213.67C95.0516 213.724 94.9948 213.762 94.9302 213.777C94.8657 213.791 94.798 213.782 94.74 213.75C93.699 213.344 92.8265 212.596 92.265 211.63C92.2172 211.569 92.1941 211.493 92.2006 211.416C92.2071 211.339 92.2427 211.267 92.3 211.215C92.5119 211.016 92.6672 210.764 92.75 210.485C92.7668 210.184 92.6975 209.883 92.55 209.62C92.4 209.3 92.235 208.84 91.91 208.66C91.7554 208.588 91.5829 208.562 91.4139 208.587C91.245 208.612 91.0871 208.686 90.96 208.8C90.7455 208.986 90.5746 209.216 90.4597 209.476C90.3447 209.735 90.2885 210.016 90.295 210.3C90.2939 210.469 90.314 210.637 90.355 210.8C90.4546 211.178 90.6114 211.539 90.82 211.87C90.97 212.125 91.13 212.37 91.32 212.61C91.8891 213.391 92.6039 214.055 93.425 214.565C93.8378 214.82 94.277 215.03 94.735 215.19C95.2142 215.406 95.7427 215.489 96.265 215.43C96.5622 215.384 96.8437 215.266 97.085 215.086C97.3263 214.907 97.5203 214.671 97.65 214.4C97.7235 214.235 97.7461 214.053 97.715 213.875C97.62 213.5 97.13 213.305 96.835 213.13Z" fill="white"/>
<path d="M156.5 209.595C156.407 209.595 156.316 209.623 156.239 209.674C156.162 209.726 156.101 209.799 156.066 209.885C156.03 209.971 156.021 210.066 156.039 210.157C156.057 210.248 156.102 210.332 156.168 210.397C156.233 210.463 156.317 210.508 156.408 210.526C156.499 210.544 156.594 210.535 156.68 210.499C156.766 210.464 156.839 210.403 156.891 210.326C156.942 210.249 156.97 210.158 156.97 210.065C156.97 209.94 156.92 209.821 156.832 209.733C156.744 209.645 156.625 209.595 156.5 209.595Z" fill="white"/>
<path d="M154.415 210.06C154.025 210.059 153.644 210.174 153.319 210.39C152.995 210.605 152.741 210.913 152.591 211.273C152.442 211.633 152.402 212.029 152.477 212.411C152.553 212.794 152.74 213.145 153.015 213.421C153.291 213.697 153.642 213.885 154.024 213.962C154.406 214.038 154.802 213.999 155.163 213.85C155.523 213.702 155.831 213.449 156.048 213.125C156.264 212.801 156.38 212.42 156.38 212.03C156.379 211.509 156.171 211.009 155.803 210.64C155.435 210.271 154.936 210.063 154.415 210.06ZM154.415 213.29C154.166 213.29 153.922 213.216 153.715 213.078C153.508 212.939 153.346 212.742 153.251 212.512C153.156 212.282 153.131 212.029 153.179 211.784C153.228 211.54 153.348 211.315 153.524 211.139C153.7 210.963 153.925 210.843 154.169 210.794C154.414 210.746 154.667 210.771 154.897 210.866C155.127 210.961 155.324 211.123 155.463 211.33C155.601 211.537 155.675 211.781 155.675 212.03C155.675 212.364 155.542 212.685 155.306 212.921C155.07 213.157 154.749 213.29 154.415 213.29Z" fill="white"/>
<path d="M156 216.16H152.81C152.173 216.16 151.563 215.907 151.113 215.457C150.663 215.007 150.41 214.396 150.41 213.76V210.57C150.41 209.933 150.663 209.323 151.113 208.873C151.563 208.423 152.173 208.17 152.81 208.17H156C156.637 208.17 157.247 208.423 157.697 208.873C158.147 209.323 158.4 209.933 158.4 210.57V213.76C158.4 214.396 158.147 215.007 157.697 215.457C157.247 215.907 156.637 216.16 156 216.16ZM152.81 208.92C152.372 208.92 151.953 209.094 151.643 209.403C151.334 209.713 151.16 210.132 151.16 210.57V213.76C151.16 214.198 151.334 214.617 151.643 214.927C151.953 215.236 152.372 215.41 152.81 215.41H156C156.438 215.41 156.857 215.236 157.167 214.927C157.476 214.617 157.65 214.198 157.65 213.76V210.57C157.65 210.132 157.476 209.713 157.167 209.403C156.857 209.094 156.438 208.92 156 208.92H152.81Z" fill="white"/>
<path d="M110.45 215.925C110.38 215.923 110.312 215.901 110.255 215.862C110.197 215.822 110.152 215.766 110.126 215.702C110.099 215.637 110.092 215.566 110.105 215.497C110.119 215.429 110.151 215.365 110.2 215.315L112.105 213.41C111.607 212.782 111.357 211.993 111.4 211.193C111.443 210.393 111.778 209.636 112.34 209.065C112.785 208.62 113.35 208.314 113.966 208.183C114.581 208.052 115.222 208.102 115.81 208.327C116.398 208.552 116.908 208.942 117.278 209.451C117.649 209.96 117.865 210.565 117.899 211.194C117.933 211.822 117.785 212.447 117.472 212.993C117.159 213.539 116.694 213.983 116.134 214.271C115.575 214.558 114.943 214.678 114.317 214.615C113.691 214.552 113.096 214.309 112.605 213.915L110.7 215.82C110.634 215.887 110.544 215.924 110.45 215.925ZM114.645 208.825C114.056 208.825 113.486 209.03 113.031 209.403C112.576 209.777 112.264 210.297 112.15 210.874C112.035 211.452 112.124 212.051 112.402 212.57C112.679 213.09 113.129 213.496 113.673 213.722C114.217 213.947 114.822 213.976 115.385 213.805C115.949 213.634 116.435 213.273 116.762 212.783C117.089 212.294 117.236 211.706 117.179 211.12C117.121 210.534 116.861 209.986 116.445 209.57C116.209 209.333 115.929 209.145 115.62 209.017C115.311 208.889 114.979 208.824 114.645 208.825Z" fill="white"/>
<path d="M106.725 88.04V98.605H104.765V89.685H102.53V88.04H106.725Z" fill="#1F1515"/>
<path d="M108.825 93.32C108.825 89.85 110.725 87.89 113.23 87.89C115.735 87.89 117.655 89.85 117.655 93.32C117.655 96.79 115.75 98.755 113.23 98.755C110.71 98.755 108.825 96.79 108.825 93.32ZM115.675 93.32C115.675 90.77 114.675 89.595 113.23 89.595C111.785 89.595 110.8 90.77 110.8 93.32C110.8 95.87 111.8 97.05 113.23 97.05C114.66 97.05 115.675 95.87 115.675 93.32Z" fill="#1F1515"/>
<path d="M118.92 91.705C118.909 91.5359 118.933 91.3664 118.991 91.2069C119.048 91.0474 119.137 90.9014 119.253 90.7778C119.369 90.6542 119.509 90.5557 119.665 90.4884C119.82 90.4211 119.988 90.3863 120.157 90.3863C120.327 90.3863 120.495 90.4211 120.65 90.4884C120.806 90.5557 120.946 90.6542 121.062 90.7778C121.178 90.9014 121.267 91.0474 121.324 91.2069C121.382 91.3664 121.406 91.5359 121.395 91.705C121.406 91.8742 121.382 92.0437 121.324 92.2032C121.267 92.3626 121.178 92.5087 121.062 92.6323C120.946 92.7558 120.806 92.8543 120.65 92.9217C120.495 92.989 120.327 93.0237 120.157 93.0237C119.988 93.0237 119.82 92.989 119.665 92.9217C119.509 92.8543 119.369 92.7558 119.253 92.6323C119.137 92.5087 119.048 92.3626 118.991 92.2032C118.933 92.0437 118.909 91.8742 118.92 91.705ZM118.92 97.455C118.909 97.2859 118.933 97.1164 118.991 96.9569C119.048 96.7974 119.137 96.6514 119.253 96.5278C119.369 96.4042 119.509 96.3057 119.665 96.2384C119.82 96.1711 119.988 96.1363 120.157 96.1363C120.327 96.1363 120.495 96.1711 120.65 96.2384C120.806 96.3057 120.946 96.4042 121.062 96.5278C121.178 96.6514 121.267 96.7974 121.324 96.9569C121.382 97.1164 121.406 97.2859 121.395 97.455C121.406 97.6241 121.382 97.7937 121.324 97.9532C121.267 98.1126 121.178 98.2587 121.062 98.3823C120.946 98.5058 120.806 98.6043 120.65 98.6716C120.495 98.739 120.327 98.7737 120.157 98.7737C119.988 98.7737 119.82 98.739 119.665 98.6716C119.509 98.6043 119.369 98.5058 119.253 98.3823C119.137 98.2587 119.048 98.1126 118.991 97.9532C118.933 97.7937 118.909 97.6241 118.92 97.455Z" fill="#1F1515"/>
<path d="M122.665 93.32C122.665 89.85 124.565 87.89 127.07 87.89C129.575 87.89 131.5 89.85 131.5 93.32C131.5 96.79 129.595 98.755 127.075 98.755C124.555 98.755 122.665 96.79 122.665 93.32ZM129.515 93.32C129.515 90.77 128.515 89.595 127.07 89.595C125.625 89.595 124.64 90.77 124.64 93.32C124.64 95.87 125.64 97.05 127.07 97.05C128.5 97.05 129.5 95.87 129.5 93.32H129.515Z" fill="#1F1515"/>
<path d="M132.825 93.32C132.825 89.85 134.725 87.89 137.23 87.89C139.735 87.89 141.65 89.85 141.65 93.32C141.65 96.79 139.75 98.755 137.23 98.755C134.71 98.755 132.825 96.79 132.825 93.32ZM139.675 93.32C139.675 90.77 138.675 89.595 137.23 89.595C135.785 89.595 134.8 90.77 134.8 93.32C134.8 95.87 135.8 97.05 137.23 97.05C138.66 97.05 139.675 95.87 139.675 93.32Z" fill="#1F1515"/>
<path d="M161.255 106.525H86.795C84.5002 106.525 82.64 108.385 82.64 110.68V128.905C82.64 131.2 84.5002 133.06 86.795 133.06H161.255C163.55 133.06 165.41 131.2 165.41 128.905V110.68C165.41 108.385 163.55 106.525 161.255 106.525Z" fill="#FAFAFA"/>
<path d="M161.26 133.06C161.26 133.06 161.445 133.06 161.805 133.005C162.333 132.94 162.843 132.77 163.305 132.505C164.053 132.068 164.647 131.409 165.005 130.62C165.226 130.116 165.346 129.575 165.36 129.025V127.135C165.36 124.455 165.36 121.185 165.33 117.385C165.33 115.485 165.33 113.457 165.33 111.3C165.357 110.762 165.313 110.222 165.2 109.695C165.062 109.164 164.819 108.666 164.485 108.23C164.139 107.776 163.7 107.402 163.197 107.132C162.694 106.862 162.139 106.703 161.57 106.665L86.815 106.695C85.9342 106.695 85.078 106.985 84.3791 107.521C83.6803 108.057 83.1779 108.809 82.95 109.66C82.8394 110.084 82.7939 110.522 82.815 110.96V112.305C82.815 113.2 82.815 114.09 82.815 114.98V128.05C82.815 128.475 82.815 128.91 82.815 129.31C82.8587 129.716 82.9597 130.113 83.115 130.49C83.4328 131.239 83.9716 131.874 84.6595 132.309C85.3475 132.744 86.1518 132.959 86.965 132.925H96.68L130.29 132.96L152.95 133.01L159.115 133.04H160.715H161.26H160.715H159.115L152.95 133.07L130.29 133.12L96.68 133.155H86.965C86.1016 133.201 85.2439 132.991 84.5 132.55C83.7558 132.084 83.1714 131.402 82.825 130.595C82.6596 130.188 82.5503 129.761 82.5 129.325C82.47 128.88 82.5 128.465 82.5 128.035V125.465C82.5 122.025 82.5 118.525 82.5 114.965V110.965C82.4833 110.5 82.5338 110.035 82.65 109.585C82.8986 108.67 83.4407 107.862 84.1932 107.284C84.9456 106.707 85.8667 106.393 86.815 106.39L161.585 106.45C162.475 106.517 163.322 106.862 164.006 107.436C164.689 108.01 165.175 108.785 165.395 109.65C165.512 110.193 165.556 110.75 165.525 111.305C165.525 113.458 165.525 115.487 165.525 117.39C165.525 121.19 165.525 124.46 165.5 127.14C165.5 127.81 165.5 128.44 165.5 129.035C165.486 129.597 165.357 130.15 165.12 130.66C164.752 131.463 164.14 132.128 163.37 132.56C162.902 132.832 162.383 133.002 161.845 133.06C161.65 133.078 161.455 133.078 161.26 133.06Z" fill="#1F1515"/>
<path d="M159.455 112C159.425 112.001 159.395 111.992 159.369 111.975C159.344 111.958 159.324 111.934 159.313 111.906C159.301 111.878 159.299 111.847 159.305 111.817C159.312 111.788 159.328 111.761 159.35 111.74L161.39 109.79C161.418 109.763 161.456 109.747 161.495 109.747C161.534 109.747 161.572 109.763 161.6 109.79C161.614 109.804 161.626 109.82 161.633 109.838C161.641 109.856 161.645 109.875 161.645 109.895C161.645 109.915 161.641 109.934 161.633 109.952C161.626 109.97 161.614 109.986 161.6 110L159.555 112C159.523 112.011 159.487 112.011 159.455 112Z" fill="#1F1515"/>
<path d="M161.5 112.03C161.48 112.03 161.461 112.026 161.443 112.018C161.425 112.011 161.408 111.999 161.395 111.985L159.395 110.015C159.367 109.987 159.352 109.949 159.352 109.91C159.352 109.871 159.367 109.833 159.395 109.805C159.424 109.777 159.462 109.762 159.502 109.762C159.543 109.762 159.581 109.777 159.61 109.805L161.61 111.775C161.638 111.804 161.653 111.842 161.653 111.883C161.653 111.923 161.638 111.961 161.61 111.99C161.595 112.004 161.578 112.014 161.559 112.021C161.54 112.028 161.52 112.031 161.5 112.03Z" fill="#1F1515"/>
<path d="M100.5 124.95L99.665 123.77C99.1642 123.059 98.8953 122.21 98.895 121.34V118.69C98.8949 117.658 98.5253 116.66 97.853 115.876C97.1808 115.093 96.2502 114.577 95.23 114.42V113.155C95.23 113.078 95.2148 113.003 95.1853 112.932C95.1559 112.861 95.1127 112.797 95.0583 112.743C95.0039 112.689 94.9394 112.647 94.8685 112.618C94.7975 112.589 94.7215 112.574 94.645 112.575C94.5688 112.575 94.4934 112.59 94.423 112.619C94.3526 112.648 94.2887 112.691 94.2348 112.745C94.181 112.799 94.1383 112.863 94.1091 112.933C94.08 113.003 94.065 113.079 94.065 113.155V114.4C93.0136 114.525 92.0445 115.031 91.3414 115.823C90.6382 116.614 90.2499 117.636 90.25 118.695V121.44C90.2507 122.382 89.9355 123.298 89.355 124.04L88.64 124.95H100.5Z" fill="#E64848"/>
<path d="M93.925 126.875C94.2478 127.003 94.5998 127.04 94.9422 126.981C95.2845 126.922 95.6039 126.769 95.865 126.54C96.0925 126.336 96.2646 126.078 96.365 125.79L92.91 125.765C92.9931 126.01 93.1262 126.235 93.3009 126.427C93.4757 126.618 93.6882 126.77 93.925 126.875Z" fill="#E0E0E0"/>
<path d="M147.045 115.5C147.045 115.585 137.775 115.655 126.34 115.655C114.905 115.655 105.63 115.585 105.63 115.5C105.63 115.415 114.9 115.345 126.34 115.345C137.78 115.345 147.045 115.405 147.045 115.5Z" fill="#1F1515"/>
<path d="M156.805 120.5C156.805 120.59 145.35 120.66 131.22 120.66C117.09 120.66 105.63 120.59 105.63 120.5C105.63 120.41 117.085 120.345 131.22 120.345C145.355 120.345 156.805 120.415 156.805 120.5Z" fill="#E0E0E0"/>
<path d="M156.805 123.5C156.805 123.585 145.35 123.655 131.22 123.655C117.09 123.655 105.63 123.585 105.63 123.5C105.63 123.415 117.085 123.345 131.22 123.345C145.355 123.345 156.805 123.42 156.805 123.5Z" fill="#E0E0E0"/>
<path d="M53.855 185.63L65.355 187.425C65.355 187.425 67.39 199.71 69.48 200.245L73.76 178.09L55.965 174.56L53.855 185.63Z" fill="#E64848"/>
<path d="M65.71 180.385C65.8169 180.185 65.9936 180.031 66.2066 179.953C66.4195 179.874 66.6539 179.877 66.865 179.96C67.0691 180.059 67.2274 180.232 67.3074 180.444C67.3874 180.656 67.383 180.891 67.295 181.1C67.1835 181.313 66.9967 181.476 66.7711 181.558C66.5455 181.641 66.2973 181.636 66.075 181.545C65.8714 181.421 65.724 181.223 65.6643 180.992C65.6045 180.762 65.6371 180.517 65.755 180.31" fill="#E0E0E0"/>
<path d="M73.755 178.09L71.945 177.805L68.5 199.155C68.5 199.155 68.74 200.225 69.455 200.245L73.755 178.09Z" fill="#1F1515"/>
<path d="M65.165 187.76C65.275 187.76 65.43 187.26 65.88 186.785C66.33 186.31 66.84 186.12 66.815 186.015C66.79 185.91 66.135 185.945 65.6 186.515C65.065 187.085 65.06 187.765 65.165 187.76Z" fill="#1F1515"/>
<path d="M65.68 190.27C65.78 190.315 66.055 189.885 66.58 189.605C67.105 189.325 67.615 189.315 67.63 189.205C67.645 189.095 67.05 188.91 66.4 189.27C65.75 189.63 65.575 190.25 65.68 190.27Z" fill="#1F1515"/>
<path d="M68.205 192.13C68.245 192.035 67.735 191.78 67.09 191.945C66.445 192.11 66.09 192.565 66.19 192.63C66.29 192.695 66.65 192.44 67.19 192.315C67.73 192.19 68.175 192.235 68.205 192.13Z" fill="#1F1515"/>
<path d="M62.59 187.065C62.7 187.035 62.645 186.51 62.805 185.91C62.965 185.31 63.25 184.865 63.17 184.79C63.09 184.715 62.61 185.1 62.435 185.815C62.26 186.53 62.5 187.1 62.59 187.065Z" fill="#1F1515"/>
<path d="M45.715 217.93L45.905 229.56C45.905 229.56 34.145 233.655 33.97 235.805L56.535 236.255L56.985 218.12L45.715 217.93Z" fill="#E64848"/>
<path d="M52.9 228.72C53.1158 228.79 53.298 228.938 53.4116 229.135C53.5251 229.331 53.5619 229.563 53.515 229.785C53.4518 230.003 53.3079 230.188 53.1128 230.303C52.9177 230.418 52.686 230.455 52.465 230.405C52.2393 230.324 52.0501 230.166 51.9317 229.957C51.8134 229.749 51.7737 229.505 51.82 229.27C51.913 229.053 52.0858 228.88 52.3026 228.787C52.5194 228.694 52.7637 228.688 52.985 228.77" fill="#E0E0E0"/>
<path d="M56.535 236.255L56.505 234.425L34.885 234.68C34.885 234.68 33.885 235.095 33.97 235.805L56.535 236.255Z" fill="#1F1515"/>
<path d="M45.54 229.435C45.54 229.545 46.09 229.605 46.625 229.97C47.16 230.335 47.44 230.805 47.545 230.765C47.65 230.725 47.495 230.085 46.84 229.655C46.185 229.225 45.5 229.335 45.54 229.435Z" fill="#1F1515"/>
<path d="M43.155 230.37C43.125 230.475 43.6 230.67 43.965 231.145C44.33 231.62 44.43 232.115 44.54 232.11C44.65 232.105 44.73 231.485 44.265 230.905C43.8 230.325 43.16 230.265 43.155 230.37Z" fill="#1F1515"/>
<path d="M41.755 233.175C41.855 233.175 42.02 232.65 41.755 232.045C41.49 231.44 40.975 231.185 40.925 231.275C40.875 231.365 41.19 231.695 41.425 232.2C41.66 232.705 41.645 233.16 41.755 233.175Z" fill="#1F1515"/>
<path d="M45.79 226.78C45.835 226.88 46.345 226.74 46.965 226.78C47.585 226.82 48.07 227.04 48.13 226.945C48.19 226.85 47.73 226.445 46.995 226.395C46.26 226.345 45.74 226.695 45.79 226.78Z" fill="#1F1515"/>
<path d="M34.5 136.55C34.5 136.55 17.26 158.815 15.79 164.96C14.655 169.685 16.08 172.515 21.855 175.4C27.63 178.285 62.79 189.67 62.79 189.67L65.24 175.64L36.415 164.435L47.5 156.5L52.27 133.16L35.655 132.66L34.5 136.55Z" fill="#1F1515"/>
<path d="M39.38 141.57C39.38 141.57 41.575 177.985 42.575 181.395C43.575 184.805 45.905 189.525 45.905 194.245C45.905 198.965 44.24 228.335 44.24 228.335L57.905 228.805C57.905 228.805 62.21 193.72 61.545 187.165C60.88 180.61 63.875 159.365 64.875 153.86C65.875 148.355 67.425 145.99 67.095 137.335V132.615H37.915L39.38 141.57Z" fill="#1F1515"/>
<path d="M64.875 153.86C64.875 153.86 64.875 153.985 64.82 154.23C64.765 154.475 64.725 154.85 64.65 155.33C64.5 156.295 64.28 157.72 64.02 159.565C63.52 163.26 62.765 168.63 62.115 175.345C61.965 177.03 61.81 178.79 61.7 180.635C61.5604 182.552 61.527 184.475 61.6 186.395C61.7401 188.464 61.7401 190.541 61.6 192.61C61.495 194.75 61.33 196.945 61.145 199.205C60.39 208.245 59.295 218.205 58.025 228.825V228.94H57.91L45.03 228.5L44.235 228.47H44.105V228.34C44.435 222.3 44.755 216.405 45.06 210.715C45.365 205.025 45.66 199.535 45.78 194.315C45.6997 191.775 45.2118 189.265 44.335 186.88C43.95 185.705 43.525 184.56 43.125 183.425C42.925 182.86 42.725 182.295 42.555 181.725C42.4667 181.442 42.3982 181.153 42.35 180.86C42.29 180.565 42.24 180.275 42.21 179.985C41.89 177.675 41.71 175.44 41.51 173.29C41.31 171.14 41.17 169.075 41.01 167.1C40.42 159.22 40.01 152.835 39.75 148.425C39.62 146.225 39.52 144.515 39.45 143.35C39.42 142.775 39.395 142.35 39.38 142.03C39.365 141.71 39.38 141.58 39.38 141.58C39.38 141.58 39.38 141.73 39.42 142.03C39.46 142.33 39.47 142.77 39.51 143.345C39.59 144.515 39.71 146.22 39.86 148.42C40.16 152.825 40.59 159.205 41.2 167.09C41.3667 169.06 41.5333 171.12 41.7 173.27C41.9 175.42 42.09 177.66 42.41 179.955C42.4429 180.242 42.4913 180.528 42.555 180.81C42.6015 181.098 42.6684 181.382 42.755 181.66C42.925 182.225 43.125 182.785 43.32 183.35C43.725 184.485 44.15 185.63 44.545 186.805C45.4284 189.211 45.9229 191.743 46.01 194.305C45.895 199.545 45.585 205.025 45.305 210.72C45.025 216.415 44.68 222.305 44.355 228.34L44.23 228.205L45.025 228.235L57.895 228.68L57.76 228.79C59.035 218.2 60.14 208.215 60.91 199.19C61.095 196.93 61.265 194.735 61.375 192.6C61.5124 190.537 61.5124 188.468 61.375 186.405C61.3067 184.478 61.3451 182.548 61.49 180.625C61.605 178.775 61.76 177.01 61.92 175.33C62.595 168.61 63.355 163.245 63.92 159.555C64.195 157.71 64.42 156.285 64.595 155.32C64.68 154.845 64.75 154.48 64.795 154.23C64.84 153.98 64.875 153.86 64.875 153.86Z" fill="#455A64"/>
<path d="M36.57 164.4C35.9699 164.369 35.3684 164.381 34.77 164.435C34.1864 164.574 33.6119 164.75 33.05 164.96C33.502 164.512 34.0962 164.236 34.73 164.18C35.3501 164.034 36.0017 164.112 36.57 164.4Z" fill="#455A64"/>
<path d="M60.6 146.865C60.4049 146.912 60.2055 146.939 60.005 146.945C59.7713 146.976 59.5357 146.989 59.3 146.985C59.025 146.985 58.71 146.985 58.365 146.96C57.5532 146.909 56.7479 146.782 55.96 146.58C54.9976 146.325 54.063 145.975 53.17 145.535C52.2842 145.079 51.4466 144.534 50.67 143.91C50.0387 143.396 49.4577 142.824 48.935 142.2C48.7317 141.966 48.5414 141.72 48.365 141.465C48.2205 141.278 48.0901 141.081 47.975 140.875C47.8608 140.711 47.7652 140.535 47.69 140.35C47.735 140.32 48.165 141.06 49.075 142.08C49.6104 142.675 50.194 143.226 50.82 143.725C52.3534 144.938 54.1149 145.831 56 146.35C56.7739 146.556 57.5631 146.7 58.36 146.78C59.74 146.905 60.595 146.81 60.6 146.865Z" fill="#455A64"/>
<path d="M51 74.95L49.31 76.585L46.81 74.16L46.11 72.345L42.945 69.5C42.9086 70.1061 42.9086 70.7139 42.945 71.32L41.165 74.75V81.155L39.39 84.625L46.26 86.625L47.51 82.405C48.5894 81.7594 49.5738 80.9668 50.435 80.05C51.435 78.84 52.435 74.55 52.435 74.55C52.1817 74.4859 51.916 74.4891 51.6643 74.5593C51.4126 74.6294 51.1836 74.7641 51 74.95Z" fill="#FFBF9D"/>
<path d="M45.73 76.3699C45.6443 76.2889 45.5822 76.186 45.5505 76.0724C45.5188 75.9588 45.5186 75.8387 45.55 75.7249L46.5 72.3649L49.32 63.32C49.3513 63.217 49.4081 63.1236 49.485 63.0483C49.562 62.9731 49.6567 62.9185 49.7604 62.8896C49.8641 62.8607 49.9734 62.8584 50.0782 62.8829C50.183 62.9075 50.2799 62.958 50.36 63.03L54.225 66.47C54.318 66.5523 54.3851 66.6601 54.4179 66.7799C54.4508 66.8998 54.448 67.0266 54.41 67.1449L50.46 79.4599C50.4262 79.5618 50.3675 79.6536 50.2893 79.727C50.211 79.8004 50.1157 79.8532 50.012 79.8805C49.9082 79.9078 49.7993 79.9088 49.695 79.8834C49.5908 79.858 49.4945 79.8069 49.415 79.7349L45.73 76.3699Z" fill="#E0E0E0"/>
<path d="M46.21 76.08C46.1311 76.0062 46.074 75.9121 46.0449 75.8081C46.0158 75.7041 46.0158 75.594 46.045 75.49L46.915 72.34L49.5 63.84C49.529 63.7469 49.5809 63.6625 49.6508 63.5946C49.7208 63.5266 49.8066 63.4772 49.9005 63.4509C49.9944 63.4245 50.0934 63.4221 50.1885 63.4438C50.2836 63.4655 50.3718 63.5106 50.445 63.575L54.015 66.7C54.0998 66.7751 54.161 66.8731 54.1912 66.9823C54.2214 67.0915 54.2192 67.207 54.185 67.315L50.37 78.91C50.3395 79.0028 50.2864 79.0865 50.2153 79.1535C50.1442 79.2205 50.0575 79.2686 49.963 79.2934C49.8685 79.3183 49.7694 79.3191 49.6745 79.2958C49.5797 79.2725 49.4922 79.2258 49.42 79.16L46.21 76.08Z" fill="#1F1515"/>
<path d="M46.095 72.345C46.095 72.345 46.455 72.46 47.4 72.845C48.52 73.28 48.795 72.695 48.795 72.695C48.8726 72.4993 48.8699 72.2809 48.7876 72.0871C48.7052 71.8934 48.5498 71.7399 48.355 71.66L46.095 70.74L46.125 70.265C46.125 70.265 47.3 70.41 48.165 70.41C49.975 70.41 49.295 68.855 49.295 68.855L47.21 68.585L48.27 67.05C48.3757 66.9292 48.4551 66.7878 48.5031 66.6346C48.5511 66.4815 48.5666 66.3201 48.5487 66.1606C48.5309 66.0011 48.48 65.8471 48.3992 65.7084C48.3185 65.5697 48.2098 65.4493 48.08 65.355L44.16 68.59C44.16 68.59 43.02 69.06 42.945 69.53C42.9086 70.1361 42.9086 70.7439 42.945 71.35L46.095 72.345Z" fill="#FFBF9D"/>
<path d="M48.375 72.96C48.0835 73.0385 47.7765 73.0385 47.485 72.96C46.7804 72.8284 46.0939 72.6136 45.44 72.32L45.155 72.195L45.315 72.145C44.915 72.775 44.63 73.39 44.375 73.81C44.2619 74.0494 44.1041 74.2649 43.91 74.445C43.9876 74.1939 44.0933 73.9524 44.225 73.725C44.4787 73.1315 44.771 72.5553 45.1 72L45.155 71.91L45.26 71.955L45.54 72.075C46.188 72.3585 46.8566 72.5925 47.54 72.775C48.04 72.905 48.375 72.92 48.375 72.96Z" fill="#FF9A6C"/>
<path d="M46.115 70.83C46.115 70.86 45.925 70.75 45.615 70.65C45.2412 70.5182 44.8389 70.4888 44.45 70.565C44.0612 70.6504 43.7033 70.8406 43.415 71.115C43.185 71.325 43.08 71.495 43.045 71.475C43.01 71.455 43.045 71.255 43.28 70.975C43.5627 70.6272 43.9564 70.3871 44.395 70.295C44.8335 70.2051 45.2895 70.265 45.69 70.465C46 70.64 46.135 70.805 46.115 70.83Z" fill="#FF9A6C"/>
<path d="M48.97 68.8C48.97 68.875 47.88 68.635 46.545 68.585C45.21 68.535 44.12 68.67 44.105 68.585C44.8942 68.3264 45.7285 68.2345 46.555 68.315C47.3844 68.3133 48.2056 68.4782 48.97 68.8Z" fill="#FF9A6C"/>
<path d="M46.17 81.305C46.13 81.305 46.225 80.935 46.245 80.345C46.281 79.5771 46.1301 78.8119 45.8053 78.1152C45.4804 77.4185 44.9913 76.811 44.38 76.345C43.91 75.98 43.57 75.845 43.585 75.785C43.9131 75.8488 44.2215 75.9893 44.485 76.195C45.1588 76.644 45.6964 77.2694 46.0394 78.0029C46.3823 78.7364 46.5174 79.55 46.43 80.355C46.4195 80.6877 46.3304 81.0132 46.17 81.305Z" fill="#FF9A6C"/>
<path d="M50.2 83.615C48.3894 84.5859 46.95 86.1273 46.105 88L44.605 93.25L46.56 86.665L36.95 83.62C36.95 83.62 32.19 93.89 31.08 99.705C30.225 104.18 30.325 110.13 33.855 111.035C37.895 112.315 41.115 110.625 43.855 107.14L50.775 97.245L50.2 83.615Z" fill="#E64848"/>
<path d="M37.66 84.1C37.66 84.1 37.72 84.1 37.83 84.125L38.33 84.25L40.17 84.75L46.575 86.55L46.695 86.58L46.66 86.7L45.04 92.2C44.45 94.2 43.865 96.06 43.395 97.785C42.925 99.51 42.47 101.065 41.97 102.335C41.5851 103.338 41.1028 104.301 40.53 105.21C40.33 105.53 40.155 105.77 40.03 105.93C39.975 106.016 39.9113 106.097 39.84 106.17C39.84 106.17 40.06 105.81 40.435 105.17C40.9728 104.25 41.4279 103.285 41.795 102.285C42.265 101.02 42.685 99.465 43.16 97.74C43.635 96.015 44.195 94.12 44.79 92.14C45.385 90.16 45.92 88.345 46.42 86.64L46.505 86.79L40.125 84.9L38.3 84.34L37.8 84.18C37.7503 84.159 37.7032 84.1322 37.66 84.1Z" fill="#1F1515"/>
<path d="M61.845 48.39C61.5613 47.9583 61.1508 47.6251 60.67 47.4361C60.1892 47.2472 59.6617 47.2119 59.16 47.335C58.518 46.9261 57.757 46.7452 56.9997 46.8214C56.2424 46.8976 55.5327 47.2264 54.985 47.755C54.5125 47.5262 53.9888 47.4239 53.4649 47.458C52.9411 47.4921 52.4351 47.6616 51.9963 47.9497C51.5575 48.2379 51.2009 48.6349 50.9615 49.1021C50.722 49.5692 50.6078 50.0905 50.63 50.615C50.0998 50.5842 49.573 50.7167 49.1206 50.9948C48.6682 51.2729 48.3119 51.6831 48.1 52.17C47.9059 52.6657 47.8665 53.2086 47.987 53.7272C48.1075 54.2457 48.3822 54.7156 48.775 55.075C48.2166 55.3096 47.7649 55.7427 47.507 56.2907C47.2492 56.8387 47.2034 57.4629 47.3787 58.0426C47.5539 58.6224 47.9377 59.1167 48.4559 59.4301C48.9742 59.7436 49.5902 59.854 50.185 59.74L61.625 51.285C61.9584 50.8854 62.1589 50.3917 62.1983 49.8727C62.2377 49.3537 62.1142 48.8354 61.845 48.39Z" fill="#1F1515"/>
<path d="M49.86 60.11C49.8486 57.5038 50.8203 54.9892 52.5812 53.068C54.3421 51.1467 56.7627 49.9601 59.36 49.745L59.89 49.7C65.67 49.565 67.92 54.74 67.89 60.555L69.145 82.055L60.645 90.745L57.45 85.055L56.31 79.365C56.31 79.365 50.71 78.95 50.185 73.4C49.95 70.715 49.87 65.15 49.86 60.11Z" fill="#FFBF9D"/>
<path d="M56.28 79.355C58.8483 79.1425 61.3011 78.1947 63.345 76.625C63.345 76.625 62.18 80.905 56.625 80.855L56.28 79.355Z" fill="#FF9A6C"/>
<path d="M51.885 65.125C51.8992 65.3323 51.994 65.5259 52.1491 65.6642C52.3042 65.8025 52.5074 65.8746 52.715 65.865C52.8163 65.865 52.9165 65.8447 53.0098 65.8052C53.1031 65.7657 53.1874 65.7078 53.2579 65.6351C53.3283 65.5623 53.3834 65.4761 53.4199 65.3816C53.4563 65.2871 53.4733 65.1862 53.47 65.085C53.4558 64.8776 53.361 64.684 53.2059 64.5457C53.0508 64.4074 52.8476 64.3353 52.64 64.345C52.5387 64.3449 52.4384 64.3652 52.3452 64.4047C52.2519 64.4442 52.1675 64.5021 52.0971 64.5749C52.0267 64.6476 51.9716 64.7339 51.9351 64.8284C51.8987 64.9229 51.8816 65.0237 51.885 65.125Z" fill="#1F1515"/>
<path d="M51.235 63C51.34 63.095 51.9 62.6 52.735 62.535C53.57 62.47 54.235 62.845 54.325 62.73C54.415 62.615 54.255 62.5 53.965 62.325C53.5765 62.0993 53.1275 61.9997 52.68 62.04C52.2387 62.0756 51.8201 62.2507 51.485 62.54C51.255 62.785 51.185 63 51.235 63Z" fill="#1F1515"/>
<path d="M59.195 64.895C59.2091 65.1015 59.3032 65.2943 59.4573 65.4325C59.6114 65.5707 59.8132 65.6433 60.02 65.635C60.1215 65.6344 60.2219 65.6135 60.3152 65.5734C60.4085 65.5334 60.4928 65.475 60.5632 65.4019C60.6336 65.3287 60.6886 65.2422 60.7249 65.1474C60.7613 65.0526 60.7783 64.9515 60.775 64.85C60.7609 64.6436 60.6668 64.4508 60.5127 64.3126C60.3586 64.1744 60.1568 64.1017 59.95 64.11C59.8487 64.1113 59.7486 64.1327 59.6556 64.173C59.5627 64.2133 59.4786 64.2716 59.4084 64.3447C59.3381 64.4177 59.2831 64.504 59.2465 64.5984C59.2098 64.6929 59.1923 64.7937 59.195 64.895Z" fill="#1F1515"/>
<path d="M59.35 62.235C59.455 62.33 60.02 61.835 60.85 61.77C61.68 61.705 62.35 62.075 62.44 61.965C62.53 61.855 62.37 61.735 62.08 61.56C61.6913 61.3349 61.2425 61.2353 60.795 61.275C60.3537 61.3106 59.9351 61.4857 59.6 61.775C59.37 62 59.3 62.19 59.35 62.235Z" fill="#1F1515"/>
<path d="M57.075 68.795C56.6162 68.689 56.1455 68.6437 55.675 68.66C55.455 68.66 55.245 68.625 55.175 68.48C55.1414 68.2554 55.1744 68.0259 55.27 67.82C55.43 67.28 55.595 66.705 55.77 66.11C56.465 63.67 56.95 61.675 56.85 61.645C56.75 61.615 56.11 63.57 55.415 66.01C55.245 66.61 55.09 67.185 54.915 67.73C54.8007 68.0047 54.7866 68.3109 54.875 68.595C54.9115 68.6695 54.9648 68.7345 55.0308 68.7848C55.0967 68.8351 55.1735 68.8694 55.255 68.885C55.3793 68.9041 55.5057 68.9041 55.63 68.885C56.1135 68.9207 56.5996 68.8904 57.075 68.795Z" fill="#1F1515"/>
<path d="M59.62 69.18C59.48 69.18 59.555 70.11 58.82 70.835C58.085 71.56 57.095 71.535 57.1 71.665C57.105 71.795 57.335 71.825 57.75 71.805C58.2904 71.7679 58.8003 71.5413 59.19 71.165C59.5669 70.8011 59.7859 70.3038 59.8 69.78C59.805 69.39 59.685 69.17 59.62 69.18Z" fill="#1F1515"/>
<path d="M59.14 59.795C59.255 60.01 59.97 59.75 60.86 59.69C61.75 59.63 62.51 59.76 62.58 59.53C62.61 59.42 62.445 59.23 62.12 59.07C61.6994 58.871 61.2337 58.7865 60.77 58.825C60.3131 58.858 59.8732 59.0115 59.495 59.27C59.21 59.5 59.085 59.695 59.14 59.795Z" fill="#1F1515"/>
<path d="M51.235 60.66C51.385 60.855 51.97 60.66 52.68 60.66C53.39 60.66 53.98 60.795 54.12 60.59C54.18 60.49 54.085 60.295 53.825 60.09C53.4761 59.8638 53.0654 59.7519 52.65 59.77C52.2355 59.7777 51.8336 59.914 51.5 60.16C51.25 60.365 51.17 60.565 51.235 60.66Z" fill="#1F1515"/>
<path d="M50.185 57.5C50.185 57.5 51.355 53.895 52.955 52.95C54.895 51.8 55.955 53.95 57.83 53.26C59.705 52.57 61.565 51.455 63.655 52.795C65.94 54.255 65.025 55.485 65.365 57.94C66.725 67.895 68.77 70.575 68.9 65.825C68.9 65.325 70.305 64.775 70.335 62.58C70.38 59.73 70.205 56.285 69.41 54.33C68.745 52.685 67.69 51.595 65.865 50.45C62.985 48.64 59.255 48.9 56.745 49.365C54.235 49.83 49.595 53.18 50.185 57.5Z" fill="#1F1515"/>
<path d="M67.835 65.78C67.8227 65.5756 67.8524 65.3708 67.9223 65.1783C67.9921 64.9858 68.1007 64.8096 68.2412 64.6607C68.3817 64.5117 68.5513 64.3931 68.7394 64.3122C68.9275 64.2312 69.1302 64.1896 69.335 64.19C70.375 64.19 71.57 64.69 71.68 66.85C71.87 70.66 68.025 70.06 68.015 69.955C68.005 69.85 67.9 67.375 67.835 65.78Z" fill="#FFBF9D"/>
<path d="M68.765 68.4999C68.765 68.4999 68.835 68.5399 68.95 68.5849C69.1105 68.6489 69.2895 68.6489 69.45 68.5849C69.684 68.4157 69.8699 68.1883 69.9891 67.9252C70.1084 67.6622 70.1569 67.3725 70.13 67.085C70.1227 66.758 70.0424 66.4369 69.895 66.145C69.858 66.0275 69.7933 65.9208 69.7062 65.8337C69.6192 65.7467 69.5124 65.6819 69.395 65.645C69.3183 65.6295 69.2387 65.641 69.1694 65.6774C69.1002 65.7138 69.0457 65.773 69.015 65.845C68.97 65.955 69.015 66.03 68.98 66.04C68.945 66.05 68.895 65.98 68.915 65.82C68.9316 65.7245 68.9812 65.6378 69.055 65.575C69.1553 65.491 69.2846 65.4497 69.415 65.46C69.5717 65.4835 69.7198 65.5469 69.845 65.644C69.9702 65.7412 70.0683 65.869 70.13 66.015C70.308 66.337 70.4057 66.6971 70.415 67.065C70.415 67.835 70.075 68.5649 69.535 68.7599C69.4345 68.7943 69.3276 68.8059 69.2221 68.7938C69.1166 68.7816 69.0151 68.7462 68.925 68.6899C68.78 68.5699 68.755 68.4999 68.765 68.4999Z" fill="#FF9A6C"/>
<path d="M67.855 58.365C67.4235 58.7791 66.8961 59.0798 66.32 59.24C66.0286 59.3084 65.7224 59.2691 65.4577 59.1295C65.1931 58.9898 64.9879 58.7591 64.88 58.48C64.815 58.22 64.85 57.905 64.66 57.715C64.47 57.525 64.06 57.595 63.75 57.655C63.1997 57.7433 62.6358 57.6394 62.1532 57.3607C61.6705 57.0821 61.2986 56.6457 61.1 56.125C60.948 56.3281 60.7246 56.4659 60.4748 56.5105C60.2251 56.5551 59.9678 56.503 59.755 56.365C59.3381 56.0838 58.9614 55.7474 58.635 55.365C58.4718 55.1705 58.2633 55.0192 58.0279 54.9241C57.7925 54.8291 57.5374 54.7933 57.285 54.82C57.0246 54.9318 56.7531 55.0156 56.475 55.07C55.975 55.07 55.685 54.5 55.57 54.01C55.455 53.52 55.35 52.95 54.91 52.715C54.47 52.48 54.005 52.685 53.555 52.79C53.105 52.895 52.505 52.835 52.35 52.395C52.321 52.276 52.3158 52.1525 52.3347 52.0315C52.3535 51.9105 52.3961 51.7945 52.46 51.69C52.7287 51.2063 53.1529 50.8275 53.6639 50.6151C54.1748 50.4028 54.7426 50.3692 55.275 50.52C55.4061 49.8736 55.7268 49.281 56.1962 48.8176C56.6656 48.3542 57.2623 48.0412 57.9103 47.9183C58.5583 47.7955 59.2282 47.8684 59.8346 48.1279C60.441 48.3873 60.9563 48.8215 61.315 49.375C61.6853 48.9717 62.1485 48.6649 62.6643 48.4812C63.1801 48.2974 63.7329 48.2423 64.2748 48.3207C64.8167 48.399 65.3313 48.6084 65.774 48.9307C66.2166 49.2529 66.574 49.6783 66.815 50.17C67.269 50.0175 67.7573 49.9986 68.2218 50.1156C68.6863 50.2326 69.1074 50.4806 69.435 50.83C69.753 51.1902 69.9619 51.6336 70.0371 52.1082C70.1124 52.5828 70.0509 53.069 69.86 53.51C70.2262 53.658 70.5492 53.8959 70.7991 54.2018C71.0491 54.5077 71.2179 54.8716 71.29 55.26C71.365 56.05 70.67 56.895 69.895 56.76C70.0873 57.0553 70.157 57.4139 70.0893 57.7598C70.0216 58.1056 69.8219 58.4115 69.5324 58.6125C69.2429 58.8135 68.8865 58.8938 68.5388 58.8364C68.1911 58.779 67.8794 58.5884 67.67 58.305" fill="#1F1515"/>
<path d="M70.155 56.695C70.1807 56.8253 70.1785 56.9595 70.1483 57.0889C70.1181 57.2182 70.0607 57.3396 69.98 57.445C69.8089 57.6938 69.5529 57.8716 69.26 57.945C69.0706 57.9914 68.8733 57.9954 68.6823 57.9564C68.4912 57.9175 68.3111 57.8368 68.155 57.72L68.315 57.68C68.1441 58.048 67.9144 58.3858 67.635 58.68C67.4532 58.8877 67.2324 59.0576 66.985 59.18C66.7499 59.2917 66.4892 59.3384 66.23 59.315C66.0113 59.3139 65.7955 59.265 65.5978 59.1717C65.4 59.0784 65.225 58.9431 65.085 58.775C64.9145 58.5456 64.789 58.2861 64.715 58.01C64.6772 57.9128 64.6586 57.8093 64.66 57.705C64.66 57.705 64.72 57.805 64.795 57.98C64.8936 58.2321 65.0321 58.4668 65.205 58.675C65.3582 58.8252 65.541 58.9418 65.7419 59.0173C65.9427 59.0927 66.1571 59.1254 66.3713 59.1131C66.5854 59.1009 66.7947 59.044 66.9856 58.9462C67.1766 58.8484 67.345 58.7117 67.48 58.545C67.7408 58.262 67.9581 57.9418 68.125 57.595L68.185 57.48L68.285 57.56C68.416 57.6613 68.5675 57.733 68.7289 57.7702C68.8903 57.8073 69.0579 57.8089 69.22 57.775C69.4813 57.7174 69.7136 57.5685 69.875 57.355C70.0099 57.1551 70.105 56.931 70.155 56.695Z" fill="#455A64"/>
<path d="M62.3 48.6C62.2155 48.6445 62.1287 48.6846 62.04 48.72C61.8074 48.8448 61.6176 49.0363 61.495 49.27L61.46 49.345L61.4 49.28C60.8727 48.678 60.202 48.2188 59.45 47.945C58.97 47.7715 58.4591 47.7 57.95 47.735C57.4449 47.7827 56.9586 47.9512 56.5322 48.2261C56.1059 48.5011 55.7518 48.8746 55.5 49.315C55.2992 49.6766 55.1894 50.0816 55.18 50.495V50.615H55.065C54.5248 50.5152 53.9669 50.63 53.51 50.935C53.152 51.1788 52.8792 51.5285 52.73 51.935C52.6058 52.3032 52.5565 52.6925 52.585 53.08C52.5381 52.9852 52.5141 52.8808 52.515 52.775C52.4759 52.392 52.5386 52.0054 52.6966 51.6542C52.8546 51.3031 53.1024 50.9998 53.415 50.775C53.9042 50.4302 54.5102 50.2936 55.1 50.395L54.985 50.495C54.9894 50.0457 55.1044 49.6043 55.32 49.21C55.5829 48.7362 55.9587 48.3345 56.4139 48.0406C56.8692 47.7467 57.3899 47.5696 57.93 47.525C58.4724 47.4871 59.0166 47.5673 59.525 47.76C60.3102 48.0517 61.0015 48.5511 61.525 49.205H61.43C61.5681 48.9565 61.7868 48.7625 62.05 48.655C62.195 48.59 62.3 48.59 62.3 48.6Z" fill="#455A64"/>
<path d="M56.685 81.53C57.73 85.53 64.01 86.295 69.025 80.595C69.025 80.595 75.585 83.535 77.59 84.93C79.155 86.02 70.055 125.93 70.055 125.93L68.62 141.785C68.62 141.785 64.505 142.815 62.075 141.885C57.2 140.02 50.93 135.145 48.385 135.755C29.245 140.335 35.55 131.755 35.55 131.755L41.05 115.08L46.77 93.5L50.2 83.545L56.685 81.53Z" fill="#E64848"/>
<path d="M36.415 129.16C36.4372 129.028 36.469 128.898 36.51 128.77C36.595 128.495 36.7 128.13 36.835 127.675C37.135 126.7 37.555 125.33 38.075 123.675C38.595 122.02 39.24 119.96 39.94 117.725L41.05 114.225L41.64 112.37C41.83 111.74 41.965 111.08 42.14 110.425C43.435 105.18 44.61 100.425 45.465 96.96C45.9 95.26 46.25 93.875 46.5 92.885C46.625 92.425 46.725 92.055 46.795 91.78C46.8256 91.6505 46.8657 91.5235 46.915 91.4C46.9047 91.5316 46.8829 91.6621 46.85 91.79C46.785 92.07 46.705 92.445 46.6 92.91C46.37 93.91 46.045 95.295 45.645 97.005C44.805 100.505 43.645 105.24 42.39 110.505C42.225 111.16 42.09 111.82 41.89 112.45C41.69 113.08 41.49 113.7 41.295 114.305L40.17 117.805L38.25 123.71C37.7 125.375 37.25 126.735 36.935 127.71L36.56 128.79C36.5226 128.917 36.474 129.041 36.415 129.16Z" fill="#1F1515"/>
<path d="M70.255 96.18C70.255 98.44 69.785 116.6 69.785 116.6L64.105 123.635L52.565 133.6L58.785 142.57C58.785 142.57 80.145 124.34 80.995 122.285C81.55 120.945 81.315 101 81.545 90.785C81.635 86.845 77.49 84.66 75.355 83.595" fill="#E64848"/>
<path d="M75.355 83.615C75.355 83.615 75.46 83.655 75.655 83.75C75.85 83.845 76.155 83.985 76.515 84.19C77.6175 84.7608 78.6384 85.4772 79.55 86.32C80.2087 86.9354 80.7448 87.67 81.13 88.485C81.3463 88.9615 81.4929 89.4667 81.565 89.985C81.605 90.25 81.595 90.525 81.615 90.805C81.635 91.085 81.615 91.36 81.615 91.65C81.575 93.935 81.555 96.54 81.545 99.415C81.535 102.29 81.545 105.45 81.515 108.835C81.485 112.22 81.515 115.835 81.365 119.645L81.29 121.085L81.225 121.815C81.225 121.935 81.175 122.065 81.15 122.19C81.1299 122.322 81.0785 122.447 81 122.555C80.3892 123.339 79.7207 124.076 79 124.76C77.58 126.16 76.08 127.54 74.55 128.935C71.485 131.725 68.265 134.56 64.955 137.435L58.885 142.67L58.775 142.765L58.695 142.645C56.555 139.56 54.475 136.56 52.48 133.675L52.415 133.58L52.5 133.5L64.05 123.545L69.74 116.545V116.6C69.9 110.305 70.035 105.205 70.125 101.665C70.175 99.91 70.215 98.54 70.245 97.605C70.245 97.145 70.275 96.795 70.28 96.545C70.285 96.295 70.28 96.185 70.28 96.185C70.28 96.185 70.28 96.31 70.28 96.545C70.28 96.78 70.28 97.145 70.28 97.605C70.28 98.54 70.24 99.91 70.21 101.665C70.14 105.205 70.035 110.31 69.91 116.605V116.64C68.165 118.805 66.27 121.165 64.245 123.685L52.71 133.655V133.49L58.89 142.5L58.7 142.475L64.765 137.24C68.08 134.355 71.3 131.52 74.365 128.74C75.895 127.345 77.39 125.965 78.81 124.57C79.5202 123.902 80.1787 123.182 80.78 122.415C80.9544 121.983 81.0427 121.521 81.04 121.055L81.115 119.625C81.25 115.825 81.26 112.21 81.29 108.825C81.32 105.44 81.335 102.285 81.35 99.405C81.365 96.525 81.405 93.905 81.46 91.635V90.79C81.46 90.52 81.46 90.25 81.415 89.99C81.3474 89.4892 81.2076 89.0008 81 88.54C80.628 87.7347 80.1072 87.007 79.465 86.395C78.5617 85.5508 77.5534 84.8266 76.465 84.24C76.095 84.03 75.81 83.88 75.62 83.78L75.355 83.615Z" fill="#1F1515"/>
<path d="M44.845 136.53C45.05 136.53 46.5 136.81 47.54 136.185C48.9716 135.458 50.5116 134.969 52.1 134.735H53.345L57.73 141.33L55.23 146.24C53.4349 145.812 51.8306 144.806 50.665 143.375C49.4527 141.92 48.7923 140.084 48.8 138.19C48.8 138.19 46.575 138.885 45.34 138.605C44.105 138.325 43.5 137.5 43.805 137C43.9323 136.849 44.0918 136.729 44.2718 136.647C44.4517 136.566 44.6476 136.526 44.845 136.53Z" fill="#FFBF9D"/>
<path d="M111.259 120.994C111.227 120.994 111.202 120.985 111.183 120.966C111.165 120.95 111.154 120.927 111.151 120.898C111.151 120.871 111.157 120.843 111.167 120.814L111.443 120.186V120.298L110.659 118.466C110.646 118.434 110.641 118.405 110.643 118.378C110.649 118.349 110.661 118.326 110.679 118.31C110.701 118.291 110.73 118.282 110.767 118.282C110.802 118.282 110.827 118.29 110.843 118.306C110.862 118.322 110.878 118.347 110.891 118.382L111.603 120.106H111.503L112.215 118.382C112.231 118.345 112.249 118.319 112.267 118.306C112.286 118.29 112.313 118.282 112.347 118.282C112.382 118.282 112.407 118.291 112.423 118.31C112.442 118.326 112.453 118.347 112.455 118.374C112.458 118.401 112.453 118.43 112.439 118.462L111.395 120.898C111.379 120.935 111.361 120.961 111.339 120.974C111.321 120.987 111.294 120.994 111.259 120.994ZM113.635 120.282C113.454 120.282 113.296 120.241 113.163 120.158C113.03 120.075 112.926 119.959 112.851 119.81C112.779 119.661 112.743 119.483 112.743 119.278C112.743 119.126 112.763 118.989 112.803 118.866C112.846 118.743 112.906 118.638 112.983 118.55C113.063 118.459 113.158 118.391 113.267 118.346C113.379 118.298 113.502 118.274 113.635 118.274C113.819 118.274 113.978 118.315 114.111 118.398C114.244 118.481 114.347 118.598 114.419 118.75C114.494 118.899 114.531 119.075 114.531 119.278C114.531 119.433 114.51 119.571 114.467 119.694C114.427 119.817 114.367 119.922 114.287 120.01C114.21 120.098 114.116 120.166 114.007 120.214C113.898 120.259 113.774 120.282 113.635 120.282ZM113.635 120.078C113.768 120.078 113.883 120.047 113.979 119.986C114.078 119.922 114.152 119.83 114.203 119.71C114.256 119.59 114.283 119.446 114.283 119.278C114.283 119.025 114.224 118.829 114.107 118.69C113.992 118.551 113.835 118.482 113.635 118.482C113.504 118.482 113.39 118.514 113.291 118.578C113.195 118.639 113.12 118.73 113.067 118.85C113.016 118.967 112.991 119.11 112.991 119.278C112.991 119.534 113.05 119.731 113.167 119.87C113.284 120.009 113.44 120.078 113.635 120.078ZM115.734 120.282C115.58 120.282 115.45 120.254 115.346 120.198C115.245 120.142 115.169 120.058 115.118 119.946C115.068 119.834 115.042 119.695 115.042 119.53V118.41C115.042 118.367 115.053 118.335 115.074 118.314C115.096 118.293 115.126 118.282 115.166 118.282C115.204 118.282 115.233 118.293 115.254 118.314C115.276 118.335 115.286 118.367 115.286 118.41V119.518C115.286 119.705 115.325 119.845 115.402 119.938C115.48 120.029 115.601 120.074 115.766 120.074C115.948 120.074 116.094 120.014 116.206 119.894C116.318 119.771 116.374 119.611 116.374 119.414V118.41C116.374 118.367 116.385 118.335 116.406 118.314C116.428 118.293 116.458 118.282 116.498 118.282C116.536 118.282 116.565 118.293 116.586 118.314C116.608 118.335 116.618 118.367 116.618 118.41V120.15C116.618 120.233 116.58 120.274 116.502 120.274C116.465 120.274 116.436 120.263 116.414 120.242C116.393 120.221 116.382 120.19 116.382 120.15V119.754L116.43 119.782C116.38 119.945 116.292 120.069 116.166 120.154C116.041 120.239 115.897 120.282 115.734 120.282ZM117.385 120.274C117.345 120.274 117.315 120.263 117.293 120.242C117.272 120.221 117.261 120.19 117.261 120.15V118.41C117.261 118.367 117.272 118.335 117.293 118.314C117.315 118.293 117.345 118.282 117.385 118.282C117.423 118.282 117.451 118.293 117.469 118.314C117.491 118.335 117.501 118.367 117.501 118.41V118.766H117.461C117.509 118.609 117.595 118.487 117.717 118.402C117.843 118.317 117.992 118.273 118.165 118.27C118.197 118.267 118.224 118.274 118.245 118.29C118.267 118.306 118.277 118.331 118.277 118.366C118.28 118.403 118.272 118.433 118.253 118.454C118.235 118.473 118.204 118.485 118.161 118.49L118.105 118.494C117.916 118.513 117.769 118.575 117.665 118.682C117.561 118.789 117.509 118.933 117.509 119.114V120.15C117.509 120.19 117.499 120.221 117.477 120.242C117.459 120.263 117.428 120.274 117.385 120.274ZM120.408 120.282C120.227 120.282 120.07 120.241 119.936 120.158C119.803 120.075 119.699 119.959 119.624 119.81C119.552 119.661 119.516 119.483 119.516 119.278C119.516 119.126 119.536 118.989 119.576 118.866C119.619 118.743 119.679 118.638 119.756 118.55C119.836 118.459 119.931 118.391 120.04 118.346C120.152 118.298 120.275 118.274 120.408 118.274C120.592 118.274 120.751 118.315 120.884 118.398C121.018 118.481 121.12 118.598 121.192 118.75C121.267 118.899 121.304 119.075 121.304 119.278C121.304 119.433 121.283 119.571 121.24 119.694C121.2 119.817 121.14 119.922 121.06 120.01C120.983 120.098 120.89 120.166 120.78 120.214C120.671 120.259 120.547 120.282 120.408 120.282ZM120.408 120.078C120.542 120.078 120.656 120.047 120.752 119.986C120.851 119.922 120.926 119.83 120.976 119.71C121.03 119.59 121.056 119.446 121.056 119.278C121.056 119.025 120.998 118.829 120.88 118.69C120.766 118.551 120.608 118.482 120.408 118.482C120.278 118.482 120.163 118.514 120.064 118.578C119.968 118.639 119.894 118.73 119.84 118.85C119.79 118.967 119.764 119.11 119.764 119.278C119.764 119.534 119.823 119.731 119.94 119.87C120.058 120.009 120.214 120.078 120.408 120.078ZM122.536 120.282C122.392 120.282 122.272 120.255 122.176 120.202C122.08 120.149 122.008 120.073 121.96 119.974C121.912 119.873 121.888 119.749 121.888 119.602V118.506H121.592C121.558 118.506 121.53 118.498 121.508 118.482C121.487 118.463 121.476 118.438 121.476 118.406C121.476 118.377 121.487 118.354 121.508 118.338C121.53 118.319 121.558 118.31 121.592 118.31H121.888V117.81C121.888 117.767 121.899 117.737 121.92 117.718C121.942 117.697 121.972 117.686 122.012 117.686C122.05 117.686 122.079 117.697 122.1 117.718C122.122 117.737 122.132 117.767 122.132 117.81V118.31H122.672C122.71 118.31 122.738 118.319 122.756 118.338C122.775 118.354 122.784 118.377 122.784 118.406C122.784 118.438 122.775 118.463 122.756 118.482C122.738 118.498 122.71 118.506 122.672 118.506H122.132V119.57C122.132 119.733 122.166 119.857 122.232 119.942C122.299 120.027 122.41 120.07 122.564 120.07C122.618 120.07 122.662 120.065 122.696 120.054C122.734 120.041 122.764 120.034 122.788 120.034C122.807 120.034 122.823 120.042 122.836 120.058C122.852 120.074 122.86 120.099 122.86 120.134C122.86 120.155 122.855 120.177 122.844 120.198C122.836 120.219 122.82 120.233 122.796 120.238C122.767 120.249 122.727 120.258 122.676 120.266C122.626 120.277 122.579 120.282 122.536 120.282ZM123.268 120.994C123.228 120.994 123.198 120.983 123.176 120.962C123.155 120.941 123.144 120.91 123.144 120.87V118.41C123.144 118.367 123.155 118.335 123.176 118.314C123.198 118.293 123.228 118.282 123.268 118.282C123.306 118.282 123.335 118.293 123.356 118.314C123.378 118.335 123.388 118.367 123.388 118.41V118.818L123.344 118.794C123.39 118.634 123.476 118.507 123.604 118.414C123.732 118.321 123.887 118.274 124.068 118.274C124.242 118.274 124.392 118.315 124.52 118.398C124.651 118.481 124.751 118.597 124.82 118.746C124.892 118.895 124.928 119.073 124.928 119.278C124.928 119.483 124.892 119.662 124.82 119.814C124.751 119.963 124.652 120.079 124.524 120.162C124.396 120.242 124.244 120.282 124.068 120.282C123.887 120.282 123.732 120.235 123.604 120.142C123.476 120.049 123.39 119.925 123.344 119.77H123.388V120.87C123.388 120.91 123.378 120.941 123.356 120.962C123.335 120.983 123.306 120.994 123.268 120.994ZM124.032 120.078C124.163 120.078 124.276 120.047 124.372 119.986C124.471 119.922 124.547 119.83 124.6 119.71C124.654 119.59 124.68 119.446 124.68 119.278C124.68 119.025 124.622 118.829 124.504 118.69C124.387 118.551 124.23 118.482 124.032 118.482C123.902 118.482 123.787 118.514 123.688 118.578C123.592 118.639 123.518 118.73 123.464 118.85C123.411 118.967 123.384 119.11 123.384 119.278C123.384 119.534 123.443 119.731 123.56 119.87C123.678 120.009 123.835 120.078 124.032 120.078ZM126.577 120.266C126.537 120.266 126.506 120.254 126.485 120.23C126.463 120.206 126.453 120.174 126.453 120.134V118.422C126.453 118.379 126.463 118.347 126.485 118.326C126.506 118.305 126.537 118.294 126.577 118.294C126.614 118.294 126.643 118.305 126.665 118.326C126.686 118.347 126.697 118.379 126.697 118.422V120.134C126.697 120.174 126.686 120.206 126.665 120.23C126.646 120.254 126.617 120.266 126.577 120.266ZM126.577 117.81C126.521 117.81 126.477 117.795 126.445 117.766C126.415 117.737 126.401 117.695 126.401 117.642C126.401 117.589 126.415 117.549 126.445 117.522C126.477 117.493 126.521 117.478 126.577 117.478C126.633 117.478 126.675 117.493 126.705 117.522C126.737 117.549 126.753 117.589 126.753 117.642C126.753 117.695 126.737 117.737 126.705 117.766C126.675 117.795 126.633 117.81 126.577 117.81ZM127.972 120.282C127.852 120.282 127.732 120.266 127.612 120.234C127.494 120.202 127.382 120.147 127.276 120.07C127.254 120.057 127.24 120.041 127.232 120.022C127.226 120.001 127.225 119.979 127.228 119.958C127.233 119.937 127.242 119.919 127.256 119.906C127.272 119.89 127.29 119.881 127.312 119.878C127.333 119.875 127.356 119.882 127.38 119.898C127.484 119.967 127.585 120.015 127.684 120.042C127.782 120.069 127.881 120.082 127.98 120.082C128.142 120.082 128.266 120.051 128.352 119.99C128.437 119.929 128.48 119.846 128.48 119.742C128.48 119.657 128.452 119.591 128.396 119.546C128.342 119.498 128.254 119.459 128.132 119.43L127.784 119.35C127.616 119.313 127.492 119.253 127.412 119.17C127.332 119.085 127.292 118.975 127.292 118.842C127.292 118.727 127.321 118.627 127.38 118.542C127.441 118.457 127.526 118.391 127.636 118.346C127.748 118.298 127.876 118.274 128.02 118.274C128.137 118.274 128.249 118.291 128.356 118.326C128.462 118.361 128.556 118.414 128.636 118.486C128.657 118.502 128.67 118.521 128.676 118.542C128.684 118.563 128.684 118.585 128.676 118.606C128.67 118.625 128.66 118.641 128.644 118.654C128.628 118.667 128.609 118.674 128.588 118.674C128.566 118.674 128.544 118.666 128.52 118.65C128.442 118.591 128.361 118.549 128.276 118.522C128.19 118.493 128.104 118.478 128.016 118.478C127.861 118.478 127.741 118.51 127.656 118.574C127.573 118.638 127.532 118.725 127.532 118.834C127.532 118.917 127.557 118.983 127.608 119.034C127.661 119.085 127.744 119.123 127.856 119.15L128.204 119.23C128.377 119.27 128.506 119.33 128.592 119.41C128.677 119.487 128.72 119.593 128.72 119.726C128.72 119.897 128.652 120.033 128.516 120.134C128.382 120.233 128.201 120.282 127.972 120.282ZM130.45 118.762C130.423 118.746 130.408 118.723 130.406 118.694C130.403 118.665 130.412 118.633 130.434 118.598L130.722 118.138L130.754 118.182L130.206 118.198C130.166 118.198 130.134 118.19 130.11 118.174C130.086 118.155 130.074 118.131 130.074 118.102C130.074 118.07 130.086 118.046 130.11 118.03C130.134 118.014 130.166 118.006 130.206 118.006L130.754 118.022L130.722 118.066L130.434 117.602C130.412 117.567 130.403 117.535 130.406 117.506C130.411 117.477 130.427 117.454 130.454 117.438C130.48 117.422 130.507 117.422 130.534 117.438C130.56 117.451 130.583 117.475 130.602 117.51L130.854 117.974H130.822L131.07 117.51C131.088 117.473 131.111 117.447 131.138 117.434C131.167 117.421 131.195 117.422 131.222 117.438C131.248 117.457 131.262 117.481 131.262 117.51C131.264 117.537 131.255 117.567 131.234 117.602L130.95 118.066L130.914 118.022L131.466 118.006C131.508 118.006 131.542 118.014 131.566 118.03C131.59 118.046 131.602 118.07 131.602 118.102C131.602 118.134 131.59 118.158 131.566 118.174C131.542 118.19 131.508 118.198 131.466 118.198L130.914 118.182L130.95 118.138L131.234 118.598C131.255 118.633 131.264 118.665 131.262 118.694C131.262 118.721 131.248 118.742 131.222 118.758C131.192 118.774 131.164 118.775 131.138 118.762C131.111 118.749 131.088 118.725 131.07 118.69L130.822 118.226H130.854L130.598 118.694C130.579 118.729 130.556 118.753 130.53 118.766C130.506 118.779 130.479 118.778 130.45 118.762ZM132.246 118.762C132.22 118.746 132.205 118.723 132.202 118.694C132.2 118.665 132.209 118.633 132.23 118.598L132.518 118.138L132.55 118.182L132.002 118.198C131.962 118.198 131.93 118.19 131.906 118.174C131.882 118.155 131.87 118.131 131.87 118.102C131.87 118.07 131.882 118.046 131.906 118.03C131.93 118.014 131.962 118.006 132.002 118.006L132.55 118.022L132.518 118.066L132.23 117.602C132.209 117.567 132.2 117.535 132.202 117.506C132.208 117.477 132.224 117.454 132.25 117.438C132.277 117.422 132.304 117.422 132.33 117.438C132.357 117.451 132.38 117.475 132.398 117.51L132.65 117.974H132.618L132.866 117.51C132.885 117.473 132.908 117.447 132.934 117.434C132.964 117.421 132.992 117.422 133.018 117.438C133.045 117.457 133.058 117.481 133.058 117.51C133.061 117.537 133.052 117.567 133.03 117.602L132.746 118.066L132.71 118.022L133.262 118.006C133.305 118.006 133.338 118.014 133.362 118.03C133.386 118.046 133.398 118.07 133.398 118.102C133.398 118.134 133.386 118.158 133.362 118.174C133.338 118.19 133.305 118.198 133.262 118.198L132.71 118.182L132.746 118.138L133.03 118.598C133.052 118.633 133.061 118.665 133.058 118.694C133.058 118.721 133.045 118.742 133.018 118.758C132.989 118.774 132.961 118.775 132.934 118.762C132.908 118.749 132.885 118.725 132.866 118.69L132.618 118.226H132.65L132.394 118.694C132.376 118.729 132.353 118.753 132.326 118.766C132.302 118.779 132.276 118.778 132.246 118.762ZM134.043 118.762C134.017 118.746 134.002 118.723 133.999 118.694C133.997 118.665 134.006 118.633 134.027 118.598L134.315 118.138L134.347 118.182L133.799 118.198C133.759 118.198 133.727 118.19 133.703 118.174C133.679 118.155 133.667 118.131 133.667 118.102C133.667 118.07 133.679 118.046 133.703 118.03C133.727 118.014 133.759 118.006 133.799 118.006L134.347 118.022L134.315 118.066L134.027 117.602C134.006 117.567 133.997 117.535 133.999 117.506C134.005 117.477 134.021 117.454 134.047 117.438C134.074 117.422 134.101 117.422 134.127 117.438C134.154 117.451 134.177 117.475 134.195 117.51L134.447 117.974H134.415L134.663 117.51C134.682 117.473 134.705 117.447 134.731 117.434C134.761 117.421 134.789 117.422 134.815 117.438C134.842 117.457 134.855 117.481 134.855 117.51C134.858 117.537 134.849 117.567 134.827 117.602L134.543 118.066L134.507 118.022L135.059 118.006C135.102 118.006 135.135 118.014 135.159 118.03C135.183 118.046 135.195 118.07 135.195 118.102C135.195 118.134 135.183 118.158 135.159 118.174C135.135 118.19 135.102 118.198 135.059 118.198L134.507 118.182L134.543 118.138L134.827 118.598C134.849 118.633 134.858 118.665 134.855 118.694C134.855 118.721 134.842 118.742 134.815 118.758C134.786 118.774 134.758 118.775 134.731 118.762C134.705 118.749 134.682 118.725 134.663 118.69L134.415 118.226H134.447L134.191 118.694C134.173 118.729 134.15 118.753 134.123 118.766C134.099 118.779 134.073 118.778 134.043 118.762ZM135.84 118.762C135.813 118.746 135.799 118.723 135.796 118.694C135.793 118.665 135.803 118.633 135.824 118.598L136.112 118.138L136.144 118.182L135.596 118.198C135.556 118.198 135.524 118.19 135.5 118.174C135.476 118.155 135.464 118.131 135.464 118.102C135.464 118.07 135.476 118.046 135.5 118.03C135.524 118.014 135.556 118.006 135.596 118.006L136.144 118.022L136.112 118.066L135.824 117.602C135.803 117.567 135.793 117.535 135.796 117.506C135.801 117.477 135.817 117.454 135.844 117.438C135.871 117.422 135.897 117.422 135.924 117.438C135.951 117.451 135.973 117.475 135.992 117.51L136.244 117.974H136.212L136.46 117.51C136.479 117.473 136.501 117.447 136.528 117.434C136.557 117.421 136.585 117.422 136.612 117.438C136.639 117.457 136.652 117.481 136.652 117.51C136.655 117.537 136.645 117.567 136.624 117.602L136.34 118.066L136.304 118.022L136.856 118.006C136.899 118.006 136.932 118.014 136.956 118.03C136.98 118.046 136.992 118.07 136.992 118.102C136.992 118.134 136.98 118.158 136.956 118.174C136.932 118.19 136.899 118.198 136.856 118.198L136.304 118.182L136.34 118.138L136.624 118.598C136.645 118.633 136.655 118.665 136.652 118.694C136.652 118.721 136.639 118.742 136.612 118.758C136.583 118.774 136.555 118.775 136.528 118.762C136.501 118.749 136.479 118.725 136.46 118.69L136.212 118.226H136.244L135.988 118.694C135.969 118.729 135.947 118.753 135.92 118.766C135.896 118.779 135.869 118.778 135.84 118.762ZM137.637 118.762C137.61 118.746 137.596 118.723 137.593 118.694C137.59 118.665 137.6 118.633 137.621 118.598L137.909 118.138L137.941 118.182L137.393 118.198C137.353 118.198 137.321 118.19 137.297 118.174C137.273 118.155 137.261 118.131 137.261 118.102C137.261 118.07 137.273 118.046 137.297 118.03C137.321 118.014 137.353 118.006 137.393 118.006L137.941 118.022L137.909 118.066L137.621 117.602C137.6 117.567 137.59 117.535 137.593 117.506C137.598 117.477 137.614 117.454 137.641 117.438C137.668 117.422 137.694 117.422 137.721 117.438C137.748 117.451 137.77 117.475 137.789 117.51L138.041 117.974H138.009L138.257 117.51C138.276 117.473 138.298 117.447 138.325 117.434C138.354 117.421 138.382 117.422 138.409 117.438C138.436 117.457 138.449 117.481 138.449 117.51C138.452 117.537 138.442 117.567 138.421 117.602L138.137 118.066L138.101 118.022L138.653 118.006C138.696 118.006 138.729 118.014 138.753 118.03C138.777 118.046 138.789 118.07 138.789 118.102C138.789 118.134 138.777 118.158 138.753 118.174C138.729 118.19 138.696 118.198 138.653 118.198L138.101 118.182L138.137 118.138L138.421 118.598C138.442 118.633 138.452 118.665 138.449 118.694C138.449 118.721 138.436 118.742 138.409 118.758C138.38 118.774 138.352 118.775 138.325 118.762C138.298 118.749 138.276 118.725 138.257 118.69L138.009 118.226H138.041L137.785 118.694C137.766 118.729 137.744 118.753 137.717 118.766C137.693 118.779 137.666 118.778 137.637 118.762ZM139.434 118.762C139.407 118.746 139.393 118.723 139.39 118.694C139.387 118.665 139.397 118.633 139.418 118.598L139.706 118.138L139.738 118.182L139.19 118.198C139.15 118.198 139.118 118.19 139.094 118.174C139.07 118.155 139.058 118.131 139.058 118.102C139.058 118.07 139.07 118.046 139.094 118.03C139.118 118.014 139.15 118.006 139.19 118.006L139.738 118.022L139.706 118.066L139.418 117.602C139.397 117.567 139.387 117.535 139.39 117.506C139.395 117.477 139.411 117.454 139.438 117.438C139.465 117.422 139.491 117.422 139.518 117.438C139.545 117.451 139.567 117.475 139.586 117.51L139.838 117.974H139.806L140.054 117.51C140.073 117.473 140.095 117.447 140.122 117.434C140.151 117.421 140.179 117.422 140.206 117.438C140.233 117.457 140.246 117.481 140.246 117.51C140.249 117.537 140.239 117.567 140.218 117.602L139.934 118.066L139.898 118.022L140.45 118.006C140.493 118.006 140.526 118.014 140.55 118.03C140.574 118.046 140.586 118.07 140.586 118.102C140.586 118.134 140.574 118.158 140.55 118.174C140.526 118.19 140.493 118.198 140.45 118.198L139.898 118.182L139.934 118.138L140.218 118.598C140.239 118.633 140.249 118.665 140.246 118.694C140.246 118.721 140.233 118.742 140.206 118.758C140.177 118.774 140.149 118.775 140.122 118.762C140.095 118.749 140.073 118.725 140.054 118.69L139.806 118.226H139.838L139.582 118.694C139.563 118.729 139.541 118.753 139.514 118.766C139.49 118.779 139.463 118.778 139.434 118.762Z" fill="black"/>
</svg>
