<svg width="250" height="250" viewBox="0 0 250 250" fill="none" xmlns="http://www.w3.org/2000/svg">
<path d="M210.945 49.73L209.84 47.91C200.53 32.565 183.7 23.32 165.95 24.44C163.667 24.5842 161.397 24.8967 159.16 25.375C143.025 28.83 128.985 41.03 123.16 56.655C119.735 65.845 118.78 76.43 112.285 83.725C103.83 93.225 89.48 93.515 76.865 93.125C64.25 92.735 49.865 93.065 41.475 102.595C36.205 108.565 34.53 117.055 34.975 125.05C36.1 146.215 50.85 165.14 69.605 174.55C88.36 183.96 110.445 184.8 130.975 180.665C159.73 174.865 187.075 158.945 203.515 134.36C219.955 109.775 224.1 76.265 210.945 49.73Z" fill="#EBEBEB"/>
<path d="M25.259 112.354C28.5082 109.104 28.5082 103.836 25.259 100.587C22.0098 97.3382 16.7419 97.3382 13.4927 100.587C10.2436 103.836 10.2436 109.104 13.4927 112.354C16.7419 115.603 22.0098 115.603 25.259 112.354Z" fill="#EBEBEB"/>
<path d="M227.273 30.9281C228.321 26.4543 225.545 21.9776 221.071 20.9291C216.597 19.8806 212.12 22.6574 211.072 27.1312C210.023 31.605 212.8 36.0817 217.274 37.1302C221.748 38.1786 226.224 35.4019 227.273 30.9281Z" fill="#EBEBEB"/>
<path d="M37.925 37.33C33.4991 39.1481 29.975 42.6475 28.1257 47.0604C26.2763 51.4734 26.2527 56.4396 28.06 60.87L39.265 88.22L44.265 86.165L33.065 58.81C31.7973 55.7136 31.8115 52.2404 33.1046 49.1545C34.3976 46.0686 36.8636 43.6227 39.96 42.355C43.0564 41.0872 46.5296 41.1015 49.6155 42.3945C52.7014 43.6876 55.1473 46.1536 56.415 49.25L61.44 47.19C59.6228 42.7694 56.1275 39.2494 51.7198 37.4012C47.3121 35.553 42.3515 35.5274 37.925 37.33Z" fill="#E64848"/>
<g opacity="0.3">
<path opacity="0.3" d="M37.925 37.33C33.4991 39.1481 29.975 42.6475 28.1257 47.0604C26.2763 51.4734 26.2527 56.4396 28.06 60.87L39.265 88.22L44.265 86.165L33.065 58.81C31.7973 55.7136 31.8115 52.2404 33.1046 49.1545C34.3976 46.0686 36.8636 43.6227 39.96 42.355C43.0564 41.0872 46.5296 41.1015 49.6155 42.3945C52.7014 43.6876 55.1473 46.1536 56.415 49.25L61.44 47.19C59.6228 42.7694 56.1275 39.2494 51.7198 37.4012C47.3121 35.553 42.3515 35.5274 37.925 37.33Z" fill="black"/>
</g>
<path d="M70.8074 61.0949L31.1675 77.3281C29.6828 77.9361 28.9721 79.6326 29.5801 81.1173L39.206 104.623C39.814 106.107 41.5105 106.818 42.9952 106.21L82.6351 89.9768C84.1198 89.3688 84.8305 87.6723 84.2225 86.1876L74.5966 62.6822C73.9886 61.1975 72.2921 60.4868 70.8074 61.0949Z" fill="#E64848"/>
<g opacity="0.5">
<path opacity="0.5" d="M59.1151 78.35C58.8309 77.6484 58.3565 77.04 57.7453 76.5935C57.1341 76.147 56.4103 75.8799 55.6555 75.8226C54.9007 75.7652 54.1449 75.9197 53.4732 76.2686C52.8015 76.6176 52.2405 77.1473 51.8536 77.7978C51.4666 78.4484 51.269 79.1941 51.283 79.951C51.297 80.7078 51.522 81.4457 51.9327 82.0815C52.3435 82.7174 52.9236 83.2259 53.6077 83.5498C54.2919 83.8738 55.0529 84.0002 55.805 83.915L58.1051 89.54L60.1601 88.7L57.8551 83.075C58.5513 82.5323 59.0512 81.7771 59.2787 80.9241C59.5061 80.0712 59.4487 79.1673 59.1151 78.35Z" fill="black"/>
</g>
<path d="M41.58 103.59C41.475 103.635 39.42 98.85 36.99 92.91C34.56 86.97 32.665 82.12 32.77 82.075C32.875 82.03 34.93 86.815 37.36 92.76C39.79 98.705 41.68 103.55 41.58 103.59Z" fill="#FAFAFA"/>
<path d="M54.38 85.925C54.1971 85.9376 54.0136 85.9138 53.84 85.855C53.3547 85.7258 52.8913 85.5253 52.465 85.26C51.7414 84.8334 51.1212 84.2519 50.6489 83.5573C50.1767 82.8626 49.8641 82.072 49.7336 81.2422C49.6031 80.4124 49.6579 79.564 49.8942 78.7579C50.1304 77.9518 50.5422 77.2081 51.1 76.58C51.4195 76.189 51.7993 75.8515 52.225 75.58C52.525 75.395 52.725 75.325 52.725 75.345C52.2235 75.7737 51.7555 76.24 51.325 76.74C50.8295 77.3532 50.4681 78.0634 50.264 78.8249C50.06 79.5864 50.0178 80.3823 50.1403 81.161C50.2628 81.9398 50.5472 82.6843 50.9752 83.3464C51.4032 84.0085 51.9652 84.5735 52.625 85.005C53.1861 85.3553 53.7727 85.6628 54.38 85.925Z" fill="#FAFAFA"/>
<path d="M22.47 90.855L22.715 90.145L23.18 90.735C23.554 91.1997 24.0539 91.5469 24.62 91.735L25.33 91.98L24.74 92.445C24.278 92.8214 23.9314 93.3205 23.74 93.885L23.5 94.61L23 94.025C22.6228 93.5615 22.1217 93.2148 21.555 93.025L20.85 92.78L21.435 92.315C21.9131 91.9378 22.2724 91.431 22.47 90.855Z" fill="#E64848"/>
<path d="M46.2 62.96L46.34 62.55L46.61 62.89C46.8258 63.1695 47.1174 63.3812 47.45 63.5L47.86 63.64L47.52 63.915C47.2455 64.1304 47.039 64.4203 46.925 64.75L46.785 65.16L46.5 64.8C46.2858 64.5255 45.9953 64.3202 45.665 64.21L45.25 64.065L45.595 63.795C45.8721 63.58 46.082 63.2903 46.2 62.96Z" fill="#E64848"/>
<path d="M17.665 66.435L18.075 65.24L18.86 66.24C19.4854 67.031 20.3256 67.6247 21.28 67.95L22.47 68.36L21.47 69.145C20.6791 69.7714 20.084 70.6112 19.755 71.565L19.345 72.755L18.565 71.755C17.94 70.9626 17.0998 70.3672 16.145 70.04L14.955 69.63L15.955 68.85C16.7431 68.224 17.3364 67.3863 17.665 66.435Z" fill="#E64848"/>
<path d="M155.53 241.339L81.725 241.294C77.4621 241.291 73.3746 239.596 70.3612 236.581C67.3478 233.565 65.655 229.477 65.655 225.214L65.69 40.1789C65.6907 38.0668 66.1074 35.9756 66.9164 34.0246C67.7255 32.0736 68.9109 30.3011 70.4051 28.8083C71.8992 27.3155 73.6728 26.1317 75.6246 25.3246C77.5763 24.5174 79.668 24.1026 81.78 24.1039L155.585 24.1439C159.848 24.1465 163.935 25.8418 166.949 28.8571C169.962 31.8724 171.655 35.9609 171.655 40.2239L171.62 225.264C171.619 227.376 171.203 229.467 170.394 231.418C169.585 233.369 168.399 235.142 166.905 236.634C165.411 238.127 163.637 239.311 161.686 240.118C159.734 240.925 157.642 241.34 155.53 241.339Z" fill="#263238"/>
<path d="M155.5 29.3H141.2C140.733 29.3098 140.273 29.4114 139.846 29.5992C139.419 29.787 139.033 30.0572 138.71 30.3944C138.387 30.7315 138.134 31.129 137.965 31.5641C137.796 31.9992 137.714 32.4634 137.725 32.93V35.5C137.745 36.4421 137.39 37.3536 136.739 38.0342C136.087 38.7149 135.192 39.109 134.25 39.13H106.36C105.891 39.1222 105.429 39.0219 104.999 38.8348C104.569 38.6477 104.18 38.3775 103.855 38.0397C103.53 37.702 103.274 37.3033 103.104 36.8666C102.933 36.4299 102.85 35.9638 102.86 35.495V32.905C102.871 32.4381 102.789 31.9737 102.62 31.5384C102.451 31.103 102.198 30.7051 101.876 30.3676C101.553 30.03 101.167 29.7593 100.74 29.571C100.312 29.3827 99.8519 29.2804 99.3851 29.27H81.85C78.8676 29.2687 76.0063 30.4501 73.8936 32.5553C71.7809 34.6605 70.5893 37.5176 70.58 40.5L70.545 221.11C70.545 224.095 71.7307 226.959 73.8413 229.07C75.9518 231.182 78.8146 232.369 81.8 232.37L155.46 232.415C156.939 232.416 158.404 232.126 159.771 231.561C161.138 230.995 162.381 230.166 163.427 229.12C164.473 228.074 165.303 226.833 165.869 225.466C166.435 224.099 166.726 222.634 166.725 221.155L166.76 40.55C166.757 37.5654 165.57 34.704 163.459 32.5945C161.347 30.485 158.485 29.3 155.5 29.3Z" fill="white"/>
<path d="M111.815 218.625C111.818 218.905 111.738 219.179 111.585 219.414C111.432 219.648 111.213 219.832 110.955 219.941C110.698 220.051 110.414 220.082 110.139 220.031C109.864 219.979 109.61 219.847 109.41 219.651C109.21 219.455 109.073 219.205 109.015 218.931C108.958 218.657 108.983 218.372 109.087 218.112C109.191 217.853 109.37 217.63 109.602 217.472C109.833 217.314 110.105 217.228 110.385 217.225C110.76 217.222 111.121 217.368 111.389 217.63C111.656 217.893 111.81 218.25 111.815 218.625Z" fill="#263238"/>
<path d="M119.735 218.56C119.738 218.84 119.658 219.115 119.505 219.349C119.351 219.584 119.132 219.767 118.874 219.877C118.617 219.987 118.332 220.017 118.057 219.965C117.782 219.913 117.528 219.781 117.328 219.584C117.129 219.388 116.992 219.137 116.935 218.863C116.878 218.588 116.903 218.304 117.009 218.044C117.114 217.784 117.293 217.562 117.525 217.404C117.757 217.247 118.03 217.162 118.31 217.16C118.684 217.157 119.045 217.303 119.312 217.566C119.579 217.828 119.731 218.186 119.735 218.56Z" fill="#263238"/>
<path d="M127.66 218.5C127.663 218.78 127.583 219.055 127.43 219.289C127.276 219.524 127.057 219.707 126.799 219.817C126.542 219.927 126.257 219.957 125.982 219.905C125.707 219.853 125.453 219.721 125.253 219.524C125.054 219.328 124.917 219.077 124.86 218.803C124.803 218.528 124.828 218.244 124.934 217.984C125.039 217.724 125.218 217.502 125.45 217.344C125.682 217.187 125.955 217.102 126.235 217.1C126.609 217.097 126.97 217.243 127.237 217.506C127.504 217.768 127.656 218.126 127.66 218.5Z" fill="#263238"/>
<path d="M155.94 47.54C155.94 47.58 154.075 47.63 151.78 47.65C149.485 47.67 147.625 47.65 147.625 47.605C147.625 47.56 149.5 47.5 151.78 47.5C154.06 47.5 155.935 47.5 155.94 47.54Z" fill="#263238"/>
<path d="M155.955 49.665C155.955 49.71 154.095 49.76 151.8 49.78C149.505 49.8 147.64 49.78 147.64 49.735C147.64 49.69 149.5 49.64 151.8 49.62C154.1 49.6 155.955 49.62 155.955 49.665Z" fill="#263238"/>
<path d="M156 51.79C156 51.835 154.135 51.885 151.84 51.905C149.545 51.925 147.685 51.905 147.685 51.86C147.685 51.815 149.545 51.77 151.84 51.75C154.135 51.73 155.97 51.75 156 51.79Z" fill="#263238"/>
<path d="M80.325 54.22H80.495H80.995L82.775 54.18L82.73 54.225C82.73 53.835 82.73 53.405 82.73 52.94C82.7176 52.6935 82.7176 52.4465 82.73 52.2C82.7562 52.0589 82.8273 51.9301 82.9328 51.8328C83.0382 51.7355 83.1723 51.6749 83.315 51.66C83.6 51.66 83.855 51.66 84.165 51.66C84.3262 51.6841 84.4732 51.7658 84.5789 51.8899C84.6846 52.0139 84.7418 52.172 84.74 52.335C84.74 52.935 84.74 53.565 84.74 54.215L84.665 54.14H86.905L86.83 54.215C86.83 53.315 86.83 52.38 86.83 51.425C86.83 51.19 86.83 50.925 86.83 50.715C86.8261 50.6121 86.795 50.5121 86.74 50.425C86.6701 50.3372 86.5932 50.2553 86.51 50.18C86.18 49.855 85.855 49.53 85.51 49.215L84.565 48.285C84.415 48.13 84.26 47.98 84.11 47.83C83.96 47.68 83.83 47.52 83.64 47.485C83.5544 47.4643 83.4653 47.4625 83.379 47.4798C83.2926 47.497 83.2111 47.533 83.14 47.585C83.005 47.7 82.86 47.86 82.725 47.995L81.92 48.805C81.42 49.305 80.89 49.805 80.505 50.265C80.3938 50.5301 80.3558 50.8202 80.395 51.105C80.395 51.385 80.395 51.645 80.395 51.895C80.395 52.395 80.395 52.805 80.395 53.165C80.395 53.525 80.395 53.765 80.395 53.98C80.395 54.195 80.395 54.27 80.395 54.27C80.395 54.27 80.395 54.18 80.395 54C80.395 53.82 80.395 53.5 80.395 53.2C80.395 52.9 80.395 52.41 80.37 51.92C80.37 51.665 80.37 51.42 80.37 51.115C80.37 50.97 80.37 50.825 80.37 50.675C80.3694 50.5116 80.4126 50.3511 80.495 50.21C80.91 49.71 81.405 49.255 81.915 48.71L82.71 47.895C82.855 47.755 82.975 47.61 83.14 47.465C83.2312 47.3969 83.3365 47.3503 83.4482 47.3287C83.5599 47.307 83.675 47.3109 83.785 47.34C83.9936 47.4149 84.1772 47.5465 84.315 47.72L84.775 48.17L85.725 49.1L86.725 50.065C86.817 50.1466 86.9007 50.237 86.975 50.335C87.0451 50.4461 87.0847 50.5737 87.09 50.705C87.09 50.945 87.09 51.205 87.09 51.42C87.09 52.375 87.09 53.31 87.09 54.21V54.285H87.01H84.77H84.7V54.21C84.7 53.56 84.7 52.935 84.7 52.335C84.702 52.2029 84.6567 52.0744 84.5724 51.9727C84.4881 51.8709 84.3702 51.8026 84.24 51.78C83.98 51.78 83.675 51.78 83.425 51.78C83.3053 51.7894 83.1918 51.8373 83.1017 51.9167C83.0115 51.996 82.9495 52.1024 82.925 52.22C82.925 52.45 82.925 52.72 82.925 52.935C82.925 53.4 82.925 53.83 82.925 54.225V54.27H82.88H81.075H80.5C80.44 54.2599 80.3813 54.2431 80.325 54.22Z" fill="#263238"/>
<path d="M99.235 97.1C99.235 98.835 97.935 99.915 95.855 99.915H94.29V102.055H92.5V94.28H95.865C97.935 94.28 99.235 95.36 99.235 97.1ZM97.41 97.1C97.41 96.245 96.855 95.745 95.755 95.745H94.29V98.445H95.755C96.855 98.445 97.41 97.945 97.41 97.1Z" fill="#263238"/>
<path d="M105.62 98.645V102.055H104V101.31C103.799 101.6 103.525 101.83 103.204 101.977C102.884 102.124 102.53 102.182 102.18 102.145C100.78 102.145 99.945 101.37 99.945 100.335C99.945 99.3 100.69 98.545 102.51 98.545H103.89C103.89 97.8 103.445 97.37 102.51 97.37C101.892 97.3646 101.288 97.5593 100.79 97.925L100.165 96.715C100.934 96.2221 101.832 95.9696 102.745 95.99C104.565 96 105.62 96.835 105.62 98.645ZM103.89 100.17V99.56H102.7C101.89 99.56 101.635 99.855 101.635 100.255C101.635 100.655 102 101 102.61 101C102.884 101.018 103.157 100.947 103.388 100.798C103.619 100.648 103.795 100.428 103.89 100.17Z" fill="#263238"/>
<path d="M106.61 101.5L107.19 100.255C107.817 100.632 108.534 100.832 109.265 100.835C110.065 100.835 110.365 100.625 110.365 100.29C110.365 99.29 106.755 100.29 106.755 97.925C106.755 96.79 107.755 95.99 109.52 95.99C110.318 95.9743 111.108 96.1545 111.82 96.515L111.245 97.745C110.718 97.4504 110.124 97.2971 109.52 97.3C108.745 97.3 108.41 97.545 108.41 97.86C108.41 98.86 112.02 97.89 112.02 100.245C112.02 101.355 110.985 102.145 109.2 102.145C108.295 102.163 107.401 101.941 106.61 101.5Z" fill="#263238"/>
<path d="M112.5 101.5L113.075 100.255C113.704 100.631 114.422 100.831 115.155 100.835C115.955 100.835 116.255 100.625 116.255 100.29C116.255 99.29 112.645 100.29 112.645 97.925C112.645 96.79 113.645 95.99 115.41 95.99C116.208 95.9749 116.998 96.1551 117.71 96.515L117.13 97.745C116.605 97.4491 116.012 97.2957 115.41 97.3C114.63 97.3 114.3 97.545 114.3 97.86C114.3 98.86 117.91 97.89 117.91 100.245C117.91 101.355 116.875 102.145 115.09 102.145C114.185 102.164 113.291 101.942 112.5 101.5Z" fill="#263238"/>
<path d="M128.47 96.08L126.305 102.08H124.64L123.295 98.37L121.905 102.08H120.24L118.085 96.08H119.72L121.13 100.125L122.595 96.08H124.06L125.485 100.125L126.94 96.08H128.47Z" fill="#263238"/>
<path d="M128.675 99.07C128.675 97.27 130.06 95.99 131.96 95.99C133.86 95.99 135.24 97.27 135.24 99.07C135.24 100.87 133.86 102.145 131.96 102.145C130.06 102.145 128.675 100.87 128.675 99.07ZM133.485 99.07C133.461 98.7737 133.351 98.4909 133.168 98.2562C132.986 98.0215 132.739 97.8449 132.458 97.7482C132.177 97.6515 131.874 97.6388 131.585 97.7116C131.297 97.7844 131.036 97.9396 130.835 98.1582C130.634 98.3768 130.5 98.6494 130.451 98.9426C130.402 99.2358 130.44 99.5369 130.559 99.8092C130.678 100.081 130.874 100.313 131.123 100.476C131.372 100.638 131.663 100.725 131.96 100.725C132.174 100.732 132.387 100.693 132.585 100.61C132.783 100.528 132.96 100.404 133.106 100.248C133.252 100.091 133.363 99.9046 133.431 99.7014C133.499 99.4983 133.522 99.283 133.5 99.07H133.485Z" fill="#263238"/>
<path d="M140.105 96V97.6C139.96 97.6 139.85 97.6 139.715 97.6C138.76 97.6 138.125 98.1 138.125 99.265V102.085H136.395V96.085H138.05V96.875C138.296 96.5735 138.612 96.3363 138.97 96.1839C139.328 96.0314 139.717 95.9683 140.105 96Z" fill="#263238"/>
<path d="M147.17 93.815V102.055H145.5V101.37C145.268 101.632 144.98 101.838 144.657 101.973C144.334 102.107 143.984 102.166 143.635 102.145C142.84 102.113 142.089 101.775 141.538 101.201C140.987 100.627 140.679 99.8629 140.679 99.0675C140.679 98.2721 140.987 97.5076 141.538 96.9339C142.089 96.3603 142.84 96.022 143.635 95.99C143.967 95.9736 144.299 96.0299 144.608 96.1552C144.916 96.2804 145.193 96.4715 145.42 96.715V93.815H147.17ZM145.47 99.07C145.446 98.7727 145.335 98.489 145.151 98.2538C144.968 98.0186 144.719 97.8422 144.437 97.7464C144.154 97.6505 143.85 97.6393 143.561 97.7142C143.272 97.789 143.012 97.9467 142.811 98.1677C142.611 98.3888 142.48 98.6636 142.434 98.9583C142.387 99.253 142.428 99.5548 142.551 99.8266C142.675 100.098 142.874 100.328 143.126 100.488C143.379 100.647 143.672 100.73 143.97 100.725C144.181 100.726 144.389 100.683 144.582 100.598C144.775 100.513 144.948 100.388 145.089 100.232C145.231 100.076 145.338 99.892 145.404 99.6917C145.469 99.4914 145.492 99.2796 145.47 99.07Z" fill="#263238"/>
<path d="M160.5 108.5C160.5 108.57 142 108.63 119.155 108.63C96.31 108.63 77.8 108.57 77.8 108.5C77.8 108.43 96.3 108.37 119.155 108.37C142.01 108.37 160.5 108.415 160.5 108.5Z" fill="#E0E0E0"/>
<path d="M158.575 184.615C158.575 184.69 140.075 184.745 117.225 184.745C94.3751 184.745 75.8751 184.69 75.8751 184.615C75.8751 184.54 94.3751 184.485 117.225 184.485C140.075 184.485 158.575 184.545 158.575 184.615Z" fill="#E0E0E0"/>
<path d="M139.87 190.335C139.87 190.405 129.585 190.465 116.9 190.465C104.215 190.465 93.9301 190.405 93.9301 190.335C93.9301 190.265 104.21 190.205 116.9 190.205C129.59 190.205 139.87 190.26 139.87 190.335Z" fill="#E0E0E0"/>
<path d="M85.25 130.65L86.815 131.495L86.11 132.675L84.53 131.74L84.56 133.48H83.21V131.725L81.6251 132.675L80.9501 131.5L82.5001 130.65L80.9301 129.785L81.6201 128.61L83.2051 129.555V127.805H84.555L84.525 129.555L86.105 128.61L86.81 129.785L85.25 130.65Z" fill="#E64848"/>
<path d="M103.21 130.65L104.775 131.495L104.07 132.675L102.5 131.74V133.5H101.145V131.745L99.565 132.695L98.91 131.5L100.5 130.65L98.935 129.785L99.625 128.61L101.205 129.555V127.805H102.5L102.47 129.555L104.05 128.61L104.755 129.785L103.21 130.65Z" fill="#E64848"/>
<path d="M120.69 130.65L122.255 131.495L121.55 132.675L119.97 131.74L120 133.5H118.65V131.745L117.065 132.695L116.39 131.5L117.96 130.655L116.39 129.79L117.08 128.615L118.665 129.56V127.81H120L119.97 129.56L121.55 128.615L122.255 129.79L120.69 130.65Z" fill="#E64848"/>
<path d="M137.625 130.65L139.19 131.495L138.5 132.675L136.92 131.74L136.95 133.48H135.6V131.725L134.02 132.675L133.325 131.5L134.895 130.655L133.325 129.79L134.015 128.615L135.595 129.56V127.81H136.945L136.915 129.56L138.495 128.615L139.2 129.79L137.625 130.65Z" fill="#E64848"/>
<path d="M154.425 130.65L156 131.5L155.295 132.68L153.715 131.745L153.74 133.485H152.39V131.73L150.81 132.68L150.13 131.5L151.695 130.655L150.13 129.79L150.82 128.615L152.4 129.56V127.81H153.75L153.725 129.56L155.305 128.615L156.01 129.79L154.425 130.65Z" fill="#E64848"/>
<path d="M88.035 141.54H80.46C79.5229 141.539 78.6245 141.166 77.9619 140.503C77.2992 139.841 76.9264 138.942 76.925 138.005V124.555C76.9264 123.618 77.2994 122.72 77.9622 122.059C78.625 121.397 79.5234 121.025 80.46 121.025H88.035C88.9717 121.025 89.8701 121.397 90.5329 122.059C91.1957 122.72 91.5687 123.618 91.57 124.555V138C91.57 138.938 91.1978 139.838 90.535 140.501C89.8722 141.165 88.973 141.539 88.035 141.54ZM80.46 121.275C79.5897 121.275 78.7549 121.62 78.139 122.235C77.5231 122.85 77.1764 123.685 77.175 124.555V138C77.1764 138.871 77.5229 139.706 78.1387 140.321C78.7544 140.937 79.5892 141.284 80.46 141.285H88.035C88.9063 141.285 89.7418 140.939 90.3579 140.323C90.9739 139.707 91.32 138.871 91.32 138V124.55C91.3187 123.68 90.972 122.845 90.3561 122.23C89.7402 121.615 88.9054 121.27 88.035 121.27L80.46 121.275Z" fill="#263238"/>
<path d="M105.63 141.54H98.0551C97.5889 141.542 97.127 141.452 96.6958 141.275C96.2645 141.098 95.8725 140.837 95.5422 140.508C95.2119 140.18 94.9498 139.789 94.771 139.358C94.5921 138.928 94.5001 138.466 94.5001 138V124.55C94.5014 123.613 94.8744 122.715 95.5372 122.054C96.2 121.392 97.0984 121.02 98.0351 121.02H105.61C106.547 121.02 107.445 121.392 108.108 122.054C108.771 122.715 109.144 123.613 109.145 124.55V138C109.145 138.935 108.776 139.831 108.117 140.494C107.459 141.157 106.565 141.533 105.63 141.54ZM98.0551 121.275C97.1847 121.275 96.3499 121.62 95.734 122.235C95.1181 122.85 94.7714 123.685 94.7701 124.555V138C94.7714 138.871 95.1179 139.706 95.7337 140.321C96.3494 140.937 97.1842 141.284 98.0551 141.285H105.63C106.501 141.285 107.337 140.939 107.953 140.323C108.569 139.707 108.915 138.871 108.915 138V124.55C108.914 123.68 108.567 122.845 107.951 122.23C107.335 121.615 106.5 121.27 105.63 121.27L98.0551 121.275Z" fill="#263238"/>
<path d="M122.745 141.54H115.165C114.228 141.539 113.33 141.166 112.667 140.503C112.004 139.841 111.631 138.942 111.63 138.005V124.555C111.631 123.618 112.004 122.72 112.667 122.059C113.33 121.397 114.228 121.025 115.165 121.025H122.745C123.681 121.026 124.578 121.399 125.24 122.06C125.901 122.722 126.274 123.619 126.275 124.555V138C126.276 138.464 126.185 138.924 126.008 139.353C125.831 139.782 125.571 140.172 125.243 140.501C124.915 140.83 124.526 141.091 124.097 141.269C123.669 141.447 123.209 141.539 122.745 141.54ZM115.165 121.275C114.295 121.275 113.46 121.62 112.844 122.235C112.228 122.85 111.881 123.685 111.88 124.555V138C111.881 138.871 112.228 139.706 112.844 140.321C113.459 140.937 114.294 141.284 115.165 141.285H122.745C123.615 141.284 124.45 140.937 125.065 140.321C125.68 139.705 126.025 138.87 126.025 138V124.55C126.025 123.68 125.679 122.846 125.064 122.231C124.449 121.616 123.615 121.27 122.745 121.27L115.165 121.275Z" fill="#263238"/>
<path d="M140.05 141.54H132.47C131.533 141.539 130.635 141.166 129.972 140.503C129.309 139.841 128.936 138.942 128.935 138.005V124.555C128.936 123.618 129.309 122.72 129.972 122.059C130.635 121.397 131.533 121.025 132.47 121.025H140.05C140.986 121.026 141.883 121.399 142.545 122.06C143.206 122.722 143.579 123.619 143.58 124.555V138C143.581 138.464 143.49 138.924 143.313 139.353C143.136 139.782 142.876 140.172 142.548 140.501C142.22 140.83 141.831 141.091 141.402 141.269C140.974 141.447 140.514 141.539 140.05 141.54ZM132.47 121.275C131.6 121.275 130.765 121.62 130.149 122.235C129.533 122.85 129.186 123.685 129.185 124.555V138C129.186 138.871 129.533 139.706 130.149 140.321C130.764 140.937 131.599 141.284 132.47 141.285H140.05C140.92 141.284 141.755 140.937 142.37 140.321C142.985 139.705 143.33 138.87 143.33 138V124.55C143.33 123.68 142.985 122.846 142.369 122.231C141.754 121.616 140.92 121.27 140.05 121.27L132.47 121.275Z" fill="#263238"/>
<path d="M156.85 141.54H149.275C148.338 141.539 147.44 141.166 146.777 140.503C146.114 139.841 145.741 138.942 145.74 138.005V124.555C145.741 123.618 146.114 122.72 146.777 122.059C147.44 121.397 148.338 121.025 149.275 121.025H156.85C157.787 121.025 158.685 121.397 159.348 122.059C160.011 122.72 160.384 123.618 160.385 124.555V138C160.385 138.938 160.013 139.838 159.35 140.501C158.687 141.165 157.788 141.539 156.85 141.54ZM149.275 121.275C148.405 121.275 147.57 121.62 146.954 122.235C146.338 122.85 145.991 123.685 145.99 124.555V138C145.99 138.871 146.336 139.707 146.952 140.323C147.568 140.939 148.404 141.285 149.275 141.285H156.85C157.721 141.284 158.556 140.937 159.171 140.321C159.787 139.706 160.134 138.871 160.135 138V124.55C160.134 123.68 159.787 122.845 159.171 122.23C158.555 121.615 157.72 121.27 156.85 121.27L149.275 121.275Z" fill="#263238"/>
<path d="M156.295 157.78H82.69C79.5724 157.78 77.045 160.307 77.045 163.425V167.005C77.045 170.123 79.5724 172.65 82.69 172.65H156.295C159.413 172.65 161.94 170.123 161.94 167.005V163.425C161.94 160.307 159.413 157.78 156.295 157.78Z" fill="#E64848"/>
<path d="M108.775 162.225H111.06C112.705 162.225 113.835 163.225 113.835 164.725C113.835 166.225 112.705 167.225 111.06 167.225H108.775V162.225ZM111 166.3C111.414 166.3 111.811 166.136 112.103 165.843C112.396 165.551 112.56 165.154 112.56 164.74C112.56 164.326 112.396 163.929 112.103 163.637C111.811 163.344 111.414 163.18 111 163.18H109.935V166.3H111Z" fill="white"/>
<path d="M114.345 165.325C114.319 164.899 114.421 164.475 114.639 164.108C114.857 163.741 115.18 163.448 115.566 163.267C115.952 163.086 116.384 163.024 116.805 163.091C117.226 163.158 117.618 163.35 117.929 163.642C118.24 163.934 118.456 164.313 118.55 164.729C118.643 165.146 118.609 165.58 118.452 165.977C118.296 166.374 118.023 166.715 117.671 166.955C117.318 167.195 116.902 167.324 116.475 167.325C116.202 167.343 115.928 167.304 115.67 167.212C115.412 167.119 115.176 166.975 114.976 166.787C114.776 166.6 114.617 166.373 114.509 166.122C114.4 165.87 114.344 165.599 114.345 165.325ZM117.46 165.325C117.46 165.06 117.355 164.805 117.167 164.618C116.98 164.43 116.725 164.325 116.46 164.325C116.195 164.325 115.94 164.43 115.753 164.618C115.565 164.805 115.46 165.06 115.46 165.325C115.46 165.59 115.565 165.845 115.753 166.032C115.94 166.22 116.195 166.325 116.46 166.325C116.725 166.325 116.98 166.22 117.167 166.032C117.355 165.845 117.46 165.59 117.46 165.325Z" fill="white"/>
<path d="M123.295 165.045V167.255H122.175V165.215C122.175 164.59 121.885 164.305 121.39 164.305C120.895 164.305 120.465 164.635 120.465 165.345V167.255H119.345V163.39H120.415V163.845C120.582 163.677 120.782 163.546 121.002 163.459C121.223 163.373 121.459 163.334 121.695 163.345C122.605 163.335 123.295 163.865 123.295 165.045Z" fill="white"/>
<path d="M128.12 165.64H125.195C125.256 165.88 125.401 166.09 125.604 166.232C125.807 166.375 126.054 166.439 126.3 166.415C126.479 166.423 126.657 166.394 126.824 166.329C126.991 166.265 127.143 166.166 127.27 166.04L127.87 166.69C127.666 166.904 127.417 167.071 127.142 167.179C126.866 167.287 126.57 167.334 126.275 167.315C124.935 167.315 124.065 166.475 124.065 165.315C124.06 165.045 124.11 164.778 124.213 164.528C124.316 164.279 124.469 164.054 124.663 163.866C124.856 163.678 125.087 163.533 125.339 163.438C125.591 163.343 125.861 163.301 126.13 163.315C126.396 163.302 126.662 163.345 126.91 163.441C127.159 163.537 127.384 163.684 127.573 163.872C127.761 164.061 127.908 164.286 128.004 164.535C128.1 164.783 128.143 165.049 128.13 165.315C128.14 165.425 128.125 165.545 128.12 165.64ZM125.18 165H127.085C127.048 164.774 126.932 164.568 126.758 164.42C126.583 164.271 126.362 164.19 126.133 164.19C125.903 164.19 125.682 164.271 125.507 164.42C125.333 164.568 125.217 164.774 125.18 165Z" fill="white"/>
<path d="M118.655 86.785C126.953 86.785 133.68 80.0581 133.68 71.76C133.68 63.4619 126.953 56.735 118.655 56.735C110.357 56.735 103.63 63.4619 103.63 71.76C103.63 80.0581 110.357 86.785 118.655 86.785Z" fill="#E64848"/>
<path d="M116 69.025H115.75V67.625C115.75 66.8479 116.059 66.1027 116.608 65.5532C117.158 65.0037 117.903 64.695 118.68 64.695C119.457 64.695 120.202 65.0037 120.752 65.5532C121.301 66.1027 121.61 66.8479 121.61 67.625V68.765H121.36V67.625C121.36 66.9142 121.078 66.2326 120.575 65.73C120.072 65.2274 119.391 64.945 118.68 64.945C117.969 64.945 117.288 65.2274 116.785 65.73C116.282 66.2326 116 66.9142 116 67.625V69.025Z" fill="white"/>
<path d="M122.38 78.825H114.93C114.603 78.8237 114.29 78.6932 114.058 78.4618C113.827 78.2305 113.696 77.9172 113.695 77.59V70.135C113.696 69.8079 113.827 69.4945 114.058 69.2632C114.29 69.0319 114.603 68.9013 114.93 68.9H122.38C122.707 68.9013 123.021 69.0319 123.252 69.2632C123.483 69.4945 123.614 69.8079 123.615 70.135V77.59C123.614 77.9172 123.483 78.2305 123.252 78.4618C123.021 78.6932 122.707 78.8237 122.38 78.825ZM114.93 69.15C114.665 69.15 114.41 69.2554 114.223 69.4429C114.035 69.6305 113.93 69.8848 113.93 70.15V77.605C113.93 77.8702 114.035 78.1246 114.223 78.3121C114.41 78.4997 114.665 78.605 114.93 78.605H122.38C122.645 78.605 122.9 78.4997 123.087 78.3121C123.275 78.1246 123.38 77.8702 123.38 77.605V70.135C123.38 69.8698 123.275 69.6155 123.087 69.4279C122.9 69.2404 122.645 69.135 122.38 69.135L114.93 69.15Z" fill="white"/>
<path d="M118.69 74.105C118.459 74.105 118.232 74.0364 118.04 73.9078C117.848 73.7793 117.698 73.5965 117.609 73.3828C117.521 73.169 117.497 72.9337 117.543 72.7068C117.588 72.4798 117.699 72.2713 117.863 72.1077C118.026 71.9441 118.235 71.8326 118.462 71.7875C118.689 71.7424 118.924 71.7655 119.138 71.8541C119.352 71.9426 119.534 72.0926 119.663 72.285C119.791 72.4774 119.86 72.7036 119.86 72.935C119.86 73.2453 119.737 73.5429 119.517 73.7623C119.298 73.9817 119 74.105 118.69 74.105ZM118.69 72.02C118.508 72.02 118.33 72.0741 118.178 72.1754C118.027 72.2767 117.909 72.4207 117.84 72.5891C117.77 72.7575 117.752 72.9427 117.788 73.1213C117.824 73.2999 117.912 73.4639 118.041 73.5923C118.17 73.7208 118.335 73.808 118.514 73.8429C118.692 73.8779 118.878 73.8589 119.046 73.7885C119.214 73.7181 119.357 73.5994 119.457 73.4475C119.558 73.2955 119.611 73.1172 119.61 72.935C119.612 72.8129 119.59 72.6917 119.544 72.5783C119.499 72.465 119.432 72.3618 119.346 72.2748C119.26 72.1877 119.158 72.1186 119.046 72.0714C118.933 72.0243 118.812 72 118.69 72V72.02Z" fill="white"/>
<path d="M118.78 73.93H118.53V76.04H118.78V73.93Z" fill="white"/>
</svg>
