<svg width="250" height="250" viewBox="0 0 250 250" fill="none" xmlns="http://www.w3.org/2000/svg">
<path opacity="0.7" d="M33.9648 83.545C33.9648 83.545 20.0248 119.545 39.6148 155.795C59.2048 192.045 99.5548 211.195 131.85 227.57C164.145 243.945 197.68 235.97 213.615 209.15C229.55 182.33 207.695 163.185 207.665 124.94C207.635 86.695 213.39 76.57 192.665 44.26C171.94 11.95 121.135 4.79504 82.7147 28.76C44.2948 52.725 33.9648 83.545 33.9648 83.545Z" fill="white"/>
<path d="M117.56 17.8601C179.56 12.3601 179.685 47.3251 207.63 79.9251C235.575 112.525 241.55 127.3 231 164.88C220.45 202.46 185 231.915 141.07 215.225C97.1399 198.535 71.9999 214.56 44.3049 199.725C16.6099 184.89 6.30491 156.27 26.5949 122.52C46.8849 88.7701 41.0899 24.6701 117.56 17.8601Z" fill="#E64848"/>
<path opacity="0.7" d="M117.56 17.8601C179.56 12.3601 179.685 47.3251 207.63 79.9251C235.575 112.525 241.55 127.3 231 164.88C220.45 202.46 185 231.915 141.07 215.225C97.1399 198.535 71.9999 214.56 44.3049 199.725C16.6099 184.89 6.30491 156.27 26.5949 122.52C46.8849 88.7701 41.0899 24.6701 117.56 17.8601Z" fill="white"/>
<path d="M158.847 32.8228L61.3936 43.6678L76.4697 179.142L173.923 168.297L158.847 32.8228Z" fill="white" stroke="#1F1515" stroke-linecap="round" stroke-linejoin="round"/>
<path d="M158.846 32.8233L61.3931 43.6683L63.479 62.4126L160.932 51.5676L158.846 32.8233Z" fill="#BFBFBF" stroke="#1F1515" stroke-linecap="round" stroke-linejoin="round"/>
<path d="M131.77 41.46L89.6999 46.14C89.5044 46.1497 89.3129 46.1992 89.1372 46.2855C88.9615 46.3717 88.8052 46.4928 88.6778 46.6415C88.5505 46.7902 88.4548 46.9632 88.3967 47.1501C88.3385 47.337 88.319 47.5338 88.3394 47.7284C88.3598 47.9231 88.4197 48.1116 88.5154 48.2823C88.6111 48.453 88.7406 48.6025 88.896 48.7215C89.0514 48.8405 89.2295 48.9266 89.4193 48.9744C89.609 49.0223 89.8066 49.031 89.9999 49L132.07 44.32C132.438 44.2643 132.77 44.0683 132.997 43.773C133.223 43.4776 133.327 43.106 133.286 42.7361C133.244 42.3661 133.061 42.0265 132.775 41.7886C132.488 41.5507 132.121 41.4329 131.75 41.46H131.77Z" fill="white"/>
<path d="M121.905 48.5L100.875 50.84C100.781 50.8493 100.69 50.8772 100.607 50.9221C100.524 50.9671 100.451 51.0281 100.391 51.1017C100.332 51.1752 100.288 51.2598 100.262 51.3505C100.236 51.4412 100.229 51.5362 100.24 51.63C100.26 51.8195 100.354 51.9933 100.503 52.1132C100.651 52.2332 100.84 52.2896 101.03 52.27L122.065 49.93C122.249 49.9021 122.415 49.8041 122.528 49.6564C122.642 49.5088 122.693 49.323 122.673 49.138C122.652 48.953 122.56 48.7832 122.417 48.6643C122.274 48.5453 122.09 48.4864 121.905 48.5Z" fill="white"/>
<path opacity="0.3" d="M137.625 64.7099L82.4998 70.8399C82.3586 70.8558 82.2294 70.9272 82.1408 71.0383C82.0522 71.1494 82.0114 71.2912 82.0273 71.4324C82.0432 71.5736 82.1146 71.7028 82.2257 71.7914C82.3368 71.88 82.4786 71.9208 82.6198 71.9049L137.73 65.7749C137.871 65.759 138 65.6876 138.089 65.5765C138.177 65.4654 138.218 65.3236 138.202 65.1824C138.186 65.0412 138.115 64.9121 138.004 64.8235C137.893 64.7348 137.751 64.694 137.61 64.7099H137.625Z" fill="#1F1515"/>
<path opacity="0.3" d="M138.05 68.535L74.6697 75.585C74.5285 75.6009 74.3994 75.6723 74.3108 75.7834C74.2221 75.8945 74.1813 76.0363 74.1972 76.1775C74.2131 76.3187 74.2845 76.4479 74.3956 76.5365C74.5067 76.6251 74.6485 76.6659 74.7897 76.65L138.17 69.6C138.242 69.5957 138.312 69.5768 138.377 69.5444C138.442 69.5121 138.499 69.467 138.546 69.4119C138.593 69.3567 138.628 69.2927 138.649 69.2236C138.67 69.1546 138.677 69.0819 138.67 69.01C138.662 68.9374 138.639 68.8672 138.603 68.8036C138.568 68.74 138.519 68.6843 138.461 68.6399C138.403 68.5955 138.337 68.5633 138.266 68.5453C138.196 68.5273 138.122 68.5238 138.05 68.535Z" fill="#1F1515"/>
<path opacity="0.3" d="M121.935 74.1999L75.095 79.4099C74.9538 79.4258 74.8247 79.4972 74.7361 79.6083C74.6474 79.7194 74.6066 79.8612 74.6225 80.0024C74.6384 80.1436 74.7098 80.2728 74.8209 80.3614C74.932 80.45 75.0738 80.4908 75.215 80.4749L122.05 75.2649C122.122 75.2606 122.193 75.2417 122.257 75.2093C122.322 75.177 122.379 75.1319 122.426 75.0768C122.473 75.0216 122.508 74.9576 122.529 74.8885C122.55 74.8195 122.558 74.7468 122.55 74.6749C122.542 74.6028 122.52 74.5331 122.484 74.4698C122.449 74.4066 122.401 74.3512 122.343 74.3068C122.286 74.2625 122.22 74.2302 122.15 74.2118C122.08 74.1935 122.007 74.1894 121.935 74.1999Z" fill="#1F1515"/>
<path opacity="0.3" d="M151.601 62.6784L146.011 63.3005C145.259 63.3842 144.717 64.0616 144.801 64.8136L145.423 70.4041C145.507 71.1561 146.184 71.6979 146.936 71.6142L152.527 70.992C153.279 70.9084 153.82 70.2309 153.737 69.4789L153.115 63.8884C153.031 63.1364 152.353 62.5947 151.601 62.6784Z" stroke="#1F1515" stroke-linecap="round" stroke-linejoin="round"/>
<path d="M147.005 66.975L148.845 68.71L151.265 65.005" stroke="#E64848" stroke-width="3" stroke-linecap="round" stroke-linejoin="round"/>
<path opacity="0.3" d="M139.64 82.8299L84.5301 88.9599C84.3888 88.9758 84.2597 89.0472 84.1711 89.1583C84.0825 89.2694 84.0417 89.4112 84.0576 89.5524C84.0735 89.6936 84.1448 89.8228 84.256 89.9114C84.3671 90 84.5088 90.0408 84.6501 90.0249L139.76 83.8949C139.83 83.887 139.898 83.8655 139.959 83.8314C140.021 83.7974 140.075 83.7515 140.119 83.6965C140.163 83.6415 140.196 83.5784 140.215 83.5108C140.234 83.4431 140.24 83.3723 140.233 83.3024C140.225 83.2325 140.203 83.1648 140.169 83.1032C140.135 83.0416 140.089 82.9873 140.034 82.9434C139.979 82.8996 139.916 82.867 139.848 82.8475C139.781 82.828 139.71 82.822 139.64 82.8299Z" fill="#1F1515"/>
<path opacity="0.3" d="M140.065 86.655L76.6849 93.705C76.6149 93.7129 76.5472 93.7344 76.4856 93.7685C76.424 93.8025 76.3698 93.8484 76.3259 93.9034C76.282 93.9584 76.2494 94.0215 76.2299 94.0891C76.2104 94.1568 76.2045 94.2276 76.2124 94.2975C76.2202 94.3674 76.2418 94.4351 76.2758 94.4967C76.3099 94.5583 76.3557 94.6126 76.4107 94.6564C76.4658 94.7003 76.5289 94.7329 76.5965 94.7524C76.6641 94.7719 76.7349 94.7779 76.8049 94.77L140.185 87.72C140.326 87.7041 140.455 87.6327 140.544 87.5216C140.632 87.4105 140.673 87.2687 140.657 87.1275C140.641 86.9863 140.57 86.8571 140.459 86.7685C140.348 86.6799 140.206 86.6391 140.065 86.655Z" fill="#1F1515"/>
<path opacity="0.3" d="M123.95 92.3199L77.1097 97.5299C76.9684 97.5458 76.8393 97.6172 76.7507 97.7283C76.6621 97.8394 76.6212 97.9812 76.6372 98.1224C76.6531 98.2636 76.7244 98.3928 76.8356 98.4814C76.9467 98.57 77.0884 98.6108 77.2297 98.5949L124.065 93.3849C124.137 93.3806 124.207 93.3617 124.272 93.3293C124.337 93.297 124.394 93.2519 124.441 93.1968C124.487 93.1416 124.523 93.0776 124.544 93.0085C124.565 92.9395 124.572 92.8668 124.565 92.7949C124.557 92.7228 124.534 92.6531 124.499 92.5898C124.463 92.5266 124.415 92.4712 124.358 92.4268C124.301 92.3825 124.235 92.3502 124.165 92.3318C124.095 92.3134 124.021 92.3094 123.95 92.3199Z" fill="#1F1515"/>
<path opacity="0.3" d="M153.618 80.7943L148.028 81.4165C147.276 81.5002 146.734 82.1776 146.818 82.9296L147.44 88.5201C147.523 89.2721 148.201 89.8138 148.953 89.7302L154.543 89.108C155.295 89.0243 155.837 88.3469 155.753 87.5949L155.131 82.0044C155.048 81.2524 154.37 80.7107 153.618 80.7943Z" stroke="#1F1515" stroke-linecap="round" stroke-linejoin="round"/>
<path d="M149.025 85.095L150.86 86.83L153.28 83.125" stroke="#E64848" stroke-width="3" stroke-linecap="round" stroke-linejoin="round"/>
<path opacity="0.3" d="M141.655 100.95L86.5451 107.08C86.4128 107.106 86.295 107.18 86.2152 107.289C86.1355 107.397 86.0996 107.532 86.1147 107.666C86.1299 107.799 86.195 107.923 86.297 108.011C86.399 108.098 86.5304 108.145 86.6651 108.14L141.775 102C141.845 101.992 141.913 101.971 141.974 101.937C142.036 101.902 142.09 101.857 142.134 101.802C142.178 101.747 142.21 101.683 142.23 101.616C142.249 101.548 142.255 101.477 142.248 101.408C142.24 101.338 142.218 101.27 142.184 101.208C142.15 101.147 142.104 101.092 142.049 101.049C141.994 101.005 141.931 100.972 141.863 100.953C141.796 100.933 141.725 100.927 141.655 100.935V100.95Z" fill="#1F1515"/>
<path opacity="0.3" d="M142.085 104.775L78.6999 111.825C78.6299 111.832 78.5619 111.853 78.5001 111.886C78.4383 111.92 78.3838 111.965 78.3399 112.02C78.2961 112.075 78.2638 112.139 78.2449 112.206C78.226 112.274 78.2209 112.345 78.2299 112.415C78.2374 112.485 78.2586 112.553 78.2923 112.614C78.326 112.676 78.3716 112.731 78.4264 112.775C78.4812 112.819 78.5442 112.852 78.6117 112.872C78.6792 112.891 78.75 112.898 78.8199 112.89L142.2 105.84C142.272 105.835 142.343 105.815 142.408 105.783C142.472 105.75 142.53 105.704 142.576 105.649C142.623 105.593 142.658 105.529 142.679 105.459C142.7 105.39 142.707 105.317 142.7 105.245C142.692 105.173 142.67 105.103 142.634 105.04C142.598 104.977 142.55 104.922 142.493 104.878C142.436 104.834 142.37 104.803 142.3 104.785C142.229 104.767 142.156 104.764 142.085 104.775Z" fill="#1F1515"/>
<path opacity="0.3" d="M125.965 110.44L79.1248 115.65C78.9836 115.666 78.8544 115.737 78.7658 115.848C78.6772 115.959 78.6364 116.101 78.6523 116.242C78.6682 116.384 78.7396 116.513 78.8507 116.601C78.9618 116.69 79.1036 116.731 79.2448 116.715L126.08 111.5C126.221 111.485 126.35 111.414 126.439 111.303C126.529 111.193 126.57 111.051 126.555 110.91C126.54 110.769 126.469 110.639 126.358 110.55C126.248 110.461 126.106 110.42 125.965 110.435V110.44Z" fill="#1F1515"/>
<path opacity="0.3" d="M155.634 98.9103L150.044 99.5324C149.292 99.6161 148.75 100.294 148.834 101.046L149.456 106.636C149.539 107.388 150.217 107.93 150.969 107.846L156.559 107.224C157.311 107.14 157.853 106.463 157.769 105.711L157.147 100.12C157.064 99.3684 156.386 98.8266 155.634 98.9103Z" stroke="#1F1515" stroke-linecap="round" stroke-linejoin="round"/>
<path d="M151.04 103.215L152.875 104.95L155.3 101.24" stroke="#E64848" stroke-width="3" stroke-linecap="round" stroke-linejoin="round"/>
<path opacity="0.3" d="M143.67 119.07L88.5597 125.2C88.4274 125.225 88.3097 125.3 88.2299 125.408C88.1501 125.517 88.1142 125.652 88.1294 125.785C88.1445 125.919 88.2096 126.043 88.3116 126.13C88.4137 126.218 88.5451 126.265 88.6797 126.26L143.79 120.13C143.863 120.127 143.936 120.11 144.002 120.078C144.069 120.046 144.128 120.001 144.176 119.945C144.224 119.889 144.26 119.824 144.282 119.753C144.304 119.683 144.311 119.608 144.303 119.535C144.294 119.462 144.271 119.391 144.234 119.327C144.197 119.263 144.147 119.208 144.088 119.164C144.028 119.121 143.961 119.09 143.889 119.073C143.817 119.057 143.742 119.056 143.67 119.07Z" fill="#1F1515"/>
<path opacity="0.3" d="M144.1 122.895L80.7151 129.945C80.645 129.952 80.5771 129.973 80.5152 130.006C80.4534 130.04 80.3989 130.085 80.3551 130.14C80.3112 130.195 80.2789 130.259 80.26 130.326C80.2411 130.394 80.236 130.465 80.2451 130.535C80.2525 130.605 80.2737 130.673 80.3075 130.734C80.3412 130.796 80.3867 130.851 80.4415 130.895C80.4963 130.939 80.5593 130.972 80.6268 130.992C80.6944 131.011 80.7651 131.018 80.8351 131.01L144.215 123.96C144.357 123.944 144.486 123.872 144.575 123.76C144.664 123.649 144.706 123.507 144.69 123.365C144.674 123.225 144.603 123.096 144.492 123.008C144.381 122.92 144.241 122.879 144.1 122.895Z" fill="#1F1515"/>
<path opacity="0.3" d="M128 128.56L81.1599 133.77C81.0899 133.777 81.0219 133.798 80.9601 133.831C80.8982 133.865 80.8438 133.91 80.7999 133.965C80.7561 134.02 80.7237 134.084 80.7048 134.152C80.6859 134.219 80.6809 134.29 80.6899 134.36C80.6974 134.43 80.7186 134.498 80.7523 134.559C80.786 134.621 80.8316 134.676 80.8864 134.72C80.9412 134.764 81.0041 134.797 81.0717 134.817C81.1392 134.836 81.21 134.843 81.2799 134.835L128.115 129.625C128.185 129.617 128.253 129.596 128.314 129.563C128.376 129.529 128.431 129.483 128.475 129.429C128.519 129.374 128.552 129.311 128.572 129.243C128.591 129.176 128.598 129.105 128.59 129.035C128.583 128.965 128.562 128.897 128.529 128.835C128.495 128.772 128.45 128.718 128.395 128.673C128.34 128.629 128.277 128.596 128.209 128.577C128.141 128.557 128.07 128.552 128 128.56Z" fill="#1F1515"/>
<path opacity="0.3" d="M157.651 117.031L152.061 117.653C151.309 117.737 150.767 118.415 150.851 119.167L151.473 124.757C151.557 125.509 152.234 126.051 152.986 125.967L158.576 125.345C159.328 125.261 159.87 124.584 159.787 123.832L159.164 118.241C159.081 117.489 158.403 116.948 157.651 117.031Z" stroke="#1F1515" stroke-linecap="round" stroke-linejoin="round"/>
<path d="M153.055 121.33L154.89 123.065L157.315 119.36" stroke="#E64848" stroke-width="3" stroke-linecap="round" stroke-linejoin="round"/>
<path opacity="0.3" d="M145.69 137.185L90.5797 143.315C90.5097 143.322 90.442 143.344 90.3803 143.377C90.3185 143.411 90.2641 143.457 90.22 143.512C90.1759 143.566 90.143 143.629 90.1232 143.697C90.1034 143.764 90.0971 143.835 90.1047 143.905C90.1122 143.975 90.1335 144.043 90.1672 144.104C90.2009 144.166 90.2465 144.221 90.3013 144.265C90.3561 144.309 90.419 144.342 90.4865 144.361C90.554 144.381 90.6247 144.387 90.6947 144.38L145.805 138.25C145.875 138.242 145.942 138.221 146.004 138.188C146.066 138.154 146.12 138.108 146.165 138.053C146.209 137.999 146.242 137.936 146.261 137.868C146.281 137.801 146.287 137.73 146.28 137.66C146.263 137.519 146.192 137.39 146.082 137.302C145.972 137.213 145.831 137.171 145.69 137.185Z" fill="#1F1515"/>
<path opacity="0.3" d="M146.115 141L82.7297 148.05C82.6559 148.053 82.5836 148.07 82.5171 148.102C82.4505 148.134 82.3913 148.179 82.3432 148.235C82.295 148.291 82.2589 148.356 82.2372 148.427C82.2154 148.497 82.2085 148.572 82.2168 148.645C82.2251 148.718 82.2484 148.789 82.2854 148.853C82.3224 148.917 82.3721 148.972 82.4315 149.016C82.491 149.059 82.5588 149.09 82.6307 149.107C82.7027 149.123 82.7772 149.124 82.8496 149.11L146.23 142.06C146.304 142.058 146.377 142.041 146.444 142.01C146.511 141.978 146.57 141.933 146.619 141.878C146.668 141.822 146.705 141.757 146.727 141.686C146.749 141.615 146.757 141.541 146.749 141.467C146.741 141.394 146.718 141.323 146.681 141.258C146.644 141.194 146.594 141.138 146.534 141.094C146.475 141.051 146.407 141.019 146.334 141.003C146.262 140.987 146.187 140.986 146.115 141Z" fill="#1F1515"/>
<path opacity="0.3" d="M130 146.68L83.16 151.89C83.0187 151.906 82.8896 151.977 82.801 152.088C82.7124 152.199 82.6715 152.341 82.6875 152.482C82.7034 152.624 82.7747 152.753 82.8858 152.841C82.997 152.93 83.1387 152.971 83.28 152.955L130.12 147.745C130.261 147.727 130.389 147.655 130.477 147.544C130.565 147.432 130.605 147.291 130.59 147.15C130.583 147.08 130.561 147.013 130.527 146.951C130.494 146.89 130.448 146.835 130.393 146.792C130.338 146.748 130.275 146.715 130.208 146.696C130.14 146.677 130.07 146.672 130 146.68Z" fill="#1F1515"/>
<path opacity="0.3" d="M159.668 135.152L154.077 135.774C153.325 135.858 152.784 136.536 152.867 137.287L153.489 142.878C153.573 143.63 154.251 144.172 155.003 144.088L160.593 143.466C161.345 143.382 161.887 142.705 161.803 141.953L161.181 136.362C161.097 135.61 160.42 135.069 159.668 135.152Z" stroke="#1F1515" stroke-linecap="round" stroke-linejoin="round"/>
<path d="M155.07 139.45L156.905 141.185L159.33 137.48" stroke="#E64848" stroke-width="3" stroke-linecap="round" stroke-linejoin="round"/>
<path opacity="0.3" d="M147.225 151L92.115 157.14C91.9738 157.156 91.8447 157.227 91.7561 157.338C91.6675 157.45 91.6266 157.591 91.6425 157.732C91.6584 157.874 91.7298 158.003 91.8409 158.091C91.952 158.18 92.0938 158.221 92.235 158.205L147.345 152.075C147.415 152.068 147.483 152.047 147.545 152.014C147.607 151.98 147.661 151.935 147.705 151.88C147.749 151.825 147.781 151.761 147.8 151.693C147.819 151.626 147.824 151.555 147.815 151.485C147.809 151.414 147.788 151.345 147.755 151.282C147.722 151.219 147.677 151.164 147.622 151.119C147.567 151.074 147.504 151.04 147.435 151.019C147.367 150.999 147.296 150.992 147.225 151Z" fill="#1F1515"/>
<path opacity="0.3" d="M147.65 154.84L84.2697 161.89C84.1957 161.892 84.1229 161.909 84.0558 161.94C83.9887 161.972 83.9289 162.017 83.8801 162.072C83.8313 162.128 83.7946 162.193 83.7724 162.264C83.7501 162.334 83.7427 162.409 83.7507 162.482C83.7587 162.556 83.7818 162.627 83.8187 162.691C83.8557 162.756 83.9055 162.811 83.9651 162.855C84.0247 162.899 84.0928 162.93 84.165 162.947C84.2372 162.963 84.312 162.964 84.3847 162.95L147.77 155.9C147.902 155.874 148.02 155.8 148.1 155.691C148.179 155.583 148.215 155.448 148.2 155.314C148.185 155.181 148.12 155.057 148.018 154.969C147.916 154.881 147.784 154.835 147.65 154.84Z" fill="#1F1515"/>
<path opacity="0.3" d="M131.53 160.5L84.695 165.71C84.625 165.717 84.5572 165.739 84.4954 165.772C84.4337 165.806 84.3792 165.852 84.3351 165.906C84.2909 165.961 84.2581 166.024 84.2383 166.092C84.2186 166.159 84.2123 166.23 84.22 166.3C84.2363 166.442 84.308 166.571 84.4195 166.66C84.531 166.749 84.6731 166.79 84.815 166.775L131.65 161.565C131.72 161.557 131.788 161.536 131.849 161.501C131.911 161.467 131.965 161.422 132.009 161.367C132.053 161.312 132.085 161.248 132.105 161.181C132.124 161.113 132.13 161.042 132.122 160.972C132.115 160.903 132.093 160.835 132.059 160.773C132.025 160.712 131.979 160.657 131.924 160.613C131.869 160.57 131.806 160.537 131.738 160.518C131.671 160.498 131.6 160.492 131.53 160.5Z" fill="#1F1515"/>
<path opacity="0.3" d="M161.207 148.972L155.617 149.594C154.865 149.678 154.323 150.355 154.407 151.107L155.029 156.698C155.113 157.45 155.79 157.992 156.542 157.908L162.133 157.286C162.885 157.202 163.426 156.525 163.343 155.773L162.721 150.182C162.637 149.43 161.959 148.888 161.207 148.972Z" stroke="#1F1515" stroke-linecap="round" stroke-linejoin="round"/>
<path d="M156.605 153.275L158.44 155.01L160.865 151.305" stroke="#E64848" stroke-width="3" stroke-linecap="round" stroke-linejoin="round"/>
<path d="M101.405 115.635C101.453 115.06 101.311 114.486 101 114L100.385 112.91L99.165 113.6L99.83 114.77C100.16 115.355 100.025 115.715 99.615 115.945C99.205 116.175 98.825 116.115 98.495 115.53L97.07 113L95.54 113.3L97.17 116.175C97.915 117.49 98.995 117.865 100.26 117.175C100.461 117.06 100.647 116.92 100.815 116.76C100.744 116.595 100.731 116.411 100.78 116.238C100.828 116.065 100.934 115.914 101.08 115.81C101.178 115.734 101.288 115.675 101.405 115.635Z" fill="#E64848"/>
<path d="M94.7549 111.915L95.0449 112.415H96.73L95.995 111.115C95.665 110.53 95.795 110.16 96.205 109.93C96.615 109.7 97 109.77 97.33 110.36L97.83 111.235L99.0449 110.545L98.595 109.75C97.85 108.44 96.7699 108.06 95.5049 108.78C95.2146 108.937 94.9567 109.147 94.745 109.4C95.0323 109.492 95.3333 109.535 95.635 109.525L94.4349 109.975C94.347 110.302 94.3301 110.645 94.3852 110.98C94.4404 111.314 94.5665 111.633 94.7549 111.915Z" fill="#E64848"/>
<path d="M104.1 106.585C104.26 106.505 104.428 106.44 104.6 106.39C105.245 106.1 105.39 105.17 105.335 104.515L104.67 103.69L102.88 104.69L104 106.66C104.029 106.63 104.063 106.605 104.1 106.585Z" fill="#E64848"/>
<path d="M111.725 110.5L112.94 109.81L108.295 101.62L107.14 102.27C107.51 102.36 107.775 102.535 107.785 102.805C107.425 102.855 106.985 102.805 106.595 102.875L108.935 108.94L105.975 105.25C105.983 105.332 105.971 105.414 105.94 105.49C105.908 105.566 105.859 105.633 105.795 105.685C105.66 105.78 105.465 105.78 105.36 105.905C105.255 106.03 105.27 106.18 105.18 106.29C105.09 106.4 104.95 106.43 104.84 106.51C104.73 106.59 104.61 106.795 104.485 106.93C104.425 106.993 104.349 107.04 104.265 107.065L107.555 112.865L108.675 112.225L105.39 106.435L109.61 111.695L110.83 111.005L108.365 104.64L111.725 110.5Z" fill="#E64848"/>
<path d="M114.8 103.37C114.889 103.414 114.968 103.476 115.032 103.552C115.097 103.627 115.145 103.715 115.175 103.81C115.28 103.192 115.146 102.557 114.8 102.035L114.195 100.965C113.45 99.655 112.415 99.3 111.125 100.03L109.23 101.105L113.88 109.3L115.085 108.615C114.695 108.37 114.26 108.16 113.89 107.895C113.716 107.784 113.574 107.631 113.475 107.45C113.428 107.359 113.409 107.256 113.42 107.154C113.43 107.051 113.47 106.955 113.535 106.875C113.62 106.804 113.723 106.758 113.833 106.743C113.942 106.728 114.054 106.744 114.155 106.79L113.42 105.49L114.03 105.145C114.365 104.963 114.657 104.711 114.885 104.405C114.63 104 114.185 103.14 114.8 103.37ZM113.365 104L112.755 104.345L111.18 101.57L111.79 101.225C112.2 100.995 112.53 101.055 112.86 101.64L113.56 102.87C113.89 103.43 113.775 103.745 113.365 104Z" fill="#E64848"/>
<path d="M121.695 104.865L121.035 103.695L118.915 104.895L115.815 99.43L115.675 99.54C115.585 99.624 115.475 99.6841 115.355 99.715C115.295 99.7286 115.232 99.7198 115.178 99.6904C115.123 99.661 115.082 99.6129 115.06 99.555C115.043 99.4776 115.043 99.3974 115.06 99.32C115.061 98.8548 114.914 98.4013 114.64 98.025L113.64 98.605L118.285 106.795L121.695 104.865Z" fill="#E64848"/>
<path d="M121.115 102C121.255 101.635 121.69 101.5 121.935 101.17C121.957 101.136 121.977 101.101 121.995 101.065L121.495 100.225L122.76 99.51C122.736 99.4302 122.695 99.3566 122.64 99.295C122.458 99.2063 122.264 99.1456 122.065 99.115C122.034 99.0528 122.018 98.9841 122.019 98.9147C122.02 98.8453 122.038 98.7772 122.071 98.716C122.104 98.6548 122.151 98.6024 122.208 98.5631C122.265 98.5238 122.331 98.4987 122.4 98.49C122.485 98.49 122.585 98.49 122.65 98.45C122.695 98.3956 122.719 98.3259 122.715 98.255L122.6 98.055L120.83 99.055L119.54 96.775L121.76 95.51L121.095 94.34L117.595 96.34L121.035 102.405C121.041 102.267 121.068 102.13 121.115 102Z" fill="#E64848"/>
<path d="M125.77 102.555L125.105 101.385L122.88 102.645L122.215 101.5L121.395 102.27L121.11 102.545L122.26 104.57L125.77 102.555Z" fill="#E64848"/>
<path d="M124.115 93.04C124.115 93.215 123.99 93.41 123.82 93.425C123.733 93.4239 123.648 93.4104 123.565 93.385C123.41 93.3878 123.256 93.3727 123.105 93.34C123.072 93.3265 123.042 93.308 123.015 93.285L121.545 94.12L122.21 95.295L123.555 94.53L127.555 101.53L128.84 100.8L124.84 93.8L126.19 93.035L125.525 91.865L124.145 92.645C124.12 92.775 124.13 92.91 124.115 93.04Z" fill="#E64848"/>
<path d="M129.73 97.9999L130.73 99.7649L132.08 98.9999C132.112 98.9114 132.152 98.826 132.2 98.7449C132.497 98.3106 132.897 97.9567 133.365 97.7149L133.985 97.3299L133.575 96.5999L131.35 97.8649L129.99 95.4649L131.76 94.4649L131.095 93.2949L129.325 94.2949L128.035 91.9999L130.26 90.7399L129.595 89.5699L126.095 91.5699L128.62 96.0249C129.23 95.6999 129.535 96.8699 129.73 97.9999Z" fill="#E64848"/>
<path d="M103.835 114.18C104.045 114.215 104.17 114.425 104.335 114.565C104.395 114.62 104.465 114.664 104.54 114.695C104.636 114.657 104.729 114.614 104.82 114.565C106.08 113.85 106.345 112.71 105.605 111.395L105.53 111.265L103.8 111.22L104.365 112.22C104.695 112.805 104.565 113.175 104.155 113.405C103.745 113.635 103.36 113.56 103.03 112.975L100.53 108.55C100.195 107.965 100.33 107.6 100.74 107.365C101.15 107.13 101.53 107.21 101.865 107.795L103.56 110.795C104.08 110.666 104.614 110.599 105.15 110.595L103.195 107.15C102.455 105.84 101.34 105.485 100.075 106.2C98.8101 106.915 98.5451 108.06 99.2901 109.37L101.705 113.63C101.858 113.958 102.086 114.246 102.371 114.469C102.656 114.693 102.99 114.845 103.345 114.915C103.342 114.885 103.342 114.855 103.345 114.825C103.285 114.5 103.525 114.12 103.835 114.18Z" fill="#E64848"/>
<path d="M121.1 90.6649L125.025 88.4399C123.9 88.7499 122.91 89.6899 121.75 89.5599C121.54 89.5049 121.32 89.5049 121.11 89.5599C120.979 89.6445 120.884 89.7753 120.845 89.9263C120.806 90.0774 120.826 90.2376 120.9 90.3749C120.95 90.4817 121.018 90.5796 121.1 90.6649Z" fill="#E64848"/>
<path d="M111.255 96.25C111.246 96.1635 111.264 96.0765 111.305 96C111.401 96.0335 111.503 96.0505 111.605 96.05L112.96 95.285C113.172 95.0451 113.414 94.8333 113.68 94.655C113.937 94.5176 114.209 94.4102 114.49 94.335L114.79 94.245L117.29 92.835C117.316 92.7839 117.352 92.7381 117.395 92.7C117.434 92.6743 117.476 92.6541 117.52 92.64L114.94 91.86L114.245 92.25L114.17 92.8L111.195 94.39C110.9 94.5739 110.573 94.698 110.23 94.755C110.102 94.77 109.973 94.77 109.845 94.755L105.605 97.16C105.639 97.3609 105.696 97.5573 105.775 97.745C105.526 97.6987 105.29 97.6016 105.08 97.46L104.21 97.96C104.83 98.37 105.44 98.79 106.035 99.235L111.255 96.25Z" fill="#E64848"/>
<path d="M129.405 85.9599L127.355 84.8099L126.385 85.3599C126.956 85.9477 127.695 86.3457 128.5 86.4999L129.405 85.9599Z" fill="#E64848"/>
<path d="M140.43 98.065L132.69 84.42C132.389 83.8923 131.891 83.5052 131.306 83.3431C130.72 83.1811 130.095 83.2572 129.565 83.555L128.635 84.085L128.99 84.43C129.36 84.8 129.74 85.175 130.085 85.57L130.555 85.305C130.62 85.2686 130.697 85.2592 130.769 85.2788C130.841 85.2985 130.902 85.3456 130.94 85.41L138.685 99.06C138.721 99.1257 138.73 99.203 138.709 99.275C138.688 99.3471 138.64 99.4082 138.575 99.445L128.04 105.445C128.95 105.5 129.87 105.37 130.78 105.475C131.108 105.516 131.433 105.575 131.755 105.65L139.565 101.22C139.83 101.071 140.063 100.871 140.251 100.631C140.438 100.391 140.576 100.117 140.656 99.8231C140.737 99.5296 140.758 99.2231 140.719 98.9214C140.681 98.6196 140.582 98.3285 140.43 98.065Z" fill="#E64848"/>
<path d="M92.9999 115.43L89.3599 109C89.3411 108.968 89.3289 108.932 89.324 108.894C89.3191 108.857 89.3216 108.819 89.3314 108.783C89.3411 108.747 89.358 108.713 89.3809 108.683C89.4038 108.654 89.4323 108.629 89.4649 108.61L99.9649 102.65C99.9299 102.57 99.8849 102.49 99.8549 102.41C100.003 102.404 100.152 102.421 100.295 102.46L104.54 100.055C104.4 100.01 104.265 99.955 104.13 99.905L102.13 99.11L100.53 100.02L102.27 101.085C101.665 100.715 100.43 100.665 99.3649 100.68L88.4999 106.865C87.9712 107.165 87.5832 107.663 87.4211 108.249C87.2589 108.834 87.3358 109.461 87.6349 109.99L90.7949 115.56C90.9399 115.52 91.0899 115.485 91.2349 115.46C91.6355 115.402 92.0406 115.382 92.4449 115.4C92.6303 115.399 92.8157 115.409 92.9999 115.43Z" fill="#E64848"/>
<path d="M105.97 117.94C106.148 118.1 106.351 118.23 106.57 118.325C106.795 118.425 107.095 118.665 106.92 118.825C106.11 119.195 105.11 118.92 104.315 119.325C103.88 119.535 103.46 119.95 102.995 119.825C103.558 120.166 104.064 120.593 104.495 121.09L124.35 109.83C124.35 109.75 124.375 109.67 124.39 109.585C124.391 109.428 124.427 109.272 124.496 109.131C124.566 108.99 124.667 108.867 124.791 108.77C124.915 108.674 125.06 108.607 125.214 108.575C125.368 108.543 125.528 108.546 125.68 108.585C125.938 108.574 126.195 108.601 126.445 108.665L128.92 107.26C128.581 106.675 128.178 106.128 127.72 105.63L105.97 117.94Z" fill="#E64848"/>
<path d="M102.755 121.245C102.276 121.09 101.835 120.836 101.46 120.5L97.4998 122.75C97.4677 122.769 97.4322 122.781 97.3954 122.786C97.3586 122.79 97.3211 122.788 97.2853 122.778C97.2495 122.768 97.216 122.752 97.1867 122.729C97.1574 122.706 97.133 122.677 97.1148 122.645L93.6148 116.51C93.2794 116.394 92.9227 116.353 92.5698 116.39C92.1648 116.47 91.8098 116.94 92.0298 117.285C92.2365 117.29 92.4381 117.351 92.6138 117.459C92.7896 117.568 92.9331 117.722 93.0298 117.905C92.8141 118.077 92.5772 118.219 92.3248 118.33L95.3248 123.635C95.4738 123.903 95.6749 124.138 95.9163 124.327C96.1576 124.517 96.4343 124.655 96.7302 124.736C97.026 124.817 97.3349 124.837 97.6388 124.797C97.9427 124.756 98.2354 124.655 98.4998 124.5L103.69 121.555L103.63 121.52C103.343 121.413 103.051 121.321 102.755 121.245Z" fill="#E64848"/>
<g opacity="0.2">
<path d="M101.405 115.635C101.453 115.06 101.311 114.486 101 114L100.385 112.91L99.165 113.6L99.83 114.77C100.16 115.355 100.025 115.715 99.615 115.945C99.205 116.175 98.825 116.115 98.495 115.53L97.07 113L95.54 113.3L97.17 116.175C97.915 117.49 98.995 117.865 100.26 117.175C100.461 117.06 100.647 116.92 100.815 116.76C100.744 116.595 100.731 116.411 100.78 116.238C100.828 116.065 100.934 115.914 101.08 115.81C101.178 115.734 101.288 115.675 101.405 115.635Z" fill="#1F1515"/>
<path d="M94.7549 111.915L95.0449 112.415H96.73L95.995 111.115C95.665 110.53 95.795 110.16 96.205 109.93C96.615 109.7 97 109.77 97.33 110.36L97.83 111.235L99.0449 110.545L98.595 109.75C97.85 108.44 96.7699 108.06 95.5049 108.78C95.2146 108.937 94.9567 109.147 94.745 109.4C95.0323 109.492 95.3333 109.535 95.635 109.525L94.4349 109.975C94.347 110.302 94.3301 110.645 94.3852 110.98C94.4404 111.314 94.5665 111.633 94.7549 111.915Z" fill="#1F1515"/>
<path d="M104.1 106.585C104.26 106.505 104.428 106.44 104.6 106.39C105.245 106.1 105.39 105.17 105.335 104.515L104.67 103.69L102.88 104.69L104 106.66C104.029 106.63 104.063 106.605 104.1 106.585Z" fill="#1F1515"/>
<path d="M111.725 110.5L112.94 109.81L108.295 101.62L107.14 102.27C107.51 102.36 107.775 102.535 107.785 102.805C107.425 102.855 106.985 102.805 106.595 102.875L108.935 108.94L105.975 105.25C105.983 105.332 105.971 105.414 105.94 105.49C105.908 105.566 105.859 105.633 105.795 105.685C105.66 105.78 105.465 105.78 105.36 105.905C105.255 106.03 105.27 106.18 105.18 106.29C105.09 106.4 104.95 106.43 104.84 106.51C104.73 106.59 104.61 106.795 104.485 106.93C104.425 106.993 104.349 107.04 104.265 107.065L107.555 112.865L108.675 112.225L105.39 106.435L109.61 111.695L110.83 111.005L108.365 104.64L111.725 110.5Z" fill="#1F1515"/>
<path d="M114.8 103.37C114.889 103.414 114.968 103.476 115.032 103.552C115.097 103.627 115.145 103.715 115.175 103.81C115.28 103.192 115.146 102.557 114.8 102.035L114.195 100.965C113.45 99.655 112.415 99.3 111.125 100.03L109.23 101.105L113.88 109.3L115.085 108.615C114.695 108.37 114.26 108.16 113.89 107.895C113.716 107.784 113.574 107.631 113.475 107.45C113.428 107.359 113.409 107.256 113.42 107.154C113.43 107.051 113.47 106.955 113.535 106.875C113.62 106.804 113.723 106.758 113.833 106.743C113.942 106.728 114.054 106.744 114.155 106.79L113.42 105.49L114.03 105.145C114.365 104.963 114.657 104.711 114.885 104.405C114.63 104 114.185 103.14 114.8 103.37ZM113.365 104L112.755 104.345L111.18 101.57L111.79 101.225C112.2 100.995 112.53 101.055 112.86 101.64L113.56 102.87C113.89 103.43 113.775 103.745 113.365 104Z" fill="#1F1515"/>
<path d="M121.695 104.865L121.035 103.695L118.915 104.895L115.815 99.43L115.675 99.54C115.585 99.624 115.475 99.6841 115.355 99.715C115.295 99.7286 115.232 99.7198 115.178 99.6904C115.123 99.661 115.082 99.6129 115.06 99.555C115.043 99.4776 115.043 99.3974 115.06 99.32C115.061 98.8548 114.914 98.4013 114.64 98.025L113.64 98.605L118.285 106.795L121.695 104.865Z" fill="#1F1515"/>
<path d="M121.115 102C121.255 101.635 121.69 101.5 121.935 101.17C121.957 101.136 121.977 101.101 121.995 101.065L121.495 100.225L122.76 99.51C122.736 99.4302 122.695 99.3566 122.64 99.295C122.458 99.2063 122.264 99.1456 122.065 99.115C122.034 99.0528 122.018 98.9841 122.019 98.9147C122.02 98.8453 122.038 98.7772 122.071 98.716C122.104 98.6548 122.151 98.6024 122.208 98.5631C122.265 98.5238 122.331 98.4987 122.4 98.49C122.485 98.49 122.585 98.49 122.65 98.45C122.695 98.3956 122.719 98.3259 122.715 98.255L122.6 98.055L120.83 99.055L119.54 96.775L121.76 95.51L121.095 94.34L117.595 96.34L121.035 102.405C121.041 102.267 121.068 102.13 121.115 102Z" fill="#1F1515"/>
<path d="M125.77 102.555L125.105 101.385L122.88 102.645L122.215 101.5L121.395 102.27L121.11 102.545L122.26 104.57L125.77 102.555Z" fill="#1F1515"/>
<path d="M124.115 93.04C124.115 93.215 123.99 93.41 123.82 93.425C123.733 93.4239 123.648 93.4104 123.565 93.385C123.41 93.3878 123.256 93.3727 123.105 93.34C123.072 93.3265 123.042 93.308 123.015 93.285L121.545 94.12L122.21 95.295L123.555 94.53L127.555 101.53L128.84 100.8L124.84 93.8L126.19 93.035L125.525 91.865L124.145 92.645C124.12 92.775 124.13 92.91 124.115 93.04Z" fill="#1F1515"/>
<path d="M129.73 97.9999L130.73 99.7649L132.08 98.9999C132.112 98.9114 132.152 98.826 132.2 98.7449C132.497 98.3106 132.897 97.9567 133.365 97.7149L133.985 97.3299L133.575 96.5999L131.35 97.8649L129.99 95.4649L131.76 94.4649L131.095 93.2949L129.325 94.2949L128.035 91.9999L130.26 90.7399L129.595 89.5699L126.095 91.5699L128.62 96.0249C129.23 95.6999 129.535 96.8699 129.73 97.9999Z" fill="#1F1515"/>
<path d="M103.835 114.18C104.045 114.215 104.17 114.425 104.335 114.565C104.395 114.62 104.465 114.664 104.54 114.695C104.636 114.657 104.729 114.614 104.82 114.565C106.08 113.85 106.345 112.71 105.605 111.395L105.53 111.265L103.8 111.22L104.365 112.22C104.695 112.805 104.565 113.175 104.155 113.405C103.745 113.635 103.36 113.56 103.03 112.975L100.53 108.55C100.195 107.965 100.33 107.6 100.74 107.365C101.15 107.13 101.53 107.21 101.865 107.795L103.56 110.795C104.08 110.666 104.614 110.599 105.15 110.595L103.195 107.15C102.455 105.84 101.34 105.485 100.075 106.2C98.8101 106.915 98.5451 108.06 99.2901 109.37L101.705 113.63C101.858 113.958 102.086 114.246 102.371 114.469C102.656 114.693 102.99 114.845 103.345 114.915C103.342 114.885 103.342 114.855 103.345 114.825C103.285 114.5 103.525 114.12 103.835 114.18Z" fill="#1F1515"/>
<path d="M121.1 90.6649L125.025 88.4399C123.9 88.7499 122.91 89.6899 121.75 89.5599C121.54 89.5049 121.32 89.5049 121.11 89.5599C120.979 89.6445 120.884 89.7753 120.845 89.9263C120.806 90.0774 120.826 90.2376 120.9 90.3749C120.95 90.4817 121.018 90.5796 121.1 90.6649Z" fill="#1F1515"/>
<path d="M111.255 96.25C111.246 96.1635 111.264 96.0765 111.305 96C111.401 96.0335 111.503 96.0505 111.605 96.05L112.96 95.285C113.172 95.0451 113.414 94.8333 113.68 94.655C113.937 94.5176 114.209 94.4102 114.49 94.335L114.79 94.245L117.29 92.835C117.316 92.7839 117.352 92.7381 117.395 92.7C117.434 92.6743 117.476 92.6541 117.52 92.64L114.94 91.86L114.245 92.25L114.17 92.8L111.195 94.39C110.9 94.5739 110.573 94.698 110.23 94.755C110.102 94.77 109.973 94.77 109.845 94.755L105.605 97.16C105.639 97.3609 105.696 97.5573 105.775 97.745C105.526 97.6987 105.29 97.6016 105.08 97.46L104.21 97.96C104.83 98.37 105.44 98.79 106.035 99.235L111.255 96.25Z" fill="#1F1515"/>
<path d="M129.405 85.9599L127.355 84.8099L126.385 85.3599C126.956 85.9477 127.695 86.3457 128.5 86.4999L129.405 85.9599Z" fill="#1F1515"/>
<path d="M140.43 98.065L132.69 84.42C132.389 83.8923 131.891 83.5052 131.306 83.3431C130.72 83.1811 130.095 83.2572 129.565 83.555L128.635 84.085L128.99 84.43C129.36 84.8 129.74 85.175 130.085 85.57L130.555 85.305C130.62 85.2686 130.697 85.2592 130.769 85.2788C130.841 85.2985 130.902 85.3456 130.94 85.41L138.685 99.06C138.721 99.1257 138.73 99.203 138.709 99.275C138.688 99.3471 138.64 99.4082 138.575 99.445L128.04 105.445C128.95 105.5 129.87 105.37 130.78 105.475C131.108 105.516 131.433 105.575 131.755 105.65L139.565 101.22C139.83 101.071 140.063 100.871 140.251 100.631C140.438 100.391 140.576 100.117 140.656 99.8231C140.737 99.5296 140.758 99.2231 140.719 98.9214C140.681 98.6196 140.582 98.3285 140.43 98.065Z" fill="#1F1515"/>
<path d="M92.9999 115.43L89.3599 109C89.3411 108.968 89.3289 108.932 89.324 108.894C89.3191 108.857 89.3216 108.819 89.3314 108.783C89.3411 108.747 89.358 108.713 89.3809 108.683C89.4038 108.654 89.4323 108.629 89.4649 108.61L99.9649 102.65C99.9299 102.57 99.8849 102.49 99.8549 102.41C100.003 102.404 100.152 102.421 100.295 102.46L104.54 100.055C104.4 100.01 104.265 99.955 104.13 99.905L102.13 99.11L100.53 100.02L102.27 101.085C101.665 100.715 100.43 100.665 99.3649 100.68L88.4999 106.865C87.9712 107.165 87.5832 107.663 87.4211 108.249C87.2589 108.834 87.3358 109.461 87.6349 109.99L90.7949 115.56C90.9399 115.52 91.0899 115.485 91.2349 115.46C91.6355 115.402 92.0406 115.382 92.4449 115.4C92.6303 115.399 92.8157 115.409 92.9999 115.43Z" fill="#1F1515"/>
<path d="M105.97 117.94C106.148 118.1 106.351 118.23 106.57 118.325C106.795 118.425 107.095 118.665 106.92 118.825C106.11 119.195 105.11 118.92 104.315 119.325C103.88 119.535 103.46 119.95 102.995 119.825C103.558 120.166 104.064 120.593 104.495 121.09L124.35 109.83C124.35 109.75 124.375 109.67 124.39 109.585C124.391 109.428 124.427 109.272 124.496 109.131C124.566 108.99 124.667 108.867 124.791 108.77C124.915 108.674 125.06 108.607 125.214 108.575C125.368 108.543 125.528 108.546 125.68 108.585C125.938 108.574 126.195 108.601 126.445 108.665L128.92 107.26C128.581 106.675 128.178 106.128 127.72 105.63L105.97 117.94Z" fill="#1F1515"/>
<path d="M102.755 121.245C102.276 121.09 101.835 120.836 101.46 120.5L97.4998 122.75C97.4677 122.769 97.4322 122.781 97.3954 122.786C97.3586 122.79 97.3211 122.788 97.2853 122.778C97.2495 122.768 97.216 122.752 97.1867 122.729C97.1574 122.706 97.133 122.677 97.1148 122.645L93.6148 116.51C93.2794 116.394 92.9227 116.353 92.5698 116.39C92.1648 116.47 91.8098 116.94 92.0298 117.285C92.2365 117.29 92.4381 117.351 92.6138 117.459C92.7896 117.568 92.9331 117.722 93.0298 117.905C92.8141 118.077 92.5772 118.219 92.3248 118.33L95.3248 123.635C95.4738 123.903 95.6749 124.138 95.9163 124.327C96.1576 124.517 96.4343 124.655 96.7302 124.736C97.026 124.817 97.3349 124.837 97.6388 124.797C97.9427 124.756 98.2354 124.655 98.4998 124.5L103.69 121.555L103.63 121.52C103.343 121.413 103.051 121.321 102.755 121.245Z" fill="#1F1515"/>
</g>
<path opacity="0.3" d="M80.24 103.39C83.29 105.63 85.84 116.39 86.07 126.255C86.3 136.12 91.07 152.755 91.64 155.48C92.21 158.205 92 162.135 95.54 156.665C99.08 151.195 109.435 141.7 113.75 144.855C118.065 148.01 110.8 158.615 106.865 164.325C102.93 170.035 102.53 180.09 97.815 186.385C93.1 192.68 88.84 202.185 84.22 202.04C79.6 201.895 49 224.595 49 224.595L49.6 193.525L77.1 148.525L80.24 103.39Z" fill="black" fill-opacity="0.7"/>
<path d="M116.26 146.38C116.105 147.355 110.72 154.49 107.555 159.83C104.39 165.17 101.425 174.465 100.63 175.83C99.8351 177.195 90.1301 185.72 87.4701 189.285C84.8101 192.85 80.0601 194.425 75.3151 197.785C72.2651 199.945 62.7601 211.09 56.3551 218.785C52.7951 223.06 50.1901 226.285 50.1901 226.285L9.24512 215.61C9.24512 215.61 12.6351 212.815 17.0951 209.045H17.1251L17.1701 209.01C24.5001 202.785 34.7151 194 37.5351 190.685C42.0801 185.345 48.4101 179 48.4101 179C48.0251 171.585 48.8101 164.56 48.1151 161.89C47.7551 160.495 47.1151 152.56 46.6151 150.12C45.4001 143.885 40.1151 137.425 39.5201 134.88C38.9251 132.335 31.9501 121.5 35.3551 119.5C35.9741 119.11 36.7099 118.949 37.4351 119.045C42.0351 119.68 45.8251 130.79 48.4351 133.62C49.5535 134.96 50.5665 136.384 51.4651 137.88C53.5251 141.145 55.5451 144.815 55.5451 144.815C56.3351 141.65 50.6001 130.375 49.0151 119.695C47.4301 109.015 42.8851 103.28 49.0151 102.62C49.5188 102.564 50.0287 102.608 50.5151 102.75C54.8301 104.01 56.7001 112.975 59.2801 121.675C59.5201 122.475 61.4851 128.22 63.0151 132.65C64.0151 135.55 64.8151 137.885 64.8151 137.885C65.0101 132.445 63.3151 127.385 63.0351 122.455C62.9151 120.48 63.5351 112.565 62.7551 104.655C62.0851 97.98 62.3901 95.275 65.0001 94.75C65.5592 94.6494 66.1291 94.6225 66.6951 94.67C71.2201 94.955 72.8251 106.98 72.8251 111.67C72.8251 114.395 73.2901 119.715 73.6801 123.705C73.9651 126.59 74.2101 128.78 74.2101 128.78C74.2101 128.78 75.0001 122.155 74.4101 107.865C74.2751 104.735 74.4801 102.495 75.7101 101.59C76.3851 101.09 77.3601 101.005 78.7601 101.385C82.7151 102.455 84.0001 117.11 84.0001 122.65C84.0001 128.19 87.1651 137.68 87.7601 145.15C88.3551 152.62 90.9451 161.8 90.9451 161.8C90.9451 161.8 92.4101 162.395 93.3951 162.2C94.3801 162.005 101.21 151.915 101.21 151.915C104.39 145.01 110.58 142.915 113.95 143.69C115.5 144.045 116.5 145 116.26 146.38Z" fill="white"/>
<path opacity="0.4" d="M116.26 146.38C116.105 147.355 110.72 154.49 107.555 159.83C104.39 165.17 101.425 174.465 100.63 175.83C99.835 177.195 90.13 185.72 87.47 189.285C84.81 192.85 80.06 194.425 75.315 197.785C72.265 199.945 62.76 211.09 56.355 218.785C57.06 215.995 58.64 212.43 62.77 209.005C69.94 203.05 70.37 198.38 74.225 194.425C78.08 190.47 84.87 191.655 87.31 186.925C89.75 182.195 98.26 177.825 100.04 173.67C101.82 169.515 98.26 168.635 101.425 163.635C104.59 158.635 107.66 157.42 107.21 155.46C106.76 153.5 105.43 150.53 108.175 148.055C109.89 146.515 111.905 144.58 113.965 143.69C115.5 144.045 116.5 145 116.26 146.38Z" fill="#E64848"/>
<path opacity="0.4" d="M64.9599 169.85C63.6449 169.19 64.6999 167.875 63.7749 166.78C62.8499 165.685 60.7399 172.755 60.2749 172.78C59.8099 172.805 58.3949 169.185 57.8349 168.825C57.2749 168.465 56.9449 169.98 56.1499 172.78C55.3549 175.58 52.4349 177 50.7399 179C49.0449 181 38.8499 191.875 36.3449 195.96C33.8399 200.045 18.3699 208.13 17.1699 209C24.4999 202.785 34.7149 194 37.5349 190.685C42.0799 185.345 48.4099 179 48.4099 179C48.0249 171.585 48.8099 164.56 48.1149 161.89C47.7549 160.495 47.1149 152.56 46.6149 150.12C45.3999 143.885 40.1149 137.425 39.5199 134.88C38.9249 132.335 31.9499 121.5 35.3549 119.5C35.9739 119.11 36.7097 118.949 37.4349 119.045C36.6599 119.595 35.9049 120.385 36.6099 121.545C37.8649 123.575 39.2449 125.71 39.2449 127.955C39.2449 130.2 43.0699 133.36 44.5549 135.455C46.0399 137.55 44.6549 136.81 45.6449 139.68C46.6349 142.55 47.8199 141.95 48.4099 144.85C48.9999 147.75 52.2999 149.6 51.7749 153.215C51.2499 156.83 53.3549 161.86 53.3549 161.86C53.3549 161.86 55.0699 156.985 54.4449 154.36C53.8199 151.735 54.5449 148.425 53.9449 147.535C53.4449 146.735 52.0749 141.305 51.4449 137.93C53.5049 141.195 55.5249 144.865 55.5249 144.865C56.3149 141.7 50.5799 130.425 48.9949 119.745C47.4099 109.065 42.8649 103.33 48.9949 102.67C49.4986 102.613 50.0085 102.658 50.4949 102.8C53.1099 107.685 51.2899 111.3 50.7099 113.42C50.0749 115.73 53.8549 121.66 54.4149 125.745C54.9149 129.56 55.9449 129.165 56.0799 129.095C55.9649 129.2 54.9899 130.195 55.5799 133.025C56.1949 136.025 60.5799 143.15 60.5799 145.14C60.5799 147.13 60.2199 150.405 60.2199 151.375C60.2199 152.345 63.7199 158.835 64.1399 160.535C64.5599 162.235 63.9749 157.26 64.9299 155.535C65.8849 153.81 66.3899 147.79 66.5149 148.115C68.1599 152.295 66.2799 170.5 64.9599 169.85Z" fill="#E64848"/>
<path opacity="0.4" d="M67.795 125.17C66.675 126.865 66.705 140.095 64.795 140.14C63.87 140.14 63.42 136.815 63.045 132.64C64.045 135.54 64.845 137.875 64.845 137.875C65.04 132.435 63.345 127.375 63.065 122.445C62.945 120.47 63.565 112.555 62.785 104.645C62.115 97.97 62.42 95.265 65.03 94.74C65.58 96.52 66.93 98.62 67.275 100.57C67.745 103.26 66.825 105.485 66.035 105.82C65.245 106.155 65.11 107.89 66.1 108.145C67.09 108.4 66.1 121.025 66.56 122.645C67.02 124.265 68.92 123.5 67.795 125.17Z" fill="#E64848"/>
<path opacity="0.4" d="M78.0701 110.36C76.0151 111.265 75.9051 112.885 75.2901 115.21C74.6751 117.535 76.1701 120.93 75.2901 126.265C74.4101 131.6 77.6201 135.04 75.2901 141.01C72.9601 146.98 74.0551 136.01 73.6651 131.01C73.5307 128.575 73.5407 126.134 73.6951 123.7C73.9801 126.585 74.2251 128.775 74.2251 128.775C74.2251 128.775 75.0151 122.15 74.4251 107.86C74.2901 104.73 74.4951 102.49 75.7251 101.585C77.8351 103.5 79.8201 109.59 78.0701 110.36Z" fill="#E64848"/>
<path d="M50.1899 226.29C50.1899 226.29 70.5649 201.17 75.3149 197.79C80.0649 194.41 84.8149 192.845 87.4699 189.29C90.1249 185.735 99.8399 177.22 100.63 175.835C101.42 174.45 104.39 165.155 107.555 159.835C110.72 154.515 116.105 147.335 116.26 146.385C116.95 142.03 105.875 141.835 101.225 151.925C101.225 151.925 94.3999 162.01 93.4099 162.21C92.4199 162.41 90.9599 161.81 90.9599 161.81C90.9599 161.81 88.3699 152.635 87.7749 145.16C87.1799 137.685 84.0149 128.185 84.0149 122.66C84.0149 117.135 82.7299 102.465 78.7749 101.395C74.8199 100.325 74.2199 103.035 74.4249 107.895C75.0149 122.185 74.2249 128.81 74.2249 128.81C74.2249 128.81 72.8399 116.395 72.8399 111.7C72.8399 107.005 71.2349 94.9801 66.7099 94.7001C62.5549 94.4351 61.9749 96.7701 62.7699 104.7C63.5649 112.63 62.9299 120.525 63.0499 122.5C63.3449 127.445 65.0499 132.5 64.8299 137.93C64.8299 137.93 59.6849 123.035 59.2899 121.71C56.4249 112 54.4399 102 48.9999 102.6C42.8699 103.26 47.4199 108.995 48.9999 119.675C50.5799 130.355 56.3199 141.63 55.5299 144.795C55.5299 144.795 50.7849 136.18 48.4199 133.6C45.4199 130.355 40.8899 116.215 35.3499 119.48C31.9449 121.48 38.9399 132.35 39.5299 134.895C40.1199 137.44 45.4099 143.895 46.6249 150.135C47.1249 152.575 47.7499 160.51 48.1249 161.905C48.8199 164.575 48.0349 171.6 48.4199 179.015C48.4199 179.015 42.0899 185.345 37.5449 190.685C32.9999 196.025 9.25488 215.61 9.25488 215.61" stroke="#1F1515" stroke-linecap="round" stroke-linejoin="round"/>
<path d="M90.96 161.805C91.8726 164.058 91.8726 166.577 90.96 168.83" stroke="#1F1515" stroke-linecap="round" stroke-linejoin="round"/>
<path d="M92.625 162.225C93.1926 162.642 93.6132 163.228 93.8261 163.899C94.0391 164.571 94.0335 165.292 93.81 165.96" stroke="#1F1515" stroke-linecap="round" stroke-linejoin="round"/>
<path d="M74.2251 128.775C74.2251 128.775 75.8101 139.95 75.1151 142.025" stroke="#1F1515" stroke-linecap="round" stroke-linejoin="round"/>
<path d="M64.8301 137.875C64.9998 138.955 64.9998 140.055 64.8301 141.135" stroke="#1F1515" stroke-linecap="round" stroke-linejoin="round"/>
<path d="M55.5352 144.795C55.5352 144.795 55.8302 146.48 55.5352 146.875" stroke="#1F1515" stroke-linecap="round" stroke-linejoin="round"/>
<path d="M105.675 154.29C105.675 154.29 107.465 155.26 108.05 156.665" stroke="#1F1515" stroke-linecap="round" stroke-linejoin="round"/>
<path d="M64.895 107.86C65.4752 107.999 66.0812 107.99 66.657 107.834C67.2328 107.678 67.76 107.379 68.19 106.965" stroke="#1F1515" stroke-linecap="round" stroke-linejoin="round"/>
<path d="M65.5 123.93C65.5 123.93 69.06 125.115 70.35 123.93" stroke="#1F1515" stroke-linecap="round" stroke-linejoin="round"/>
<path d="M77.0952 127.39C77.0952 127.39 79.4652 126.5 81.0502 126.995" stroke="#1F1515" stroke-linecap="round" stroke-linejoin="round"/>
<path d="M54.4453 130.555C54.4453 130.555 56.3253 128.08 57.8103 128.775" stroke="#1F1515" stroke-linecap="round" stroke-linejoin="round"/>
<path d="M46.7302 137.875C46.7302 137.875 45.0502 138.665 44.5552 139.505" stroke="#1F1515" stroke-linecap="round" stroke-linejoin="round"/>
<path d="M48.4102 179C48.8223 178.537 49.1874 178.035 49.5002 177.5C49.7952 176.905 49.4002 170.575 49.5002 166.5" stroke="#1F1515" stroke-linecap="round" stroke-linejoin="round"/>
<path d="M69.1603 203.92C66.8303 206.53 59.6853 211.26 56.8203 214.125" stroke="#1F1515" stroke-linecap="round" stroke-linejoin="round"/>
<path d="M78.575 144.795C77.39 148.16 78.675 152.41 78.575 154.295C78.475 156.18 78.075 164.795 78.075 164.795" stroke="#1F1515" stroke-linecap="round" stroke-linejoin="round"/>
<path d="M67.7952 144.795C66.2152 147.465 66.7102 151.025 67.2052 152.795C67.7002 154.565 67.2602 161.795 67.2602 161.795" stroke="#1F1515" stroke-linecap="round" stroke-linejoin="round"/>
<path d="M50.7849 153.3C50.6539 155.041 50.9996 156.785 51.7849 158.345" stroke="#1F1515" stroke-linecap="round" stroke-linejoin="round"/>
<path d="M60.575 148.06C59.685 151.325 60.875 152.805 60.975 153.3" stroke="#1F1515" stroke-linecap="round" stroke-linejoin="round"/>
<path opacity="0.3" d="M140.91 126.5L139.225 116.72C139.151 116.286 139.165 115.841 139.267 115.412C139.369 114.983 139.557 114.579 139.819 114.225C140.081 113.87 140.412 113.572 140.792 113.349C141.172 113.126 141.593 112.981 142.03 112.925L145.805 112.425C145.805 112.425 144.545 109.87 148.6 102.425C152.655 94.9801 172.15 75.2051 186.93 108.425C201.71 141.645 215.215 209.34 215.215 209.34C215.215 209.34 175.32 162.88 174.05 160.5C172.78 158.12 160.635 159.545 157.83 153.16C155.025 146.775 149.135 128.555 149.135 128.555L144.575 129.18C143.736 129.294 142.886 129.078 142.203 128.578C141.52 128.079 141.056 127.334 140.91 126.5Z" fill="black" fill-opacity="0.7"/>
<path d="M176.07 104.06L168.415 105.45L157.775 107.385L143.84 109.92C143.573 109.969 143.298 109.965 143.033 109.908C142.767 109.85 142.515 109.741 142.292 109.587C142.069 109.432 141.878 109.235 141.731 109.006C141.584 108.778 141.483 108.522 141.435 108.255L138.375 91.43C138.279 90.8905 138.4 90.3348 138.712 89.8842C139.024 89.4336 139.501 89.1248 140.04 89.025L148.145 87.525L159.935 85.385L172.27 83.14C172.537 83.0909 172.812 83.0951 173.077 83.1523C173.343 83.2095 173.595 83.3186 173.818 83.4733C174.042 83.6279 174.232 83.8252 174.379 84.0537C174.526 84.2822 174.627 84.5376 174.675 84.805L177.735 101.63C177.788 101.899 177.786 102.176 177.731 102.445C177.675 102.713 177.567 102.968 177.412 103.194C177.257 103.42 177.059 103.613 176.828 103.762C176.598 103.911 176.34 104.012 176.07 104.06Z" fill="#E64848"/>
<path opacity="0.3" d="M170.655 92.89L168.415 105.45L157.775 107.385C154.695 106.03 149.615 103.67 148.6 102.385C147.39 100.885 147.56 92.045 148.145 87.525L159.935 85.385C164.09 88.25 170.655 92.89 170.655 92.89Z" fill="black" fill-opacity="0.7"/>
<path opacity="0.3" d="M145.955 109.535L143.84 109.92C143.573 109.969 143.298 109.965 143.033 109.908C142.767 109.85 142.515 109.741 142.292 109.587C142.069 109.432 141.878 109.235 141.731 109.006C141.584 108.778 141.483 108.522 141.435 108.255L138.375 91.43C138.279 90.8905 138.4 90.3348 138.712 89.8842C139.024 89.4337 139.501 89.1248 140.04 89.025L142.15 88.64C141.611 88.7397 141.134 89.0488 140.823 89.4996C140.512 89.9504 140.392 90.5061 140.49 91.045L143.55 107.87C143.598 108.137 143.699 108.393 143.846 108.621C143.993 108.85 144.184 109.047 144.407 109.202C144.63 109.356 144.882 109.465 145.148 109.523C145.413 109.58 145.688 109.584 145.955 109.535Z" fill="black" fill-opacity="0.7"/>
<path d="M176.07 104.06L168.415 105.45L157.775 107.385L143.84 109.92C143.573 109.969 143.298 109.965 143.033 109.908C142.767 109.85 142.515 109.741 142.292 109.587C142.069 109.432 141.878 109.235 141.731 109.006C141.584 108.778 141.483 108.522 141.435 108.255L138.375 91.43C138.279 90.8905 138.4 90.3348 138.712 89.8842C139.024 89.4336 139.501 89.1248 140.04 89.025L148.145 87.525L159.935 85.385L172.27 83.14C172.537 83.0909 172.812 83.0951 173.077 83.1523C173.343 83.2095 173.595 83.3186 173.818 83.4733C174.042 83.6279 174.232 83.8252 174.379 84.0537C174.526 84.2822 174.627 84.5376 174.675 84.805L177.735 101.63C177.788 101.899 177.786 102.176 177.731 102.445C177.675 102.713 177.567 102.968 177.412 103.194C177.257 103.42 177.059 103.613 176.828 103.762C176.598 103.911 176.34 104.012 176.07 104.06V104.06Z" stroke="#1F1515" stroke-linecap="round" stroke-linejoin="round"/>
<path d="M173.796 82.2512L141.697 88.1471C140.576 88.3528 139.835 89.4279 140.041 90.5483L143.118 107.301C143.323 108.422 144.398 109.163 145.519 108.957L177.619 103.061C178.739 102.856 179.481 101.781 179.275 100.66L176.198 83.9072C175.992 82.7868 174.917 82.0454 173.796 82.2512Z" stroke="#1F1515" stroke-width="0.996394" stroke-linecap="round" stroke-linejoin="round"/>
<path d="M172.898 84.2744L142.649 89.7716C142.106 89.8704 141.745 90.3909 141.844 90.9343L144.857 107.513C144.955 108.056 145.476 108.417 146.019 108.318L176.269 102.821C176.812 102.722 177.173 102.201 177.074 101.658L174.061 85.0794C173.962 84.5361 173.442 84.1756 172.898 84.2744Z" stroke="#1F1515" stroke-linecap="round" stroke-linejoin="round"/>
<path d="M178.185 103.675L176.085 104.055C176.621 103.954 177.096 103.645 177.405 103.195C177.714 102.746 177.833 102.192 177.735 101.655L174.675 84.83C174.627 84.5625 174.526 84.3072 174.379 84.0787C174.232 83.8502 174.042 83.6529 173.818 83.4982C173.595 83.3436 173.343 83.2345 173.077 83.1773C172.812 83.1201 172.537 83.1159 172.27 83.165L174.385 82.78C174.925 82.6837 175.48 82.8047 175.931 83.1166C176.381 83.4286 176.69 83.9061 176.79 84.445L179.85 101.27C179.946 101.809 179.825 102.365 179.513 102.816C179.201 103.266 178.724 103.575 178.185 103.675V103.675Z" stroke="#1F1515" stroke-linecap="round" stroke-linejoin="round"/>
<path d="M239 157.57L218.295 213.11C218.295 213.11 209.635 196.61 201.635 181.34C195.245 169.13 189.275 157.68 188.47 155.995C186.665 152.2 180.5 144.25 180.5 144.25C180.5 144.25 174.175 140.63 171.28 134.325C168.385 128.02 165.2 105.465 165.2 105.465C165.2 105.465 156.885 102.335 154.9 100.965C152.915 99.595 151.105 86.935 151.105 85.49C151.105 84.045 153.105 81.15 153.105 81.15C153.105 81.15 152.66 79.03 155.2 76.89C156.03 76.2084 156.951 75.6448 157.935 75.215H157.985C157.985 75.215 157.655 70.43 160.145 69.035C160.264 68.9677 160.388 68.9092 160.515 68.86C162.735 68.005 170.015 66.9 170.015 66.9C171.044 65.9957 172.242 65.304 173.54 64.865C174.83 64.51 181.91 66.155 185.865 67.13C187.455 67.52 188.54 67.8 188.54 67.8C188.54 67.8 195.23 68.105 196.495 68.86C197.377 69.4385 198.184 70.1256 198.895 70.905L199.02 71.05C199.02 71.05 204.985 72.29 206.25 74.475C207.515 76.66 208.055 87.5 207.155 94.545C206.255 101.59 207.87 113.545 207.87 113.545C207.87 113.545 209.735 122.78 211.18 126.285C212.625 129.79 239 157.57 239 157.57Z" fill="white"/>
<path opacity="0.4" d="M201.635 181.34C195.245 169.13 189.275 157.68 188.47 155.995C186.665 152.2 180.5 144.25 180.5 144.25C180.5 144.25 174.175 140.63 171.28 134.325C168.385 128.02 165.2 105.465 165.2 105.465C165.2 105.465 156.885 102.335 154.9 100.965C152.915 99.595 151.105 86.935 151.105 85.49C151.105 84.045 153.105 81.15 153.105 81.15C153.105 81.15 152.66 79.03 155.2 76.89C155.2 77.46 155.2 78.42 155.2 79.93C155.14 82.795 158.515 100.07 159.35 99.545C160.185 99.02 161.475 97.755 161.135 96.64C161.135 96.64 159.5 89.935 157.955 75.215H158.005C158.005 75.215 157.675 70.43 160.165 69.035C159.737 70.0712 159.462 71.1644 159.35 72.28C159.295 74.61 162.065 94.575 163.15 95.08C164.235 95.585 166.985 92.925 166.985 92.925C166.985 92.925 166.045 87.26 166.38 84.845C166.38 84.845 174.745 89.945 174.995 95.735C175.02 96.37 176.625 105.445 176.625 105.445C176.625 105.445 169.43 119.145 176.775 131.645C176.775 131.645 173.04 129.405 172.15 125.845C172.15 125.845 171.065 136.315 178.78 141.845C178.78 141.845 184.315 136.41 189.78 135.72C189.78 135.72 189.88 136.08 186.22 138.965C182.56 141.85 182.065 143.135 182.065 143.135C182.065 143.135 186.025 139.135 189.19 138.965C189.19 138.965 185.925 142.74 186.025 143.53C186.125 144.32 195.36 160.11 198.72 171.125C200.09 175.725 201.025 179.045 201.635 181.34Z" fill="#E64848"/>
<path opacity="0.4" d="M175.705 76.55C175.705 76.55 178.37 78.55 179.16 76.55C179.614 75.4798 179.902 74.3469 180.015 73.19C180.015 73.19 181.04 72.72 182.015 75.19C182.99 77.66 192.765 78.29 195.055 79.555C197.345 80.82 198.255 79.555 198.255 79.555C198.788 79.9934 199.154 80.6023 199.291 81.2791C199.428 81.9558 199.327 82.659 199.005 83.27C197.895 85.565 201.04 85.77 202.26 84.08C203.48 82.39 202.535 88.915 199.52 89.58C199.52 89.58 199.605 92.43 197.665 94.385H199.31C199.31 94.385 194.93 97.86 193.765 98.05C192.6 98.24 198.1 100.185 197.08 100.595C196.06 101.005 193.17 100.97 193.17 100.97C193.17 100.97 195.04 102.265 195.055 103.12C195.07 103.975 194.17 104.62 193.765 103.905C193.36 103.19 190.13 92.95 188.52 89.165C186.91 85.38 180.26 82.385 175.705 76.55Z" fill="#E64848"/>
<path opacity="0.4" d="M198.89 70.87C193.28 69.335 185.755 67.15 185.755 67.15L185.86 67.095C187.45 67.485 188.535 67.765 188.535 67.765C188.535 67.765 195.225 68.07 196.49 68.825C197.372 69.4035 198.179 70.0905 198.89 70.87Z" fill="#E64848"/>
<path d="M191 79.695C186.12 78.695 182.635 82.865 182.635 82.865C182.635 82.865 187.485 87.255 188.56 89.14C189.635 91.025 191.42 97.38 191.42 97.38C193.465 97.71 197.235 95.6 198.14 90C199.045 84.4 195.855 80.69 191 79.695Z" fill="#E64848"/>
<path d="M218.295 213.11C218.295 213.11 190.295 159.79 188.47 155.995C186.645 152.2 180.5 144.25 180.5 144.25C180.5 144.25 174.175 140.63 171.28 134.325C168.385 128.02 165.2 105.465 165.2 105.465C165.2 105.465 156.885 102.335 154.9 100.965C152.915 99.595 151.105 86.935 151.105 85.49C151.105 84.045 153.105 81.15 153.105 81.15C153.105 81.15 152.385 77.725 157.985 75.19C157.985 75.19 157.625 69.945 160.515 68.835C162.735 67.98 170.015 66.875 170.015 66.875C171.044 65.9707 172.242 65.2791 173.54 64.84C175.345 64.34 188.54 67.775 188.54 67.775C188.54 67.775 195.23 68.08 196.495 68.835C197.42 69.4453 198.262 70.173 199 71C199 71 204.965 72.24 206.23 74.425C207.495 76.61 208.035 87.45 207.135 94.495C206.235 101.54 207.85 113.495 207.85 113.495C207.85 113.495 209.715 122.73 211.16 126.235C212.605 129.74 239 157.57 239 157.57" stroke="#1F1515" stroke-linecap="round" stroke-linejoin="round"/>
<path d="M194.59 104.73C194.59 104.73 193.325 104.46 191.7 98.495C190.075 92.53 189.645 89.74 186.275 86.205C183.885 83.705 178.415 79.62 175.705 76.55C172.995 73.48 170 71 167.66 72.9C165.79 74.4 164.57 78.295 166.215 84.305C168.33 92.025 175 95.7 175 95.7L176.63 105.41C176.63 105.41 169.555 119.58 177.53 132.955" stroke="#1F1515" stroke-linecap="round" stroke-linejoin="round"/>
<path d="M182.61 82.865C182.61 82.865 186.11 78.7 190.975 79.695C195.84 80.69 199 84.395 198.115 90C197.23 95.605 193.44 97.71 191.395 97.38" stroke="#1F1515" stroke-linecap="round" stroke-linejoin="round"/>
<path d="M170 66.865C169.27 68.7019 168.707 70.6014 168.32 72.54" stroke="#1F1515" stroke-linecap="round" stroke-linejoin="round"/>
<path d="M167.04 86.4451C167.04 86.4451 167.46 92.6201 168.33 94.5151C169.2 96.4101 170.645 97.9501 171.275 100.39C171.905 102.83 172 106.625 172.18 107.17C172.36 107.715 173.405 107.855 173.405 107.855C174.905 107.89 175.51 107.11 176.375 105.92" stroke="#1F1515" stroke-linecap="round" stroke-linejoin="round"/>
<path d="M158 75.1801C158 75.1801 159.355 88.3701 160.44 93.9751C161.525 99.5801 163.44 100.39 166.585 102.2C169.73 104.01 171.465 107.7 171.74 108.255C172.015 108.81 173.045 108.87 173.045 108.87C173.65 108.82 174.233 108.619 174.742 108.286C175.25 107.954 175.667 107.5 175.955 106.965" stroke="#1F1515" stroke-linecap="round" stroke-linejoin="round"/>
<path d="M153.11 81.14C152.77 81.665 155.67 95.06 157.18 98.945C158.69 102.83 158.86 103.445 162.855 104.545C166.85 105.645 169.885 107.475 170.965 106.83" stroke="#1F1515" stroke-linecap="round" stroke-linejoin="round"/>
<path d="M180.855 73.73C180.855 73.73 182.93 78.7 181.56 81.97" stroke="#1F1515" stroke-linecap="round" stroke-linejoin="round"/>
<path d="M188.535 67.765C191.936 69.1094 195.434 70.1909 199 71" stroke="#1F1515" stroke-linecap="round" stroke-linejoin="round"/>
<path d="M202.275 84.9401C202.275 84.9401 200.685 87.8451 198.275 88.4701" stroke="#1F1515" stroke-linecap="round" stroke-linejoin="round"/>
<path d="M198.27 81.775C198.27 81.775 197.7 83.275 197.095 83.69" stroke="#1F1515" stroke-linecap="round" stroke-linejoin="round"/>
<path d="M200.27 93.7051C200.27 93.7051 196.655 96.4401 193.185 97.1501" stroke="#1F1515" stroke-linecap="round" stroke-linejoin="round"/>
<path d="M191.7 98.5C191.7 98.5 193.2 100.395 197.095 100.575" stroke="#1F1515" stroke-linecap="round" stroke-linejoin="round"/>
<path d="M180 90.2051C180 90.2051 183.54 86.8051 185.56 87.2751" stroke="#1F1515" stroke-linecap="round" stroke-linejoin="round"/>
<path d="M186.93 90.895C186.93 90.895 184.25 92.895 183.76 92.895" stroke="#1F1515" stroke-linecap="round" stroke-linejoin="round"/>
<path d="M159.335 101.5C159.335 101.5 160.225 101.665 160.92 100.59" stroke="#1F1515" stroke-linecap="round" stroke-linejoin="round"/>
<path d="M162.5 96.63C162.5 96.63 164.65 95.3 166.055 95.045" stroke="#1F1515" stroke-linecap="round" stroke-linejoin="round"/>
<path d="M181.44 141.73C181.885 141.335 186.04 137.975 188.61 136.785" stroke="#1F1515" stroke-linecap="round" stroke-linejoin="round"/>
<path d="M186.83 140.14C186.535 140.05 184.175 142.52 182.93 143.51" stroke="#1F1515" stroke-linecap="round" stroke-linejoin="round"/>
<path d="M188 147.465C188 147.465 195.915 162.465 197.695 168.465" stroke="#1F1515" stroke-linecap="round" stroke-linejoin="round"/>
<path d="M211.18 126.255C211.85 129.94 214.025 132.655 215.215 134.125" stroke="#1F1515" stroke-linecap="round" stroke-linejoin="round"/>
<path opacity="0.4" d="M186.23 81.14C185.08 81.85 186.29 84.17 186.93 85.355C187.57 86.54 190.43 88.425 191.025 90.205C191.62 91.985 195.38 91.935 196.525 90.205C197.67 88.475 197.525 85.02 194.405 82.39C191.285 79.76 187.865 80.14 186.23 81.14Z" fill="white"/>
<path d="M164.275 180.785C159.183 179.92 153.948 180.805 149.423 183.297C144.899 185.788 141.352 189.739 139.361 194.505C137.371 199.272 137.054 204.572 138.462 209.541C139.87 214.511 142.92 218.857 147.115 221.87" stroke="#1F1515" stroke-linecap="round" stroke-linejoin="round"/>
<path d="M173.8 184.77C171.68 183.239 169.312 182.086 166.8 181.36" stroke="#1F1515" stroke-linecap="round" stroke-linejoin="round"/>
<path d="M171.5 223.29C174.582 221.584 177.227 219.188 179.229 216.29C181.231 213.391 182.535 210.069 183.039 206.583C183.544 203.097 183.235 199.541 182.137 196.194C181.039 192.847 179.182 189.8 176.71 187.29" stroke="#1F1515" stroke-linecap="round" stroke-linejoin="round"/>
<path d="M172.605 230.5L173.965 231.7L171.845 224.435" stroke="#1F1515" stroke-linecap="round" stroke-linejoin="round"/>
<path d="M156.605 225.83C159.967 226.407 163.415 226.22 166.695 225.285L171 229.085" stroke="#1F1515" stroke-linecap="round" stroke-linejoin="round"/>
<path d="M151.365 224.28C152.219 224.648 153.094 224.963 153.985 225.225" stroke="#1F1515" stroke-linecap="round" stroke-linejoin="round"/>
<path d="M162.245 192.195C165.077 192.679 167.625 194.206 169.388 196.475C171.151 198.743 172.001 201.59 171.77 204.454C171.539 207.318 170.245 209.991 168.142 211.949C166.039 213.906 163.279 215.006 160.406 215.03C157.533 215.055 154.755 214.003 152.618 212.082C150.482 210.161 149.142 207.51 148.862 204.651C148.582 201.791 149.383 198.931 151.106 196.632C152.83 194.333 155.352 192.763 158.175 192.23" stroke="#1F1515" stroke-linecap="round" stroke-linejoin="round"/>
<path d="M158.175 216.09C154.845 215.523 151.876 213.656 149.922 210.9C147.968 208.144 147.189 204.725 147.755 201.395" stroke="#1F1515" stroke-linecap="round" stroke-linejoin="round"/>
<path d="M172.295 207.86C171.511 210.029 170.153 211.944 168.367 213.402C166.58 214.86 164.432 215.806 162.15 216.14" stroke="#1F1515" stroke-linecap="round" stroke-linejoin="round"/>
<path d="M148.735 198.215C150.026 195.408 152.293 193.166 155.114 191.906C157.935 190.646 161.117 190.454 164.069 191.366C167.021 192.277 169.541 194.231 171.16 196.862C172.779 199.494 173.387 202.624 172.87 205.67" stroke="#1F1515" stroke-linecap="round" stroke-linejoin="round"/>
<path d="M167.96 198.94L168.105 198.785" stroke="#1F1515" stroke-width="2" stroke-linecap="round" stroke-linejoin="round"/>
<path d="M165.92 201.14L166.935 200.045" stroke="#1F1515" stroke-width="2" stroke-linecap="round" stroke-linejoin="round"/>
<path d="M153.465 202.755L158.37 209.275L165.03 202.1" stroke="#1F1515" stroke-width="2" stroke-linecap="round" stroke-linejoin="round"/>
</svg>
