<svg width="250" height="250" viewBox="0 0 250 250" fill="none" xmlns="http://www.w3.org/2000/svg">
<path d="M250 191.2H0V191.325H250V191.2Z" fill="#EBEBEB"/>
<path d="M224.95 199.245H208.39V199.37H224.95V199.245Z" fill="#EBEBEB"/>
<path d="M165.61 200.605H161.265V200.73H165.61V200.605Z" fill="#EBEBEB"/>
<path d="M207.89 194.605H198.295V194.73H207.89V194.605Z" fill="#EBEBEB"/>
<path d="M47.825 195.445H26.23V195.57H47.825V195.445Z" fill="#EBEBEB"/>
<path d="M55.445 195.445H52.28V195.57H55.445V195.445Z" fill="#EBEBEB"/>
<path d="M112.575 197.555H65.735V197.68H112.575V197.555Z" fill="#EBEBEB"/>
<path d="M118.5 168.9H21.955C21.1987 168.899 20.4738 168.597 19.9394 168.062C19.4051 167.527 19.105 166.801 19.105 166.045V30.33C19.1116 29.578 19.4146 28.859 19.9482 28.3291C20.4818 27.7992 21.203 27.5013 21.955 27.5H118.5C119.257 27.5 119.983 27.8008 120.519 28.3362C121.054 28.8716 121.355 29.5978 121.355 30.355V166.045C121.355 166.802 121.054 167.528 120.519 168.064C119.983 168.599 119.257 168.9 118.5 168.9ZM21.955 27.6C21.2318 27.6013 20.5387 27.8895 20.0278 28.4014C19.5169 28.9132 19.23 29.6068 19.23 30.33V166.045C19.23 166.768 19.5169 167.462 20.0278 167.974C20.5387 168.485 21.2318 168.774 21.955 168.775H118.5C119.224 168.774 119.917 168.486 120.429 167.974C120.941 167.462 121.229 166.769 121.23 166.045V30.33C121.229 29.6064 120.941 28.9127 120.429 28.4011C119.917 27.8894 119.224 27.6013 118.5 27.6H21.955Z" fill="#EBEBEB"/>
<path d="M226.655 168.9H130.105C129.348 168.899 128.623 168.597 128.088 168.062C127.553 167.527 127.251 166.802 127.25 166.045V30.33C127.258 29.5776 127.562 28.8585 128.096 28.3288C128.631 27.7991 129.353 27.5013 130.105 27.5H226.655C227.406 27.5026 228.126 27.8011 228.659 28.3309C229.191 28.8606 229.493 29.5789 229.5 30.33V166.045C229.5 166.8 229.201 167.525 228.667 168.06C228.134 168.595 227.41 168.897 226.655 168.9ZM130.105 27.6C129.381 27.6013 128.688 27.8894 128.176 28.4011C127.664 28.9127 127.376 29.6064 127.375 30.33V166.045C127.376 166.769 127.664 167.462 128.176 167.974C128.688 168.486 129.381 168.774 130.105 168.775H226.655C227.379 168.774 228.072 168.486 228.584 167.974C229.096 167.462 229.384 166.769 229.385 166.045V30.33C229.384 29.6064 229.096 28.9127 228.584 28.4011C228.072 27.8894 227.379 27.6013 226.655 27.6H130.105Z" fill="#EBEBEB"/>
<path d="M210.26 41.21H97.145V106.1H210.26V41.21Z" fill="#E6E6E6"/>
<path d="M213.285 41.21H98.56V106.1H213.285V41.21Z" fill="#F0F0F0"/>
<path d="M210.26 106.1H97.145V111.72H210.26V106.1Z" fill="#E6E6E6"/>
<path d="M218.32 106.1H103.595V111.72H218.32V106.1Z" fill="#F0F0F0"/>
<path d="M209.05 101.865V45.4399L102.79 45.4399V101.865H209.05Z" fill="#FAFAFA"/>
<path d="M110.6 101.865L135.44 45.4399H147.17L122.325 101.865H110.6Z" fill="white"/>
<path d="M104.75 97.655C104.67 97.6537 104.594 97.621 104.538 97.5639C104.481 97.5068 104.45 97.43 104.45 97.35V48.195C104.459 48.1215 104.495 48.0539 104.551 48.0049C104.607 47.956 104.678 47.929 104.753 47.929C104.827 47.929 104.898 47.956 104.954 48.0049C105.01 48.0539 105.046 48.1215 105.055 48.195V97.35C105.055 97.39 105.047 97.4297 105.032 97.4667C105.016 97.5037 104.994 97.5373 104.966 97.5657C104.937 97.594 104.904 97.6164 104.867 97.6318C104.83 97.6471 104.79 97.655 104.75 97.655Z" fill="#F0F0F0"/>
<path d="M124.845 101.865L149.69 45.4399H154.26L129.415 101.865H124.845Z" fill="white"/>
<path d="M209.05 101.865V45.4401H208.515V101.865H209.05Z" fill="#E6E6E6"/>
<path opacity="0.6" d="M214.285 51.825H101.17L100.78 47.085H213.895L214.285 51.825Z" fill="#EBEBEB"/>
<path opacity="0.6" d="M214.285 59.59H101.17L100.78 54.855H213.895L214.285 59.59Z" fill="#EBEBEB"/>
<path opacity="0.6" d="M214.285 67.36H101.17L100.78 62.625H213.895L214.285 67.36Z" fill="#EBEBEB"/>
<path opacity="0.6" d="M214.285 75.13H101.17L100.78 70.39H213.895L214.285 75.13Z" fill="#EBEBEB"/>
<path opacity="0.6" d="M214.285 82.9H101.17L100.78 78.16H213.895L214.285 82.9Z" fill="#EBEBEB"/>
<path opacity="0.6" d="M214.285 90.6651H101.17L100.78 85.9301H213.895L214.285 90.6651Z" fill="#EBEBEB"/>
<path d="M71.065 59.655H32.275V111.715H71.065V59.655Z" fill="#E6E6E6"/>
<path d="M73.77 59.655H32.86V111.715H73.77V59.655Z" fill="#F0F0F0"/>
<path d="M70.34 108.285V63.08H36.285V108.285H70.34Z" fill="white"/>
<path d="M53.08 97.64L46.83 91.39C45.3202 89.8763 44.4723 87.8256 44.4723 85.6875C44.4723 83.5495 45.3202 81.4988 46.83 79.985L53.08 73.73C53.1425 73.6699 53.2258 73.6362 53.3125 73.6362C53.3992 73.6362 53.4826 73.6699 53.545 73.73L59.8 80C61.3099 81.5138 62.1578 83.5645 62.1578 85.7025C62.1578 87.8406 61.3099 89.8913 59.8 91.405L53.545 97.655C53.5138 97.6851 53.4768 97.7086 53.4363 97.7241C53.3959 97.7396 53.3527 97.7469 53.3094 97.7455C53.266 97.7441 53.2234 97.7341 53.184 97.716C53.1446 97.6978 53.1093 97.672 53.08 97.64ZM53.315 74.43L47.315 80.43C45.9291 81.8208 45.151 83.7042 45.151 85.6675C45.151 87.6309 45.9291 89.5143 47.315 90.905L53.315 96.905L59.315 90.905C60.7033 89.5156 61.4832 87.6317 61.4832 85.6675C61.4832 83.7034 60.7033 81.8195 59.315 80.43L53.315 74.43Z" fill="#F0F0F0"/>
<path d="M111.67 137.635C111.415 137.635 111.17 137.635 110.895 137.66C105.395 138.1 100.985 143.32 100.635 149.75C100.557 151.177 100.679 152.608 101 154C102.21 159.545 102.792 165.209 102.735 170.885V187.47C102.735 188.67 103.565 189.645 104.59 189.645H141.19V137.645L111.67 137.635Z" fill="#F0F0F0"/>
<path d="M152.24 150.6C152.24 143.14 146.865 137.15 140.405 137.665C134.905 138.105 130.49 143.325 130.145 149.755C130.061 151.18 130.181 152.609 130.5 154C131.71 159.545 132.292 165.209 132.235 170.885V187.47C132.235 188.67 133.065 189.645 134.09 189.645H148.27C149.27 189.645 150.125 188.67 150.125 187.47V169.89C150.084 164.566 150.659 159.256 151.84 154.065C152.107 152.929 152.241 151.767 152.24 150.6Z" fill="#FAFAFA"/>
<path d="M125.94 160.225H87.315V189.62H125.94V160.225Z" fill="#F5F5F5"/>
<path d="M63.065 125H105.5C107.904 125 110.21 125.955 111.91 127.655C113.61 129.355 114.565 131.661 114.565 134.065V165.195H54V134.065C54 131.661 54.9551 129.355 56.6551 127.655C58.3551 125.955 60.6608 125 63.065 125Z" fill="#E6E6E6"/>
<path d="M69.66 125H107.875C109.048 125 110.21 125.231 111.294 125.68C112.378 126.129 113.363 126.787 114.193 127.617C115.023 128.447 115.681 129.432 116.13 130.516C116.579 131.6 116.81 132.762 116.81 133.935V165.195H60.72V133.935C60.72 132.761 60.9512 131.599 61.4006 130.515C61.8499 129.43 62.5085 128.445 63.3387 127.615C64.169 126.785 65.1545 126.127 66.2392 125.679C67.3238 125.23 68.4862 124.999 69.66 125Z" fill="#F5F5F5"/>
<path d="M89.805 159.165H125.905C126.421 159.165 126.916 159.37 127.28 159.735C127.645 160.099 127.85 160.594 127.85 161.11V164.24C127.85 164.756 127.645 165.251 127.28 165.615C126.916 165.98 126.421 166.185 125.905 166.185H89.805C89.6512 166.185 89.5036 166.124 89.3949 166.015C89.2861 165.906 89.225 165.759 89.225 165.605V159.745C89.225 159.591 89.2861 159.444 89.3949 159.335C89.5036 159.226 89.6512 159.165 89.805 159.165Z" fill="#EBEBEB"/>
<path d="M49.47 189.62H141.735V189.74C141.735 190.127 141.581 190.499 141.307 190.772C141.034 191.046 140.662 191.2 140.275 191.2H50.925C50.5378 191.2 50.1665 191.046 49.8927 190.772C49.6188 190.499 49.465 190.127 49.465 189.74V189.62H49.47Z" fill="#E6E6E6"/>
<path d="M50.025 137.635C49.77 137.635 49.525 137.635 49.25 137.66C43.75 138.1 39.335 143.32 38.99 149.75C38.9111 151.166 39.0306 152.587 39.345 153.97C40.5548 159.515 41.1368 165.179 41.08 170.855V187.44C41.08 188.64 41.91 189.615 42.935 189.615H87.84V137.615L50.025 137.635Z" fill="#F0F0F0"/>
<path d="M98.9 150.6C98.9 143.14 93.525 137.15 87.065 137.665C81.565 138.105 77.155 143.325 76.805 149.755C76.7261 151.171 76.8456 152.592 77.16 153.975C78.3698 159.52 78.9518 165.184 78.895 170.86V187.445C78.895 188.645 79.725 189.62 80.75 189.62H94.93C95.93 189.62 96.79 188.645 96.79 187.445V169.89C96.7472 164.567 97.321 159.256 98.5 154.065C98.7666 152.929 98.9008 151.767 98.9 150.6Z" fill="#FAFAFA"/>
<path d="M200.71 142.04C201.144 142.041 201.568 141.915 201.931 141.676C202.293 141.437 202.577 141.097 202.746 140.698C202.916 140.298 202.964 139.858 202.885 139.431C202.805 139.005 202.602 138.611 202.3 138.3C201.3 137.27 199.66 136.43 197.05 136.43C194.44 136.43 192.82 137.27 191.805 138.3C191.503 138.611 191.3 139.004 191.22 139.43C191.141 139.856 191.189 140.296 191.358 140.695C191.527 141.094 191.81 141.435 192.171 141.674C192.533 141.913 192.957 142.04 193.39 142.04H200.71Z" fill="#F5F5F5"/>
<path d="M208.055 141.22C208.332 141.217 208.601 141.133 208.831 140.978C209.06 140.823 209.239 140.605 209.345 140.349C209.452 140.094 209.481 139.813 209.429 139.541C209.378 139.269 209.248 139.019 209.055 138.82C208.405 138.155 207.36 137.62 205.685 137.62C204.01 137.62 202.965 138.155 202.315 138.82C202.122 139.019 201.992 139.269 201.941 139.541C201.889 139.813 201.918 140.094 202.025 140.349C202.131 140.605 202.31 140.823 202.539 140.978C202.769 141.133 203.038 141.217 203.315 141.22H208.055Z" fill="#F5F5F5"/>
<path d="M189.5 140.585C189.5 140.585 189.785 143.5 200.74 143.5C211.695 143.5 211.985 140.585 211.985 140.585H189.5Z" fill="#F0F0F0"/>
<path d="M177.88 135.68C177.786 135.683 177.692 135.693 177.6 135.71V134.71C177.601 134.606 177.581 134.503 177.541 134.406C177.502 134.31 177.444 134.222 177.37 134.148C177.297 134.074 177.21 134.016 177.114 133.976C177.017 133.936 176.914 133.915 176.81 133.915H172.565C172.355 133.916 172.154 134.001 172.006 134.15C171.858 134.299 171.775 134.5 171.775 134.71V143.5H177.6V142.08C177.693 142.095 177.786 142.105 177.88 142.11C178.499 142.109 179.092 141.862 179.53 141.425C179.967 140.987 180.214 140.394 180.215 139.775V138C180.21 137.384 179.962 136.794 179.524 136.36C179.087 135.926 178.496 135.681 177.88 135.68ZM179.215 139.775C179.214 140.129 179.073 140.467 178.823 140.718C178.572 140.968 178.234 141.109 177.88 141.11C177.786 141.11 177.692 141.1 177.6 141.08V136.71C177.692 136.69 177.786 136.68 177.88 136.68C178.234 136.681 178.572 136.822 178.823 137.073C179.073 137.323 179.214 137.661 179.215 138.015V139.775Z" fill="#E6E6E6"/>
<path d="M182.67 143.5H160.96V191.2H182.67V143.5Z" fill="#E6E6E6"/>
<path d="M182.665 191.2H220.855V143.5H182.665V191.2Z" fill="#F5F5F5"/>
<path d="M218.855 191.2V145.5H184.665V191.2H218.855Z" fill="#E6E6E6"/>
<path d="M193.3 191.2V145.5H184.67V191.2H193.3Z" fill="#E0E0E0"/>
<path d="M219.94 169.35V167.35H184.67V169.35H219.94Z" fill="#F5F5F5"/>
<path d="M196.165 167.35H188.665L190.89 150.92H196.165V167.35Z" fill="#E6E6E6"/>
<path d="M207.165 167.35H192.96L190.315 148.12H204.52L207.165 167.35Z" fill="#F0F0F0"/>
<path d="M209.065 167.35H194.28L191.635 148.12H206.42L209.065 167.35Z" fill="#F5F5F5"/>
<path d="M195.585 165.835L193.36 149.635H205.11L207.34 165.835H195.585Z" fill="white"/>
<path d="M198.5 160.62L197.76 155.255C197.732 155.042 197.75 154.826 197.813 154.621C197.876 154.416 197.982 154.227 198.124 154.066C198.266 153.905 198.441 153.777 198.637 153.69C198.833 153.602 199.046 153.558 199.26 153.56H200.7C201.064 153.556 201.417 153.685 201.693 153.923C201.969 154.16 202.149 154.49 202.2 154.85L202.935 160.21C202.964 160.423 202.946 160.64 202.884 160.846C202.821 161.051 202.715 161.241 202.573 161.403C202.431 161.564 202.256 161.692 202.059 161.78C201.863 161.868 201.65 161.912 201.435 161.91H200C199.636 161.914 199.283 161.785 199.007 161.547C198.731 161.31 198.551 160.98 198.5 160.62Z" fill="#F5F5F5"/>
<path d="M125 213.78C178.541 213.78 221.945 211.246 221.945 208.12C221.945 204.994 178.541 202.46 125 202.46C71.4587 202.46 28.055 204.994 28.055 208.12C28.055 211.246 71.4587 213.78 125 213.78Z" fill="#F5F5F5"/>
<path d="M81.6562 100.303C83.7326 87.5115 75.046 75.4584 62.2541 73.3819C49.4621 71.3055 37.4089 79.9921 35.3325 92.7841C33.2561 105.576 41.9427 117.629 54.7347 119.706C67.5266 121.782 79.5798 113.095 81.6562 100.303Z" fill="#E64848"/>
<path opacity="0.7" d="M81.6562 100.303C83.7326 87.5115 75.046 75.4584 62.2541 73.3819C49.4621 71.3055 37.4089 79.9921 35.3325 92.7841C33.2561 105.576 41.9427 117.629 54.7347 119.706C67.5266 121.782 79.5798 113.095 81.6562 100.303Z" fill="#FAFAFA"/>
<path d="M45.805 96.1449C45.805 93.1949 46.3367 91.1299 47.4 89.9499C48.4634 88.7699 50.0817 88.1799 52.255 88.1799C53.1295 88.1537 54.0015 88.2841 54.83 88.5649C55.4402 88.784 55.9997 89.1242 56.475 89.5649C56.8724 89.945 57.2096 90.3834 57.475 90.8649C57.7356 91.3702 57.9321 91.906 58.06 92.4599C58.3534 93.6458 58.4995 94.8633 58.495 96.0849C58.495 98.8983 58.0184 100.96 57.065 102.27C56.1117 103.58 54.47 104.233 52.14 104.23C51.0487 104.276 49.9621 104.062 48.97 103.605C48.1506 103.186 47.4596 102.554 46.97 101.775C46.5382 101.051 46.2417 100.255 46.095 99.4249C45.8875 98.3443 45.7903 97.2453 45.805 96.1449ZM50.085 96.1449C50.085 98.1216 50.2517 99.4716 50.585 100.195C50.6973 100.505 50.9004 100.775 51.1679 100.968C51.4354 101.162 51.755 101.271 52.085 101.28C52.5108 101.283 52.9205 101.118 53.225 100.82C53.5953 100.412 53.8416 99.9076 53.935 99.3649C54.1143 98.3401 54.1897 97.2999 54.16 96.2599C54.16 94.1933 53.9934 92.8066 53.66 92.0999C53.5361 91.7849 53.3199 91.5147 53.0398 91.3246C52.7596 91.1346 52.4286 91.0336 52.09 91.0349C51.7496 91.0294 51.4162 91.1319 51.1377 91.3278C50.8592 91.5236 50.65 91.8027 50.54 92.1249C50.2367 92.8549 50.085 94.1999 50.085 96.1599V96.1449Z" fill="#FAFAFA"/>
<path d="M70.055 88.1799V104H65.69V93.6499C65.0482 94.1469 64.3619 94.5837 63.64 94.9549C62.8349 95.3413 61.9986 95.6591 61.14 95.9049V92.3699C62.3742 92.0142 63.5331 91.4364 64.56 90.6649C65.3743 89.9997 66.0273 89.1587 66.47 88.2049L70.055 88.1799Z" fill="#FAFAFA"/>
<path d="M128.252 101.925C131.229 89.3125 123.417 76.6745 110.805 73.6976C98.1918 70.7208 85.5539 78.5322 82.577 91.145C79.6001 103.758 87.4115 116.396 100.024 119.373C112.637 122.35 125.275 114.538 128.252 101.925Z" fill="#E64848"/>
<path opacity="0.7" d="M128.252 101.925C131.229 89.3125 123.417 76.6745 110.805 73.6976C98.1918 70.7208 85.5539 78.5322 82.577 91.145C79.6001 103.758 87.4115 116.396 100.024 119.373C112.637 122.35 125.275 114.538 128.252 101.925Z" fill="#FAFAFA"/>
<path d="M91.765 96.1449C91.765 93.1949 92.2967 91.1299 93.36 89.9499C94.4234 88.7699 96.0417 88.1799 98.215 88.1799C99.0895 88.1537 99.9615 88.2841 100.79 88.5649C101.399 88.7829 101.957 89.1232 102.43 89.5649C102.829 89.944 103.166 90.3825 103.43 90.8649C103.691 91.3702 103.887 91.906 104.015 92.4599C104.308 93.6458 104.454 94.8633 104.45 96.0849C104.45 98.8983 103.973 100.96 103.02 102.27C102.067 103.58 100.425 104.233 98.095 104.23C97.0037 104.277 95.9169 104.063 94.925 103.605C94.1056 103.186 93.4146 102.554 92.925 101.775C92.4932 101.051 92.1967 100.255 92.05 99.4249C91.8442 98.3441 91.7487 97.2451 91.765 96.1449ZM96.045 96.1449C96.045 98.1216 96.2117 99.4716 96.545 100.195C96.6573 100.505 96.8604 100.775 97.1279 100.968C97.3954 101.162 97.715 101.271 98.045 101.28C98.2552 101.282 98.4637 101.242 98.6584 101.163C98.8532 101.084 99.0305 100.968 99.18 100.82C99.5541 100.415 99.801 99.909 99.89 99.3649C100.074 98.3407 100.151 97.3001 100.12 96.2599C100.12 94.1933 99.945 92.8066 99.595 92.0999C99.4708 91.7841 99.2538 91.5133 98.9727 91.3232C98.6915 91.1331 98.3594 91.0326 98.02 91.0349C97.6805 91.0305 97.3482 91.1335 97.0707 91.3292C96.7932 91.525 96.5847 91.8035 96.475 92.1249C96.2 92.8599 96.045 94.1999 96.045 96.1599V96.1449Z" fill="#FAFAFA"/>
<path d="M118.865 104H105.915C106.07 102.707 106.535 101.47 107.27 100.395C108.02 99.2716 109.43 97.9383 111.5 96.395C112.398 95.7907 113.214 95.0712 113.925 94.255C114.245 93.8615 114.43 93.3763 114.455 92.87C114.461 92.6438 114.42 92.4188 114.334 92.2095C114.248 92.0002 114.119 91.8113 113.955 91.655C113.588 91.3261 113.113 91.1442 112.62 91.1442C112.127 91.1442 111.652 91.3261 111.285 91.655C110.865 92.1782 110.618 92.8198 110.58 93.49L106.26 93.14C106.358 92.1342 106.677 91.1625 107.195 90.295C107.665 89.5967 108.329 89.051 109.105 88.725C110.195 88.3167 111.357 88.1314 112.52 88.18C113.723 88.1244 114.925 88.294 116.065 88.68C116.879 88.9942 117.578 89.551 118.065 90.275C118.548 90.9852 118.801 91.8264 118.79 92.685C118.785 93.6502 118.497 94.5926 117.96 95.395C117.143 96.5181 116.126 97.4809 114.96 98.235C114.09 98.835 113.51 99.255 113.22 99.495C112.93 99.735 112.585 100.05 112.185 100.44H118.925L118.865 104Z" fill="#FAFAFA"/>
<path d="M151.899 106.328C164.842 105.677 174.806 94.6566 174.155 81.7136C173.504 68.7706 162.484 58.8061 149.541 59.4572C136.598 60.1084 126.633 71.1286 127.285 84.0716C127.936 97.0146 138.956 106.979 151.899 106.328Z" fill="#E64848"/>
<path opacity="0.7" d="M151.899 106.328C164.842 105.677 174.806 94.6566 174.155 81.7136C173.504 68.7706 162.484 58.8061 149.541 59.4572C136.598 60.1084 126.633 71.1286 127.285 84.0716C127.936 97.0146 138.956 106.979 151.899 106.328Z" fill="#FAFAFA"/>
<path d="M138.735 87.4099C137.612 84.6799 137.317 82.5682 137.85 81.0749C138.383 79.5816 139.655 78.4149 141.665 77.5749C142.464 77.2176 143.321 77.0076 144.195 76.9549C144.843 76.9228 145.49 77.0267 146.095 77.2599C146.608 77.4586 147.087 77.7352 147.515 78.0799C147.95 78.4471 148.338 78.867 148.67 79.3299C149.391 80.3148 149.989 81.3844 150.45 82.5149C151.527 85.1182 151.872 87.2066 151.485 88.7799C151.098 90.3532 149.83 91.5932 147.68 92.4999C146.687 92.9543 145.601 93.1701 144.51 93.1299C143.599 93.0452 142.726 92.7209 141.98 92.1899C141.308 91.6853 140.732 91.0637 140.28 90.3549C139.666 89.4283 139.149 88.4416 138.735 87.4099ZM142.7 85.7899C143.45 87.6199 144.13 88.7899 144.725 89.3349C144.95 89.5815 145.244 89.7541 145.569 89.8299C145.894 89.9058 146.234 89.8814 146.545 89.7599C146.741 89.682 146.92 89.5658 147.071 89.4182C147.222 89.2705 147.343 89.0944 147.425 88.8999C147.615 88.3828 147.65 87.8215 147.525 87.2849C147.305 86.2673 146.98 85.2753 146.555 84.3249C145.765 82.4182 145.075 81.2032 144.485 80.6799C144.25 80.4358 143.946 80.2688 143.614 80.201C143.282 80.1331 142.937 80.1676 142.625 80.2999C142.312 80.4263 142.048 80.6479 141.868 80.9333C141.689 81.2187 141.604 81.5534 141.625 81.8899C141.598 82.6799 141.957 83.9799 142.7 85.7899Z" fill="#FAFAFA"/>
<path d="M154.76 77.3349L150.71 78.2099C150.509 77.0007 150.746 75.7594 151.38 74.7099C152.01 73.7099 153.14 72.8766 154.77 72.2099C156.645 71.4349 158.145 71.2099 159.27 71.5799C159.797 71.7292 160.282 71.9982 160.688 72.3659C161.094 72.7336 161.41 73.1902 161.61 73.6999C161.867 74.2971 161.932 74.9594 161.795 75.5949C161.623 76.3172 161.28 76.9876 160.795 77.5499C161.28 77.4626 161.775 77.4474 162.265 77.5049C162.848 77.5949 163.397 77.8382 163.855 78.2099C164.351 78.6242 164.732 79.1599 164.96 79.7649C165.306 80.6114 165.421 81.5343 165.295 82.4399C165.175 83.3876 164.77 84.2766 164.135 84.9899C163.3 85.8668 162.273 86.5378 161.135 86.9499C160.102 87.4232 158.989 87.698 157.855 87.7599C157.014 87.7743 156.184 87.5766 155.44 87.1849C154.647 86.7387 153.954 86.1366 153.4 85.4149L157.17 83.2449C157.494 83.8331 157.987 84.3104 158.585 84.6149C159.057 84.7886 159.578 84.7688 160.035 84.5599C160.29 84.4614 160.52 84.3083 160.709 84.1113C160.898 83.9144 161.042 83.6784 161.13 83.4199C161.324 82.8329 161.284 82.1938 161.02 81.6349C160.822 81.0573 160.408 80.5788 159.865 80.2999C159.61 80.1851 159.334 80.1257 159.055 80.1257C158.776 80.1257 158.5 80.1851 158.245 80.2999C157.815 80.5029 157.413 80.7618 157.05 81.0699L156.08 78.1349C156.263 78.091 156.444 78.0359 156.62 77.9699C157.109 77.7808 157.504 77.4073 157.72 76.9299C157.826 76.7126 157.883 76.4752 157.889 76.2337C157.895 75.9922 157.85 75.7522 157.755 75.5299C157.687 75.3337 157.579 75.1537 157.438 75.0014C157.297 74.849 157.126 74.7277 156.935 74.6449C156.736 74.5683 156.523 74.5332 156.31 74.5418C156.097 74.5504 155.887 74.6025 155.695 74.6949C155.482 74.773 155.286 74.8928 155.119 75.0473C154.953 75.2018 154.819 75.388 154.725 75.5949C154.551 76.1639 154.563 76.7734 154.76 77.3349Z" fill="#FAFAFA"/>
<path d="M222.106 101.93C225.083 89.3173 217.272 76.6793 204.659 73.7024C192.046 70.7255 179.408 78.537 176.431 91.1498C173.455 103.763 181.266 116.401 193.879 119.377C206.492 122.354 219.13 114.543 222.106 101.93Z" fill="#E64848"/>
<path opacity="0.7" d="M222.106 101.93C225.083 89.3173 217.272 76.6793 204.659 73.7024C192.046 70.7255 179.408 78.537 176.431 91.1498C173.455 103.763 181.266 116.401 193.879 119.377C206.492 122.354 219.13 114.543 222.106 101.93Z" fill="#FAFAFA"/>
<path d="M185.17 96.1449C185.17 93.1949 185.702 91.1299 186.765 89.9499C187.828 88.7699 189.447 88.1799 191.62 88.1799C192.494 88.1537 193.367 88.2841 194.195 88.5649C194.804 88.7829 195.362 89.1232 195.835 89.5649C196.234 89.944 196.571 90.3825 196.835 90.8649C197.096 91.3702 197.292 91.906 197.42 92.4599C197.713 93.6458 197.859 94.8633 197.855 96.0849C197.855 98.8983 197.378 100.96 196.425 102.27C195.472 103.58 193.83 104.237 191.5 104.24C190.409 104.287 189.322 104.073 188.33 103.615C187.511 103.196 186.82 102.564 186.33 101.785C185.898 101.061 185.602 100.265 185.455 99.4349C185.248 98.3508 185.153 97.2484 185.17 96.1449ZM189.45 96.1449C189.45 98.1216 189.625 99.4716 189.975 100.195C190.087 100.505 190.29 100.775 190.558 100.968C190.825 101.162 191.145 101.271 191.475 101.28C191.685 101.282 191.894 101.242 192.088 101.163C192.283 101.084 192.46 100.968 192.61 100.82C192.984 100.415 193.231 99.909 193.32 99.3649C193.504 98.3407 193.581 97.3001 193.55 96.2599C193.55 94.1933 193.375 92.8066 193.025 92.0999C192.901 91.7841 192.684 91.5133 192.403 91.3232C192.122 91.1331 191.789 91.0326 191.45 91.0349C191.11 91.0305 190.778 91.1335 190.501 91.3292C190.223 91.525 190.015 91.8035 189.905 92.1249C189.605 92.8549 189.453 94.1999 189.45 96.1599V96.1449Z" fill="#FAFAFA"/>
<path d="M207.055 101.075H199.195V97.5249L207.055 88.1799H210.815V97.7249H212.765V101.075H210.815V104H207.055V101.075ZM207.055 97.7249V92.8399L202.9 97.7249H207.055Z" fill="#FAFAFA"/>
<path d="M199.275 122.175C198.612 122.175 197.976 121.911 197.507 121.443C197.038 120.974 196.775 120.338 196.775 119.675C196.775 119.012 197.038 118.376 197.507 117.907C197.976 117.438 198.612 117.175 199.275 117.175C203.422 117.176 207.476 115.947 210.924 113.644C214.372 111.341 217.06 108.067 218.648 104.236C220.235 100.406 220.651 96.19 219.843 92.1229C219.034 88.0557 217.038 84.3197 214.106 81.3872C211.174 78.4547 207.439 76.4574 203.372 75.6481C199.305 74.8387 195.089 75.2536 191.258 76.8403C187.427 78.4269 184.152 81.114 181.849 84.5618C179.545 88.0096 178.315 92.0632 178.315 96.2099C178.315 103.096 175.579 109.701 170.71 114.57C165.841 119.439 159.236 122.175 152.35 122.175C145.464 122.175 138.859 119.439 133.99 114.57C129.121 109.701 126.385 103.096 126.385 96.2099C126.385 90.6496 124.176 85.3171 120.245 81.3854C116.313 77.4537 110.98 75.2449 105.42 75.2449C99.8598 75.2449 94.5272 77.4537 90.5955 81.3854C86.6638 85.3171 84.455 90.6496 84.455 96.2099C84.455 101.346 82.932 106.366 80.0785 110.636C77.2249 114.906 73.1692 118.234 68.4241 120.199C63.679 122.164 58.4578 122.678 53.4208 121.675C48.3838 120.673 43.7573 118.199 40.1265 114.566C36.4956 110.934 34.0235 106.307 33.0227 101.269C32.022 96.2319 32.5376 91.0109 34.5044 86.2666C36.4711 81.5223 39.8007 77.4678 44.0719 74.6159C48.3432 71.764 53.3642 70.2429 58.5 70.2449C59.1631 70.2449 59.799 70.5083 60.2678 70.9771C60.7366 71.446 61 72.0818 61 72.7449C61 73.4079 60.7366 74.0438 60.2678 74.5126C59.799 74.9815 59.1631 75.2449 58.5 75.2449C54.3535 75.2449 50.3002 76.4745 46.8525 78.7781C43.4048 81.0818 40.7177 84.3561 39.1309 88.1869C37.5441 92.0178 37.1289 96.2331 37.9379 100.3C38.7468 104.367 40.7435 108.102 43.6755 111.034C46.6076 113.966 50.3432 115.963 54.41 116.772C58.4768 117.581 62.6921 117.166 66.523 115.579C70.3538 113.992 73.6281 111.305 75.9318 107.857C78.2355 104.41 79.465 100.356 79.465 96.2099C79.465 89.3235 82.2006 82.7192 87.07 77.8499C91.9394 72.9805 98.5437 70.2449 105.43 70.2449C112.316 70.2449 118.921 72.9805 123.79 77.8499C128.659 82.7192 131.395 89.3235 131.395 96.2099C131.395 98.963 131.937 101.689 132.991 104.233C134.044 106.776 135.589 109.088 137.536 111.034C139.482 112.981 141.793 114.525 144.337 115.579C146.881 116.633 149.607 117.175 152.36 117.175C155.113 117.175 157.839 116.633 160.383 115.579C162.927 114.525 165.238 112.981 167.185 111.034C169.131 109.088 170.676 106.776 171.729 104.233C172.783 101.689 173.325 98.963 173.325 96.2099C173.325 91.0743 174.848 86.054 177.701 81.784C180.555 77.5139 184.61 74.186 189.355 72.2209C194.1 70.2558 199.321 69.7419 204.357 70.7442C209.394 71.7464 214.021 74.2198 217.652 77.8516C221.283 81.4834 223.755 86.1104 224.757 91.1474C225.758 96.1845 225.243 101.405 223.277 106.15C221.311 110.894 217.982 114.949 213.712 117.801C209.441 120.654 204.421 122.176 199.285 122.175H199.275Z" fill="#E64848"/>
<path d="M173.885 113.635L173.5 113.32C174.639 111.912 175.635 110.394 176.475 108.79L176.92 109.025C176.061 110.657 175.044 112.201 173.885 113.635Z" fill="#E64848"/>
<path d="M162.585 121.965L162.4 121.5C165.545 120.247 168.428 118.417 170.9 116.105L171.24 116.47C168.722 118.825 165.787 120.688 162.585 121.965Z" fill="#E64848"/>
<path d="M95.09 204.37H98.76L99.125 195.86H95.455L95.09 204.37Z" fill="#FFC3BD"/>
<path opacity="0.2" d="M99.125 195.865L98.94 200.25H95.265L95.45 195.865H99.125Z" fill="black"/>
<path d="M68.165 201.485L71.755 202.26L75.36 194.34L71.77 193.56L68.165 201.485Z" fill="#FFC3BD"/>
<path opacity="0.2" d="M71.765 193.565L75.36 194.34L73.5 198.425L69.91 197.65L71.765 193.565Z" fill="black"/>
<path d="M87.235 84.625C85.975 86.84 84.705 89.125 83.49 91.4C82.275 93.675 81.085 95.965 80.075 98.245C79.81 98.82 79.575 99.385 79.355 99.95C79.355 100.005 79.355 99.95 79.355 99.95C79.355 99.95 79.355 99.985 79.355 100.025C79.3368 100.169 79.3368 100.316 79.355 100.46C79.4462 100.933 79.5957 101.393 79.8 101.83C80.0321 102.355 80.2924 102.868 80.58 103.365C81.8804 105.52 83.3254 107.585 84.905 109.545L83.015 111.545C80.7763 109.896 78.7597 107.965 77.015 105.8C76.0007 104.576 75.2164 103.178 74.7 101.675C74.5462 101.188 74.4521 100.685 74.42 100.175C74.393 99.8723 74.393 99.5677 74.42 99.265C74.4369 99.0969 74.4637 98.93 74.5 98.765C74.5 98.685 74.54 98.6 74.56 98.515L74.625 98.3C74.845 97.63 75.06 96.95 75.305 96.3C76.2641 93.7532 77.359 91.2596 78.585 88.83C79.795 86.42 81.06 84.09 82.47 81.76L87.235 84.625Z" fill="#FFC3BD"/>
<path d="M84.195 108.905L86.775 109.755L84.605 113.405C84.605 113.405 82.715 112.55 82.335 110.81L84.195 108.905Z" fill="#FFC3BD"/>
<path d="M90.29 111.165L87.78 113.975L84.605 113.405L86.775 109.755L90.29 111.165Z" fill="#FFC3BD"/>
<path d="M99.565 64.6801C99.625 64.9701 99.825 65.1801 100.015 65.1351C100.205 65.0901 100.31 64.8301 100.25 64.5401C100.19 64.2501 99.99 64.0401 99.8 64.0851C99.61 64.1301 99.5 64.3901 99.565 64.6801Z" fill="#263238"/>
<path d="M99.8 65.1801C100.326 65.9965 100.962 66.7367 101.69 67.3801C101.521 67.5623 101.313 67.7051 101.083 67.7984C100.852 67.8917 100.604 67.9332 100.355 67.9201L99.8 65.1801Z" fill="#ED847E"/>
<path d="M98.175 63.2851C98.1303 63.2835 98.0877 63.2657 98.055 63.2351C98.023 63.2024 98.005 63.1584 98.005 63.1126C98.005 63.0668 98.023 63.0228 98.055 62.9901C98.2402 62.7804 98.4733 62.6186 98.7345 62.5185C98.9957 62.4184 99.2772 62.3829 99.555 62.4151C99.6007 62.4225 99.6417 62.4476 99.6688 62.4851C99.696 62.5226 99.7072 62.5693 99.7 62.6151C99.6915 62.6602 99.666 62.7003 99.6288 62.7273C99.5916 62.7543 99.5456 62.766 99.5 62.7601C99.2821 62.7392 99.0623 62.7705 98.8589 62.8514C98.6555 62.9322 98.4742 63.0603 98.33 63.2251C98.3118 63.2479 98.2879 63.2655 98.2606 63.276C98.2334 63.2866 98.2039 63.2897 98.175 63.2851Z" fill="#263238"/>
<path d="M91.295 68.76C91.795 71.45 92.345 76.375 90.465 78.165C90.465 78.165 91.2 80.89 96.195 80.89C101.695 80.89 98.82 78.165 98.82 78.165C95.82 77.45 95.9 75.23 96.42 73.14L91.295 68.76Z" fill="#FFC3BD"/>
<path d="M89.715 78.77C89.315 78.27 88.88 77.645 89.78 77.455C90.78 77.25 96.215 77.035 98.09 77.425C99.965 77.815 99.43 78.88 99.43 78.88L89.715 78.77Z" fill="white"/>
<path d="M73.155 202.76C73.3033 202.813 73.4605 202.835 73.6175 202.827C73.7746 202.818 73.9284 202.778 74.07 202.71C74.1247 202.66 74.1624 202.594 74.1776 202.521C74.1929 202.449 74.185 202.373 74.155 202.305C74.1389 202.248 74.1103 202.196 74.0714 202.152C74.0324 202.108 73.9841 202.073 73.93 202.05C73.43 201.81 72.295 202.275 72.245 202.295C72.2295 202.302 72.2162 202.313 72.2065 202.328C72.1968 202.342 72.1911 202.358 72.19 202.375C72.1906 202.392 72.1956 202.408 72.2044 202.422C72.2131 202.436 72.2254 202.447 72.24 202.455C72.5334 202.589 72.8401 202.691 73.155 202.76ZM73.75 202.17L73.855 202.205C73.8865 202.219 73.9145 202.239 73.937 202.265C73.9595 202.291 73.9759 202.322 73.985 202.355C74.035 202.51 73.985 202.56 73.955 202.575C73.76 202.745 73.025 202.575 72.51 202.38C72.9031 202.221 73.3263 202.149 73.75 202.17Z" fill="#E64848"/>
<path d="M72.26 202.46H72.3C72.72 202.34 73.605 201.705 73.615 201.29C73.6165 201.225 73.5954 201.162 73.5553 201.11C73.5152 201.059 73.4585 201.024 73.395 201.01C73.3324 200.987 73.2657 200.978 73.1993 200.984C73.133 200.989 73.0684 201.008 73.01 201.04C72.51 201.29 72.21 202.305 72.195 202.35C72.1876 202.363 72.1837 202.378 72.1837 202.392C72.1837 202.407 72.1876 202.422 72.195 202.435C72.213 202.451 72.2361 202.46 72.26 202.46ZM73.3 201.16H73.335C73.445 201.195 73.445 201.25 73.445 201.27C73.445 201.515 72.85 202.01 72.445 202.215C72.5604 201.811 72.7936 201.451 73.115 201.18C73.1733 201.155 73.2378 201.148 73.3 201.16Z" fill="#E64848"/>
<path d="M100.235 204.555C100.71 204.555 101.165 204.49 101.315 204.28C101.354 204.224 101.375 204.158 101.375 204.09C101.375 204.022 101.354 203.956 101.315 203.9C101.284 203.849 101.244 203.804 101.196 203.769C101.148 203.734 101.093 203.709 101.035 203.695C100.425 203.53 99.14 204.26 99.09 204.295C99.0733 204.303 99.0598 204.316 99.0516 204.332C99.0434 204.348 99.0411 204.367 99.045 204.385C99.0486 204.402 99.0571 204.418 99.0695 204.431C99.082 204.443 99.0978 204.451 99.115 204.455C99.4849 204.52 99.8595 204.553 100.235 204.555ZM100.82 203.845C100.875 203.837 100.93 203.837 100.985 203.845C101.02 203.851 101.054 203.865 101.083 203.886C101.113 203.907 101.137 203.934 101.155 203.965C101.22 204.075 101.195 204.13 101.155 204.16C100.985 204.395 100.055 204.4 99.37 204.305C99.8188 204.059 100.311 203.903 100.82 203.845Z" fill="#E64848"/>
<path d="M99.125 204.455H99.16C99.605 204.255 100.485 203.455 100.415 203.045C100.415 202.945 100.33 202.825 100.095 202.8C100.006 202.79 99.9156 202.798 99.8297 202.824C99.7438 202.85 99.664 202.893 99.595 202.95C99.13 203.335 99.03 204.325 99.025 204.365C99.0231 204.38 99.0253 204.396 99.0315 204.41C99.0376 204.424 99.0475 204.436 99.06 204.445C99.0798 204.456 99.1029 204.46 99.125 204.455ZM100.025 202.955H100.075C100.23 202.955 100.24 203.03 100.245 203.05C100.285 203.3 99.69 203.925 99.245 204.195C99.2931 203.776 99.4675 203.382 99.745 203.065C99.8261 203.004 99.9237 202.969 100.025 202.965V202.955Z" fill="#E64848"/>
<path d="M72.1 201.9L68.065 201.03C67.9941 201.014 67.9197 201.023 67.8548 201.055C67.7899 201.088 67.7387 201.143 67.71 201.21L66.31 204.245C66.2759 204.319 66.2591 204.399 66.2607 204.481C66.2624 204.562 66.2826 204.642 66.3197 204.714C66.3568 204.786 66.4099 204.849 66.4749 204.898C66.5399 204.946 66.6152 204.98 66.695 204.995C68.11 205.28 68.81 205.345 70.585 205.73C71.675 205.965 74.14 206.565 75.645 206.89C77.15 207.215 77.67 205.77 77.085 205.5C74.45 204.295 73.35 203.235 72.635 202.25C72.5052 202.072 72.315 201.948 72.1 201.9Z" fill="#263238"/>
<path d="M98.735 203.945H94.735C94.6621 203.945 94.5913 203.97 94.5342 204.015C94.4771 204.061 94.4368 204.124 94.42 204.195L93.695 207.46C93.6777 207.539 93.6784 207.621 93.697 207.699C93.7157 207.777 93.7519 207.851 93.8029 207.913C93.8538 207.976 93.9183 208.026 93.9914 208.06C94.0645 208.094 94.1444 208.111 94.225 208.11C95.67 208.11 97.765 208.005 99.58 208.005C101.71 208.005 103.545 208.12 106.04 208.12C107.54 208.12 107.965 206.595 107.335 206.455C104.46 205.83 102.115 205.76 99.63 204.23C99.3642 204.053 99.0541 203.954 98.735 203.945Z" fill="#263238"/>
<path d="M100.055 79.07C102.905 78.775 105.855 78.4 108.71 77.95C111.518 77.5525 114.29 76.9339 117 76.1C117.315 75.995 117.615 75.88 117.915 75.76C118.163 75.6604 118.404 75.5434 118.635 75.41C119.185 75.1 119.79 74.725 120.38 74.33C121.57 73.535 122.78 72.695 123.975 71.83L131.23 66.615L133.07 68.67C131.03 70.925 128.905 73.065 126.67 75.13C125.55 76.16 124.41 77.18 123.17 78.16C122.555 78.66 121.94 79.16 121.215 79.615C120.817 79.8865 120.401 80.1304 119.97 80.345C119.58 80.53 119.19 80.705 118.805 80.845C117.314 81.4482 115.784 81.9493 114.225 82.345C112.725 82.755 111.19 83.08 109.675 83.37C106.641 83.9514 103.579 84.3687 100.5 84.62L100.055 79.07Z" fill="#FFC3BD"/>
<path d="M83.89 79.0001C80.445 79.7901 74.665 96.8851 74.665 96.8851L80.29 98.7551C80.29 98.7551 86.03 90.2551 87.98 86.1501C90 81.8501 87.41 78.1901 83.89 79.0001Z" fill="#263238"/>
<path d="M81.27 97.9101C81.27 97.9101 75.77 96.8601 74.505 96.0801C74.065 96.7151 73.505 99.0301 73.895 99.7101C74.285 100.39 79.395 101.38 80.08 100.975C80.765 100.57 81.27 97.9101 81.27 97.9101Z" fill="#263238"/>
<path opacity="0.2" d="M81.27 97.9101C81.27 97.9101 75.77 96.8601 74.505 96.0801C74.065 96.7151 73.505 99.0301 73.895 99.7101C74.285 100.39 79.395 101.38 80.08 100.975C80.765 100.57 81.27 97.9101 81.27 97.9101Z" fill="#FAFAFA"/>
<path d="M104.47 79.185C104.47 79.185 108.375 83.6 104.685 110.935H85.04C84.905 107.935 86.8 93.205 83.89 78.995C86.0615 78.5769 88.2577 78.2996 90.465 78.165C93.2477 78.0049 96.0373 78.0049 98.82 78.165C100.727 78.3578 102.616 78.6988 104.47 79.185Z" fill="#263238"/>
<path d="M97.5 85.03C101.025 88.665 118.695 81.415 118.695 81.415L115.86 75.96C115.86 75.96 104.81 78.255 100.27 78.165C94.67 78.05 94.835 82.265 97.5 85.03Z" fill="#263238"/>
<path d="M115 75.855C115 75.855 117.815 80.71 118.04 82.165C118.815 82.085 120.915 80.98 121.19 80.25C121.465 79.52 118.855 75.01 118.095 74.75C117.335 74.49 115 75.855 115 75.855Z" fill="#263238"/>
<path opacity="0.2" d="M115 75.855C115 75.855 117.815 80.71 118.04 82.165C118.815 82.085 120.915 80.98 121.19 80.25C121.465 79.52 118.855 75.01 118.095 74.75C117.335 74.49 115 75.855 115 75.855Z" fill="#FAFAFA"/>
<path d="M131.115 66.665L133.615 63.72L136.305 66.72C136.305 66.72 134.645 69.505 132.01 69.065L131.115 66.665Z" fill="#FFC3BD"/>
<path d="M137.13 62.3301L139.555 63.7201L136.33 66.7051L133.635 63.7201L137.13 62.3301Z" fill="#FFC3BD"/>
<path d="M89.755 66.03C90.7 69.555 91.075 71.66 93.255 73.125C96.525 75.33 100.595 72.8 100.72 69.07C100.835 65.71 99.275 60.515 95.495 59.805C94.6617 59.6416 93.8005 59.6945 92.9935 59.9585C92.1865 60.2225 91.4606 60.6888 90.885 61.3131C90.3094 61.9373 89.9033 62.6986 89.7055 63.5243C89.5077 64.3501 89.5247 65.2127 89.755 66.03Z" fill="#FFC3BD"/>
<path d="M97.47 52.64C99.97 57.9 86.995 54.985 86.905 59.76C86.905 59.96 86.905 60.14 86.905 60.315C86.535 59.97 85.79 59.59 84.505 60.11C85.2585 60.3946 85.941 60.8399 86.505 61.415C86.005 61.84 85.245 62.065 85.57 64.1C85.725 65.1 86.72 66.6 88.015 67.93C88.58 68.835 90.415 70.89 90.38 71.385C90.6606 71.3861 90.9383 71.3282 91.195 71.215C91.2759 71.4025 91.3119 71.6062 91.3 71.81C91.98 71.94 92.515 71.845 92.575 71.375C93.13 71.425 93.53 71.275 93.55 70.83C94.08 70.905 94.445 70.735 94.42 70.165C95.68 69.475 96.11 68.02 96.34 66.395C96.607 64.3388 97.6367 62.4579 99.225 61.125C101.77 59.09 102.77 55.88 97.47 52.64Z" fill="#263238"/>
<path d="M94.815 65.845C95.0587 66.7209 95.5863 67.4912 96.315 68.035C97.275 68.745 97.985 68.035 97.92 66.965C97.86 65.965 97.285 64.465 96.23 64.16C95.175 63.855 94.54 64.785 94.815 65.845Z" fill="#FFC3BD"/>
<path d="M97.715 110.935C97.715 110.935 93.545 139 91.26 149.5C88.76 161 75.35 197.94 75.35 197.94L68.775 196.515C68.775 196.515 78.81 161.95 80.24 150.545C81.79 138.17 85.04 110.915 85.04 110.915L97.715 110.935Z" fill="#E64848"/>
<path opacity="0.5" d="M97.715 110.935C97.715 110.935 93.545 139 91.26 149.5C88.76 161 75.35 197.94 75.35 197.94L68.775 196.515C68.775 196.515 78.81 161.95 80.24 150.545C81.79 138.17 85.04 110.915 85.04 110.915L97.715 110.935Z" fill="black"/>
<path opacity="0.3" d="M95.08 120.935C90.26 121.88 90.77 139.855 91.35 149.1C92.74 142.565 94.775 129.99 96.165 121.065C95.8287 120.899 95.4459 120.853 95.08 120.935Z" fill="black"/>
<path d="M104.685 110.935C104.685 110.935 105.185 138.4 104.79 149.6C104.375 161.25 100.29 199.4 100.29 199.4H94.085C94.085 199.4 93.855 161.93 93.585 150.49C93.28 137.99 91.775 110.935 91.775 110.935H104.685Z" fill="#E64848"/>
<path opacity="0.5" d="M104.685 110.935C104.685 110.935 105.185 138.4 104.79 149.6C104.375 161.25 100.29 199.4 100.29 199.4H94.085C94.085 199.4 93.855 161.93 93.585 150.49C93.28 137.99 91.775 110.935 91.775 110.935H104.685Z" fill="black"/>
<path opacity="0.2" d="M99 194.93C98.9916 194.929 98.9835 194.927 98.9761 194.923C98.9687 194.919 98.9622 194.914 98.957 194.907C98.9518 194.901 98.9481 194.893 98.946 194.885C98.9439 194.877 98.9436 194.868 98.945 194.86C100.04 184.31 102.625 158.77 102.945 149.595C103.28 140.225 102.98 119.255 102.875 113.05C102.875 113.033 102.882 113.016 102.894 113.004C102.906 112.992 102.923 112.985 102.94 112.985C102.956 112.985 102.971 112.991 102.982 113.003C102.994 113.014 103 113.029 103 113.045C103.105 119.25 103.405 140.225 103.07 149.6C102.745 158.78 100.16 184.32 99.07 194.875C99.0694 194.883 99.0671 194.892 99.0632 194.899C99.0593 194.906 99.0538 194.913 99.0472 194.918C99.0406 194.923 99.033 194.927 99.0249 194.929C99.0168 194.931 99.0083 194.931 99 194.93Z" fill="#FAFAFA"/>
<path d="M76.9251 195.765C76.9551 195.765 75.7001 198.14 75.7001 198.14L68.3051 196.54L68.9251 194.315L76.9251 195.765Z" fill="#263238"/>
<path d="M101.5 196.92C101.53 196.92 101.15 199.505 101.15 199.505H93.585L93.38 197.2L101.5 196.92Z" fill="#263238"/>
</svg>
